<svg xmlns="http://www.w3.org/2000/svg" xmlns:xlink="http://www.w3.org/1999/xlink" viewBox="0 0 653.89 135.41">
  <defs>
    <style>
      .a {
        fill: none;
      }

      .b {
        fill: #033b7f;
      }

      .c {
        fill: #0084ce;
      }

      .d {
        fill: #003e89;
      }

      .e {
        fill: #0071bc;
      }

      .f {
        clip-path: url(#a);
      }

      .g {
        fill: #fff597;
      }

      .h {
        fill: #ea5153;
      }
    </style>
    <clipPath id="a" transform="translate(0 -0.25)">
      <path class="a" d="M75.33,2.25,38.13,100c3.71,9.42,30,10.57,40.46,10.57S115.18,109,119,100L81.85,2.25A3.49,3.49,0,0,0,75.33,2.25Z"/>
    </clipPath>
  </defs>
  <title>Ресурс 1</title>
  <g>
    <g>
      <ellipse class="b" cx="78.78" cy="105.63" rx="78.78" ry="29.78"/>
      <ellipse class="c" cx="78.59" cy="103.21" rx="78.59" ry="29.62"/>
      <ellipse class="d" cx="78.59" cy="102.28" rx="45.81" ry="17.27"/>
      <path class="e" d="M75.34,2.49l-37,97.26c3.69,9.38,29.86,10.53,40.27,10.53s36.42-1.54,40.27-10.53l-37-97.26A3.47,3.47,0,0,0,75.34,2.49Z" transform="translate(0 -0.25)"/>
      <rect class="d" x="64.99" y="105.78" width="27.2" height="16.04" rx="5.38" ry="5.38"/>
      <g class="f">
        <polygon class="g" points="59.72 87.63 55.85 86.38 52.64 88.85 52.63 84.8 49.29 82.5 53.14 81.24 54.29 77.35 56.68 80.63 60.73 80.52 58.36 83.81 59.72 87.63"/>
        <polygon class="g" points="76.84 53.31 74.52 52.56 72.58 54.05 72.58 51.6 70.57 50.22 72.89 49.47 73.58 47.13 75.02 49.1 77.45 49.03 76.02 51.01 76.84 53.31"/>
        <polygon class="g" points="73.78 76.6 72.64 76.24 71.7 76.96 71.7 75.77 70.71 75.1 71.85 74.72 72.18 73.58 72.89 74.55 74.08 74.51 73.38 75.48 73.78 76.6"/>
        <polygon class="g" points="91.25 95.85 89.08 93.98 86.31 94.72 87.4 92.07 85.85 89.67 88.7 89.89 90.51 87.67 91.18 90.46 93.85 91.49 91.41 92.98 91.25 95.85"/>
        <polygon class="g" points="96.89 71.51 93.03 70.26 89.82 72.73 89.81 68.68 86.47 66.38 90.32 65.12 91.47 61.23 93.86 64.51 97.91 64.4 95.53 67.69 96.89 71.51"/>
        <polygon class="g" points="88.6 25.86 85.48 23.27 81.58 24.37 83.08 20.6 80.83 17.23 84.87 17.49 87.38 14.31 88.38 18.24 92.19 19.64 88.76 21.81 88.6 25.86"/>
        <polygon class="g" points="68.86 37.56 65 36.31 61.78 38.79 61.78 34.73 58.43 32.44 62.29 31.18 63.44 27.29 65.83 30.56 69.88 30.45 67.5 33.74 68.86 37.56"/>
        <polygon class="g" points="64.71 102.03 62.39 101.28 60.45 102.77 60.45 100.33 58.43 98.95 60.75 98.19 61.45 95.85 62.88 97.82 65.32 97.75 63.89 99.73 64.71 102.03"/>
        <polygon class="g" points="112.45 81.88 110.13 81.13 108.19 82.62 108.19 80.18 106.18 78.8 108.5 78.04 109.19 75.7 110.63 77.67 113.07 77.61 111.64 79.58 112.45 81.88"/>
        <polygon class="g" points="87.89 36.06 86.75 35.69 85.81 36.42 85.81 35.23 84.82 34.55 85.96 34.18 86.3 33.04 87 34 88.19 33.97 87.49 34.93 87.89 36.06"/>
        <polygon class="g" points="95.33 50.94 94.19 50.57 93.25 51.3 93.25 50.11 92.26 49.43 93.4 49.06 93.73 47.92 94.44 48.88 95.63 48.85 94.93 49.81 95.33 50.94"/>
        <polygon class="g" points="78.29 6.07 77.15 5.7 76.21 6.43 76.2 5.23 75.22 4.56 76.35 4.19 76.69 3.04 77.39 4.01 78.59 3.98 77.89 4.94 78.29 6.07"/>
        <polygon class="g" points="62.36 63.96 60.03 63.2 58.1 64.69 58.09 62.25 56.08 60.87 58.4 60.11 59.09 57.77 60.53 59.74 62.97 59.68 61.54 61.66 62.36 63.96"/>
        <polygon class="g" points="105.88 100.64 104.74 100.27 103.8 101 103.8 99.81 102.81 99.13 103.94 98.76 104.28 97.62 104.99 98.58 106.18 98.55 105.48 99.51 105.88 100.64"/>
        <polygon class="g" points="43.52 98.95 42.39 98.58 41.44 99.31 41.44 98.11 40.46 97.44 41.59 97.07 41.93 95.92 42.63 96.89 43.82 96.86 43.12 97.82 43.52 98.95"/>
      </g>
    </g>
    <g>
      <g>
        <path class="h" d="M192,106.47l-13.92-57.2h14.72L200,85c.22,1.07.39,2.1.52,3.08a16.92,16.92,0,0,1,.2,2.2V91h.16a30.35,30.35,0,0,1,1-6l8.8-35.76h11.28L230.49,85c.27,1.07.48,2.1.64,3.08s.27,1.72.32,2.2V91h.16a30.77,30.77,0,0,1,.72-6l7.84-35.76h14.48l-14.48,57.2h-15.6l-7.2-28.88-1.12-6.72h-.16A43.51,43.51,0,0,1,215,77.59l-7.2,28.88Z" transform="translate(0 -0.25)"/>
        <path class="h" d="M260,106.47V65.27h13.84v41.2Zm12.34-45.65-5.9-3L260.6,60.9l1.08-6.55-4.79-4.6,6.56-1,2.9-6,3,5.93,6.57.91-4.72,4.66Z" transform="translate(0 -0.25)"/>
        <path class="h" d="M281.21,106.47V99.59l15.12-19c.64-.74,1.25-1.44,1.84-2.08s1-1.09,1.28-1.36l.48-.32v-.16a26.68,26.68,0,0,1-3.6.16H281.85V65.27h36.8v7l-15,19a22.93,22.93,0,0,1-1.8,2,19,19,0,0,1-1.4,1.32l-.48.4v.16a19,19,0,0,1,3.68-.24h15.44v11.6Z" transform="translate(0 -0.25)"/>
        <path class="h" d="M323.77,94.87a11,11,0,0,1,2.16-6.8,13.79,13.79,0,0,1,5.72-4.4,34.28,34.28,0,0,1,7.4-2.2,46.17,46.17,0,0,1,8-.68h1.2v-.72c0-3-1.94-4.56-5.84-4.56q-5.45,0-11.36,3.92l-4.8-9.76A25.81,25.81,0,0,1,334,65.91a31.5,31.5,0,0,1,9.72-1.6q8.56,0,13.48,4.48t4.92,12.32v25.36H349.45V104l.16-2.56h-.16a13.62,13.62,0,0,1-5.32,4.4,15.7,15.7,0,0,1-6.92,1.6,13.42,13.42,0,0,1-9.68-3.6A11.88,11.88,0,0,1,323.77,94.87Zm13.68-1.28a3.34,3.34,0,0,0,1,2.52,4,4,0,0,0,2.88,1,6.44,6.44,0,0,0,5-2.32,7.3,7.3,0,0,0,2.08-5V88.71h-1.28a18.3,18.3,0,0,0-6.76,1.16Q337.45,91,337.45,93.59Z" transform="translate(0 -0.25)"/>
        <path class="h" d="M370.89,106.47V65.27h13.28v7L384,74.79h.16a15.08,15.08,0,0,1,5-7.28,12.57,12.57,0,0,1,8.12-3,10.86,10.86,0,0,1,1.6.16v13.6a10.52,10.52,0,0,0-2.8-.24c-3.73,0-6.56,1.1-8.48,3.28s-2.88,5.23-2.88,9.12v16Z" transform="translate(0 -0.25)"/>
        <path class="h" d="M407.89,101.47q-5.08-6-5.08-15.64t5.24-15.6a17.28,17.28,0,0,1,13.56-5.92q7.51,0,10.8,3.28h.16c-.05-.53-.08-1.14-.08-1.84V49.27h13.84v57.2h-13v-2.72l.08-2.32h-.16q-3.92,6-11.92,6A16.82,16.82,0,0,1,407.89,101.47Zm11.16-22.84a10.51,10.51,0,0,0-2.32,7.2A11.44,11.44,0,0,0,419,93.19a7.11,7.11,0,0,0,5.84,2.8,7.46,7.46,0,0,0,5.76-2.56c1.55-1.7,2.32-4.24,2.32-7.6a11.5,11.5,0,0,0-2.12-6.92,7,7,0,0,0-6-2.92A7.37,7.37,0,0,0,419.05,78.63Z" transform="translate(0 -0.25)"/>
        <path class="h" d="M452.49,101.35l5.92-9a16.94,16.94,0,0,0,11.2,4.16c2.51,0,3.76-.72,3.76-2.16,0-.8-.67-1.5-2-2.12s-2.93-1.24-4.8-1.88A46.35,46.35,0,0,1,460.93,88a13.13,13.13,0,0,1-4.84-4.12,10.65,10.65,0,0,1-2-6.48,11.12,11.12,0,0,1,4.84-9.6q4.85-3.44,12.28-3.44,8.88,0,14.72,4.72l-4.72,9.6a14.39,14.39,0,0,0-4.76-2.4,18.55,18.55,0,0,0-5.64-1c-2.56,0-3.84.67-3.84,2q0,1,1.44,1.8A15.49,15.49,0,0,0,472,80.51a38.77,38.77,0,0,1,4.64,1.68,34.21,34.21,0,0,1,4.64,2.4,10.94,10.94,0,0,1,5,9.32,12,12,0,0,1-4.6,9.72q-4.61,3.81-12.36,3.8A24.24,24.24,0,0,1,452.49,101.35Z" transform="translate(0 -0.25)"/>
      </g>
      <g>
        <path class="h" d="M494.86,99.61c0-4.59,3.14-7.9,7.65-7.9s7.56,3.23,7.56,7.9c0,4.51-3.06,7.82-7.65,7.82C498,107.43,494.86,104.12,494.86,99.61Z" transform="translate(0 -0.25)"/>
        <path class="h" d="M559,85.25c0,15.21-10.79,22.18-21.93,22.18-12.16,0-21.51-8-21.51-21.42s8.84-22,22.19-22C550.45,64,559,72.75,559,85.25Zm-30.09.42c0,7.14,3,12.5,8.5,12.5,5,0,8.24-5,8.24-12.5,0-6.2-2.38-12.49-8.24-12.49C531.15,73.18,528.86,79.55,528.86,85.67Z" transform="translate(0 -0.25)"/>
        <path class="h" d="M566.94,78.19c0-5.18-.17-9.6-.34-13.26h11.22l.59,5.7h.26A15.2,15.2,0,0,1,591.5,64c8.51,0,14.88,5.61,14.88,17.85V106.5H593.46v-23c0-5.35-1.87-9-6.55-9a6.89,6.89,0,0,0-6.54,4.85,8.86,8.86,0,0,0-.51,3.23v24H566.94Z" transform="translate(0 -0.25)"/>
        <path class="h" d="M626.69,89.84c.43,5.35,5.7,7.9,11.73,7.9A36.52,36.52,0,0,0,649.9,96l1.7,8.76a41.06,41.06,0,0,1-15.05,2.55c-14.11,0-22.18-8.16-22.18-21.17,0-10.54,6.54-22.18,21-22.18,13.44,0,18.53,10.45,18.53,20.74a30.88,30.88,0,0,1-.42,5.1ZM641.91,81c0-3.15-1.36-8.42-7.31-8.42-5.44,0-7.65,4.93-8,8.42Z" transform="translate(0 -0.25)"/>
      </g>
    </g>
  </g>
</svg>
