<svg xmlns="http://www.w3.org/2000/svg" xmlns:xlink="http://www.w3.org/1999/xlink" viewBox="0 0 671 670">
  <defs>
    <style>
      .a {
        fill: none;
      }

      .b {
        fill: #033b7f;
      }

      .c {
        fill: #0084ce;
      }

      .d {
        fill: #003e89;
      }

      .e {
        fill: #0071bc;
      }

      .f {
        clip-path: url(#a);
      }

      .g {
        fill: #fff597;
      }
    </style>
    <clipPath id="a">
      <path class="a" d="M324.28,121.81,203.38,439.42C215.43,470,300.9,473.8,334.89,473.8s119-5,131.5-34.38L345.49,121.81A11.35,11.35,0,0,0,324.28,121.81Z"/>
    </clipPath>
  </defs>
  <title>logo копия</title>
  <g>
    <ellipse class="b" cx="335.5" cy="458.7" rx="256.07" ry="96.8"/>
    <ellipse class="c" cx="334.89" cy="450.8" rx="255.46" ry="96.3"/>
    <ellipse class="d" cx="334.89" cy="447.78" rx="148.92" ry="56.14"/>
    <path class="e" d="M324.33,122.6,204,438.75C216,469.24,301.06,473,334.89,473s118.4-5,130.9-34.23L345.44,122.6A11.29,11.29,0,0,0,324.33,122.6Z"/>
    <rect class="d" x="290.67" y="459.16" width="88.43" height="52.15" rx="5.38" ry="5.38"/>
    <g class="f">
      <polygon class="g" points="273.54 400.16 260.99 396.11 250.54 404.15 250.52 390.96 239.65 383.51 252.18 379.41 255.91 366.77 263.68 377.42 276.86 377.06 269.13 387.74 273.54 400.16"/>
      <polygon class="g" points="329.21 288.6 321.66 286.17 315.37 291 315.36 283.07 308.81 278.58 316.36 276.12 318.6 268.5 323.28 274.92 331.21 274.7 326.56 281.13 329.21 288.6"/>
      <polygon class="g" points="319.26 364.33 315.57 363.13 312.49 365.5 312.49 361.62 309.29 359.43 312.98 358.22 314.07 354.5 316.36 357.64 320.23 357.53 317.96 360.67 319.26 364.33"/>
      <polygon class="g" points="376.06 426.88 368.98 420.82 359.97 423.22 363.55 414.62 358.49 406.79 367.77 407.53 373.65 400.3 375.81 409.36 384.51 412.72 376.56 417.58 376.06 426.88"/>
      <polygon class="g" points="394.39 347.76 381.84 343.71 371.39 351.75 371.37 338.56 360.5 331.11 373.03 327.01 376.76 314.37 384.52 325.02 397.7 324.66 389.97 335.34 394.39 347.76"/>
      <polygon class="g" points="367.43 199.38 357.29 190.95 344.6 194.53 349.48 182.28 342.16 171.32 355.32 172.18 363.48 161.83 366.73 174.6 379.1 179.17 367.95 186.21 367.43 199.38"/>
      <polygon class="g" points="303.27 237.41 290.72 233.36 280.27 241.4 280.25 228.22 269.38 220.76 281.91 216.67 285.64 204.02 293.4 214.67 306.58 214.31 298.85 224.99 303.27 237.41"/>
      <polygon class="g" points="289.77 446.98 282.22 444.54 275.93 449.38 275.92 441.44 269.38 436.96 276.92 434.49 279.16 426.88 283.84 433.29 291.77 433.08 287.12 439.5 289.77 446.98"/>
      <polygon class="g" points="444.97 381.5 437.42 379.06 431.13 383.89 431.12 375.96 424.57 371.47 432.12 369.01 434.36 361.39 439.04 367.81 446.97 367.59 442.32 374.02 444.97 381.5"/>
      <polygon class="g" points="365.13 232.53 361.44 231.34 358.36 233.7 358.36 229.83 355.16 227.63 358.85 226.43 359.94 222.71 362.23 225.84 366.1 225.74 363.83 228.88 365.13 232.53"/>
      <polygon class="g" points="389.31 280.9 385.62 279.71 382.55 282.07 382.54 278.2 379.34 276 383.03 274.8 384.13 271.08 386.41 274.21 390.29 274.11 388.01 277.25 389.31 280.9"/>
      <polygon class="g" points="333.91 135.04 330.22 133.84 327.15 136.21 327.14 132.33 323.94 130.14 327.63 128.93 328.73 125.21 331.01 128.35 334.89 128.24 332.61 131.38 333.91 135.04"/>
      <polygon class="g" points="282.13 323.22 274.57 320.78 268.29 325.62 268.27 317.68 261.73 313.19 269.27 310.73 271.51 303.12 276.19 309.53 284.12 309.31 279.47 315.74 282.13 323.22"/>
      <polygon class="g" points="423.6 442.46 419.91 441.26 416.83 443.63 416.83 439.75 413.63 437.56 417.32 436.35 418.41 432.63 420.7 435.77 424.57 435.66 422.3 438.8 423.6 442.46"/>
      <polygon class="g" points="220.9 436.96 217.21 435.77 214.14 438.13 214.13 434.25 210.94 432.06 214.62 430.86 215.72 427.14 218 430.27 221.88 430.16 219.61 433.31 220.9 436.96"/>
    </g>
  </g>
</svg>
