<?xml version="1.0" encoding="utf-8"?>
<!-- Generator: Adobe Illustrator 22.1.0, SVG Export Plug-In . SVG Version: 6.00 Build 0)  -->
<svg version="1.1" id="Слой_1" xmlns="http://www.w3.org/2000/svg" xmlns:xlink="http://www.w3.org/1999/xlink" x="0px" y="0px"
	 viewBox="0 0 480 480" style="enable-background:new 0 0 480 480;" xml:space="preserve">
<style type="text/css">
	.st0{fill:#FFD45A;stroke:#000000;stroke-linecap:round;stroke-linejoin:round;stroke-miterlimit:10;}
	.st1{fill:#D69E2D;stroke:#000000;stroke-linecap:round;stroke-linejoin:round;stroke-miterlimit:10;}
	.st2{fill:#D80923;stroke:#000000;stroke-width:1.0006;stroke-linecap:round;stroke-linejoin:round;stroke-miterlimit:10;}
	.st3{opacity:0.2;}
	.st4{opacity:0.5;fill:#FFFFFF;}
	.st5{fill:none;stroke:#FFFFFF;stroke-linecap:round;stroke-miterlimit:10;}
</style>
<g id="_x38_65">
	<path class="st0" d="M323.6,293.1c2.6-3.9,4.5-7.3,5.7-9.8c3.5-6.9,7.4-14.6,5.3-20.1c0,0,0,0,0,0c-0.7-1.9-2.6-2.8-4.7-2.4
		l-41.2,7.3l-0.8,1.3l-0.2,0.4l-0.8,1.3l9.2,40.9c0.5,2.1,2,3.5,4.1,3.4c0,0,0,0,0,0c5.8-0.2,11.4-6.8,16.5-12.7
		c1.8-2.1,4.2-5.2,6.8-9.1"/>
	
		<rect x="273.2" y="249.1" transform="matrix(0.5533 -0.833 0.833 0.5533 -95.0638 350.1614)" class="st0" width="11.5" height="29.3"/>
	<ellipse transform="matrix(0.5533 -0.833 0.833 0.5533 -94.9421 348.8725)" class="st0" cx="277.8" cy="263" rx="11.8" ry="5.3"/>
	<path class="st0" d="M196,206.2c-0.7,1.1-1.5,2.2-2.2,3.3c-7.8,11.7-15.6,23.5-23.4,35.2c30.2,17.8,57.1,23.8,69.7,22.5
		c14.2-1.5,24.6-7.4,24.6-7.4c0.9-0.5,1.7-1,2.5-1.5l2.2-3.3c0.2-0.9,0.3-1.9,0.4-2.9c0,0,1.5-11.9-2.7-25.5
		c-3.7-12.2-19.7-34.6-47.8-55.5C211.6,182.8,203.8,194.5,196,206.2z"/>
	<path class="st0" d="M208.8,182.8c-4.5,9.5-9.3,17.9-13.9,25.1c-4.8,7.1-10.6,14.7-17.7,22.6c-5.3,5.9-10.6,11-15.5,15.6l25.5,17
		c5.3-1.9,12.2-5,19.3-10.3c10.7-7.9,17.4-17,21.3-22.9c4.3-6.2,9.7-15.6,12.9-28.5c2.1-8.6,2.3-16.2,2-21.8l-25.5-17
		C214.9,168.8,212.2,175.6,208.8,182.8z"/>
	
		<ellipse transform="matrix(0.5533 -0.833 0.833 0.5533 -85.4234 248.0583)" class="st1" cx="188.6" cy="203.7" rx="50.2" ry="8.9"/>
	
		<ellipse transform="matrix(0.5533 -0.833 0.833 0.5533 -135.2957 260.1735)" class="st2" cx="174.9" cy="256.2" rx="6.3" ry="9.6"/>
	<ellipse transform="matrix(0.5533 -0.833 0.833 0.5533 -39.3317 269.2343)" class="st2" cx="231.4" cy="171.3" rx="6.3" ry="9.6"/>
	<ellipse transform="matrix(0.5533 -0.833 0.833 0.5533 -88.1075 276.4854)" class="st2" cx="213.7" cy="220.4" rx="6.3" ry="9.6"/>
	<path class="st3" d="M206,193.2c4.2,2.1,10.2,5.3,14.7,7.9c5.7,3.4,10.9,6.8,15.6,10.1c1-1.7,2-3.3,3-5c4.4,5,9.1,10.9,13.7,17.8
		c7.2,10.8,12.1,21.1,15.6,29.9c2.5,1.7,5,3.3,7.5,5c1.6-1,3.7-1,5.3,0c1.7,1,2.6,3,2.3,5l9.9,6.6c16.1-2.3,28.2-3,32.8-2.3
		c1.2,0.2,3.6,0.6,5.3,2.5c1.3,1.5,1.6,3.3,1.7,4.3c0.6-2.1,1.2-4.1,1.8-6.2c-0.3-0.5-0.8-1.2-1.5-1.9c-0.8-0.7-2.6-2-6.4-2.2
		c-4.1-0.2-16.1,0.6-32.3,2.7l-10-5.5c0.8-2.3-0.1-4.8-2.1-6c-2-1.2-4.6-1-6.3,0.7l-6.7-4.4c-1.2-7.3-3.5-16.6-7.8-26.6
		c-6.1-14.3-14-24.7-20.1-31.5c-0.3,1-0.6,2-1,2.9c-4-3.4-8.5-6.9-13.6-10.4c-4.3-2.9-10-6.4-13.9-8.7
		C211.1,183,208.5,188.1,206,193.2z"/>
	<path class="st4" d="M186.3,224c3.5,3.1,8.3,6.9,12.5,10c5.3,4,10.5,7.4,15.4,10.4c-1.1,1.6-2.3,3.1-3.4,4.7
		c6.3,2.1,13.6,4.2,21.7,5.7c12.7,2.4,24.2,3,33.6,2.8c2.5,1.7,5,3.3,7.5,5c-0.3,1.9,0.5,3.8,2,4.8c1.6,1.2,3.8,1.2,5.5,0.2l9.9,6.6
		c4.1,15.7,8.1,27.2,10.6,31.2c0.7,1.1,1.9,3.1,4.3,3.9c1.9,0.6,1.8,0.4,2.9,0.3c-1.7,1.4-2.8,2.1-4.5,3.5c-0.6-0.1-0.2,0-1.2-0.4
		c-1-0.5-2.9-1.6-4.5-5c-1.7-3.7-5.7-15.1-10-30.8l-9-7c-1.8,1.6-4.4,1.8-6.4,0.4c-1.9-1.3-2.7-3.9-1.8-6l-6.7-4.4
		c-7.2,1.7-16.6,3.2-27.6,3.2c-15.5-0.1-28.2-3.3-36.8-6.3c0.8-0.7,1.6-1.4,2.3-2c-4.7-2.4-9.6-5.2-14.8-8.5
		c-4.4-2.8-8.9-6.1-12.6-8.8C179.2,232.9,182.6,228.3,186.3,224z"/>
	<path class="st3" d="M179.8,254.1c-0.8-0.5-1.9-0.3-2.5,0.5c-0.5,0.8-0.3,1.9,0.5,2.5c0,0,0,0,0.1,0c-0.1,0.1-0.2,0.1-0.2,0.2
		c-0.7,1-0.4,2.4,0.6,3.1c1,0.7,2.4,0.4,3.1-0.6c0.7-1,0.4-2.4-0.6-3.1c-0.1-0.1-0.3-0.1-0.4-0.2
		C180.9,255.8,180.6,254.7,179.8,254.1z"/>
	<path class="st3" d="M218.2,218.4c-0.8-0.5-1.9-0.3-2.5,0.5s-0.3,1.9,0.5,2.5c0,0,0,0,0.1,0c-0.1,0.1-0.2,0.1-0.2,0.2
		c-0.7,1-0.4,2.4,0.6,3.1s2.4,0.4,3.1-0.6c0.7-1,0.4-2.4-0.6-3.1c-0.1-0.1-0.3-0.1-0.4-0.2C219.2,220,219,218.9,218.2,218.4z"/>
	<path class="st3" d="M236,168.9c-0.8-0.5-1.9-0.3-2.5,0.5c-0.5,0.8-0.3,1.9,0.5,2.5c0,0,0,0,0.1,0c-0.1,0.1-0.2,0.1-0.2,0.2
		c-0.7,1-0.4,2.4,0.6,3.1c1,0.7,2.4,0.4,3.1-0.6c0.7-1,0.4-2.4-0.6-3.1c-0.1-0.1-0.3-0.1-0.4-0.2C237,170.6,236.8,169.5,236,168.9z"
		/>
	<path class="st5" d="M171.8,258.4c-0.4-0.5-0.9-1.1-1.3-1.9c-0.5-0.9-0.8-1.7-1.1-2.4"/>
	<path class="st5" d="M211.1,222.4c-0.4-0.5-0.9-1.1-1.3-1.9c-0.5-0.9-0.8-1.7-1.1-2.4"/>
	<path class="st5" d="M227.9,173.1c-0.4-0.5-0.9-1.1-1.3-1.9c-0.5-0.9-0.8-1.7-1.1-2.4"/>
</g>
</svg>
