<?xml version="1.0" encoding="utf-8"?>
<!-- Generator: Adobe Illustrator 22.1.0, SVG Export Plug-In . SVG Version: 6.00 Build 0)  -->
<svg version="1.1" id="Слой_1" xmlns="http://www.w3.org/2000/svg" xmlns:xlink="http://www.w3.org/1999/xlink" x="0px" y="0px"
	 viewBox="0 0 480 480" style="enable-background:new 0 0 480 480;" xml:space="preserve">
<style type="text/css">
	.st0{fill:#E8D9C9;stroke:#000000;stroke-width:1.2381;stroke-linecap:round;stroke-linejoin:round;stroke-miterlimit:10;}
	.st1{opacity:0.7;fill:#FFFFFF;}
	.st2{fill:#A39996;stroke:#090909;stroke-width:1.2381;stroke-linecap:round;stroke-linejoin:round;stroke-miterlimit:10;}
	.st3{fill:#766A69;stroke:#090909;stroke-width:1.2381;stroke-linecap:round;stroke-linejoin:round;stroke-miterlimit:10;}
	.st4{fill:none;stroke:#000000;stroke-width:1.2381;stroke-linecap:round;stroke-linejoin:round;stroke-miterlimit:10;}
</style>
<title>Body_4_(Shekhtman) 2</title>
<g id="loot">
	<g id="_x38_51">
		<path class="st0" d="M261.7,209.4c-2.6,0.5-6.5,1.5-10.7,3.9c-6.3,3.5-8.7,7.4-11.5,9.9c-9,8.3-19.2,0.9-35.3,5.2
			c-14.6,3.9-14.7,12.3-32.3,21.7c-12.6,6.7-24.8,8.9-33.6,9.6c19.3,6.7,33.2,5.5,42.2,3.2c13.5-3.4,14.5-8.8,30.1-11.6
			c15.9-2.8,21.4,1.6,32.2-4.3c5.1-2.8,7.5-5.8,16.2-10.1c5.5-2.7,10.2-4.4,13.4-5.3L261.7,209.4z"/>
		<path class="st1" d="M203.7,229.5l25.6,19.5c-3.4,0-7,0.1-10.7,0.3c-2.1,0.1-4.1,0.3-6.2,0.6c-6.2-5.1-12.5-10.4-18.7-15.5
			c1.3-1,2.9-2.1,4.9-3.1C200.5,230.6,202.2,230,203.7,229.5z"/>
		<path class="st1" d="M189.4,238.2l16.8,13c-2.1,0.5-2.7,0.8-5.7,1.7c-1.8,0.6-3.1,1.4-4.8,2.2c-5.3-4.4-7.8-6.5-13.1-10.9
			c1.1-0.8,2-1.8,3.4-3C187.5,240.1,188.6,239.1,189.4,238.2z"/>
		<g>
			<path d="M257.7,223.6c-1.9,2.1-3.9,4-6.2,5.7c-2.2,1.7-4.6,3.2-7.2,4.4c-5.1,2.5-10.9,3.5-16.5,3.7c-2.8,0.1-5.6,0-8.4,0.2
				c-2.8,0.2-5.5,0.6-8.2,1.3c-2.7,0.7-5.3,1.6-7.8,2.8c-2.5,1.1-5,2.5-7.3,4.1c2.2-1.8,4.5-3.3,7-4.6c2.5-1.3,5.1-2.4,7.8-3.2
				c2.7-0.8,5.5-1.3,8.3-1.5c2.8-0.2,5.6-0.2,8.4-0.3c2.8-0.1,5.5-0.3,8.2-0.8c2.7-0.5,5.3-1.4,7.9-2.5
				C249.1,230.7,253.6,227.4,257.7,223.6z"/>
		</g>
		<path class="st2" d="M275.2,251.1c0.8-0.5,26.7-9.6,26.7-9.6l-20.1-55.7l-27.4,9.9L275.2,251.1z"/>
		
			<rect x="256.5" y="209.5" transform="matrix(0.3393 0.9407 -0.9407 0.3393 391.9288 -126.6258)" class="st3" width="59.1" height="12.3"/>
		<path class="st2" d="M285.5,200.6l54.3-13.6c0.4,0.2,4.7,2.3,6.8,8c2,5.5,0.2,9.6,0,10.1l-51.4,22.4c-1-0.7-6.2-4.4-9-12.3
			C283.6,207.7,285.1,201.8,285.5,200.6z"/>
		<path class="st4" d="M291.3,199.4c0.6,3.5,1.6,8,3.5,13.2c1.9,5.2,4,9.3,5.8,12.4"/>
		<path class="st4" d="M300.4,196.9c0.8,3.5,2.1,7.8,4,12.6c1.8,4.6,3.8,8.5,5.5,11.5"/>
		<path class="st4" d="M309.8,194.5c1,3.5,2.3,7.5,4,11.8c1.6,4.1,3.4,7.7,5,10.8"/>
		<path class="st4" d="M321.6,191.5c0.7,3.1,1.6,6.8,3.1,11c1.5,4,3,7.4,4.5,10.1"/>
		<path class="st4" d="M332.6,188.8c0.3,2.5,1,6,2.6,10.1c1.3,3.4,2.7,6.1,3.9,8"/>
	</g>
</g>
</svg>
