<?xml version="1.0" encoding="utf-8"?>
<!-- Generator: Adobe Illustrator 22.1.0, SVG Export Plug-In . SVG Version: 6.00 Build 0)  -->
<svg version="1.1" id="Слой_1" xmlns="http://www.w3.org/2000/svg" xmlns:xlink="http://www.w3.org/1999/xlink" x="0px" y="0px"
	 viewBox="0 0 480 480" style="enable-background:new 0 0 480 480;" xml:space="preserve">
<style type="text/css">
	.st0{fill:#A39996;stroke:#090909;stroke-linecap:round;stroke-linejoin:round;stroke-miterlimit:10;}
	.st1{fill:none;stroke:#000000;stroke-linecap:round;stroke-linejoin:round;stroke-miterlimit:10;}
	.st2{fill:#766A69;stroke:#090909;stroke-linecap:round;stroke-linejoin:round;stroke-miterlimit:10;}
	.st3{fill:#E8D9C9;stroke:#000000;stroke-linecap:round;stroke-linejoin:round;stroke-miterlimit:10;}
	.st4{opacity:0.7;fill:#FFFFFF;}
</style>
<title>Body_4_(Shekhtman) 2</title>
<g id="loot">
	<g id="_x38_55">
		<path class="st0" d="M346.2,218c3-3.1,3.9-7.6,2.4-11.6c-1.5-3.8-5-6.5-9.1-7l-39.1,14.2l6.7,18.5L346.2,218z"/>
		<path class="st1" d="M317.2,228.6c-0.3-2.7-1-6.2-2.4-10c-1.3-3.5-2.9-6.3-4.3-8.5"/>
		<path class="st1" d="M325.6,225.5c-0.6-2.9-1.4-6.2-2.7-9.8c-1.2-3.4-2.6-6.3-4-8.8"/>
		<path class="st1" d="M334.9,222.1c-0.5-2.8-1.3-6.1-2.7-9.7c-1.3-3.5-2.7-6.4-4.1-8.8"/>
		<path class="st1" d="M343.4,219c-0.5-2.7-1.2-5.9-2.5-9.3c-1.3-3.7-2.8-6.7-4.3-9.2"/>
		
			<rect x="254.9" y="212" transform="matrix(-0.3418 -0.9398 0.9398 -0.3418 179.6973 579.711)" class="st0" width="75.9" height="29.8"/>
		
			<rect x="247.1" y="223.2" transform="matrix(-0.3418 -0.9398 0.9398 -0.3418 166.5903 576.194)" class="st2" width="75.9" height="13.2"/>
		<path class="st3" d="M289.8,250.4l-14.2-39.1l-83.7,28.5l-3.1,5.5l-7.4-1.7l-28.2,8.8c-4,4.9-8.1,10.3-12.2,16.2
			c-3.8,5.4-7.2,10.7-10.2,15.8c5.4,1.8,11.2,3.6,17.4,5.2c6.7,1.7,13.1,3.1,19.1,4.1c19.6-6.7,39.3-13.5,58.9-20.2l2.6-6.6l6.6,1.8
			l0.4-7.3l8.9,5.4L289.8,250.4z"/>
		<polygon class="st4" points="209.8,278.2 168.8,248.5 178.3,245.6 218.3,275.3 		"/>
		<path class="st4" d="M231.2,266.1l-36.4-26.3l9.3-3.1l34.3,25.4l-2.2-1.3c-0.6-0.3-1.3,0-1.3,0.7l-0.2,2.7l-0.2,3.3L231.2,266.1z"
			/>
		<line class="st1" x1="153.9" y1="277.5" x2="212" y2="256.4"/>
		<line class="st1" x1="226.9" y1="250.9" x2="266.2" y2="236.6"/>
	</g>
</g>
</svg>
