<?xml version="1.0" encoding="utf-8"?>
<!-- Generator: Adobe Illustrator 22.1.0, SVG Export Plug-In . SVG Version: 6.00 Build 0)  -->
<svg version="1.1" id="Слой_1" xmlns="http://www.w3.org/2000/svg" xmlns:xlink="http://www.w3.org/1999/xlink" x="0px" y="0px"
	 viewBox="0 0 480 480" style="enable-background:new 0 0 480 480;" xml:space="preserve">
<style type="text/css">
	.st0{fill:#A39996;stroke:#090909;stroke-linecap:round;stroke-linejoin:round;stroke-miterlimit:10;}
	.st1{fill:#C4B4A6;stroke:#000000;stroke-linecap:round;stroke-linejoin:round;stroke-miterlimit:10;}
	.st2{fill:#E8D9C9;stroke:#000000;stroke-linecap:round;stroke-linejoin:round;stroke-miterlimit:10;}
	.st3{opacity:0.45;fill:#FFFFFF;}
	.st4{fill:none;stroke:#000000;stroke-linecap:round;stroke-linejoin:round;stroke-miterlimit:10;}
	.st5{opacity:0.2;}
</style>
<title>Body_4_(Shekhtman) 2</title>
<g id="_x38_56">
	<path class="st0" d="M134.3,250.4l200.1-78.5c6.3,0.4,11.8,4.5,13.9,10.4c2.1,5.9,0.6,12.5-3.9,16.8c-3.3,1.3-8.3,3.2-14.5,5.3
		c-17.3,5.9-28.1,7.7-36.7,10.4c-20.6,6.3-21.5,10.1-45.8,19.7c-19.1,7.6-23.3,7.2-48.5,15.3c-13.5,4.4-33.2,11.2-57,21.4
		c-5.2-0.6-9.5-4.3-10.8-9.1C129.4,255.7,134,250.7,134.3,250.4z"/>
	<path class="st1" d="M200.2,251.7c1.1-0.4,4.3-1.6,5.4-2c0.6,2.9,2.6,10.4,9.3,17c6.6,6.4,14,8.3,16.9,8.9
		c2.5,6.6,4.9,13.2,7.4,19.8c-0.6,1.5-1.2,3-1.8,4.5l-29.6-28.3L200.2,251.7z"/>
	<path class="st2" d="M158.6,268.2c1.4,3.3,4.7,11.8,2.4,22.3c-1.3,5.9-3.8,10.2-5.7,12.9L162,326c9,0.2,22.8-0.5,38.5-5.7
		c17.4-5.7,29.7-14.5,36.9-20.5c-3.1-7.3-6.2-14.6-9.3-21.9c-2.9-0.3-8.9-1.5-14.7-6c-9.7-7.6-11-18.8-11.2-21L158.6,268.2z"/>
	<path class="st3" d="M158,310.1l4.6,15.2c9,0.2,22.1-0.5,37.8-5.7c17.4-5.7,29-14,36.3-20c-2.2-5.1-4.1-9.6-6.2-14.6
		c-8.8,5.7-20.3,11.9-35.5,17C180.4,307,168.2,309.2,158,310.1z"/>
	<path class="st2" d="M148.5,273.2c-2-1.6-6.8-6-9.2-13.5c-1.9-6.3-1.2-11.6-0.6-14.2c22.1-8.8,44.2-17.6,66.3-26.4
		c-0.6,2.1-2.5,9.2,0.7,17.3c2.9,7.4,8.3,11.3,10.2,12.6C193.5,257.1,171,265.2,148.5,273.2z"/>
	<path class="st2" d="M159.2,240.6c-0.7-4.3-1.2-9.7-1.1-15.7c0.2-6.9,1.2-12.8,2.3-17.5c4,3.2,8.6,7.3,13.1,12.4
		c3.8,4.2,6.9,8.4,9.5,12.1C175.1,234.8,167.1,237.7,159.2,240.6z"/>
	<path class="st1" d="M183,231.9l3.3-4.8c-1.9-2.9-4.8-6.5-8.8-10c-6.4-5.5-12.9-8.3-17.1-9.7c4,3.2,8.6,7.3,13.1,12.4
		C177.4,224,180.5,228.1,183,231.9z"/>
	<line class="st4" x1="182.3" y1="303.9" x2="183.9" y2="308.2"/>
	<line class="st4" x1="194.9" y1="298.9" x2="196.6" y2="303.6"/>
	<line class="st4" x1="196.9" y1="294.1" x2="200.4" y2="303.6"/>
	<line class="st4" x1="217.8" y1="290.5" x2="219.3" y2="294.8"/>
	<line class="st4" x1="222.1" y1="288.9" x2="224" y2="294.1"/>
	<path class="st4" d="M348.9,190.8c-4.1,0.5-18,1.8-32.7,8.3c-8.9,3.9-24.4,13.5-28.7,17.6"/>
	<path class="st4" d="M269.4,224.6c4.2-5.5,10.4-12.5,19.1-19.2c7.4-5.6,14.4-9.4,20.1-12"/>
	<path class="st4" d="M314.8,190.1c4.9-2.5,9.9-5,14.8-7.5"/>
	<path class="st4" d="M315.4,179.4c-2.5,2.6-6.5,6.4-12.2,9.6c-10.2,5.8-12.8,2.6-20.9,7.6c-8.5,5.3-8.8,10.9-20.7,18.4
		c-2.5,1.5-4.6,2.6-5.9,3.3"/>
	<line class="st4" x1="253.1" y1="227" x2="257.7" y2="223.8"/>
	<path class="st4" d="M249.2,222.6c-1,1.1-2.1,2.2-3.1,3.4c-1.6,0.9-4.3,2.2-7.6,3.5c-6.1,2.4-8.6,2.3-11.5,4.6
		c-1.8,1.3-4.1,3.8-5.5,8.6"/>
	<path class="st4" d="M257.6,202.1c-5.3,4.4-11.6,9-18.9,13.5c-10.8,6.6-20.9,11.1-29.6,14.3"/>
	<path class="st1" d="M208.2,234.7c-2.2-6.1-1.4-12.2,1.8-14.3c-1.7-1.3-3.4-1.8-4.8-1.2c-3.8,1.4-4.4,9.2-1.4,17.4
		c3,8.2,8.5,13.8,12.3,12.4c1.5-0.6,2.5-2.2,3-4.5C215.2,245.1,210.5,240.9,208.2,234.7z"/>
	<path class="st5" d="M138.1,250.4c-0.1,1.2-0.1,2.5,0.1,3.8c0.2,1.9,0.6,3.5,1.1,4.9c21.4-7.8,42.8-15.6,64.2-23.4
		c-0.5-1.4-0.9-3-1.2-4.8c-0.3-1.6-0.4-3.1-0.4-4.4C180.6,234.5,159.3,242.5,138.1,250.4z"/>
	<path class="st5" d="M206.7,226.7L341.2,174c0.8,0.5,2.5,1.7,3.7,2.9c1,1,2.3,2.8,2.6,3.8c-41.2,15.9-98.3,37.5-139.4,53.4
		c-0.5-0.8-1.1-2-1.3-3.5C206.5,229.1,206.6,227.8,206.7,226.7z"/>
	<line class="st4" x1="165.6" y1="307.2" x2="167.9" y2="313.6"/>
</g>
</svg>
