<svg width="20" height="20" viewBox="0 0 20 20" fill="none" xmlns="http://www.w3.org/2000/svg">
<path d="M1.09834 0L0.138116 1.33133C0.0782596 1.41943 0.0366507 1.51828 0.0156767 1.62224C-0.00529724 1.7262 -0.00522425 1.83322 0.0158892 1.93715C0.0370026 2.04108 0.0787441 2.13988 0.138718 2.2279C0.198692 2.31592 0.275721 2.39144 0.365389 2.4501C0.454108 2.51129 0.554506 2.55413 0.660521 2.57603C0.766536 2.59794 0.875966 2.59845 0.982187 2.57754C1.08841 2.55662 1.18922 2.51471 1.27852 2.45435C1.36782 2.39399 1.44376 2.31641 1.50175 2.22633L2.28584 0.973321L1.09834 0Z" transform="translate(3.73145 16.4072)" fill="#0E6BC1"/>
<path d="M1.21023 0L2.17046 1.33133C2.28838 1.51013 2.33062 1.72722 2.28815 1.93626C2.24569 2.1453 2.12188 2.32971 1.94318 2.4501C1.85385 2.51026 1.75315 2.55211 1.64705 2.57317C1.54095 2.59422 1.43163 2.59403 1.32561 2.57264C1.21958 2.55124 1.11901 2.50905 1.02988 2.4486C0.940756 2.38814 0.864896 2.31067 0.806817 2.22075L0 0.973321L1.21023 0Z" transform="translate(14.1021 16.4072)" fill="#0E6BC1"/>
<path d="M1.21023 0L2.17614 1.33133C2.29262 1.51054 2.33403 1.72721 2.29164 1.93584C2.24926 2.14446 2.1264 2.32879 1.94887 2.4501C1.85904 2.50876 1.75833 2.54937 1.65251 2.5696C1.54669 2.58982 1.43786 2.58925 1.33227 2.56794C1.22667 2.54663 1.1264 2.50499 1.0372 2.44541C0.948001 2.38582 0.871639 2.30948 0.812505 2.22075L0 0.973321L1.21023 0Z" transform="translate(10.6648 16.4072)" fill="#0E6BC1"/>
<path d="M12.6761 0C12 0.447506 10.2727 0.788734 8.13068 0.878235H7.61932H7.5625H6.99432H6.42614H6.39205H5.88068C3.75568 0.788734 2.0284 0.447506 1.33522 0C0.476266 1.06028 0.00582144 2.37489 0 3.73109C0 7.25521 3.13068 10.1081 7 10.1081C10.8693 10.1081 14 7.25521 14 3.73109C13.9974 2.37622 13.531 1.06176 12.6761 0Z" transform="translate(3 8.60352)" fill="#0E6BC1"/>
<path d="M0.00615192 0H0.0123132H0H0.00615192Z" transform="translate(6.94897 15.8701)" fill="#0E6BC1"/>
<path d="M0.00615192 0H0H0.0123132H0.00615192Z" transform="translate(13.1821 15.8701)" fill="#0E6BC1"/>
<path opacity="0.2" d="M4.15909 2.97032C4.14556 2.19406 4.19305 1.41794 4.30113 0.648886C3.1229 0.622504 1.95736 0.40321 0.852273 0C0.295304 0.893747 0.000334604 1.92177 0 2.97032C0.016494 4.52268 0.658336 6.00507 1.78447 7.09174C2.91061 8.17841 4.42889 8.78043 6.00568 8.76552C4.98863 8.76552 4.15909 6.16999 4.15909 2.97032Z" transform="translate(3.93188 9.41504)" fill="white"/>
<path opacity="0.2" d="M0 0C0.0889257 0.00555669 0.17812 0.00555669 0.267046 0C0.176137 0.0167815 0.0909091 0.00559383 0 0Z" transform="translate(9.67065 18.1631)" fill="white"/>
<path d="M1.39773 2.75217C2.16967 2.75217 2.79545 2.13607 2.79545 1.37608C2.79545 0.616088 2.16967 0 1.39773 0C0.625788 0 0 0.616088 0 1.37608C0 2.13607 0.625788 2.75217 1.39773 2.75217Z" transform="translate(7.89795 1.78418)" fill="#0E6BC1"/>
<path d="M0.761362 1.49914C1.18185 1.49914 1.52272 1.16355 1.52272 0.749571C1.52272 0.335593 1.18185 0 0.761362 0C0.340872 0 0 0.335593 0 0.749571C0 1.16355 0.340872 1.49914 0.761362 1.49914Z" transform="translate(5.3811)" fill="#0E6BC1"/>
<path d="M12.0511 0.861437V0H0V0.861437C0 1.52151 2.69886 2.05853 6.02841 2.05853C9.35795 2.05853 12.0568 1.49913 12.0568 0.861437H12.0511Z" transform="translate(3.96606 6.55078)" fill="#0E6BC1"/>
<path opacity="0.2" d="M12.0511 0.861437V0H0V0.861437C0 1.52151 2.69886 2.05853 6.02841 2.05853C9.35795 2.05853 12.0568 1.49913 12.0568 0.861437H12.0511Z" transform="translate(3.96606 6.55078)" fill="white"/>
<path opacity="0.2" d="M0 1.58305C1.20562 1.86336 2.43768 2.01896 3.67614 2.04733V0H0V1.58305Z" transform="translate(5.15894 6.55078)" fill="white"/>
<path d="M1.39773 2.75217C2.16967 2.75217 2.79545 2.13607 2.79545 1.37608C2.79545 0.616088 2.16967 0 1.39773 0C0.625788 0 0 0.616088 0 1.37608C0 2.13607 0.625788 2.75217 1.39773 2.75217Z" transform="translate(5.92627 4.58203)" fill="#0E6BC1"/>
<path d="M1.05114 2.06972C1.63167 2.06972 2.10228 1.6064 2.10228 1.03486C2.10228 0.463325 1.63167 0 1.05114 0C0.470613 0 0 0.463325 0 1.03486C0 1.6064 0.470613 2.06972 1.05114 2.06972Z" transform="translate(10.7725 4.30176)" fill="#0E6BC1"/>
<path d="M6.02841 2.39416C9.35781 2.39416 12.0568 1.85822 12.0568 1.19709C12.0568 0.535959 9.35781 0 6.02841 0C2.69901 0 0 0.535959 0 1.19709C0 1.85822 2.69901 2.39416 6.02841 2.39416Z" transform="translate(3.96606 5.36523)" fill="#0E6BC1"/>
</svg>
