<svg width="20" height="20" viewBox="0 0 20 20" fill="none" xmlns="http://www.w3.org/2000/svg">
<path d="M4.42559 0L6.95999 0.153963L6.83999 2.39098L9.17277 3.37817L11.1024 5.57897L8.04478 8.11938L0 7.20919L1.0896 4.32461L3.42239 2.62194L4.91039 2.2008L4.42559 0Z" transform="translate(4.27319 4.83887)" fill="white" fill-opacity="0.4"/>
<path d="M7.608 4.88611V3.67704H7.6512C7.76367 3.67705 7.8716 3.6352 7.95158 3.5606C8.03156 3.48599 8.07713 3.38464 8.07839 3.27854V2.48154C8.07777 2.42921 8.06622 2.37751 8.04441 2.32939C8.0226 2.28127 7.99096 2.23767 7.95129 2.20109C7.91162 2.16451 7.8647 2.13564 7.81321 2.11617C7.76172 2.09669 7.70667 2.08698 7.6512 2.08758H7.09919L7.52159 0H4.5216L4.9392 2.08758H4.3488C4.29333 2.08698 4.23828 2.09669 4.18679 2.11617C4.1353 2.13564 4.08838 2.16451 4.04871 2.20109C4.00904 2.23767 3.9774 2.28127 3.95559 2.32939C3.93378 2.37751 3.92223 2.42921 3.9216 2.48154V3.27854C3.92287 3.38464 3.96844 3.48599 4.04841 3.5606C4.12839 3.6352 4.23633 3.67705 4.3488 3.67704H4.392V4.88611C2.99434 5.25291 1.78488 6.08503 0.987528 7.22841C0.190176 8.37179 -0.141061 9.74899 0.0551392 11.1051C0.25134 12.4611 0.961689 13.7042 2.05468 14.6042C3.14767 15.5041 4.54927 16 6 16C7.45073 16 8.85233 15.5041 9.94532 14.6042C11.0383 13.7042 11.7487 12.4611 11.9449 11.1051C12.1411 9.74899 11.8098 8.37179 11.0125 7.22841C10.2151 6.08503 9.00566 5.25291 7.608 4.88611ZM4.9104 5.58802L5.2464 5.52009V3.67704H6.7536V5.51556L7.0896 5.58349C7.86677 5.74191 8.59468 6.06749 9.2166 6.53483C9.83853 7.00218 10.3377 7.59869 10.6752 8.27788C8.73979 8.16429 6.80449 8.50176 5.04 9.26053C3.01921 10.1345 1.75201 9.86734 0.96961 9.32393C1.17536 8.40932 1.6567 7.57022 2.35578 6.90748C3.05487 6.24474 3.94194 5.78657 4.9104 5.58802Z" transform="translate(4 2)" fill="#0E6BC1"/>
<path d="M3.5664 4.85442C3.5664 2.17362 4.27199 0 5.14559 0C3.78089 0 2.47209 0.51144 1.50711 1.42182C0.542123 2.3322 0 3.56695 0 4.85442C0 6.1419 0.542123 7.37663 1.50711 8.28701C2.47209 9.19739 3.78089 9.70885 5.14559 9.70885C4.27199 9.70885 3.5664 7.53522 3.5664 4.85442Z" transform="translate(4.85449 7.47461)" fill="white" fill-opacity="0.2"/>
<path d="M1.56479 0H0.264001C0.118198 0 0 0.111517 0 0.249069V1.01437C0 1.15192 0.118198 1.26342 0.264001 1.26342H1.56479C1.7106 1.26342 1.82879 1.15192 1.82879 1.01437V0.249069C1.82879 0.111517 1.7106 0 1.56479 0Z" transform="translate(8.38696 4.22852)" fill="white" fill-opacity="0.2"/>
</svg>
