<svg width="20" height="20" viewBox="0 0 20 20" fill="none" xmlns="http://www.w3.org/2000/svg">
<path d="M2.66929 1.12001L5.24943 2.4H10.5828L13.5352 1.18711L9.86431 0H6.03605L2.66929 1.12001ZM4.76696 3.18452L3.52409 7.36L0 5.71355L2.0295 1.53807L4.76696 3.18452ZM11.5844 7.54065H4.44182L5.6847 3.18452H10.331L11.5844 7.54065ZM16 5.72387L12.5021 7.36L11.2645 3.18452L14.1016 1.77549L16 5.72387ZM7.46771 16L0.0419504 6.58065L3.5608 8.21678L7.46771 16ZM4.50475 8.39743H11.49C11.0967 9.34195 7.99213 16 7.99213 16L4.50475 8.39743ZM15.9213 6.58065L8.51655 16L12.4392 8.21678L15.9213 6.58065Z" transform="translate(2 2)" fill="#0E6BC1"/>
</svg>
