<svg width="20" height="20" viewBox="0 0 20 20" fill="none" xmlns="http://www.w3.org/2000/svg">
<path d="M4.98059 0C5.96587 5.24819e-07 6.92902 0.292321 7.74818 0.839979C8.56734 1.38764 9.20572 2.16602 9.58253 3.07666C9.95935 3.9873 10.0577 4.98929 9.86509 5.95584C9.67249 6.9224 9.19763 7.8101 8.50057 8.50664C7.80351 9.20318 6.91558 9.67727 5.9491 9.86892C4.98262 10.0606 3.98103 9.96117 3.07104 9.58331C2.16105 9.20544 1.38354 8.56608 0.836887 7.74612C0.290232 6.92616 -0.00101415 5.96243 2.65336e-06 4.97686C0.00136493 3.65644 0.526708 2.39057 1.4606 1.45738C2.39449 0.52418 3.66054 -7.03128e-07 4.98059 0Z" transform="translate(5.02393 5.02539)" fill="#0E6BC1"/>
<path d="M5.73615 4.41131C5.35066 3.00771 3.25871 4.50385 4.79554 1.04883C5.26842 2.77634 7.07253 1.82005 7.03141 3.72236C6.57179 3.89525 6.13643 4.12681 5.73615 4.41131ZM3.86522 6.65809C2.83723 5.62981 1.76813 7.97943 1.36722 4.21593C2.64192 5.47557 3.72644 3.74293 4.64134 5.40874C4.33157 5.79119 4.07084 6.2109 3.86522 6.65809ZM3.38206 9.53727C1.97373 9.16709 2.22559 11.7275 0 8.67352C1.73215 9.12597 1.80925 7.08482 3.43347 8.06683C3.3524 8.55264 3.33511 9.04698 3.38206 9.53727ZM4.41005 12.2725C3.00685 12.6581 4.50257 14.7506 1.04854 13.2134C2.77555 12.7404 1.81953 10.9357 3.7213 10.9769C3.89414 11.4366 4.12563 11.8721 4.41005 12.2725ZM6.66134 14.1337C5.63335 15.162 7.9823 16.2314 4.21987 16.6273C5.47916 15.3573 3.75214 14.2674 5.41748 13.3522C5.7958 13.6665 6.21406 13.9292 6.66134 14.1337ZM9.53969 14.617C9.16961 16.0257 11.7293 15.7738 8.67618 18C9.1285 16.2674 7.08794 16.1902 8.06967 14.5656C8.55535 14.6466 9.04953 14.6639 9.53969 14.617ZM12.2741 13.5887C12.6596 14.9974 14.7516 13.4962 13.2199 16.9512C12.7419 15.2288 10.9377 16.1851 10.9789 14.2828C11.4387 14.1081 11.874 13.8748 12.2741 13.5887ZM14.1348 11.3419C15.1628 12.3702 16.2319 10.0206 16.6328 13.7789C15.3581 12.5244 14.2736 14.2519 13.3587 12.5861C13.6683 12.2055 13.9291 11.7875 14.1348 11.3419ZM14.6179 8.46273C16.0263 8.83291 15.7744 6.26735 18 9.32648C16.2678 8.87403 16.1908 10.9152 14.5665 9.92803C14.6479 9.44396 14.6651 8.9513 14.6179 8.46273ZM13.5899 5.7275C14.9931 5.3419 13.4974 3.24935 16.9515 4.78149C15.2244 5.2545 16.1805 7.06426 14.2787 7.02313C14.1081 6.56237 13.8764 6.12661 13.5899 5.7275ZM11.3489 3.89717C12.3769 2.86889 10.028 1.79949 13.7904 1.39846C12.5311 2.67352 14.2581 3.75836 12.5928 4.67352C12.2131 4.36263 11.795 4.10171 11.3489 3.89717ZM8.49115 3.38303C8.86122 1.97429 6.30154 2.22622 9.35465 0C8.90234 1.73265 10.9429 1.80462 9.96116 3.4293C9.47504 3.35229 8.98115 3.33674 8.49115 3.38303Z" transform="translate(1 1)" fill="#0E6BC1"/>
</svg>
