<svg width="20" height="20" viewBox="0 0 20 20" fill="none" xmlns="http://www.w3.org/2000/svg">
<path d="M11.1828 1.60315V0C10.8666 0.6112 8.48123 1.08714 5.57976 1.08714C2.67828 1.08714 0.292937 0.6112 0 0V1.60315C0 2.27447 2.51089 2.82054 5.57976 2.82054C8.64862 2.82054 11.1828 2.27447 11.1828 1.60315Z" transform="translate(4.39917 15.1797)" fill="#0E6BC1"/>
<path opacity="0.2" d="M0 0V1.10215C0.730018 1.46787 2.2598 1.73841 4.10577 1.81356V0.68133C2.24585 0.626222 0.725368 0.360708 0 0Z" transform="translate(4.86401 15.8604)" fill="white"/>
<path d="M13.4887 3.91584L11.5264 6.45082C11.51 6.46438 11.4968 6.48183 11.4876 6.50181C11.4785 6.52179 11.4737 6.54376 11.4737 6.56603C11.4737 6.58831 11.4785 6.6103 11.4876 6.63028C11.4968 6.65026 11.51 6.6677 11.5264 6.68127C11.6747 6.86935 11.7778 7.09388 11.8264 7.33503C11.8751 7.57618 11.8679 7.82654 11.8054 8.06398C11.7422 8.33193 11.61 8.57517 11.4241 8.76573C11.2382 8.95628 11.0061 9.0864 10.7546 9.1411C10.5465 9.1879 10.3312 9.18282 10.1251 9.12627C9.91912 9.06971 9.72783 8.96317 9.56587 8.81477C9.40391 8.66638 9.27558 8.48007 9.19068 8.27006C9.10577 8.06006 9.06655 7.83191 9.07599 7.60307C9.07693 7.35823 9.13489 7.11755 9.24456 6.90311C9.35424 6.68866 9.51211 6.50732 9.70372 6.37567C9.77347 6.37567 9.77346 6.30053 9.77346 6.22037L7.25327 0.148439C7.23044 0.1035 7.19681 0.0660073 7.15591 0.0398885C7.115 0.0137696 7.06833 0 7.02078 0C6.97324 0 6.92656 0.0137696 6.88566 0.0398885C6.84476 0.0660073 6.81112 0.1035 6.78829 0.148439L4.18906 6.22037C4.18906 6.30053 4.18906 6.37567 4.2588 6.37567C4.49762 6.54701 4.68014 6.79519 4.78033 7.08486C4.88052 7.37453 4.89328 7.6909 4.81679 7.98884C4.74344 8.2594 4.60911 8.5062 4.42575 8.70724C4.2424 8.90829 4.01572 9.05734 3.76593 9.1411C3.56352 9.19217 3.35297 9.19283 3.15028 9.14304C2.9476 9.09324 2.75813 8.99429 2.59628 8.85373C2.43444 8.71316 2.30447 8.53467 2.21628 8.33184C2.12809 8.12902 2.084 7.90718 2.08735 7.68323C2.09729 7.31682 2.21996 6.96436 2.43609 6.68127C2.45248 6.6677 2.46576 6.65026 2.4749 6.63028C2.48404 6.6103 2.4888 6.58831 2.4888 6.56603C2.4888 6.54376 2.48404 6.52179 2.4749 6.50181C2.46576 6.48183 2.45248 6.46438 2.43609 6.45082L0.469223 3.91584C0.422338 3.87778 0.365921 3.85577 0.307286 3.85267C0.248652 3.84957 0.190503 3.86552 0.140387 3.89846C0.0902697 3.9314 0.0504963 3.9798 0.0262205 4.03739C0.00194472 4.09498 -0.00571263 4.1591 0.00424367 4.22144L1.33409 12.0618C1.33409 12.0618 1.33409 12.137 1.33409 12.152C1.33409 12.8233 3.86822 13.3694 6.99289 13.3694C10.1175 13.3694 12.6517 12.8233 12.6517 12.152C12.6565 12.1272 12.6565 12.1016 12.6517 12.0768L13.9815 4.23646C14.0054 4.16753 14.0062 4.09179 13.9837 4.02231C13.9612 3.95284 13.9169 3.894 13.8585 3.85597C13.8 3.81795 13.7311 3.80312 13.6635 3.81405C13.596 3.82498 13.5342 3.86099 13.4887 3.91584Z" transform="translate(3 2)" fill="#0E6BC1"/>
<path opacity="0.2" d="M3.96162 3.12113C4.14297 3.30739 4.28752 3.53121 4.3866 3.77915C4.48568 4.02708 4.53725 4.29403 4.5382 4.56397C4.5382 5.09544 4.34225 5.60515 3.99345 5.98096C3.64464 6.35677 3.17156 6.5679 2.67828 6.5679C2.185 6.5679 1.71192 6.35677 1.36312 5.98096C1.01432 5.60515 0.818365 5.09544 0.818365 4.56397C0.820619 4.23006 0.902264 3.90234 1.05551 3.6121L0 2.31456L0.999707 8.99266C2.30132 9.44984 3.66205 9.68151 5.03108 9.679L5.45421 0L3.96162 3.12113Z" transform="translate(3.81299 5.04297)" fill="white"/>
</svg>
