<svg width="20" height="20" viewBox="0 0 20 20" fill="none" xmlns="http://www.w3.org/2000/svg">
<path d="M13.4442 7.92633C13.4369 8.17971 13.4226 8.89888 13.4441 9.15152C13.4099 9.17629 12.5099 9.99782 8.8542 9.99782C5.19852 9.99782 4.30281 9.17216 4.26424 9.15152C4.22567 9.13088 4.28567 8.32677 4.28567 7.99238C1.71427 8.57034 0 8.51255 0 9.69737C0 11.5221 4.02853 13 8.99991 13C13.9713 13 17.9998 11.5262 17.9998 9.69737C18.0212 8.46714 16.1741 8.4919 13.4442 7.92633ZM4.31139 5.86218C4.31139 6.76628 4.31139 7.51349 4.31139 8.12861C4.53853 8.20292 5.63994 8.88821 8.8542 8.88821C12.0684 8.88821 13.1742 8.20292 13.4013 8.12861C13.4013 7.51349 13.4013 6.76628 13.4013 5.86218C13.4013 2.21277 14.0141 1.08988 14.0184 1.07749V1.02795C14.0184 0.924746 13.817 0 8.81991 0C3.82282 0 3.62996 0.924746 3.62139 1.02795V1.07749C3.62139 1.07749 4.3071 2.20865 4.3071 5.85393L4.31139 5.86218Z" transform="translate(1 3)" fill="#0E6BC1"/>
<path opacity="0.2" d="M2.95893 7.34422L0.0532449 8.33502C0.0350264 8.34074 0.0196697 8.35277 0.0101632 8.3688C0.000656765 8.38482 -0.00231696 8.40369 0.00181896 8.42171C0.228959 9.16068 2.14466 10.0028 4.23606 10.4074C4.25043 10.4097 4.26516 10.4082 4.27873 10.4031C4.29229 10.398 4.3042 10.3895 4.3132 10.3785L5.90747 8.35566C5.91507 8.34475 5.91952 8.33209 5.92039 8.31898C5.92125 8.30588 5.9185 8.29279 5.9124 8.28104C5.90631 8.26929 5.89708 8.25931 5.88568 8.25211C5.87427 8.24491 5.86109 8.24076 5.84747 8.24007C4.46749 8.1575 3.5375 7.94696 3.04036 7.36487C3.03067 7.35374 3.01764 7.34577 3.00305 7.34207C2.98847 7.33837 2.97305 7.33912 2.95893 7.34422ZM6.75603 0.478883C6.78603 2.5678 6.84175 6.46903 6.84175 6.46903C5.78202 6.51871 4.72331 6.35273 3.73463 5.98189C3.73463 3.46363 3.86321 1.1972 3.46035 0C4.53216 0.299027 5.64035 0.460054 6.75603 0.478883Z" transform="translate(2.07812 4.62207)" fill="white"/>
</svg>
