<svg width="20" height="20" viewBox="0 0 20 20" fill="none" xmlns="http://www.w3.org/2000/svg">
<path d="M10.966 11.7104C9.77362 11.7047 8.61198 11.3215 7.63955 10.6132C6.66713 9.90478 5.93128 8.90568 5.53239 7.75219C5.13349 6.59869 5.09097 5.34696 5.41063 4.16775C5.73029 2.98853 6.39657 1.93927 7.31857 1.16308C5.82966 1.2425 4.39502 1.76283 3.188 2.6612C1.98098 3.55957 1.05322 4.79754 0.516845 6.22551C-0.0195306 7.65348 -0.141574 9.21035 0.165457 10.708C0.472488 12.2056 1.19546 13.58 2.247 14.6649C3.29855 15.7498 4.63368 16.499 6.09105 16.8217C7.54843 17.1445 9.06568 17.0272 10.4595 16.4839C11.8533 15.9406 13.064 14.9945 13.9453 13.7601C14.8266 12.5256 15.3408 11.0556 15.4257 9.52768C14.8877 10.2096 14.2081 10.7594 13.4365 11.137C12.6649 11.5147 11.8208 11.7106 10.966 11.7104ZM11.6851 7.65293L14.0392 7.05282L11.6645 6.43676L11.0747 4.02031L10.4849 6.43676L8.13083 7.04219L10.4849 7.64232L11.0747 10.0641L11.6851 7.65293ZM14.1685 2.82006L16 2.34739L14.1685 1.88003L13.7132 0L13.2528 1.88003L11.4213 2.34739L13.2528 2.82006L13.7132 4.7001L14.1685 2.82006Z" transform="translate(2 1)" fill="#0E6BC1"/>
<path opacity="0.2" d="M8.69617 13.1178C7.15757 13.0912 5.67652 12.5129 4.50973 11.483C3.34294 10.4531 2.56396 9.03667 2.30779 7.47909C2.05162 5.92151 2.33443 4.32102 3.10718 2.95502C3.87993 1.58902 5.09392 0.543615 6.53874 0C5.17551 0.165467 3.88386 0.716471 2.8079 1.59154C1.73194 2.46661 0.91398 3.63133 0.445263 4.95577C-0.0234538 6.28021 -0.124493 7.71229 0.153423 9.09223C0.431338 10.4722 1.07728 11.7457 2.01918 12.7708C2.96108 13.7959 4.1619 14.5322 5.48768 14.8976C6.81346 15.263 8.21206 15.243 9.52746 14.8401C10.8429 14.4371 12.0233 13.6669 12.9372 12.6154C13.851 11.5639 14.4623 10.2724 14.7028 8.88507C14.2306 10.1276 13.4054 11.1957 12.3342 11.9505C11.263 12.7054 9.99544 13.1121 8.69617 13.1178Z" transform="translate(2.65527 2.15234)" fill="white"/>
</svg>
