<svg width="20" height="20" viewBox="0 0 20 20" fill="none" xmlns="http://www.w3.org/2000/svg">
<path d="M9 0C4.02972 0 0 1.53663 0 3.43696C0 5.33729 4.01189 6.86937 9 6.86937C13.9881 6.86937 18 5.33274 18 3.43696C18 1.54118 13.9703 0 9 0ZM9 4.87811C6.29866 4.87811 4.09658 4.10981 4.09658 3.16873C4.09658 2.22766 6.28975 1.45934 9 1.45934C11.7103 1.45934 13.9034 2.22311 13.9034 3.16873C13.9034 4.11435 11.7058 4.87811 9 4.87811Z" transform="translate(1 10.1309)" fill="#0E6BC1"/>
<path d="M4.24368 0.242768L0 10.9992C0.423477 12.0357 3.42348 12.163 4.61367 12.163C5.80386 12.163 8.78603 11.9903 9.22734 10.9992L4.98365 0.242768C4.95698 0.169007 4.90673 0.106546 4.84101 0.0654577C4.77423 0.0226802 4.69698 0 4.61812 0C4.53927 0 4.46202 0.0226802 4.39524 0.0654577C4.32618 0.104961 4.27264 0.167607 4.24368 0.242768Z" transform="translate(5.38623 2)" fill="#0E6BC1"/>
<path opacity="0.2" d="M4.59138 2.50499L5.35364 1.06837C4.77319 1.0042 4.19908 0.890136 3.63745 0.727402C3.33102 0.642629 3.03265 0.530043 2.74592 0.390984C2.53435 0.291523 2.33893 0.159669 2.16642 0L0 1.04564C0.30627 1.23586 0.62332 1.4074 0.949482 1.55937C1.46324 1.79314 1.99564 1.98173 2.54086 2.1231C3.2151 2.2976 3.90019 2.42519 4.59138 2.50499Z" transform="translate(2.84521 14.0723)" fill="white"/>
<path opacity="0.2" d="M2.71025 10.9746L3.85141 0L0 10.3473C0.503715 10.7701 1.57355 10.9746 2.71025 10.9746Z" transform="translate(5.98779 2.59277)" fill="white"/>
</svg>
