<?xml version="1.0" encoding="utf-8"?>
<!-- Generator: Adobe Illustrator 22.1.0, SVG Export Plug-In . SVG Version: 6.00 Build 0)  -->
<svg version="1.1" id="Слой_1" xmlns="http://www.w3.org/2000/svg" xmlns:xlink="http://www.w3.org/1999/xlink" x="0px" y="0px"
	 viewBox="0 0 480 480" style="enable-background:new 0 0 480 480;" xml:space="preserve">
<style type="text/css">
	.st0{fill:#6EB1D3;stroke:#000000;stroke-width:1.0006;stroke-linecap:round;stroke-linejoin:round;stroke-miterlimit:10;}
	.st1{opacity:0.2;}
	.st2{fill:#477689;stroke:#000000;stroke-width:1.0006;stroke-linecap:round;stroke-linejoin:round;stroke-miterlimit:10;}
	.st3{fill:#DBDBDB;stroke:#000000;stroke-width:1.0006;stroke-linecap:round;stroke-linejoin:round;stroke-miterlimit:10;}
	.st4{fill:none;stroke:#000000;stroke-width:1.0006;stroke-linecap:round;stroke-linejoin:round;stroke-miterlimit:10;}
</style>
<g id="loot">
	<g>
		<g id="Балахон_x5F_3">
			<g id="Балахон_x5F_2_10_">
				<g>
					<path id="левая_рука_35_" class="st0" d="M220.7,167.6c-0.4-7.1-8.1-9.5-14.1-5.6c-8.6,6.7-27,14.5-34.1,16
						c-11.1,2.4-13.7,142.1-10.9,143.2s13.6-111.7,44.3-120.7c9.7-2.9,16.2-9.7,15.5-19.8L220.7,167.6z"/>
				</g>
				<g class="st1">
					<path id="левая_рука_34_" d="M220.7,167.6c-0.4-7.1-8.1-9.5-14.1-5.6c-19.2,43.6-43.5,97-46,128.4
						c-0.2,17.7,0.1,30.5,1,30.8c2.8,1.1,13.6-111.7,44.3-120.7c9.7-2.9,16.2-9.7,15.5-19.8L220.7,167.6z"/>
				</g>
				<path id="_x31_111111111111_4_" class="st0" d="M319.1,353.6c-0.5,1-6-1.4-17.2-0.5s-33.9,5.1-48.1,6.1
					c-73,5.1-91.1-16.9-92.5-18.5c-0.4-58.4,24.7-121.1,24.9-122.9c4.8-60,31.9-72.6,43.6-79.7c4.4,5.2,21.5,7,46.8-7.9
					c2.9,1.2,7,3.5,8.7,4.7c-5.9-3.2-19.6,4.3-12.5,21.5c5.7,13.6,21.1,7.6,23.8,5c5.2,21.3,5.3,50.2,4.8,61.9
					C310.5,263.5,316.4,297.5,319.1,353.6z"/>
				<path class="st0" d="M229.7,138.2c4.4,5.2,21.5,7,46.8-7.9c-1.7-5.7-5-10.6-5-10.6c-0.3,0-10.4,9-27.6,12.5
					c-1.1,0.2-2,9.8-3.5,9.8s-2-9-3-9c-2.9,0.1-7.2-1.6-7.2-1.6C230.3,131.4,230,134.2,229.7,138.2z"/>
			</g>
			<path id="Балахон_x5F_2_9_" class="st2" d="M282.3,209.1c-2.7-34.5,35.8-27,40.3,7.2c2.8,21.3-4.9,116.5-15.8,121.2
				C299.8,341.2,286.3,277.6,282.3,209.1z"/>
			<circle class="st3" cx="240.2" cy="147.5" r="6.3"/>
			<polygon class="st4" points="241.9,150.8 239.7,149.2 237.1,150.2 237.9,147.5 236.2,145.4 239,145.4 240.5,143.1 241.4,145.7 
				244,146.4 241.8,148.1 			"/>
			<path class="st3" d="M161.3,333.1l-0.1,3.4c36.9,18.9,62.8,19.4,80,15.9c9.7-2,25.9-7.1,49.5-6.4c11.9,0.3,21.6,2,28.1,3.4
				l-0.5-3.4c-6.6-1.4-16.5-3.2-28.6-3.5c-23.3-0.6-39.2,4.4-48.7,6.3C223.9,352.2,198.1,351.8,161.3,333.1z"/>
		</g>
		<path id="Балахон_x5F_3_1_" class="st0" d="M271.5,156c4.9,17.2,6.6,28.5,8.3,38.8c0.6,3.6,1.9,12.3,2.9,18.8
			c0-15.6,34.7-28.3,40.1,2.7c-3.6-25.8-13.4-41.9-21.7-58.9c-3.6-7.5-11.9-27.5-22.9-22.8C271.1,138.2,267.4,144.4,271.5,156z"/>
	</g>
</g>
</svg>
