<?xml version="1.0" encoding="utf-8"?>
<!-- Generator: Adobe Illustrator 22.1.0, SVG Export Plug-In . SVG Version: 6.00 Build 0)  -->
<svg version="1.1" id="Слой_1" xmlns="http://www.w3.org/2000/svg" xmlns:xlink="http://www.w3.org/1999/xlink" x="0px" y="0px"
	 viewBox="0 0 480 480" style="enable-background:new 0 0 480 480;" xml:space="preserve">
<style type="text/css">
	.st0{fill:#B2F6FF;stroke:#000000;stroke-width:1.0006;stroke-linecap:round;stroke-linejoin:round;stroke-miterlimit:10;}
	.st1{opacity:0.2;}
	.st2{display:none;}
	
		.st3{display:inline;fill:#68B8D5;stroke:#000000;stroke-width:1.0006;stroke-linecap:round;stroke-linejoin:round;stroke-miterlimit:10;}
	
		.st4{display:inline;fill:#86DAFD;stroke:#000000;stroke-width:1.0006;stroke-linecap:round;stroke-linejoin:round;stroke-miterlimit:10;}
	.st5{fill:#D4DDE8;stroke:#000000;stroke-linecap:round;stroke-linejoin:round;stroke-miterlimit:10;}
	.st6{opacity:0.15;}
	.st7{fill:#B2FF51;stroke:#000000;stroke-width:1.0006;stroke-linecap:round;stroke-linejoin:round;stroke-miterlimit:10;}
	.st8{opacity:0.1;}
</style>
<g>
	<g id="_x31_3_6_">
		<path id="левая_рука_33_" class="st0" d="M213.1,213c-0.6-9.7-12.1-14.3-19.3-7.7c-9.6,8.9-22.2,18.7-38.9,24.8
			c-8.8,3.2-17.6,3.5-24.9,4.4c-3.9,6.8-4.6,23.7-0.8,37.1c19.6,0.4,34.1-3.5,42.9-5.2c6-1.2,13-2.8,20.7-5.1
			c13.3-3.9,22.1-16.5,21.3-30.4L213.1,213z"/>
		<path class="st1" d="M214.2,230.9c0,0-5,8.4-18.9,14.7c-8,3.6-15.4,6.5-21.9,8.8c-9.2,3.2-24.5,8.5-45.6,11.7
			c0.3,1.7,0.7,3.7,1.7,5.7c19.6,0.4,33.8-3.7,42.6-5.4c6-1.2,13-2.8,20.7-5.1C206.2,257.3,215,244.7,214.2,230.9z"/>
		<path id="футболка_x5F__x1F_1_6_" class="st0" d="M322.7,296.3c-65.7-18.5-131.2-15.7-157.6-6.9
			c4.9-88.8,43.7-106.7,60.2-116.7c6,7.1,29.4,9.6,64.2-10.8c3.9,1.7,9.5,4.8,11.9,6.5c-8.1-4.4-26.8,5.8-17.1,29.4
			c7.9,18.6,28.8,10.4,32.6,6.9C325.6,240.7,323.8,292.6,322.7,296.3z"/>
		<g class="st2">
			<path class="st3" d="M234.8,177.2c-2.1,4.5-4.2,9.5-6.1,14.9c-2.6,7.4-4.6,14.4-5.9,20.7c4,0,7.6,0,11.7,0
				c1.2-6.2,3.1-12.8,5.1-19.8c1.5-5.4,3.2-10.6,4.9-15.3c-1.7,0.1-3.6,0.1-5.7,0C237.3,177.6,236,177.4,234.8,177.2z"/>
			<line class="st4" x1="234.3" y1="181.7" x2="239.1" y2="189.2"/>
			<line class="st4" x1="241.2" y1="182.6" x2="231.7" y2="188.1"/>
			<line class="st4" x1="230.8" y1="191.3" x2="235.6" y2="198.8"/>
			<line class="st4" x1="237.7" y1="192.2" x2="228.2" y2="197.7"/>
			<line class="st4" x1="228" y1="201.9" x2="232.8" y2="209.4"/>
			<line class="st4" x1="234.9" y1="202.9" x2="225.4" y2="208.4"/>
		</g>
		<path class="st5" d="M129,231.3c-2.2,5.5-2.7,12.7-3,19.8c-0.3,8.3,1.9,16.3,3.3,21.8c5.8-0.9,16.3-0.9,20.3-1.6
			c-2.3-5.3-7-13-6.5-21.6c0.3-4.6,1.2-13.9,4-18.6C143.1,231.4,136.9,233,129,231.3z"/>
		<path class="st6" d="M129,231.3c0,0,6.8,2.1,18.1-0.1c0,0-2.9,5-2.9,9c-0.1,5.6-17.8,4.6-17.3,0.1
			C127.1,237.8,127.4,232.9,129,231.3z"/>
		<path id="рубашка_x5F_5_1_" class="st5" d="M224.6,188.3c-3.2-0.1-9.3-11.2-9.3-11.2c-0.4-0.3,7.2-3.5,10.5-4.6
			c6,7.1,29.4,9.6,64.2-10.8c1.8,0.8,7.6,3.9,9.6,5c-3.9-1.2-7.9,0.8-9.9,2.1c-23.6,15.5-34.2,25.1-38,23.6
			c-4.2-1.7-6.8-14.3-13-14.8C232.4,177.1,227.8,188.4,224.6,188.3z"/>
		<path class="st7" d="M228.2,218.8c-0.1,1.6-1.4,2.8-3,2.7c-1.6-0.1-2.8-1.4-2.7-3c0.1-1.6,1.4-2.8,3-2.7
			C227,215.9,228.2,217.2,228.2,218.8z M222,230.8c-1.6-0.1-2.9,1.2-3,2.7c-0.1,1.6,1.2,2.9,2.7,3c1.6,0.1,2.9-1.2,3-2.7
			C224.8,232.2,223.6,230.9,222,230.8z M218.6,247.2c-1.6-0.1-2.9,1.2-3,2.7c-0.1,1.6,1.2,2.9,2.7,3c1.6,0.1,2.9-1.2,3-2.7
			C221.4,248.6,220.1,247.3,218.6,247.2z M235.5,188.6c-1.6-0.1-2.9,1.2-3,2.7c-0.1,1.6,1.2,2.9,2.7,3c1.6,0.1,2.9-1.2,3-2.7
			C238.3,190,237.1,188.7,235.5,188.6z M230,201.5c-1.6-0.1-2.9,1.2-3,2.7c-0.1,1.6,1.2,2.9,2.7,3c1.6,0.1,2.9-1.2,3-2.7
			S231.6,201.6,230,201.5z"/>
		<path class="st8" d="M135.7,241.8h-1.1c-2.1,0-3.7-1.7-3.7-3.7V237c0-2.1,1.7-3.7,3.7-3.7h1.1c2.1,0,3.7,1.7,3.7,3.7v1.1
			C139.4,240.1,137.8,241.8,135.7,241.8z"/>
		<path class="st7" d="M135.5,240.4h-0.7c-1.4,0-2.5-1.1-2.5-2.5v-0.7c0-1.4,1.1-2.5,2.5-2.5h0.7c1.4,0,2.5,1.1,2.5,2.5v0.7
			C138.1,239.3,136.9,240.4,135.5,240.4z"/>
		<path class="st1" d="M244.7,182.5c0,0,4.2,9.1,8,10c1.7,0.4,24.9-15.6,25.7-16.2C278.9,176,254.4,188.3,244.7,182.5z"/>
		<path class="st1" d="M215.3,177.1c0,0,5.5,10.3,9.3,11.2c1.7,0.4,8.1-8.2,8.9-8.8C235.4,178.2,224.8,188.6,215.3,177.1z"/>
	</g>
	<g id="_x31_3_4_">
		<path id="_x39__8_" class="st0" d="M282.9,196.9c7.9,21.9,9.7,26.5,14.2,41.7c4.5,15.2,15.9,37.1,11.6,66.8
			c16.7,1.9,41.4,0.6,45.3,0.4c-3.8-10.8-7.6-29-9.4-42c-6.7-48.4-28.5-81.4-34.2-87.7c-7.2-7.9-11.2-12.1-18.3-8.5
			C282.4,172.6,277.3,181,282.9,196.9z"/>
		<path class="st5" d="M308.2,285.4c0.9,5.6,1.2,8.3,0.5,20c5.2,1.4,13.4,3.2,23.4,3.3c9,0.1,17.1-0.5,21.9-2.8
			c-4.5-11.2-8.2-39.4-8.4-42.5c-18.5,7.8-11.7,24.9-11.7,24.9C314.6,289.6,314.1,285.7,308.2,285.4z"/>
		<path class="st8" d="M344.3,308.1c1.6,0.3,8.2-1.9,9.7-2.3c-4.1-11.2-8.2-39.4-8.4-42.5c-9.1,7.5-6.8,18.7-6.2,25.4
			c0.3,3.9,2.4,16.1,2.4,16.1C342.3,307.4,342.6,307.8,344.3,308.1z"/>
		<path class="st8" d="M316.7,301.7h-1.1c-2.1,0-3.8-1.7-3.8-3.8v-1.1c0-2.1,1.7-3.8,3.8-3.8h1.1c2.1,0,3.8,1.7,3.8,3.8v1.1
			C320.5,300,318.8,301.7,316.7,301.7z"/>
		<path class="st7" d="M316.5,300.2h-0.7c-1.4,0-2.5-1.1-2.5-2.5V297c0-1.4,1.1-2.5,2.5-2.5h0.7c1.4,0,2.5,1.1,2.5,2.5v0.7
			C319.1,299.1,317.9,300.2,316.5,300.2z"/>
	</g>
</g>
</svg>
