<?xml version="1.0" encoding="utf-8"?>
<!-- Generator: Adobe Illustrator 22.1.0, SVG Export Plug-In . SVG Version: 6.00 Build 0)  -->
<svg version="1.0" id="Слой_1" xmlns="http://www.w3.org/2000/svg" xmlns:xlink="http://www.w3.org/1999/xlink" x="0px" y="0px"
	 viewBox="0 0 480 480" enable-background="new 0 0 480 480" xml:space="preserve">
<g>
	<g id="_x31_3_5_">
		<path id="_x30__20_" fill="#F8E76F" stroke="#000000" stroke-miterlimit="10" d="M228.6,171.3c5.5,6.5,27.2,9.3,59-9.4
			c-1-2.8-8.3-9.9-10.1-10.8c-21.9,15.9-42.4,15.1-48.3,12.1C228.5,164.3,227.8,169.3,228.6,171.3z"/>
		<g>
			<path fill="#F8E76F" stroke="#000000" stroke-miterlimit="10" d="M195.8,260.8l-24-41.7l-13.7,5.4c7.3,17.5,15.2,33,25.4,43.4
				L195.8,260.8z"/>
			<path id="_x30__19_" fill="#F7EDB9" stroke="#000000" stroke-miterlimit="10" d="M238.6,180.3c-24.3-5.4-65.9-7.4-71.8,20.6
				c-1.5,6.9-0.7,11.5,2.1,19s15.2,30.4,20.3,31.7c2.8,0.9,22.9-27.4,26.2-31.5c5.5-6.8,8.8-15,13.5-22.4
				c3.4-5.3,7.4-10.2,10.1-15.9C239.3,181.5,239.1,180.4,238.6,180.3z"/>
		</g>
		<path id="_x30__18_" fill="#A00B4A" stroke="#000000" stroke-linecap="round" stroke-linejoin="round" stroke-miterlimit="10" d="
			M317.9,284.9c-60.1-16.9-120-14.4-144.1-6.4c4.4-81.2,39.6-98,54.7-107.2c5.5,6.5,27.2,9.3,59-9.4c3.6,1.5,8.7,4.4,10.9,5.9
			c-7.4-4.1-24.5,5.3-15.7,26.9c7.2,17.1,26.4,9.5,29.8,6.3C320.5,234,318.9,281.5,317.9,284.9z"/>
		<g>
			<circle fill="#F8E76F" stroke="#000000" stroke-miterlimit="10" cx="243.1" cy="170.4" r="7.9"/>
			
				<polygon fill="#DA0139" stroke="#000000" stroke-width="1.0006" stroke-linecap="round" stroke-linejoin="round" stroke-miterlimit="10" points="
				245.4,174.6 242.6,172.7 239.4,174 240.3,170.7 238.1,168 241.5,167.9 243.3,164.9 244.5,168.2 247.9,169 245.2,171.1 			"/>
		</g>
	</g>
	<g id="_x31_4_4_">
		<path fill="#F8E76F" stroke="#000000" stroke-miterlimit="10" d="M336.9,235.3l-37.7,6.7l3.2,18.2c14.3,0.4,27-1.8,37.7-6.7
			L336.9,235.3z"/>
		<path id="_x30__6_" fill="#F7EDB9" stroke="#000000" stroke-miterlimit="10" d="M283.5,234.3c5.4,8.3,11.1,11.8,18.7,12.5
			c7.1,0.6,28.6-5.1,31.1-6c12.2-4.6,21.2-12.8,9-35.4c-10.8-20-35-39.9-48.2-39c-13.2,0.9-14.8,11.6-15.4,15.4
			C278.1,185.5,272.8,217.9,283.5,234.3z"/>
	</g>
</g>
</svg>
