<?xml version="1.0" encoding="utf-8"?>
<!-- Generator: Adobe Illustrator 22.1.0, SVG Export Plug-In . SVG Version: 6.00 Build 0)  -->
<svg version="1.1" id="Слой_1" xmlns="http://www.w3.org/2000/svg" xmlns:xlink="http://www.w3.org/1999/xlink" x="0px" y="0px"
	 viewBox="0 0 480 480" style="enable-background:new 0 0 480 480;" xml:space="preserve">
<style type="text/css">
	.st0{fill:#8A1130;stroke:#000000;stroke-width:0.8224;stroke-linecap:round;stroke-linejoin:round;stroke-miterlimit:10;}
	.st1{fill:#E7A729;stroke:#000000;stroke-width:1.0006;stroke-linecap:round;stroke-linejoin:round;stroke-miterlimit:10;}
	.st2{opacity:0.2;}
	.st3{fill:#451629;stroke:#000000;stroke-width:0.8224;stroke-linecap:round;stroke-linejoin:round;stroke-miterlimit:10;}
	.st4{opacity:0.5;fill:#E7A729;enable-background:new    ;}
	.st5{fill:#466F1E;stroke:#000000;stroke-width:0.5;stroke-linecap:round;stroke-linejoin:round;stroke-miterlimit:10;}
	.st6{fill:#64A52B;stroke:#000000;stroke-width:0.25;stroke-linecap:round;stroke-linejoin:round;stroke-miterlimit:10;}
	.st7{fill:#91E83F;stroke:#000000;stroke-width:0.25;stroke-linecap:round;stroke-linejoin:round;stroke-miterlimit:10;}
	.st8{fill:#618C35;stroke:#000000;stroke-width:0.25;stroke-linecap:round;stroke-linejoin:round;stroke-miterlimit:10;}
	.st9{fill:#91E83F;stroke:#000000;stroke-width:0.5;stroke-linecap:round;stroke-linejoin:round;stroke-miterlimit:10;}
	.st10{fill:#64A52B;stroke:#000000;stroke-width:0.5;stroke-linecap:round;stroke-linejoin:round;stroke-miterlimit:10;}
</style>
<g>
	<g id="Балахон_x5F_4_5_">
		<g id="Балахон_x5F_2_4_">
			<g>
				<path id="левая_рука_4_" class="st0" d="M220.7,167.6c-0.4-7.1-8.1-9.5-14.1-5.6c-8.6,6.7-27,14.5-34.1,16
					c-11.1,2.4-13.7,142.1-10.9,143.3c2.8,1.1,13.6-111.8,44.3-120.7c9.7-2.9,16.2-9.7,15.5-19.8L220.7,167.6z"/>
			</g>
			<path class="st1" d="M167.5,281.9c0.2-14.3,2-44.9,5.3-70.3c1.4-10.6,2.7-25.1,7-35.8l-4.7,1.7c-3.7,7.5-5.8,23.2-7.2,34.8
				c-1.6,12.8-6.3,68.5-3.1,85.2L167.5,281.9z"/>
			<g class="st2">
				<path id="левая_рука_3_" d="M220.7,167.6c-0.4-7.1-8.1-9.5-14.1-5.6c-19.2,43.6-43.5,97-46,128.5
					c-0.2,17.7,0.1,30.5,1,30.8c2.8,1.1,13.6-111.8,44.3-120.7c9.7-2.9,16.2-9.7,15.5-19.8L220.7,167.6z"/>
			</g>
			<path id="_x31_111111111111_2_" class="st0" d="M319.1,353.7c-0.5,1-6-1.4-17.2-0.5s-33.9,5.1-48.1,6.1
				c-73.1,5.1-91.1-16.9-92.5-18.5c-0.4-58.4,24.7-121.1,24.9-122.9c4.8-60.1,31.9-72.6,43.6-79.7c4.4,5.2,21.5,7,46.8-7.9
				c2.9,1.2,7,3.5,8.7,4.7c-5.9-3.2-19.6,4.3-12.5,21.5c5.7,13.6,21.1,7.6,23.8,5c5.2,21.3,5.3,50.2,4.8,61.9
				C310.5,263.6,316.3,297.6,319.1,353.7z"/>
			<path class="st1" d="M229.6,138.2c4.4,5.2,21.5,7,46.8-7.9c-1.7-5.7-5-10.6-5-10.6c-0.3,0-10.5,9-27.6,12.5
				c-1.1,0.2-2,9.8-3.5,9.8s-2-9-3-9c-2.9,0.1-7.2-1.6-7.2-1.6C230.2,131.4,229.9,134.2,229.6,138.2z"/>
		</g>
		<path id="Балахон_x5F_2_3_" class="st3" d="M282.2,209.1c-2.7-34.5,35.8-27.1,40.4,7.2c2.8,21.3-4.9,116.5-15.8,121.2
			C299.7,341.3,286.3,277.7,282.2,209.1z"/>
		<polygon class="st4" points="292.3,202.1 290.1,201 288,202.1 288.4,199.7 286.7,198 289.1,197.7 290.2,195.6 291.2,197.7 
			293.6,198.1 291.9,199.8 		"/>
		<polygon class="st4" points="311.1,221.4 309,220.3 306.9,221.3 307.3,219 305.6,217.3 308,217 309,214.8 310.1,217 312.4,217.4 
			310.7,219 		"/>
		<polygon class="st4" points="297.8,250.5 295.7,249.4 293.6,250.5 294,248.1 292.3,246.4 294.7,246.1 295.7,244 296.8,246.1 
			299.1,246.5 297.4,248.1 		"/>
		<polygon class="st4" points="312.9,279.7 310.8,278.6 308.6,279.7 309.1,277.3 307.4,275.6 309.7,275.3 310.8,273.2 311.9,275.3 
			314.2,275.7 312.5,277.3 		"/>
		<polygon class="st4" points="308.1,309.8 306,308.7 303.9,309.8 304.3,307.4 302.6,305.7 305,305.4 306.1,303.3 307.1,305.4 
			309.5,305.8 307.8,307.4 		"/>
		<polygon class="st4" points="302.2,206.2 301.1,205.1 299.5,205.5 300.2,204.1 299.3,202.7 300.9,202.9 302,201.7 302.3,203.2 
			303.8,203.9 302.4,204.6 		"/>
		<polygon class="st4" points="300.4,193.8 298.9,194.1 298.2,195.6 297.4,194.2 295.9,194 296.9,192.9 296.6,191.3 298.1,192 
			299.4,191.2 299.2,192.8 		"/>
		<polygon class="st4" points="290.8,213.2 289.7,212.2 288.1,212.5 288.8,211.1 288,209.7 289.5,209.9 290.6,208.7 290.9,210.2 
			292.4,210.9 291,211.7 		"/>
		<polygon class="st4" points="301.4,244 300.2,242.9 298.6,243.2 299.3,241.8 298.5,240.4 300.1,240.6 301.1,239.4 301.4,241 
			302.9,241.6 301.5,242.4 		"/>
		<polygon class="st4" points="305.7,250.9 304.1,250.7 303,251.8 302.7,250.2 301.3,249.6 302.7,248.8 302.9,247.3 304.1,248.4 
			305.6,248.1 304.9,249.5 		"/>
		<polygon class="st4" points="302,216.2 300.5,216 299.4,217.1 299.1,215.6 297.7,214.9 299.1,214.1 299.3,212.6 300.4,213.7 
			302,213.4 301.3,214.8 		"/>
		<polygon class="st4" points="297.1,229.7 295.5,229.5 294.4,230.6 294.2,229 292.7,228.4 294.1,227.6 294.4,226.1 295.5,227.2 
			297,226.9 296.3,228.3 		"/>
		<polygon class="st4" points="299.9,260.2 298.3,259.9 297.2,261.1 296.9,259.5 295.5,258.8 296.9,258.1 297.1,256.5 298.3,257.6 
			299.8,257.3 299.1,258.8 		"/>
		<polygon class="st4" points="310.2,297.8 309,296.7 307.4,297.1 308.1,295.6 307.3,294.3 308.9,294.4 309.9,293.3 310.2,294.8 
			311.7,295.4 310.3,296.2 		"/>
		<polygon class="st4" points="302.2,270.2 301.1,269.1 299.5,269.5 300.2,268 299.3,266.7 300.9,266.8 302,265.7 302.3,267.2 
			303.8,267.8 302.4,268.6 		"/>
		<polygon class="st4" points="310.6,266.8 310,266.3 309.2,266.5 309.5,265.7 309.1,265 309.9,265.1 310.5,264.5 310.7,265.3 
			311.4,265.6 310.7,266 		"/>
		<polygon class="st4" points="292.6,238.4 292,237.8 291.2,238 291.6,237.2 291.1,236.5 292,236.6 292.5,236 292.7,236.8 
			293.4,237.1 292.7,237.5 		"/>
		<polygon class="st4" points="302.7,289.6 301.6,288.5 300,288.9 300.7,287.4 299.9,286.1 301.4,286.2 302.5,285 302.8,286.6 
			304.3,287.2 302.9,288 		"/>
		<polygon class="st4" points="314.9,241.7 313.7,240.6 312.2,240.9 312.8,239.5 312,238.1 313.6,238.3 314.6,237.1 315,238.7 
			316.4,239.3 315,240.1 		"/>
		<polygon class="st4" points="316.2,233.3 315.1,232.2 313.5,232.6 314.2,231.1 313.4,229.8 314.9,230 316,228.8 316.3,230.3 
			317.8,231 316.4,231.7 		"/>
		<polygon class="st4" points="307.1,231.7 305.7,231.1 304.3,231.9 304.5,230.3 303.3,229.3 304.8,229 305.4,227.5 306.2,228.9 
			307.8,229 306.8,230.2 		"/>
		<polygon class="st4" points="317.2,255.5 315.6,255.3 314.6,256.5 314.3,255 312.8,254.3 314.2,253.6 314.3,252 315.5,253 
			317.1,252.7 316.4,254.1 		"/>
		<polygon class="st4" points="296.5,281 294.9,280.8 293.8,282 293.5,280.4 292.1,279.8 293.5,279 293.6,277.4 294.8,278.5 
			296.3,278.1 295.7,279.6 		"/>
		<polygon class="st4" points="308.3,328.1 306.7,327.9 305.6,329.1 305.3,327.5 303.9,326.9 305.2,326.1 305.4,324.5 306.6,325.6 
			308.1,325.2 307.5,326.7 		"/>
		<polygon class="st4" points="303,297.4 301.4,297.2 300.3,298.4 300,296.8 298.6,296.2 300,295.4 300.1,293.8 301.3,294.9 
			302.8,294.6 302.2,296 		"/>
		<polygon class="st4" points="293.8,222 292.1,221.8 290.9,223.1 290.6,221.3 288.9,220.6 290.5,219.8 290.6,218 291.9,219.2 
			293.6,218.8 292.9,220.4 		"/>
		<polygon class="st4" points="315.6,208.6 314,208.4 312.9,209.6 312.6,208.1 311.2,207.4 312.5,206.7 312.7,205.1 313.9,206.1 
			315.4,205.8 314.7,207.2 		"/>
		<polygon class="st4" points="307.1,199.2 306.5,198.6 305.7,198.8 306,198 305.6,197.3 306.4,197.4 307,196.8 307.1,197.6 
			307.9,197.9 307.2,198.3 		"/>
		<polygon class="st4" points="318.1,221.1 317.5,220.5 316.7,220.7 317,220 316.6,219.2 317.4,219.3 318,218.7 318.2,219.5 
			318.9,219.9 318.2,220.3 		"/>
		<polygon class="st4" points="311.6,248.8 311,248.2 310.1,248.4 310.5,247.6 310.1,246.9 310.9,247 311.4,246.4 311.6,247.2 
			312.4,247.5 311.6,247.9 		"/>
		<polygon class="st4" points="306.3,258.9 305.7,258.3 304.9,258.5 305.3,257.7 304.8,257 305.7,257.1 306.2,256.5 306.4,257.3 
			307.1,257.6 306.4,258 		"/>
		<polygon class="st4" points="313.3,289 312.5,288.6 311.8,289 311.9,288.2 311.3,287.6 312.1,287.5 312.5,286.7 312.9,287.5 
			313.7,287.6 313.1,288.2 		"/>
		<polygon class="st4" points="300.6,278 299.8,277.7 299.1,278.1 299.2,277.3 298.6,276.7 299.4,276.6 299.7,275.8 300.1,276.5 
			301,276.6 300.4,277.2 		"/>
		<polygon class="st4" points="293.2,266.8 292.6,266.3 291.7,266.5 292.1,265.7 291.7,265 292.5,265.1 293,264.5 293.2,265.3 
			294,265.6 293.2,266 		"/>
		<polygon class="st4" points="317,263.8 316.4,263.2 315.5,263.4 315.9,262.6 315.5,261.9 316.3,262 316.8,261.4 317,262.2 
			317.8,262.5 317,263 		"/>
		<polygon class="st4" points="319.4,247.6 318.8,247 318,247.2 318.3,246.4 317.9,245.7 318.7,245.8 319.3,245.2 319.4,246 
			320.2,246.3 319.5,246.8 		"/>
		<polygon class="st4" points="318.4,272 317.3,270.9 315.7,271.3 316.4,269.8 315.6,268.5 317.1,268.7 318.2,267.5 318.5,269 
			320,269.7 318.6,270.4 		"/>
		<polygon class="st4" points="295.3,290.2 294.6,289.8 293.8,290.2 294,289.3 293.4,288.7 294.2,288.6 294.6,287.9 295,288.7 
			295.8,288.8 295.2,289.4 		"/>
		<polygon class="st4" points="300.2,309.8 299.6,309.2 298.8,309.4 299.1,308.7 298.7,308 299.5,308.1 300.1,307.4 300.2,308.2 
			301,308.6 300.3,309 		"/>
		<polygon class="st4" points="303,317.5 302.4,317 301.6,317.1 301.9,316.4 301.5,315.7 302.3,315.8 302.9,315.1 303,316 
			303.8,316.3 303.1,316.7 		"/>
		<polygon class="st4" points="310.3,315.3 309.8,314.6 309,314.5 309.5,313.9 309.3,313.1 310.1,313.4 310.8,312.9 310.7,313.8 
			311.4,314.3 310.5,314.5 		"/>
		<polygon class="st4" points="314.1,303.3 313.5,302.7 312.6,302.9 313,302.1 312.6,301.4 313.4,301.5 313.9,300.9 314.1,301.7 
			314.9,302 314.1,302.4 		"/>
		<polygon class="st4" points="309.5,321.6 308.8,321.1 308,321.3 308.4,320.5 308,319.8 308.8,319.9 309.3,319.2 309.5,320.1 
			310.3,320.4 309.5,320.8 		"/>
		<g>
			<circle class="st1" cx="240.1" cy="147.6" r="7.5"/>
			<g>
				<polygon class="st5" points="242.2,151.6 239.5,149.7 236.5,150.8 237.4,147.7 235.4,145.2 238.7,145.1 240.5,142.4 
					241.5,145.5 244.7,146.4 242.1,148.3 				"/>
				<g>
					<polyline class="st6" points="239.9,147 238.6,145.1 235.5,145.2 239.9,147 					"/>
					<polyline class="st6" points="239.9,147 237.4,147.7 236.5,150.8 239.9,147 					"/>
					<polygon class="st7" points="241.5,145.5 239.9,147 240.5,142.6 					"/>
					<polygon class="st6" points="244.6,146.4 239.9,147 242.2,148.4 					"/>
					<polyline class="st8" points="239.9,147 242.2,151.6 239.5,149.7 239.9,147 					"/>
				</g>
			</g>
		</g>
		<path class="st1" d="M161.3,333.2l-0.1,3.4c36.9,18.9,62.8,19.4,80,15.9c9.7-2,25.9-7.1,49.6-6.4c11.9,0.3,21.6,2,28.1,3.4
			l-0.5-3.4c-6.6-1.4-16.5-3.2-28.6-3.5c-23.3-0.6-39.2,4.4-48.7,6.3C223.9,352.3,198.1,351.9,161.3,333.2z"/>
		<polygon class="st4" points="294.3,273.2 293.7,272.6 292.9,272.8 293.2,272.1 292.8,271.4 293.6,271.5 294.2,270.8 294.4,271.6 
			295.1,272 294.4,272.4 		"/>
		<g>
			<polygon class="st5" points="249.3,132.8 247.9,136.3 250.4,139.1 252.2,135.4 			"/>
			<polygon class="st9" points="249.3,132.8 250.4,135.8 247.9,136.3 			"/>
			<polygon class="st10" points="250.4,139.1 250.4,135.8 247.9,136.3 			"/>
			<polygon class="st10" points="249.3,132.8 250.4,135.8 252.2,135.4 			"/>
		</g>
		<g>
			<polygon class="st5" points="259.4,129.2 258.4,132.9 261.2,135.5 262.6,131.6 			"/>
			<polygon class="st9" points="259.4,129.2 260.8,132.1 258.4,132.9 			"/>
			<polygon class="st10" points="261.2,135.5 260.8,132.1 258.4,132.9 			"/>
			<polygon class="st10" points="259.4,129.2 260.8,132.1 262.6,131.6 			"/>
		</g>
		<g>
			<polygon class="st5" points="268.7,124.9 268.2,128.7 271.3,130.8 272.2,126.8 			"/>
			<polygon class="st9" points="268.7,124.9 270.5,127.6 268.2,128.7 			"/>
			<polygon class="st10" points="271.3,130.8 270.5,127.6 268.2,128.7 			"/>
			<polygon class="st10" points="268.7,124.9 270.5,127.6 272.2,126.8 			"/>
		</g>
		<g>
			<polygon class="st5" points="234,133.9 235.3,136.7 233.4,139.1 231.7,136.2 			"/>
			<polygon class="st9" points="234,133.9 233.2,136.4 235.3,136.7 			"/>
			<polygon class="st10" points="233.4,139.1 233.2,136.4 235.3,136.7 			"/>
			<polygon class="st10" points="234,133.9 233.2,136.4 231.7,136.2 			"/>
		</g>
	</g>
	<g id="Балахо_x5F__4">
		<path id="Балахон_x5F_4_4_" class="st0" d="M271.4,156c4.9,17.2,6.6,28.5,8.3,38.9c0.6,3.6,1.9,12.3,2.9,18.8
			c0-15.6,34.7-28.4,40.1,2.7c-3.6-25.8-13.4-41.9-21.7-59c-3.6-7.5-11.9-27.5-22.9-22.8C271.1,138.3,267.3,144.4,271.4,156z"/>
		<path id="Балахон_x5F_4_3_" class="st1" d="M280.4,198.3c10.9-10.3,23.6-13.7,36.4-5.5l1.5,4.9
			c-14.3-9.4-26.5-6.2-37.1,5.9L280.4,198.3z"/>
	</g>
</g>
</svg>
