<?xml version="1.0" encoding="utf-8"?>
<!-- Generator: Adobe Illustrator 22.1.0, SVG Export Plug-In . SVG Version: 6.00 Build 0)  -->
<svg version="1.1" id="Слой_1" xmlns="http://www.w3.org/2000/svg" xmlns:xlink="http://www.w3.org/1999/xlink" x="0px" y="0px"
	 viewBox="0 0 480 480" style="enable-background:new 0 0 480 480;" xml:space="preserve">
<style type="text/css">
	.st0{fill:#F8E76F;stroke:#000000;stroke-miterlimit:10;}
	.st1{fill:#406D19;stroke:#000000;stroke-width:1.0006;stroke-linecap:round;stroke-linejoin:round;stroke-miterlimit:10;}
	.st2{opacity:0.2;}
	.st3{fill:#569424;stroke:#000000;stroke-width:1.0006;stroke-linecap:round;stroke-linejoin:round;stroke-miterlimit:10;}
	.st4{fill:none;stroke:#000000;stroke-miterlimit:10;}
	.st5{fill:#F1CC30;stroke:#000000;stroke-width:1.0006;stroke-linecap:round;stroke-linejoin:round;stroke-miterlimit:10;}
	.st6{opacity:0.1;}
	.st7{fill:#AF0000;stroke:#000000;stroke-width:1.0006;stroke-linecap:round;stroke-linejoin:round;stroke-miterlimit:10;}
	.st8{fill:#BB6E6E;}
</style>
<g>
	<g id="_x31_4_1_">
		<g>
			<path class="st0" d="M192.9,264l-24.6-42.6l-14.1,5.5c7.4,17.9,15.6,33.8,25.9,44.4L192.9,264z"/>
			<path id="_x30__27_" class="st1" d="M236.7,181.7c-24.8-5.5-67.4-7.6-73.4,21c-1.5,7.1-0.7,11.8,2.2,19.4s15.5,31.1,20.7,32.5
				c2.9,0.9,23.4-28,26.8-32.3c5.6-7,9-15.3,13.8-22.9c3.4-5.4,7.6-10.5,10.3-16.2C237.4,182.9,237.2,181.8,236.7,181.7z"/>
		</g>
		<path id="левая_рука_41_" class="st1" d="M159.9,224.8c-8.2,3-15.8,5.3-22.6,6.2c-3.7,6.4-4.3,22.2-0.7,34.7
			c18.3,0.4,31.9-3.3,40.1-4.9L159.9,224.8z"/>
		<path class="st2" d="M216,227.5c0,0-4.7,7.9-17.7,13.7c-7.5,3.4-14.4,6.1-20.5,8.2c-8.6,3-22.9,7.9-42.6,10.9
			c0.3,1.6,0.7,3.4,1.6,5.3c18.3,0.4,31.6-3.4,39.8-5c5.6-1.1,12.2-2.6,19.4-4.7C208.5,252.3,216.7,240.5,216,227.5z"/>
		<path id="футболка_x5F__x1F_1_1_" class="st3" d="M317.5,288.7c-61.5-17.3-122.7-14.7-147.3-6.5
			c4.5-83,40.8-99.8,56.3-109.1c5.6,6.6,27.5,9,60-10.1c3.7,1.6,8.9,4.4,11.1,6.1c-7.5-4.1-25.1,5.5-16,27.5
			c7.4,17.4,27,9.7,30.5,6.4C320.1,236.7,318.5,285.3,317.5,288.7z"/>
		<path class="st0" d="M234.8,177c-2.9,12.6-5.7,26.5-8.4,41.7c-3.6,20.7-6.2,39.5-8.1,57.1c5.5,0,10.4,0.2,16,0.2
			c1.6-17.3,4.2-35.3,7-54.7c2.1-15.2,4.8-30.6,7.1-43.9c-2.3,0.3-4.9,0.7-8,0.7C238.4,178,236.5,177.6,234.8,177z"/>
		<path class="st4" d="M226,275.8c1.9-17.6,3.6-37.4,7.3-58.2l0,0.3c2.7-15.2,4.6-27.5,7.3-40.1"/>
		<path class="st5" d="M136.3,228.3c-2,5.1-2.5,11.5-2.8,18.2c-0.3,7.8,1.7,14,3,19.2c3.7-0.1,15.1-0.8,18.7-1.1
			c-2.2-5-6.5-9.2-6.3-20.4c0.1-7.2,1.2-12.7,3.8-17C148.6,227.7,143.7,229.9,136.3,228.3z"/>
		<path class="st5" d="M226.8,173c5.6,6.6,27.5,9,60-10.1c-2.1-7.3-6.3-13.6-6.3-13.6c-0.3,0-13.4,11.5-35.3,16
			c-1.5,0.3-2.6,12.6-4.5,12.5c-1.9,0-2.5-11.5-3.8-11.5c-3.7,0.1-9.2-2-9.2-2C227.5,164.3,227.2,167.9,226.8,173z"/>
	</g>
	<g id="_x31_5_1_">
		<path id="_x39__1_" class="st1" d="M280.2,195.8c7.4,20.5,9.1,24.8,13.2,39c4.2,14.2,10.3,31.8,12.3,62.6
			c13.7,6.3,38.5-2.7,38.3-5.7c-5.4-60.8-31.5-108-38.2-115.4c-6.7-7.4-10.4-11.3-17.1-8C279.7,173.1,275,180.9,280.2,195.8z"/>
		<path class="st0" d="M332.8,235.1c-10.5,5-24.1,8.9-36.3,10.1l4.1,15.6c18.8,0.6,25.8-2.2,37.4-6.4L332.8,235.1z"/>
		<path class="st5" d="M303.9,278.6c0.8,5.2,1.2,7.8,0.5,18.7c4.8,1.3,12.5,3,21.9,3c8.4,0.1,16-0.4,20.5-2.7
			c-4.2-10.4-7.7-36.9-7.9-39.7c-17.3,7.3-13.1,22.2-13.1,22.2C317.7,281.7,309.4,278.8,303.9,278.6z"/>
		<path class="st6" d="M337.7,299.8c1.5,0.3,7.6-1.8,9-2.2c-3.8-10.5-7.7-36.9-7.9-39.7c-8.5,7-6.3,17.5-5.8,23.7
			c0.3,3.7,2.2,15,2.2,15C335.8,299.1,336,299.5,337.7,299.8z"/>
		<g>
			<polygon class="st7" points="339.7,262.5 348.1,271.7 343.1,285.1 332.8,274.3 			"/>
			<polygon class="st8" points="341,268.9 338.6,273.9 342.6,278.3 344.4,273.2 			"/>
		</g>
		<path id="_x30__1_" class="st1" d="M282.6,236.9c5.5,8.5,11.4,12.1,19.1,12.8c7.3,0.7,29.3-5.2,31.8-6.2
			c12.5-4.7,21.7-13.1,9.2-36.2c-11.1-20.4-35.8-40.8-49.3-39.9s-15.2,11.8-15.8,15.7C277.1,187,271.7,220.2,282.6,236.9z"/>
	</g>
</g>
</svg>
