<?xml version="1.0" encoding="utf-8"?>
<!-- Generator: Adobe Illustrator 22.1.0, SVG Export Plug-In . SVG Version: 6.00 Build 0)  -->
<svg version="1.0" id="Слой_1" xmlns="http://www.w3.org/2000/svg" xmlns:xlink="http://www.w3.org/1999/xlink" x="0px" y="0px"
	 viewBox="0 0 480 480" enable-background="new 0 0 480 480" xml:space="preserve">
<g>
	
		<path id="левая_рука_46_" fill="#86D9FD" stroke="#000000" stroke-width="1.0006" stroke-linecap="round" stroke-linejoin="round" stroke-miterlimit="10" d="
		M212.4,212.4c-0.6-9.6-12-14.2-19.1-7.6c-9.5,8.8-22,18.5-38.6,24.6c-8.7,3.2-17.4,3.4-24.7,4.4c-3.9,6.8-4.6,23.5-0.8,36.8
		c19.4,0.4,33.8-3.5,42.6-5.2c6-1.2,12.9-2.8,20.6-5c13.2-3.9,21.9-16.4,21.1-30.1L212.4,212.4z"/>
	<path opacity="0.2" d="M213.5,230.2c0,0-5,8.3-18.7,14.6c-8,3.6-15.3,6.5-21.7,8.7c-9.1,3.2-24.3,8.4-45.2,11.6
		c0.3,1.7,0.7,3.6,1.7,5.7c19.4,0.4,33.5-3.6,42.3-5.3c6-1.2,12.9-2.8,20.6-5C205.6,256.5,214.3,243.9,213.5,230.2z"/>
	
		<path id="футболка_x5F__x1F_1_9_" fill="#86D9FD" stroke="#000000" stroke-width="1.0006" stroke-linecap="round" stroke-linejoin="round" stroke-miterlimit="10" d="
		M321.1,295.1c-65.2-18.4-130.1-15.6-156.3-6.9c4.8-88.1,43.3-105.8,59.7-115.8c6,7,29.2,9.5,63.6-10.7c3.9,1.6,9.4,4.7,11.8,6.4
		c-8-4.4-26.6,5.8-17,29.2c7.8,18.5,28.6,10.3,32.3,6.8C323.9,239.9,322.2,291.5,321.1,295.1z"/>
	
		<polygon fill="#86DAFD" stroke="#000000" stroke-width="1.0006" stroke-linecap="round" stroke-linejoin="round" stroke-miterlimit="10" points="
		344.8,271.9 354,281.5 349.5,295.8 338.4,284.6 	"/>
	<polygon fill="#C8ECF5" points="346.3,278.6 343.9,284 348.3,288.6 350.1,283.1 	"/>
	
		<path fill="#F1CC30" stroke="#000000" stroke-width="1.0006" stroke-linecap="round" stroke-linejoin="round" stroke-miterlimit="10" d="
		M233.9,176.9c-2.1,4.5-4.1,9.4-6.1,14.8c-2.6,7.4-4.5,14.3-5.9,20.6c4,0,7.6,0,11.6,0c1.2-6.1,3.1-12.7,5.1-19.6
		c1.5-5.4,3.2-10.5,4.9-15.2c-1.7,0.1-3.6,0.1-5.7,0C236.4,177.3,235.1,177.2,233.9,176.9z"/>
	<path fill="#F1CC30" stroke="#000000" stroke-linecap="round" stroke-linejoin="round" stroke-miterlimit="10" d="M128.9,230.6
		c-2.1,5.5-2.7,12.6-2.9,19.7c-0.3,8.3,1.9,16.1,3.3,21.6c5.7-0.9,16.2-0.9,20.1-1.6c-2.3-5.3-7-12.9-6.5-21.4
		c0.3-4.6,1.2-13.8,3.9-18.4C143,230.8,136.9,232.3,128.9,230.6z"/>
	<path opacity="0.15" d="M128.9,230.6c0,0,6.7,2.1,17.9-0.1c0,0-2.8,5-2.9,8.9c-0.1,5.6-17.6,4.6-17.2,0.1
		C127,237.1,127.4,232.3,128.9,230.6z"/>
	
		<polygon fill="#86DAFD" stroke="#000000" stroke-width="0.5" stroke-linecap="round" stroke-linejoin="round" stroke-miterlimit="10" points="
		231.1,198.9 226.8,202.6 228.2,208.8 233.3,204.5 	"/>
	<polygon fill="#C8ECF5" points="230.2,201.7 231,204.1 229,205.8 228.4,203.5 	"/>
	
		<polygon fill="#86DAFD" stroke="#000000" stroke-width="0.5" stroke-linecap="round" stroke-linejoin="round" stroke-miterlimit="10" points="
		235.8,184.2 231.3,187.7 232.3,194 237.7,190 	"/>
	<polygon fill="#C8ECF5" points="234.7,187 235.4,189.4 233.3,191 232.8,188.6 	"/>
	<g id="_x31_3_7_">
		
			<path id="_x39__9_" fill="#86D9FD" stroke="#000000" stroke-width="1.0006" stroke-linecap="round" stroke-linejoin="round" stroke-miterlimit="10" d="
			M281.6,196.5c7.9,21.7,9.6,26.3,14,41.4c4.4,15.1,15.7,36.8,11.5,66.2c16.6,1.9,41,0.6,44.9,0.4c-3.8-10.7-7.6-28.8-9.4-41.7
			c-6.7-48-28.3-80.8-33.9-87c-7.1-7.8-11.1-12-18.2-8.5C281.1,172.4,276.1,180.7,281.6,196.5z"/>
		<path fill="#F1CC30" stroke="#000000" stroke-linecap="round" stroke-linejoin="round" stroke-miterlimit="10" d="M306.7,284.3
			c0.9,5.5,1.2,8.2,0.5,19.8c5.1,1.4,13.3,3.2,23.2,3.2c9,0.1,17-0.5,21.7-2.8c-4.5-11.1-8.1-39.1-8.3-42.1
			c-18.3,7.7-11.6,24.7-11.6,24.7C313.1,288.5,312.6,284.6,306.7,284.3z"/>
		<path opacity="0.1" d="M342.6,306.8c1.6,0.3,8.1-1.9,9.6-2.3c-4.1-11.1-8.1-39.1-8.3-42.1c-9.1,7.4-6.7,18.5-6.2,25.2
			c0.3,3.9,2.4,15.9,2.4,15.9C340.6,306.1,340.8,306.5,342.6,306.8z"/>
		
			<polygon fill="#86DAFD" stroke="#000000" stroke-width="1.0006" stroke-linecap="round" stroke-linejoin="round" stroke-miterlimit="10" points="
			344.8,271.9 354,281.5 349.5,295.8 338.4,284.6 		"/>
		<polygon fill="#C8ECF5" points="346.3,278.6 343.9,284 348.3,288.6 350.1,283.1 		"/>
	</g>
</g>
</svg>
