<?xml version="1.0" encoding="utf-8"?>
<!-- Generator: Adobe Illustrator 22.1.0, SVG Export Plug-In . SVG Version: 6.00 Build 0)  -->
<svg version="1.1" id="Слой_1" xmlns="http://www.w3.org/2000/svg" xmlns:xlink="http://www.w3.org/1999/xlink" x="0px" y="0px"
	 viewBox="0 0 480 480" style="enable-background:new 0 0 480 480;" xml:space="preserve">
<style type="text/css">
	.st0{opacity:0.2;clip-path:url(#XMLID_5_);}
	.st1{opacity:0.2;clip-path:url(#XMLID_6_);}
	.st2{fill:#FFCC3E;stroke:#000000;stroke-width:0.9921;stroke-linecap:round;stroke-linejoin:round;stroke-miterlimit:10;}
	.st3{fill:#BC902E;stroke:#000000;stroke-width:0.9921;stroke-linecap:round;stroke-linejoin:round;stroke-miterlimit:10;}
	.st4{fill:none;stroke:#000000;stroke-linecap:round;stroke-linejoin:round;stroke-miterlimit:10;}
	.st5{opacity:0.2;clip-path:url(#XMLID_7_);}
	.st6{opacity:0.5;clip-path:url(#XMLID_7_);fill:#EFD800;}
	.st7{fill:#FFCC3E;}
	.st8{opacity:0.2;clip-path:url(#_x32__1_);}
	.st9{opacity:0.5;clip-path:url(#_x32__1_);fill:#F70000;}
	.st10{opacity:0.2;clip-path:url(#_x32__2_);}
	.st11{opacity:0.5;clip-path:url(#_x32__2_);fill:#EFD800;}
</style>
<g>
	<g>
		<defs>
			<path id="XMLID_4_" d="M136.1,229.4l-2.3,40c19.4-0.7,40.9-4.6,59.7-12l-1.5-52.4C176.5,216.2,157.2,225.1,136.1,229.4z"/>
		</defs>
		<use xlink:href="#XMLID_4_"  style="overflow:visible;fill:#B50602;"/>
		<clipPath id="XMLID_5_">
			<use xlink:href="#XMLID_4_"  style="overflow:visible;"/>
		</clipPath>
		<path class="st0" d="M139.8,284.1c-3.9-5.1-14.1-30.1-13.8-34.9c0.3-4.8,61.9-21.4,61.9-21.4l-5.9,41.1L139.8,284.1z"/>
		
			<use xlink:href="#XMLID_4_"  style="overflow:visible;fill:none;stroke:#000000;stroke-linecap:round;stroke-linejoin:round;stroke-miterlimit:10;"/>
	</g>
	<g>
		<defs>
			<path id="XMLID_3_" d="M227.9,169.6c0,0,8.1,9.4,57.9-9.2c5.4,1.7,11.2,2,20.9,9.6c26.3,22.9,21.1,102.7,21.1,102.7l7.7,97.4
				c-1.8,0.4-14.8,1.8-14.8,1.8l-5.3-36.3c0,0-1.3,23.5-3.4,37.3c-23.5,2.2-55.3,1.6-87.4,0.2c-1.1,0-2.8-4.8-2.8-4.8
				s-3,4.6-4.2,4.5c-30.1-1.5-66.4-5.6-72.5-9.5c7.3-34.7,23.6-71.5,23.5-77.6c-0.2-12.7,4.7-41.9,8.9-52.1
				C187.9,195.8,212.5,181.6,227.9,169.6z"/>
		</defs>
		<use xlink:href="#XMLID_3_"  style="overflow:visible;fill:#B50602;"/>
		<clipPath id="XMLID_6_">
			<use xlink:href="#XMLID_3_"  style="overflow:visible;"/>
		</clipPath>
		<path class="st1" d="M284.3,380.4c9.9-2.7-5.2-120.3-12.2-177.7c-2-16.6,8.6-29.2,13.2-31.8c1-0.6,10.2,46.4,16.4,66.3
			c2.3,7.6,4.3,15.2,6.6,22.8c3.1,10.2,22.4,122.2,19.2,122.2C310.1,382.2,281.1,381.3,284.3,380.4z"/>
		
			<use xlink:href="#XMLID_3_"  style="overflow:visible;fill:none;stroke:#000000;stroke-linecap:round;stroke-linejoin:round;stroke-miterlimit:10;"/>
	</g>
	<path class="st2" d="M236.2,169l-0.4,9.3c16.8-1.7,34.4-9.8,50.1-17.8l-8.3-10C279.7,153.3,257.6,166,236.2,169z"/>
	<g>
		<path class="st3" d="M228.3,163.2c0,0,0.8-1,2.4-0.9l1.7,5C231.6,167.8,228.2,164.3,228.3,163.2z"/>
		<path class="st2" d="M236.2,169l-0.4,9.3c-5.7-1.7-8.6-3.7-12-6.6l4.6-8.5C228.1,164.4,230.2,167.3,236.2,169z"/>
	</g>
	<path class="st4" d="M221.9,368.3c-0.2-12.6-0.1-26.4,0.4-40.7c0,0,0,0,0,0 M223.9,290.9c-0.5,8.5-0.9,16.9-1.2,25.1 M226.5,254.9
		c-0.7,7.9-1.3,15.9-1.8,23.8 M230.4,216.6c-1,8.7-2,17.6-2.8,26.6 M235.7,178.2c-1.4,8.6-2.7,17.6-3.9,26.8"/>
	<g>
		<defs>
			<path id="XMLID_2_" d="M133.8,227.3c-2.7,14.6-2.6,30.2-1.5,44.8c10.3,0.6,19.8-1.3,30-4.1c-0.9-17.3-0.5-34.2,1.7-50.4
				C152.1,222.4,142.1,226.1,133.8,227.3z"/>
		</defs>
		<use xlink:href="#XMLID_2_"  style="overflow:visible;fill:#F2C300;"/>
		<clipPath id="XMLID_7_">
			<use xlink:href="#XMLID_2_"  style="overflow:visible;"/>
		</clipPath>
		<path class="st5" d="M129.7,275.7c-0.4-1.4-1.5-30.4-1.5-30.4c12.9-0.5,25.6-2.5,38.6-7.9l-0.3,32L129.7,275.7z"/>
		<polygon class="st6" points="131.6,223.3 130,231.8 164.9,223.9 164.9,214.3 		"/>
		
			<use xlink:href="#XMLID_2_"  style="overflow:visible;fill:none;stroke:#000000;stroke-linecap:round;stroke-linejoin:round;stroke-miterlimit:10;"/>
	</g>
	<g>
		<path class="st7" d="M239.2,211.3c0.2-1.7-0.8-3.3-2.6-4c-1.6-0.6-3-0.5-4.9,0.6l0,0c0.2,0.2,0.4,0.5,0.6,0.7
			c0.4,0.5,0.5,0.6,0.6,0.6c0.1,0,0.4-0.1,0.7-0.2c1.1-0.4,2.1-0.3,3,0.4c0.5,0.4,0.8,0.9,0.8,1.5c0,0.5-0.3,1-0.8,1.4
			c-0.4,0.3-1.1,0.5-1.7,0.5c-0.7,0-1.3,0.3-2,0.7c-0.1,0-0.2,0.1-0.2,0.1c0.9,0.9,1.9,1.2,3,1C237.6,214.3,239,213,239.2,211.3z"/>
		<path class="st7" d="M250.6,213c0.2,0,0.5-0.1,0.6-0.3c0.2-0.2,0.3-0.4,0.3-0.7c0-0.5-0.4-0.9-0.9-0.9c-2.4-0.1-4.8-0.4-7.1-0.6
			c-1.1-0.1-2.2-0.3-3.4-0.4L240,212c1.3,0.1,2.6,0.3,3.8,0.4C246,212.7,248.3,213,250.6,213l0,0.3h0V213z"/>
		<path class="st7" d="M227.8,214.3L227.8,214.3c0.4,0,0.8-0.1,1.2-0.2c0.9-0.2,1.8-0.7,2.7-1.1c0.2-0.1,0.5-0.2,0.7-0.4
			c0.9-0.4,1.8-0.8,3-0.8c0,0,0,0,0,0c0.3,0,0.6-0.1,0.8-0.3c0.2-0.2,0.3-0.4,0.3-0.6c0-0.5-0.5-0.9-1.1-0.9l-0.2,0
			c-1,0-1.9,0.2-2.8,0.7l-0.8,0.4c-0.7,0.4-1.5,0.8-2.2,1.1c-0.5,0.2-1.1,0.3-1.5,0.3l-0.2,0c-1,0-1.9-0.1-3-0.2l-0.6,0
			c0.1,0.1,0.2,0.3,0.2,0.4C225.3,213.7,226.5,214.3,227.8,214.3z"/>
		<path class="st7" d="M214.8,209c0,0.4,0.3,0.7,0.9,0.9c1.1,0.5,7.9,1.4,11.3,1.4c0.1,0,0.3,0,0.4,0l0.2,0c0.7,0,1.3,0,1.9-0.3
			l-0.2-0.2c-0.4-0.4-0.8-0.9-1.2-1.3c0,0-0.2-0.1-0.3-0.1c-0.7,0-2.1-0.1-4.1-0.3l-0.5,0l0,0c-2.7-0.3-5.7-0.7-7.4-1
			c0,0-0.1,0-0.1,0c-0.2,0-0.4,0.1-0.6,0.2C214.9,208.5,214.8,208.7,214.8,209z"/>
		<path class="st7" d="M230.2,207.7c-0.7-0.7-1.5-1-2.5-1c-1.3,0-2.8,0.7-3.4,1.8c0,0,0,0.1-0.1,0.1c0.2,0,0.4,0,0.6,0
			c0.9,0,1.7,0,2.5,0c0.1,0,0.2,0,0.2,0c0.6,0,1.1,0.2,1.5,0.6l1.3,1.5l1.7-0.9l-0.5-0.5C231.2,208.7,230.7,208.2,230.2,207.7z"/>
	</g>
	<g>
		<path class="st7" d="M235,249.9c0.2-1.7-0.8-3.3-2.6-4c-1.6-0.6-3-0.5-4.9,0.6l0,0c0.2,0.2,0.4,0.5,0.6,0.7
			c0.4,0.5,0.5,0.6,0.6,0.6c0.1,0,0.4-0.1,0.7-0.2c1.1-0.4,2.1-0.3,3,0.4c0.5,0.4,0.8,0.9,0.8,1.5c0,0.5-0.3,1-0.8,1.4
			c-0.4,0.3-1.1,0.5-1.7,0.5c-0.7,0-1.3,0.3-2,0.7c-0.1,0-0.2,0.1-0.2,0.1c0.9,0.9,1.9,1.2,3,1C233.4,252.9,234.9,251.5,235,249.9z"
			/>
		<path class="st7" d="M246.4,251.5c0.2,0,0.5-0.1,0.6-0.3c0.2-0.2,0.3-0.4,0.3-0.7c0-0.5-0.4-0.9-0.9-0.9c-2.4-0.1-4.8-0.4-7.1-0.6
			c-1.1-0.1-2.2-0.3-3.4-0.4l-0.1,1.8c1.3,0.1,2.6,0.3,3.8,0.4C241.9,251.2,244.1,251.5,246.4,251.5l0,0.3h0V251.5z"/>
		<path class="st7" d="M223.7,252.8L223.7,252.8c0.4,0,0.8-0.1,1.2-0.2c0.9-0.2,1.8-0.7,2.7-1.1c0.2-0.1,0.5-0.2,0.7-0.4
			c0.9-0.4,1.8-0.8,3-0.8c0,0,0,0,0,0c0.3,0,0.6-0.1,0.8-0.3c0.2-0.2,0.3-0.4,0.3-0.6c0-0.5-0.5-0.9-1.1-0.9l-0.2,0
			c-1,0-1.9,0.2-2.8,0.7l-0.8,0.4c-0.7,0.4-1.5,0.8-2.2,1.1c-0.5,0.2-1.1,0.3-1.5,0.3l-0.2,0c-1,0-1.9-0.1-3-0.2l-0.6,0
			c0.1,0.1,0.2,0.3,0.2,0.4C221.2,252.2,222.4,252.8,223.7,252.8z"/>
		<path class="st7" d="M210.7,247.5c0,0.4,0.3,0.7,0.9,0.9c1.1,0.5,7.9,1.4,11.3,1.4c0.1,0,0.3,0,0.4,0l0.2,0c0.7,0,1.3,0,1.9-0.3
			l-0.2-0.2c-0.4-0.4-0.8-0.9-1.2-1.3c0,0-0.2-0.1-0.3-0.1c-0.7,0-2.1-0.1-4.1-0.3l-0.5,0l0,0c-2.7-0.3-5.7-0.7-7.4-1
			c0,0-0.1,0-0.1,0c-0.2,0-0.4,0.1-0.6,0.2C210.7,247,210.6,247.3,210.7,247.5z"/>
		<path class="st7" d="M226,246.2c-0.7-0.7-1.5-1-2.5-1c-1.3,0-2.8,0.7-3.4,1.8c0,0,0,0.1-0.1,0.1c0.2,0,0.4,0,0.6,0
			c0.9,0,1.7,0,2.5,0c0.1,0,0.2,0,0.2,0c0.6,0,1.1,0.2,1.5,0.6l1.3,1.5l1.7-0.9l-0.5-0.5C227,247.2,226.5,246.7,226,246.2z"/>
	</g>
	<g>
		<path class="st7" d="M232.2,285.3c0.2-1.7-0.8-3.3-2.6-4c-1.6-0.6-3-0.5-4.9,0.6l0,0c0.2,0.2,0.4,0.5,0.6,0.7
			c0.4,0.5,0.5,0.6,0.6,0.6c0.1,0,0.4-0.1,0.7-0.2c1.1-0.4,2.1-0.3,3,0.4c0.5,0.4,0.8,0.9,0.8,1.5c0,0.5-0.3,1-0.8,1.4
			c-0.4,0.3-1.1,0.5-1.7,0.5c-0.7,0-1.3,0.3-2,0.7c-0.1,0-0.2,0.1-0.2,0.1c0.9,0.9,1.9,1.2,3,1C230.6,288.3,232,286.9,232.2,285.3z"
			/>
		<path class="st7" d="M243.6,287c0.2,0,0.5-0.1,0.6-0.3c0.2-0.2,0.3-0.4,0.3-0.7c0-0.5-0.4-0.9-0.9-0.9c-2.4-0.1-4.8-0.4-7.1-0.6
			c-1.1-0.1-2.2-0.3-3.4-0.4L233,286c1.3,0.1,2.6,0.3,3.8,0.4C239,286.6,241.3,286.9,243.6,287l0,0.3c0,0,0,0,0,0V287z"/>
		<path class="st7" d="M220.9,288.2L220.9,288.2c0.4,0,0.8-0.1,1.2-0.2c0.9-0.2,1.8-0.7,2.7-1.1c0.2-0.1,0.5-0.2,0.7-0.4
			c0.9-0.4,1.8-0.8,3-0.8c0,0,0,0,0,0c0.3,0,0.6-0.1,0.8-0.3c0.2-0.2,0.3-0.4,0.3-0.6c0-0.5-0.5-0.9-1.1-0.9l-0.2,0
			c-1,0-1.9,0.2-2.8,0.7l-0.8,0.4c-0.7,0.4-1.5,0.8-2.2,1.1c-0.5,0.2-1.1,0.3-1.5,0.3l-0.2,0c-1,0-1.9-0.1-3-0.2l-0.6,0
			c0.1,0.1,0.2,0.3,0.2,0.4C218.4,287.7,219.5,288.2,220.9,288.2z"/>
		<path class="st7" d="M207.8,283c0,0.4,0.3,0.7,0.9,0.9c1.1,0.5,7.9,1.4,11.3,1.4c0.1,0,0.3,0,0.4,0l0.2,0c0.7,0,1.3,0,1.9-0.3
			l-0.2-0.2c-0.4-0.4-0.8-0.9-1.2-1.3c0,0-0.2-0.1-0.3-0.1c-0.7,0-2.1-0.1-4.1-0.3l-0.5,0l0,0c-2.7-0.3-5.7-0.7-7.4-1
			c0,0-0.1,0-0.1,0c-0.2,0-0.4,0.1-0.6,0.2C207.9,282.5,207.8,282.7,207.8,283z"/>
		<path class="st7" d="M223.2,281.6c-0.7-0.7-1.5-1-2.5-1c-1.3,0-2.8,0.7-3.4,1.8c0,0,0,0.1-0.1,0.1c0.2,0,0.4,0,0.6,0
			c0.9,0,1.7,0,2.5,0c0.1,0,0.2,0,0.2,0c0.6,0,1.1,0.2,1.5,0.6l1.3,1.5l1.7-0.9l-0.5-0.5C224.2,282.7,223.7,282.1,223.2,281.6z"/>
	</g>
	<g>
		<path class="st7" d="M230.5,321.6c0.2-1.7-0.8-3.3-2.6-4c-1.6-0.6-3-0.5-4.9,0.6l0,0c0.2,0.2,0.4,0.5,0.6,0.7
			c0.4,0.5,0.5,0.6,0.6,0.6c0.1,0,0.4-0.1,0.7-0.2c1.1-0.4,2.1-0.3,3,0.4c0.5,0.4,0.8,0.9,0.8,1.5c0,0.5-0.3,1-0.8,1.4
			c-0.4,0.3-1.1,0.5-1.7,0.5c-0.7,0-1.3,0.3-2,0.7c-0.1,0-0.2,0.1-0.2,0.1c0.9,0.9,1.9,1.2,3,1C228.9,324.6,230.3,323.3,230.5,321.6
			z"/>
		<path class="st7" d="M241.9,323.3c0.2,0,0.5-0.1,0.6-0.3c0.2-0.2,0.3-0.4,0.3-0.7c0-0.5-0.4-0.9-0.9-0.9c-2.4-0.1-4.8-0.4-7.1-0.6
			c-1.1-0.1-2.2-0.3-3.4-0.4l-0.1,1.8c1.3,0.1,2.6,0.3,3.8,0.4C237.3,323,239.6,323.3,241.9,323.3l0,0.3h0V323.3z"/>
		<path class="st7" d="M219.2,324.6L219.2,324.6c0.4,0,0.8-0.1,1.2-0.2c0.9-0.2,1.8-0.7,2.7-1.1c0.2-0.1,0.5-0.2,0.7-0.4
			c0.9-0.4,1.8-0.8,3-0.8c0,0,0,0,0,0c0.3,0,0.6-0.1,0.8-0.3c0.2-0.2,0.3-0.4,0.3-0.6c0-0.5-0.5-0.9-1.1-0.9l-0.2,0
			c-1,0-1.9,0.2-2.8,0.7l-0.8,0.4c-0.7,0.4-1.5,0.8-2.2,1.1c-0.5,0.2-1.1,0.3-1.5,0.3l-0.2,0c-1,0-1.9-0.1-3-0.2l-0.6,0
			c0.1,0.1,0.2,0.3,0.2,0.4C216.7,324,217.8,324.6,219.2,324.6z"/>
		<path class="st7" d="M206.1,319.3c0,0.4,0.3,0.7,0.9,0.9c1.1,0.5,7.9,1.4,11.3,1.4c0.1,0,0.3,0,0.4,0l0.2,0c0.7,0,1.3,0,1.9-0.3
			l-0.2-0.2c-0.4-0.4-0.8-0.9-1.2-1.3c0,0-0.2-0.1-0.3-0.1c-0.7,0-2.1-0.1-4.1-0.3l-0.5,0l0,0c-2.7-0.3-5.7-0.7-7.4-1
			c0,0-0.1,0-0.1,0c-0.2,0-0.4,0.1-0.6,0.2C206.2,318.8,206.1,319.1,206.1,319.3z"/>
		<path class="st7" d="M221.5,318c-0.7-0.7-1.5-1-2.5-1c-1.3,0-2.8,0.7-3.4,1.8c0,0,0,0.1-0.1,0.1c0.2,0,0.4,0,0.6,0
			c0.9,0,1.7,0,2.5,0c0.1,0,0.2,0,0.2,0c0.6,0,1.1,0.2,1.5,0.6l1.3,1.5l1.7-0.9l-0.5-0.5C222.5,319,222,318.5,221.5,318z"/>
	</g>
	<g>
		<defs>
			<path id="_x32__26_" d="M281.9,196.2c7.7,21.2,22.5,74,24.6,105.9c14.1,6.5,46-3.9,45.8-7c-5.6-62.8-34.3-113.5-41.2-121.2
				c-6.9-7.6-12.7-10.1-19.6-6.6C282.2,172.1,276.5,180.9,281.9,196.2z"/>
		</defs>
		<use xlink:href="#_x32__26_"  style="overflow:visible;fill:#B50602;"/>
		<clipPath id="_x32__1_">
			<use xlink:href="#_x32__26_"  style="overflow:visible;"/>
		</clipPath>
		<path class="st8" d="M284.5,168c3.5,11.6,29.3,84.8,31,107.5c0.1,1.4-7.1,5.8-9.2,5.9c-2.1,0.1-4.1-0.5-6.1-1.2
			c-3.2-1-26-95-26.6-96.7C273,181.6,284.1,166.6,284.5,168z"/>
		<path class="st9" d="M323.2,161.7c1.3,0.6,1.9,2.1,2.3,3.5c3.5,11.6,4.9,23.7,8.2,35.4c6.1,22,18.4,42.4,20.2,65.1
			c0.1,1.4,0.2,2.9-0.5,4.2c-0.9,1.9-3.1,2.9-5.2,3c-2.1,0.1-6.8,0.8-6.1-1.2c1.7-5.1-22.1-94.3-38.8-105.2
			C293.3,159.9,321.4,160.8,323.2,161.7z"/>
		
			<use xlink:href="#_x32__26_"  style="overflow:visible;fill:none;stroke:#000000;stroke-linecap:round;stroke-linejoin:round;stroke-miterlimit:10;"/>
	</g>
	<g>
		<defs>
			<path id="_x32__25_" d="M300.3,272.5c2.1,11.3,3.7,22,4.3,31.1c15.4,7.1,50.1-4.3,49.9-7.6c-1-11.4-2.7-22.3-4.9-32.8
				C342.5,269.8,319.6,274.6,300.3,272.5z"/>
		</defs>
		<use xlink:href="#_x32__25_"  style="overflow:visible;fill:#F2C300;"/>
		<clipPath id="_x32__2_">
			<use xlink:href="#_x32__25_"  style="overflow:visible;"/>
		</clipPath>
		<path class="st10" d="M287.2,260.7l24.5,10.1l6.2,40.8c0,0-20.3-0.8-20-2C298.2,308.6,287.2,260.7,287.2,260.7z"/>
		<polygon class="st11" points="344.4,265 352.5,306.3 359,297.3 352.5,258.8 		"/>
		
			<use xlink:href="#_x32__25_"  style="overflow:visible;fill:none;stroke:#000000;stroke-linecap:round;stroke-linejoin:round;stroke-miterlimit:10;"/>
	</g>
</g>
</svg>
