<?xml version="1.0" encoding="utf-8"?>
<!-- Generator: Adobe Illustrator 22.1.0, SVG Export Plug-In . SVG Version: 6.00 Build 0)  -->
<svg version="1.0" id="Слой_1" xmlns="http://www.w3.org/2000/svg" xmlns:xlink="http://www.w3.org/1999/xlink" x="0px" y="0px"
	 viewBox="0 0 480 480" enable-background="new 0 0 480 480" xml:space="preserve">
<g>
	
		<path id="_x31_0_4_" fill="#1E105A" stroke="#000000" stroke-width="1.0006" stroke-linecap="round" stroke-linejoin="round" stroke-miterlimit="10" d="
		M131.3,264.8c39,19.9,67,12.2,85,3.3c-21.1-18.7-37.6-42.1-59.4-60.1c-14.5-12-50.2-34.4-67.1-14.5
		C70.4,216.2,113.3,254.4,131.3,264.8"/>
	<g id="_x31_0_1_">
		
			<path fill="#411CA7" stroke="#000000" stroke-width="1.0006" stroke-linecap="round" stroke-linejoin="round" stroke-miterlimit="10" d="
			M134.1,193.2c21.4,4.8,40.1,4.1,62,4.4c33.3-19.3,64.2-44.5,95.2-57.2c1.5,33.9,7.5,76.8,7.2,105.5c22.3,25.7,46.1,34.3,69.9,35.8
			c-3.7,10.8-30.2,28-81.3,19.5c-26.3-4.4-50.9-15.3-70.8-32.9c-21.1-18.7-37.6-42.1-59.4-60.1c-5.3-4.4-13.5-10.2-22.5-14.8
			L134.1,193.2z"/>
		<path fill="#D4DDE8" stroke="#000000" stroke-linecap="round" stroke-linejoin="round" stroke-miterlimit="10" d="M298.5,245.8
			c-16.4,1.6-31.9-0.1-58.4-12.5c-16.4-7.7-33.5-21-44-35.8c1.7-3.6,7.2-6.4,9.9-6.4c16.7,15.7,49.5,36.6,92.7,41.1
			C299.9,236.6,299.6,241.3,298.5,245.8z"/>
		<path opacity="0.2" d="M254.6,234.1c3.8-31.7,33-84.4,33-84.4s-7.2,54.8-5.5,90.3c1.7,35.5,65.1,52.1,65.1,52.1
			c-25.9,11.1-66.9,4.3-74.7-1.4C264.5,285.2,250.7,266.5,254.6,234.1z"/>
		
			<circle fill="#86DAFD" stroke="#000000" stroke-width="1.0006" stroke-linecap="round" stroke-linejoin="round" stroke-miterlimit="10" cx="212.8" cy="205.4" r="9.4"/>
		<circle fill="#69AFC6" cx="212.5" cy="210.4" r="3.5"/>
		<circle fill="#69AFC6" cx="217.2" cy="209.1" r="2.5"/>
		<circle fill="#FFFFFF" cx="211.5" cy="200.4" r="2.6"/>
	</g>
</g>
</svg>
