<?xml version="1.0" encoding="utf-8"?>
<!-- Generator: Adobe Illustrator 22.1.0, SVG Export Plug-In . SVG Version: 6.00 Build 0)  -->
<svg version="1.0" id="Слой_1" xmlns="http://www.w3.org/2000/svg" xmlns:xlink="http://www.w3.org/1999/xlink" x="0px" y="0px"
	 viewBox="0 0 480 480" enable-background="new 0 0 480 480" xml:space="preserve">
<title>Body_4_(Shekhtman) 8</title>
<g>
	<path id="_x32__2_" fill="#263611" stroke="#000000" stroke-linecap="round" stroke-linejoin="round" stroke-miterlimit="10" d="
		M138.2,262.7c37.3,19.1,72.5,9.6,89.6,1.1c-20.2-17.9-44.3-38.2-65.2-55.4c-13.9-11.4-48-32.9-64.2-13.9
		C80,216.1,121,252.7,138.2,262.7"/>
	<g id="_x31_2_1_">
		
			<path fill="#503D16" stroke="#000000" stroke-width="0.9921" stroke-linecap="round" stroke-linejoin="round" stroke-miterlimit="10" d="
			M138.8,193.4c10.7,7.7,27.5,19.9,47.5,35.7c49,38.8,52.7,48,76.2,57c36.1,13.8,70.7,8.7,79.9,7.1c10.8-1.9,19.6-4.6,26-6.9
			c-15.8-8.2-32.1-17.4-48.9-27.9c-7.4-4.6-14.5-9.3-21.3-13.9c-32.6-15.4-65.3-30.8-97.9-46.2c-10.7,0-22.2-0.5-34.5-1.6
			C156.2,195.9,147.2,194.8,138.8,193.4z"/>
		
			<path fill="#8CF3ED" stroke="#000000" stroke-width="0.9921" stroke-linecap="round" stroke-linejoin="round" stroke-miterlimit="10" d="
			M207.2,194.2c-0.6-0.1-1.9-0.3-3.5,0.2c-2.6,1-3.4,3.5-3.5,3.9c13,9,29.1,18.7,48.3,27.7c18.1,8.5,35,14.4,49.6,18.5
			c0.6-1.3,1.4-3.6,1.4-6.7c0-2.8-0.7-5-1.3-6.3c-13.5-3.4-28.7-8-45-14.6C235.4,209.7,220,201.8,207.2,194.2z"/>
		
			<path fill="#503D16" stroke="#000000" stroke-width="0.9921" stroke-linecap="round" stroke-linejoin="round" stroke-miterlimit="10" d="
			M207.2,194.2c12.8,7.6,28.2,15.6,46.1,22.8c16.3,6.6,31.5,11.2,45,14.6c2.4-19.5-4.7-38.6-19.2-49.2
			C259,167.8,227.2,171.5,207.2,194.2z"/>
		<path opacity="0.2" d="M263.9,235.5c7.3,18.1,14.7,36.1,22,54.2c7.8,1.5,17.7,2.7,29.2,2.4c9.4-0.3,17.6-1.5,24.3-2.9
			c-17.9-15.2-35.8-30.5-53.7-45.7C278.4,240.8,271.1,238.1,263.9,235.5z"/>
		<path opacity="0.2" d="M264.8,230.9c3,1.4,6.2,2.7,9.7,4.1c3.9,1.5,7.6,2.7,11.1,3.7c0-3.1,0.1-6.3,0.1-9.4
			c-3.2-0.6-6.5-1.5-10.1-2.5c-3.4-1-6.5-2.1-9.4-3.2C265.7,225.9,265.2,228.4,264.8,230.9z"/>
		<path opacity="0.2" d="M285.5,226c-6.2-2.1-12.4-4.1-18.6-6.2c3.4-4.9,9.2-15.1,8.7-28.3c-0.1-3.2-0.6-6-1.2-8.6
			c2.9,2.2,8,6.6,11.2,14C291.7,210.5,286.6,223.4,285.5,226z"/>
	</g>
</g>
</svg>
