<?xml version="1.0" encoding="utf-8"?>
<!-- Generator: Adobe Illustrator 22.1.0, SVG Export Plug-In . SVG Version: 6.00 Build 0)  -->
<svg version="1.1" id="Слой_1" xmlns="http://www.w3.org/2000/svg" xmlns:xlink="http://www.w3.org/1999/xlink" x="0px" y="0px"
	 viewBox="0 0 480 480" style="enable-background:new 0 0 480 480;" xml:space="preserve">
<style type="text/css">
	.st0{fill:#48454A;stroke:#000000;stroke-width:1.0006;stroke-linecap:round;stroke-linejoin:round;stroke-miterlimit:10;}
	.st1{fill:#888A98;stroke:#000000;stroke-width:0.9921;stroke-linecap:round;stroke-linejoin:round;stroke-miterlimit:10;}
	.st2{fill:#AD1236;stroke:#000000;stroke-miterlimit:10;}
	.st3{opacity:0.3;enable-background:new    ;}
	.st4{fill:none;stroke:#000000;stroke-width:1.0006;stroke-linecap:round;stroke-linejoin:round;stroke-miterlimit:10;}
</style>
<g id="loot">
	<g>
		<path id="_x31_3_3_" class="st0" d="M134,217.3c13.1,19.5,62.5,37.4,79.6,47.7c17.1,10.4,128.2,88.4,113.3,50.1
			c-14.9-38.3-66.4-89.4-91.3-98.6C210.8,207.3,120.9,197.8,134,217.3z"/>
		<g id="_x31_3_1_">
			<path id="XMLID_1_" class="st1" d="M308.5,155.9l24.5,12.2c5.1,2.6,8.8,7.2,10.2,12.8l0.8,3.4c2.3,9.4,5,22.3,2.1,31.5l-5.3,16.8
				l0.6-25.7c0.1-2.8-1-5.6-2.9-7.7l-8-8.9c-1.4-1.6-3.3-2.6-5.4-3l-14.8,1l-3.5,8.5l3.4,4.9l-5.8,1.3l1.4,25.3
				c0,0,25.4,48.6,22,93.3c0.1-1.6-0.3-3.7-1.4-6.3c-14.9-38.3-66.4-78.7-96.5-91.7s-89.3-21.6-97.1-11.8
				c5.1-6.6,13.2-24.1,78.2-25.7c5.3-5.4,16-11.4,24.2-17.8c7.6-5.9,24.8-9.1,34.3-10.3l30.7-3.4C303.2,154.2,306,154.6,308.5,155.9
				z"/>
			<path class="st2" d="M211.1,186c6.6,0,13.8,0.5,21.5,1.8c36.1,6.3,60.8,27.6,73.2,40.4l0.1-4.2c-9.3-11-34.7-37.7-72.6-41.1
				c-6.8-0.6-13.3-0.4-19.2,0.3L211.1,186z"/>
			<path class="st3" d="M254.4,237.1c16.2,9.6,38.6,29.7,55.3,49.6c0-36.1-16.3-60.6-16.3-60.6c0.7-14.9-1.4-33.1-1.4-33.1
				c-0.1-0.7,0.2-1.5,0.7-2l12.1-10.8c0.5-0.5,1.2-0.7,1.9-0.6l17.6,2.7c3.4,0.5,6.6,1.9,9.3,3.9l7.6,9.2l-7.6-13
				c-1.8-2-4-3.6-6.5-4.6l-10.6-4.3c-6.5-2.6-13.6-2.6-20-0.2c-1.7,0.7-25,6.9-34,30.2C262.5,203.5,260.6,217,254.4,237.1z"/>
			<path class="st4" d="M326.6,315.1c-58.6-127.2-182-113.3-191.5-105"/>
		</g>
	</g>
</g>
</svg>
