<?xml version="1.0" encoding="utf-8"?>
<!-- Generator: Adobe Illustrator 22.1.0, SVG Export Plug-In . SVG Version: 6.00 Build 0)  -->
<svg version="1.1" id="Слой_1" xmlns="http://www.w3.org/2000/svg" xmlns:xlink="http://www.w3.org/1999/xlink" x="0px" y="0px"
	 viewBox="0 0 480 480" style="enable-background:new 0 0 480 480;" xml:space="preserve">
<style type="text/css">
	.st0{fill:#6F0000;stroke:#000000;stroke-width:1.0006;stroke-linecap:round;stroke-linejoin:round;stroke-miterlimit:10;}
	.st1{fill:#F7E567;stroke:#000000;stroke-width:0.75;stroke-miterlimit:10;}
	.st2{opacity:0.2;}
	.st3{fill:#B22A2A;stroke:#000000;stroke-width:1.0006;stroke-linecap:round;stroke-linejoin:round;stroke-miterlimit:10;}
	.st4{fill:#B22A2A;}
	.st5{fill:none;stroke:#000000;stroke-width:1.0006;stroke-linecap:round;stroke-linejoin:round;stroke-miterlimit:10;}
	.st6{fill:#3B68FA;stroke:#000000;stroke-width:0.9921;stroke-linecap:round;stroke-linejoin:round;stroke-miterlimit:10;}
	.st7{fill:#ACCDFC;}
	.st8{fill:#73A0FB;}
	
		.st9{display:none;fill:none;stroke:#000000;stroke-width:1.0006;stroke-linecap:round;stroke-linejoin:round;stroke-miterlimit:10;}
	.st10{fill:none;stroke:#000000;stroke-width:0.75;stroke-miterlimit:10;}
	.st11{fill:#86DAFD;stroke:#000000;stroke-width:1.0006;stroke-linecap:round;stroke-linejoin:round;stroke-miterlimit:10;}
	.st12{fill:#DAF9FF;stroke:#000000;stroke-width:1.0006;stroke-linecap:round;stroke-linejoin:round;stroke-miterlimit:10;}
	.st13{fill:#92F5FF;stroke:#000000;stroke-width:1.0006;stroke-linecap:round;stroke-linejoin:round;stroke-miterlimit:10;}
	.st14{display:none;}
	
		.st15{display:inline;fill:#E4D767;stroke:#000000;stroke-width:1.0006;stroke-linecap:round;stroke-linejoin:round;stroke-miterlimit:10;}
	
		.st16{display:inline;fill:none;stroke:#000000;stroke-width:1.0006;stroke-linecap:round;stroke-linejoin:round;stroke-miterlimit:10;}
</style>
<title>Body_4_(Shekhtman) 5</title>
<g>
	<g id="_x31_4_3_">
		<path id="_x31_4_4_" class="st0" d="M321.4,295.4c-4.2-33.7-20-49.7-27.8-56.6c-4.4-3.9-8.3-6.3-12.3-8
			c35.8-10.6,26.2-26.6,24.1-36.7c-2.5-11.8-8.9-49.6-48.4-67.6l-8.2-6.7c-4.1-0.4-17.5-1.9-29.4,4.5c-7.2,3.4-26.4,21.8-36.1,35.8
			c-7.3,10.6-10.8,21.8-16.1,33.5c-2.7,6.1-5.2,12.4-5.6,19.1c0,16.2,22,23.9,31.6,25.5c-10.8,5.5-18.1,10.8-23,16.8
			c-0.2,0.3-0.5,0.6-0.7,0.9c0,0,0,0,0,0.1c-4.8,6.1-8.1,13.8-8.7,22.7c-3.6,53.3,39.5,74.9,70.8,79
			C262.6,361.6,329,334.3,321.4,295.4z"/>
		<path class="st1" d="M227.3,132.5c-3.7-0.4-9.9-0.8-16.8,5.7c-4.1,3.8-18.9,19.6-25.7,31.6c-3.7,6.5-5.9,13.2-8.8,20.1
			c-1.1,2.6-2.2,5.3-3.4,8c-2.1,4.7-4.1,9.7-4.5,14.8c0.1,10.9,16.1,20.3,23.9,21.5c1.7,0.3,6.3,2,6,3.6c-0.2,1.5-5.2,0.4-6.7,0.4
			c-0.2,0-2.3-0.4-2.5-0.5c-8.2-1.5-27.8-8.6-27.8-24.8c0-0.1,0.1-1.3,0.1-1.4c1-6,2.4-10.7,4.8-15.9c1.2-2.6,2.4-5.5,3.5-8.1
			c3-7.2,5.5-14.5,9.8-21.5c7.4-12.2,24.1-31.7,30.5-35.1c1.8-0.9,8.7-5,11.1-3.4"/>
	</g>
	<g id="_x31_4_1_">
		<path class="st2" d="M294.6,283.8c-26.3-8.6-44.5-10-58.5-18.6c-7-4.3-11.5-13.2-11.8-14.7c-3.4,7.4-11,12.7-17.5,14.4
			c-7.6,2-16.6,1.1-24.7,1.1c0,0,0,0-0.1,0c-16.4,1.2-19.2,6.3-21.8,10.4c6.3-0.8,18.5-7.4,24.8-7.1c6.3,0.3,5.8,0.2,12.9,0.1
			c17-0.8,21.5-5.8,22.9-5.6c3.1,0.4,14.4,12.6,43.8,20c20.6,5.1,44,9.4,55.5,28.7C317,308.7,325.1,293.8,294.6,283.8z"/>
		<path id="КАПЮШОН_x5F_1A_1_" class="st3" d="M258.9,120.1c10.9,1.6,19,9.3,24.3,15.2c5.5,6.1,9.2,13.6,14.7,19.6
			c4.9,5.3,5.8,6.1,12.3,9c0.7,0.3-5.5,17.7-11.3,23.6c-0.5,0.6-1.1,1.1-1.8,1.4c-1.1,0.4-2.4-0.1-3.4-0.7
			c-7.1-3.6-13.6-8.4-19-14.3c-4.8-5.3-8.7-11.3-12.6-17.2c-5.1-7.9-10.3-15.8-15.4-23.6c-1.6-2.4-6.8-10.6,1.3-13.4
			C249.1,119.8,257.4,119.9,258.9,120.1z"/>
		<path class="st3" d="M296.3,238.6c-8.4-7.4-17.7-9.3-26.9-11.2c-6.3,6.7-51.3,12-75.8,10.5c-18.6,9.3-26.9,18.2-30.9,30.8
			c2.6-4.1,10.1-3,19.4-2.7c8.1,0.3,17.1,0.9,24.8-1.1c6.5-1.7,14.1-7.1,17.5-14.4c0.3,1.5,4.8,10.5,11.8,14.7
			c13.9,8.6,31.5,12.6,58.5,18.6c16.5,3.7,23.5,8.6,26.8,12.4C317.4,261.9,304.2,245.6,296.3,238.6z"/>
		<path class="st2" d="M282.7,230.1c-6,1.5-13.5,4.1-22,5.4c-11.8,1.8-18.2,3-36,4c-16.1,0.9-25.3-0.7-31.9-1.3
			c-5.9,3-11.1,6.3-15,9.4c-7.2,5.9-4.7,7.4,7.8,2.6c12.4-4.8,21.1-2.1,32.3-4.4c4.7-1.3,6.6-4.2,6.6-4.2s3.1,2.6,7.5,4.1
			c9.5,2.7,14.3,2.2,29.3,1.4c15-0.9,14.9-0.2,27.1,4.8c10.4,4.2,16.8-1.2,10.8-9c-1.1-1.4-2.5-3-4.1-4.8
			C292.1,234.8,286.9,231.9,282.7,230.1z"/>
		<path class="st3" d="M193.4,238.2c0.8,0.1,1.5,0.2,2.1,0.2c7.6,0.4,14.3,2.2,30.6,1c16.3-1.1,24.4,1,35.3,0.2
			c63.9-5,46.5-33.6,44-45.5c-2.5-11.8-8.9-49.6-48.4-67.6l-8.2-6.7c-4.1-0.4-17.5-1.9-29.4,4.5c-0.6,0.3-1.4,0.7-2.2,1.3
			c0,0,0,0,0,0c0,0,0,0-0.1,0c-0.4,0.2-0.7,0.5-1.1,0.8c-0.1,0.1-0.3,0.2-0.4,0.3c-0.3,0.2-0.5,0.4-0.8,0.6
			c-0.2,0.1-0.4,0.3-0.6,0.4c-0.2,0.2-0.5,0.4-0.7,0.6c-0.4,0.3-0.8,0.6-1.2,0.9c-0.2,0.1-0.4,0.3-0.6,0.4c0,0,0,0,0,0
			c-0.1,0.1-0.3,0.2-0.4,0.3c1.3-1.1,4-1.8,6.8-2c9.8-0.7,19.5,19,25,25.9c8.7,10.8,15.9,24.3,18.4,30.3
			c4.5,10.8,13.6,23.6,6.8,35.1c-6.8,11.4-11.9,12.7-25.1,13.1c-13.2,0.5-25.7,2.3-34.4,3.2"/>
		<path class="st3" d="M186.7,236.6"/>
		<path class="st4" d="M243.7,119.9c3.9,0.3,7.7,0.4,11.1,0.5l3,4.2l-1.9,4.6L243.7,119.9z"/>
		<g>
			<path class="st1" d="M298.6,272.9c-14.9-4-46-10.8-60.4-20.1c-7.2-4.6-11.8-14.3-12.2-15.9c-3.6,7.9-11.4,13.7-18.1,15.6
				c-12.8,3.5-27.9-1.1-38.6,3.3c-4.6,6.1-7.2,12.8-9.1,20.5c9.2-16,29.8-6.5,46.4-11c6.5-1.8,14.1-7.3,17.6-14.9
				c0.3,1.6,4.8,10.8,11.8,15.2c14,8.9,44.3,15.4,58.8,19.2c23.4,6.2,24.4,17.4,25.5,27.5c2.7-9.1,1.1-17.8-0.5-26.6
				C316.9,280.7,310.7,276.2,298.6,272.9z"/>
			<path class="st5" d="M163.2,267.4c10.6-8.3,28.4-1.9,43.1-5.7c6.7-1.7,14.5-7.2,18.1-14.8c0.3,1.6,4.9,10.7,12.1,15.1
				c14.4,8.8,45.4,15.2,60.2,19c18.9,4.8,23.6,15.2,25,23.2"/>
			<g>
				<polygon class="st6" points="245.4,256.7 251.4,264.9 263,263.1 256.7,254.6 				"/>
				<polygon class="st7" points="250.2,258.4 252.9,262.1 258.2,261.3 255.4,257.4 				"/>
			</g>
			<g>
				<polygon class="st6" points="272.5,266.1 279.9,274.1 290.9,270.9 282.7,261.7 				"/>
				<polygon class="st8" points="277.5,267.1 280.9,270.7 285.9,269.3 282.1,265.1 				"/>
			</g>
			<g>
				<polygon class="st6" points="299.7,273.2 306.1,281.8 315.9,281 312.3,271.9 				"/>
				<polygon class="st8" points="305.6,275.5 308.1,278.8 311.9,278.5 310.5,274.9 				"/>
			</g>
			<g>
				<polygon class="st6" points="208,252.5 201.1,248.8 194.3,254 202.7,259.2 				"/>
				<polygon class="st7" points="204.2,253.1 201.4,251.6 198.6,253.7 202,255.8 				"/>
			</g>
			<g>
				<polygon class="st6" points="183.7,253.7 176.4,248.7 169,256.2 175.8,260.3 				"/>
				<polygon class="st8" points="178.9,253.8 176,251.9 173.1,254.8 175.8,256.5 				"/>
			</g>
		</g>
		<g>
			<path class="st1" d="M192.1,238.4c2.3,0.1,20.8,1.5,29.1,1.5c20.8-0.2,22.4-0.5,34.5-0.3c3,0.1,13.7-5.4,17.6-10.8
				c1.9-2.6,6.6-8.9,5.5-23.3c-1-12.2-9.3-29-22.6-49c-14.1-21.3-23.1-31.9-35.5-32c-3.5,0-9.8,5.5-10.4,6.3
				c-0.1,0.1,1.9-1.7,10,1.9c6.2,2.8,9.7,6.5,10.9,7.7c13.4,13.4,24.2,35.4,28.7,44.2c5.2,10.2,10.9,22.6,4.1,33.7
				c-6.8,11.1-17.7,13.5-26.5,14.4c-4.5,0.5-4.8,0.5-8.7,0.8c-4.9,0.4-7.4,0.9-7.4,0.9c-7.5,0.6-9.1,0.7-12.5,1.1
				c-1.1,0.1-12.3-0.3-17.3-1.2 M195.5,237.1"/>
			<path class="st9" d="M225.2,141.7c14.4,7,28.8,33.9,32.5,42.7c4.5,10.5,11.4,23.6,4.6,34.7c-6.8,11.1-19,13-27.8,13.9
				c-10.3,1.1-10.3,1.1-21,2 M211.5,129.1 M191,238.7c10.2,1.5,15.6,1.2,26.8,1.1c20.8-0.2,22.8,0.1,34.9,0.2
				c5.5,0,13.6-4.4,17.7-9.7c3-3.9,6.6-10,5.5-24.4c-1-12.2-8.1-29.8-22.6-49c-17.6-23.4-26.8-30.8-34.2-30.5
				c-3.5,0.1-6.7,2.2-7.4,2.7"/>
			<path class="st9" d="M194.3,237.3c10.4,2.3,19.8,1.5,27.5,0.8c9.9-0.9,18.7,0.1,29.3,0.2c5,0,14.6-4.2,18.3-9.4
				c2.7-3.9,5.8-8.6,4.8-22.6c-0.9-11.9-7.5-30-21.3-48.7c-15.3-20.7-25.3-26.3-33-25.4"/>
			<path class="st10" d="M210.3,130.7c-0.1,0.1,8.1-5.8,16.2-0.4c5.6,3.7,9.3,7.2,10.4,8.5c13.1,14,23.7,36.9,28,46.1
				c5.1,10.6,9.6,23.8,3.6,35.6c-4.4,8.6-12.3,14.8-20.8,16.5c-4.4,0.9-15.7,2.3-19.5,2.7c-4.8,0.4-6.6,0.1-6.6,0.1"/>
		</g>
		<g>
			<polygon class="st11" points="235.8,244.8 227.6,251.1 218.2,251.9 213.3,245 214.1,237.5 220.9,232 231.8,231.3 236.8,236.5 			
				"/>
			<polygon class="st12" points="227.7,241.3 224.5,244.1 220.7,244.3 218.4,241.7 218.9,239 222.3,236.2 226.2,236 228.2,238.3 			
				"/>
			<polygon class="st13" points="227.6,251.1 224.5,244.1 227.7,241.3 235.8,244.8 			"/>
			<polygon class="st11" points="227.6,251.1 224.5,244.1 220.7,244.3 218.4,241.7 213.3,245 218.2,251.9 			"/>
			<polygon class="st13" points="222.3,236.2 220.9,232 231.8,231.3 236.8,236.5 227.9,237.9 226.2,236 			"/>
		</g>
		<g class="st14">
			<path class="st15" d="M210.6,129.6c-15.1,10.6-33.9,32.7-43.8,51.3c-7.5,14-15,26.3-6.4,41.4c0.5,0.9,1.1,1.7,1.7,2.5
				c7,8.7,10.5,9.5,16.2,11.3c13.2,4.4,29.6,4.2,39.5,3.4c11-0.9,23.1,0.1,34.9,0.2c5.5,0,13.6-4.4,17.7-9.7c3-3.9,6.6-10,5.5-24.4
				c-1-12.2-8.1-29.8-22.6-49C228.7,124,220.5,122.6,210.6,129.6z M262.4,218.9c-6.8,11.1-19,13-27.8,13.9c-10.3,1.1-10.3,1.1-21,2
				c-8.3,0.2-25.3,0.9-40.5-11.7c-14.9-12.4-3-31.2,6.5-46.1c13.4-21.3,23.5-35.2,37.5-37.1c16.7-2.2,36.2,33.8,40.7,44.3
				C262.3,194.7,269.2,207.8,262.4,218.9z"/>
			<path class="st16" d="M166.1,222.3c0.5,0.9,1,1.7,1.6,2.5c8.2,9.8,12.1,10.1,17.2,11.9c12,4.3,24.2,3.3,33.2,2.5
				c9.9-0.9,18.7,0.1,29.3,0.2c5,0,14.6-4.2,18.3-9.4c2.7-3.9,5.8-8.6,4.8-22.6c-0.9-11.9-7.5-30-21.3-48.7
				c-21.7-29.4-32.8-28.3-41.8-21.4c-13.7,10.4-26.5,26.4-35.5,44.6C165.1,195.5,158.4,206,166.1,222.3"/>
		</g>
	</g>
</g>
</svg>
