<?xml version="1.0" encoding="utf-8"?>
<!-- Generator: Adobe Illustrator 22.1.0, SVG Export Plug-In . SVG Version: 6.00 Build 0)  -->
<svg version="1.1" id="Слой_1" xmlns="http://www.w3.org/2000/svg" xmlns:xlink="http://www.w3.org/1999/xlink" x="0px" y="0px"
	 viewBox="0 0 480 480" style="enable-background:new 0 0 480 480;" xml:space="preserve">
<style type="text/css">
	.st0{fill:#000EC1;stroke:#000000;stroke-width:1.0006;stroke-linecap:round;stroke-linejoin:round;stroke-miterlimit:10;}
	.st1{fill:#FFE000;stroke:#000000;stroke-width:0.5;stroke-miterlimit:10;}
	.st2{clip-path:url(#SVGID_2_);}
	.st3{fill:#FFE000;}
	.st4{clip-path:url(#SVGID_2_);fill:#FFE000;}
	.st5{fill:none;stroke:#000000;stroke-width:1.0006;stroke-linecap:round;stroke-linejoin:round;stroke-miterlimit:10;}
	.st6{fill:#FFC32E;stroke:#000000;stroke-width:1.0006;stroke-linecap:round;stroke-linejoin:round;stroke-miterlimit:10;}
	.st7{opacity:0.2;}
	.st8{fill:#FFE000;stroke:#000000;stroke-linecap:round;stroke-linejoin:round;stroke-miterlimit:10;}
	.st9{opacity:0.1;stroke:#000000;stroke-linecap:round;stroke-linejoin:round;stroke-miterlimit:10;}
</style>
<title>Body_4_(Shekhtman) 4</title>
<g id="_x31_5_1_">
	<path class="st0" d="M192.7,300.9c15.1,25.8,44.5,35.3,92,24.1c2-0.5,3.3-2.4,3.2-4.4l-14.9-169.8l-80.3,146
		C192,298.1,191.9,299.7,192.7,300.9z"/>
	<polygon class="st1" points="266.2,162.8 274.2,164.7 272.9,150.9 	"/>
	<g>
		<defs>
			<path id="SVGID_1_" d="M192.2,301.5c15.3,26.1,45,35.7,92.9,24.3c2-0.5,3.4-2.4,3.2-4.4L273.2,150l-81.1,147.4
				C191.5,298.7,191.5,300.3,192.2,301.5z"/>
		</defs>
		<clipPath id="SVGID_2_">
			<use xlink:href="#SVGID_1_"  style="overflow:visible;"/>
		</clipPath>
		<g id="stars" class="st2">
			<polygon class="st3" points="227.5,223 230.6,229.4 237.7,230.4 232.6,235.4 233.8,242.4 227.5,239.1 221.2,242.4 222.4,235.4 
				217.3,230.4 224.3,229.4 			"/>
			<polygon class="st3" points="224.1,271.2 226.5,275.8 231.8,276.5 228,280.1 228.9,285.1 224.1,282.8 219.4,285.1 220.3,280.1 
				216.5,276.5 221.8,275.8 			"/>
			<polygon class="st3" points="247.6,249 249.1,251.8 252.2,252.2 249.9,254.4 250.5,257.4 247.6,256 244.8,257.4 245.3,254.4 
				243,252.2 246.2,251.8 			"/>
			<polygon class="st3" points="246.3,289 247.7,291.7 250.9,292.2 248.6,294.3 249.1,297.4 246.3,295.9 243.5,297.4 244,294.3 
				241.7,292.2 244.9,291.7 			"/>
			<polygon class="st3" points="249.9,190.3 251.4,193.1 254.5,193.5 252.2,195.7 252.8,198.7 249.9,197.3 247.1,198.7 247.6,195.7 
				245.3,193.5 248.5,193.1 			"/>
			<polygon class="st3" points="201.1,274 202.5,276.7 205.7,277.2 203.4,279.3 203.9,282.4 201.1,280.9 198.2,282.4 198.8,279.3 
				196.5,277.2 199.6,276.7 			"/>
			<polygon class="st3" points="259.1,215.5 260.6,218.2 263.7,218.7 261.4,220.8 262,223.9 259.1,222.4 256.3,223.9 256.8,220.8 
				254.5,218.7 257.7,218.2 			"/>
			<polygon class="st3" points="273.3,246.5 274.8,249.3 277.9,249.7 275.6,251.9 276.2,254.9 273.3,253.5 270.5,254.9 271,251.9 
				268.7,249.7 271.9,249.3 			"/>
			<polygon class="st3" points="285.2,295.3 286.7,298.1 289.8,298.6 287.5,300.7 288.1,303.7 285.2,302.3 282.4,303.7 282.9,300.7 
				280.6,298.6 283.8,298.1 			"/>
			<polygon class="st3" points="262.2,267 264.5,271.6 269.8,272.3 266,275.9 266.9,280.9 262.2,278.6 257.5,280.9 258.4,275.9 
				254.5,272.3 259.8,271.6 			"/>
			<polygon class="st3" points="273.9,172.8 276.2,177.4 281.5,178.1 277.7,181.7 278.6,186.7 273.9,184.3 269.2,186.7 270.1,181.7 
				266.2,178.1 271.5,177.4 			"/>
			<polygon class="st3" points="263.1,300.9 264.1,302.8 266.2,303.1 264.7,304.5 265.1,306.6 263.1,305.6 261.2,306.6 261.6,304.5 
				260,303.1 262.2,302.8 			"/>
			<polygon class="st3" points="243,269.7 244,271.6 246.1,271.9 244.6,273.3 245,275.4 243,274.4 241.1,275.4 241.5,273.3 
				239.9,271.9 242.1,271.6 			"/>
			<polygon class="st3" points="224.1,253.7 225.1,255.6 227.2,255.9 225.7,257.3 226,259.4 224.1,258.4 222.2,259.4 222.6,257.3 
				221,255.9 223.2,255.6 			"/>
			<polygon class="st3" points="221,295.3 222,297.1 224.1,297.4 222.6,298.9 222.9,300.9 221,299.9 219.1,300.9 219.5,298.9 
				217.9,297.4 220.1,297.1 			"/>
			<polygon class="st3" points="230.6,319.6 231.5,321.5 233.7,321.8 232.1,323.2 232.5,325.3 230.6,324.3 228.7,325.3 229,323.2 
				227.5,321.8 229.6,321.5 			"/>
			<polygon class="st3" points="205.1,306.6 206,308.4 208.2,308.7 206.6,310.2 207,312.2 205.1,311.3 203.1,312.2 203.5,310.2 
				202,308.7 204.1,308.4 			"/>
			<polygon class="st3" points="260,321.8 261,323.7 263.1,324 261.6,325.5 261.9,327.5 260,326.5 258.1,327.5 258.5,325.5 
				256.9,324 259.1,323.7 			"/>
			<polygon class="st3" points="282.8,318.5 283.8,320.3 285.9,320.6 284.4,322.1 284.7,324.1 282.8,323.2 280.9,324.1 281.3,322.1 
				279.7,320.6 281.9,320.3 			"/>
			<polygon class="st3" points="247.6,229.9 248.6,231.7 250.7,232 249.2,233.5 249.6,235.5 247.6,234.5 245.7,235.5 246.1,233.5 
				244.5,232 246.7,231.7 			"/>
			<polygon class="st3" points="244.5,209.8 245.5,211.7 247.6,212 246.1,213.4 246.5,215.5 244.5,214.5 242.6,215.5 243,213.4 
				241.4,212 243.6,211.7 			"/>
			<polygon class="st3" points="256.9,175.8 257.9,177.7 260,178 258.5,179.5 258.8,181.5 256.9,180.5 255,181.5 255.4,179.5 
				253.8,178 256,177.7 			"/>
			<polygon class="st3" points="268.7,197.8 269.7,199.7 271.8,200 270.3,201.4 270.6,203.5 268.7,202.5 266.8,203.5 267.2,201.4 
				265.6,200 267.8,199.7 			"/>
			<polygon class="st3" points="266.8,229.9 267.8,231.7 270,232 268.4,233.5 268.8,235.5 266.8,234.5 264.9,235.5 265.3,233.5 
				263.7,232 265.9,231.7 			"/>
			<polygon class="st3" points="277.9,215.5 278.9,217.3 281,217.6 279.5,219.1 279.9,221.1 277.9,220.2 276,221.1 276.4,219.1 
				274.8,217.6 277,217.3 			"/>
			<polygon class="st3" points="279.7,272.5 280.7,274.4 282.8,274.7 281.3,276.1 281.6,278.2 279.7,277.2 277.8,278.2 278.2,276.1 
				276.6,274.7 278.8,274.4 			"/>
		</g>
		<polygon class="st4" points="193.3,293.3 194.2,295.1 196.4,295.4 194.8,296.9 195.2,298.9 193.3,298 191.4,298.9 191.7,296.9 
			190.2,295.4 192.3,295.1 		"/>
	</g>
	<path class="st5" d="M192.7,300.9c15.1,25.8,44.5,35.3,92,24.1c2-0.5,3.3-2.4,3.2-4.4l-14.9-169.8l-80.3,146
		C192,298.1,191.9,299.7,192.7,300.9z"/>
	<path class="st6" d="M196.4,290.1c14.6,39.7,85.8,32.6,90.6,21.7l-0.3-4.3c-3.6,2.8-22.1,13.4-53.3,5.2
		c-21.1-5.5-30.2-13.9-34.6-27C199.3,287.3,197.2,288.6,196.4,290.1z"/>
	<path class="st7" d="M272.6,152.2l-23.7,172.2c7.2,2.3,25.8,2.2,33.1-2.5L272.6,152.2z"/>
	<g>
		<polygon class="st8" points="276.5,135.4 278.2,142.4 284.9,144.9 278.8,148.6 278.5,155.8 273,151.2 266.1,153 268.8,146.4 
			264.9,140.4 272.1,141 		"/>
		<polyline class="st9" points="276.5,135.4 278.2,142.4 284.9,144.9 278.8,148.6 278.5,155.8 273,151.2 		"/>
	</g>
</g>
</svg>
