<?xml version="1.0" encoding="utf-8"?>
<!-- Generator: Adobe Illustrator 22.1.0, SVG Export Plug-In . SVG Version: 6.00 Build 0)  -->
<svg version="1.1" id="Слой_1" xmlns="http://www.w3.org/2000/svg" xmlns:xlink="http://www.w3.org/1999/xlink" x="0px" y="0px"
	 viewBox="0 0 480 480" style="enable-background:new 0 0 480 480;" xml:space="preserve">
<style type="text/css">
	.st0{fill:#EDC30D;stroke:#000000;stroke-miterlimit:10;}
	.st1{fill:#EDC30D;stroke:#000000;stroke-linecap:round;stroke-miterlimit:10;}
	.st2{fill:#FFD93B;stroke:#000000;stroke-miterlimit:10;}
	.st3{opacity:0.1;fill:none;stroke:#000000;stroke-width:6;stroke-linecap:round;stroke-miterlimit:10;enable-background:new    ;}
	.st4{stroke:#000000;stroke-width:0.75;stroke-miterlimit:10;}
	.st5{fill:#FFD93B;}
	.st6{opacity:0.25;clip-path:url(#SVGID_4_);}
	.st7{fill:#FFFFFF;}
	.st8{opacity:0.25;clip-path:url(#SVGID_6_);}
	.st9{opacity:0.9;clip-path:url(#SVGID_8_);fill:#FFF1B6;enable-background:new    ;}
	.st10{opacity:0.9;clip-path:url(#SVGID_10_);fill:#FFF1B6;enable-background:new    ;}
	.st11{fill:none;stroke:#000000;stroke-miterlimit:10;}
	.st12{opacity:0.2;fill:none;stroke:#FFFFFF;stroke-width:0.75;stroke-miterlimit:10;enable-background:new    ;}
	.st13{fill:#09A3E1;stroke:#000000;stroke-miterlimit:10;}
	.st14{fill:#EEFFFF;}
</style>
<g id="_x31_6">
	<g>
		<g>
			<path id="Contur_4_" class="st0" d="M293.4,252.4c5.2,3.2,7.5,6,7.2,8.2l-2.9,17c0.4-2.2-1.9-5-7.1-8.1"/>
			<path id="Contur_3_" class="st1" d="M291,269.8c-15.1-9.2-49.4-18.3-76.4-20.3c-17.8-1.3-28,0.8-28.7,5l2.9-17
				c0.7-4.2,11-6.3,28.7-5c27,2,61.3,11.1,76.4,20.3"/>
			<path id="Contur_2_" class="st2" d="M194,245.2c15.6,9.5,50.9,18.9,78.7,20.9c18.2,1.3,28.8-0.8,29.5-5.2l-2.9,17
				c-0.7,4.3-11.3,6.5-29.5,5.2c-27.8-2-63.1-11.4-78.7-20.9l-0.2-0.1c-5.4-3.3-7.7-6.2-7.3-8.4l3.3-17
				C186.5,239,188.6,241.9,194,245.2L194,245.2z"/>
			<path class="st3" d="M188.4,247.4c12.1-1.5,32.7-2.2,56.7,2.9c20,4.3,42.4,13.6,51.8,20.3"/>
			<path id="Contur" class="st4" d="M194,245.2c-15.6-9.5-5.7-15.6,22.2-13.6c27.8,2,63.1,11.4,78.7,20.9
				c15.6,9.5,5.6,15.6-22.2,13.6C244.9,264.1,209.6,254.8,194,245.2z M293.5,252.5c-15.1-9.2-49.4-18.3-76.4-20.3
				s-36.8,3.9-21.7,13.1c15.1,9.2,49.4,18.3,76.4,20.3C298.8,267.6,308.6,261.7,293.5,252.5"/>
		</g>
	</g>
	<g>
		<path id="SVGID_1_" class="st5" d="M301.8,262.2c-26.1,5.5-86.9-3.9-82.6-30.3c5.5-33.2,17.9-64.1,11.8-65.3
			c-6-1.2-16.1,34.6-27.6,59.8c-8.5,18.7-15.8,10.9-15.8,10.9l-4.1,16.8c7.2,16.9,101.2,41.6,115.7,24.5L301.8,262.2z"/>
		<g>
			<g>
				<defs>
					<path id="SVGID_3_" d="M301.8,262.2c-26.1,5.5-86.9-3.9-82.6-30.3c5.5-33.2,17.9-64.1,11.8-65.3c-6-1.2-16.1,34.6-27.6,59.8
						c-8.5,18.7-15.8,10.9-15.8,10.9l-4.1,16.8c7.2,16.9,101.2,41.6,115.7,24.5L301.8,262.2z"/>
				</defs>
				<clipPath id="SVGID_4_">
					<use xlink:href="#SVGID_3_"  style="overflow:visible;"/>
				</clipPath>
				<g class="st6">
					<g>
						<path class="st7" d="M216,177.9c-3.4,9.5-7.3,18.9-11,28.3c-2.2,5.7-4.4,11.3-6.7,17c-0.4,1-0.8,2-1.2,2.9
							c-0.3,0.8-0.5,1.1-0.5,1.1c-0.4,0.7-0.8,1.4-1.4,2.1c-0.6,0.8-2.1,2.6-3,3c-1.7,0.6-3.8-0.9-5.1-1.6c-4.2-2.3-8,4.1-3.8,6.5
							c4.9,2.7,9.3,4.3,14.1,0.6c2.4-1.9,4.5-4.4,5.9-7.1c2.5-5.1,4.3-10.7,6.4-15.9c4.5-11.5,9.4-23.1,13.5-34.8
							C229.1,163.8,217.6,173.4,216,177.9L216,177.9z"/>
					</g>
				</g>
			</g>
		</g>
		<g>
			<g>
				<defs>
					<path id="SVGID_5_" d="M301.8,262.2c-26.1,5.5-86.9-3.9-82.6-30.3c5.5-33.2,17.9-64.1,11.8-65.3c-6-1.2-16.1,34.6-27.6,59.8
						c-8.5,18.7-15.8,10.9-15.8,10.9l-4.1,16.8c7.2,16.9,101.2,41.6,115.7,24.5L301.8,262.2z"/>
				</defs>
				<clipPath id="SVGID_6_">
					<use xlink:href="#SVGID_5_"  style="overflow:visible;"/>
				</clipPath>
				<g class="st8">
					<g>
						<path class="st7" d="M229.5,184.6c-4.1,14.5-8.4,29.1-11.4,43.9c-0.4,2.2-1.1,4.6-0.9,6.8c0.4,5.4,5,10.7,8.4,14.6
							c9.1,10.4,25.1,13,38.1,14.8c7.8,1.1,15.8,1.2,23.7,1.4c7.4,0.2,14.6-0.5,21.1-4.2c4.2-2.4,0.4-8.9-3.8-6.5
							c-7.1,4-15.2,3.3-23.1,2.9c-8.6-0.4-17-0.8-25.6-2.6c-8.1-1.8-17.4-3.4-23.5-9.4c-2.6-2.6-5.2-5.7-6.8-9
							c-0.6-1.1-1.1-3.2-1.1-2.5c0-0.4,0-0.8,0.1-1.2c3-15.9,7.6-31.6,11.9-47.2C238,182,230.8,180,229.5,184.6L229.5,184.6z"/>
					</g>
				</g>
			</g>
		</g>
		<g>
			<g>
				<defs>
					<path id="SVGID_7_" d="M301.8,262.2c-26.1,5.5-86.9-3.9-82.6-30.3c5.5-33.2,17.9-64.1,11.8-65.3c-6-1.2-16.1,34.6-27.6,59.8
						c-8.5,18.7-15.8,10.9-15.8,10.9l-4.1,16.8c7.2,16.9,101.2,41.6,115.7,24.5L301.8,262.2z"/>
				</defs>
				<clipPath id="SVGID_8_">
					<use xlink:href="#SVGID_7_"  style="overflow:visible;"/>
				</clipPath>
				<polygon class="st9" points="185.7,258.2 219,233.8 227.3,249.1 203.5,267.8 				"/>
			</g>
		</g>
		<g>
			<g>
				<defs>
					<path id="SVGID_9_" d="M301.8,262.2c-26.1,5.5-86.9-3.9-82.6-30.3c5.5-33.2,17.9-64.1,11.8-65.3c-6-1.2-16.1,34.6-27.6,59.8
						c-8.5,18.7-15.8,10.9-15.8,10.9l-4.1,16.8c7.2,16.9,101.2,41.6,115.7,24.5L301.8,262.2z"/>
				</defs>
				<clipPath id="SVGID_10_">
					<use xlink:href="#SVGID_9_"  style="overflow:visible;"/>
				</clipPath>
				<polygon class="st10" points="207.8,269.6 232.1,252.3 237.6,254.9 214.9,272.2 				"/>
			</g>
		</g>
		<g>
			<path id="SVGID_2_" class="st11" d="M301.8,262.2c-26.1,5.5-86.9-3.9-82.6-30.3c5.5-33.2,17.9-64.1,11.8-65.3
				c-6-1.2-16.1,34.6-27.6,59.8c-8.5,18.7-15.8,10.9-15.8,10.9l-4.1,16.8c7.2,16.9,101.2,41.6,115.7,24.5L301.8,262.2z"/>
		</g>
	</g>
	<g>
		
			<ellipse transform="matrix(0.3265 -0.9452 0.9452 0.3265 -0.7875 330.37)" class="st2" cx="231.4" cy="165.7" rx="17.3" ry="12.3"/>
		
			<ellipse transform="matrix(0.3265 -0.9452 0.9452 0.3265 -0.6774 330.365)" class="st12" cx="231.5" cy="165.7" rx="15.8" ry="10.8"/>
		
			<ellipse transform="matrix(0.3265 -0.9452 0.9452 0.3265 -0.7875 330.37)" class="st13" cx="231.4" cy="165.7" rx="10.6" ry="7.6"/>
		<path class="st14" d="M238.3,162.9c-1,2.7-3.4,4.4-5.3,3.8c-2-0.7-2.8-3.5-1.8-6.2c1-2.8,3.3-4.4,5.3-3.8
			C238.4,157.4,239.2,160.2,238.3,162.9z"/>
	</g>
</g>
</svg>
