<svg xmlns="http://www.w3.org/2000/svg" viewBox="0 0 480 480"><defs><style>.cls-1{fill:#3d3d3d;}.cls-1,.cls-2,.cls-3,.cls-4,.cls-5{stroke:#000;}.cls-1,.cls-2,.cls-3,.cls-4,.cls-5,.cls-6,.cls-7{stroke-linecap:round;stroke-linejoin:round;}.cls-1,.cls-3,.cls-4,.cls-5{stroke-width:1.01px;}.cls-2{fill:#ff5003;}.cls-3,.cls-6,.cls-7{fill:none;}.cls-4{fill:#cecece;}.cls-5{fill:#f2c32f;}.cls-6{stroke:#ff5003;}.cls-6,.cls-7{stroke-width:0.75px;}.cls-7{stroke:#f26f03;}.cls-8{opacity:0.2;}</style></defs><title>source 18.08.01</title><g id="Слой_57" data-name="Слой 57"><g id="loot"><g id="_17" data-name="17"><path class="cls-1" d="M276,187.32c4.94,16.6,12.16,49,15.57,70.33a445.31,445.31,0,0,1,5.52,64l-3.58,1.45a377.26,377.26,0,0,0-5.85-59.1c-4.05-22.54-15.59-58.65-21.34-75C268.42,187.4,273.86,189,276,187.32Z"/><path class="cls-2" d="M297.94,324.39a60.86,60.86,0,0,1,4,32.95l-2.78-3.91Z"/><path class="cls-1" d="M293.87,324.39c-.4,1.15-.78,2.33-1.13,3.55a77.3,77.3,0,0,0-2.87,26.42l2.7-2v2h3.09l1.41-3.4.74,3.29.2.92a73.45,73.45,0,0,0,0-27.54c-.27-1.38-.58-2.72-.92-4Z"/><path class="cls-2" d="M292.57,322.57a14.2,14.2,0,0,0,2.68-.36,13.74,13.74,0,0,0,3-1l.51,3.48a8.16,8.16,0,0,1-2.78,1.19,9,9,0,0,1-2.91.16C292.9,324.85,292.73,323.71,292.57,322.57Z"/><line class="cls-3" x1="281.82" y1="237.28" x2="289.13" y2="243.9"/><line class="cls-3" x1="279.56" y1="227.6" x2="286.87" y2="234.21"/><line class="cls-3" x1="276.84" y1="219.4" x2="285.04" y2="224.82"/><line class="cls-3" x1="273.63" y1="208.77" x2="282.45" y2="214.48"/><line class="cls-3" x1="287.31" y1="262.26" x2="292.86" y2="266.43"/><line class="cls-3" x1="284.85" y1="248.91" x2="290.4" y2="253.07"/><line class="cls-3" x1="289.17" y1="273.21" x2="294.19" y2="276.85"/><line class="cls-3" x1="290.47" y1="282.41" x2="295.25" y2="287.08"/><line class="cls-3" x1="291.68" y1="292.94" x2="295.98" y2="296.13"/><line class="cls-3" x1="292.4" y1="301.06" x2="296.58" y2="306.07"/><line class="cls-3" x1="292.82" y1="307" x2="296.58" y2="313.88"/><line class="cls-3" x1="293.25" y1="315.28" x2="297.07" y2="321.69"/></g><g id="_17-2" data-name="17"><circle class="cls-4" cx="250.86" cy="125.93" r="2.78"/><path class="cls-5" d="M205.76,141.76a187.22,187.22,0,0,0,34.12,15.46,178.94,178.94,0,0,0,36.79,8.59,38.51,38.51,0,0,0-26-40.07C234.15,120.25,215.25,127,205.76,141.76Z"/><path class="cls-6" d="M253.29,127.88c2.19,1.42,8.55,5.2,11.64,12.57,4,9.55.31,18.85-.44,21"/><path class="cls-7" d="M247.92,125.93c-2-.41-9.9-.81-18.06,3.81a26.52,26.52,0,0,0-12,14.81"/><path class="cls-1" d="M278.55,185c-1.49,4.47-26.65,11.65-53.87,3.16-20.17-6.28-32.89-17.46-33.7-27l1.11-24.08c15.9,4.88,31.44,12.33,49.48,16.62,16.67,4,33,4.76,48.3,7.44Z"/><ellipse class="cls-5" cx="211.79" cy="160.94" rx="5.45" ry="4.51" transform="translate(-8.95 309.38) rotate(-71.15)"/><path class="cls-8" d="M250.56,156.7l-5.25,34.21a52.55,52.55,0,0,0,21-1.85,60.37,60.37,0,0,0,8.46-28.84A55.85,55.85,0,0,1,260,158.88C257.12,158.16,253.28,157.49,250.56,156.7Z"/><path class="cls-8" d="M251.9,151.68l18,3.91A25.2,25.2,0,0,0,267.4,141,25.78,25.78,0,0,0,253,128.71a22.16,22.16,0,0,1-1.07,23Z"/><path class="cls-6" d="M266.27,139.28c-4.18-5.16-10-10.47-13.26-15.94a27.7,27.7,0,0,1,6.86,5.94c1.87,2.32,5,5.74,7.11,7.91m1.59-.13c-4.38-4.19-10.87-9.8-15.56-13.72m11.47,16.47c-.61-1.58-3.41-4.67-4.52-6.15-2.48-3.31-4.48-7-6.95-10.32m0,0c3.93,5.88,9,10.74,14.39,15.89M253,123.34c1.83,2.75,4.47,5.09,7,7.5a87.08,87.08,0,0,1,7.69,8.09M253,123.34c2.23,4.66,7.88,11.61,10.75,16.15m-.92-5.54q-3.33-3.87-6.47-7.84a14.87,14.87,0,0,0-3.36-2.77c-.37.57,2.52,2.54,3,3.17.92,1.21,1.7,2.47,2.59,3.69a63.11,63.11,0,0,0,7.71,8.29M253,123.34c1.47,1.71,2.23,4.65,3.29,6.51,1.82,3.22,6.17,7.7,8.93,10.55m3.15-4.45A60.59,60.59,0,0,0,253,123.34m13.61,15.07a.57.57,0,0,1-.3-.15,15.69,15.69,0,0,1-1.72-1.74c-3.82-4.27-8.18-8.71-11.59-13.18C257.43,128.52,266.72,138.41,266.62,138.41Z"/></g></g></g></svg>