<?xml version="1.0" encoding="utf-8"?>
<!-- Generator: Adobe Illustrator 22.1.0, SVG Export Plug-In . SVG Version: 6.00 Build 0)  -->
<svg version="1.1" id="Слой_1" xmlns="http://www.w3.org/2000/svg" xmlns:xlink="http://www.w3.org/1999/xlink" x="0px" y="0px"
	 viewBox="0 0 480 480" style="enable-background:new 0 0 480 480;" xml:space="preserve">
<style type="text/css">
	.st0{fill:#3D3D3D;stroke:#000000;stroke-width:1.01;stroke-linecap:round;stroke-linejoin:round;}
	.st1{fill:#FF5003;stroke:#000000;stroke-linecap:round;stroke-linejoin:round;}
	.st2{fill:none;stroke:#000000;stroke-width:1.01;stroke-linecap:round;stroke-linejoin:round;}
	.st3{fill:#CECECE;stroke:#000000;stroke-width:1.01;stroke-linecap:round;stroke-linejoin:round;}
	.st4{clip-path:url(#SVGID_2_);}
	.st5{fill:none;stroke:#FF5003;stroke-width:0.75;stroke-linecap:round;stroke-linejoin:round;}
	.st6{fill:none;stroke:#F26F03;stroke-width:0.75;stroke-linecap:round;stroke-linejoin:round;}
	.st7{opacity:0.2;enable-background:new    ;}
	.st8{fill:#FF5003;stroke:#000000;stroke-width:1.01;stroke-linecap:round;stroke-linejoin:round;}
	.st9{fill:#F2C32F;stroke:#000000;stroke-width:1.01;stroke-linecap:round;stroke-linejoin:round;}
</style>
<title>source 18.08.01</title>
<g id="Слой_57">
	<g id="loot">
		<g id="_17">
			<path class="st0" d="M276,187.3c4.9,16.6,12.2,49,15.6,70.3c3.4,21.2,5.2,42.6,5.5,64l-3.6,1.5c-0.4-19.8-2.4-39.6-5.9-59.1
				c-4-22.5-15.6-58.6-21.3-75C268.4,187.4,273.9,189,276,187.3z"/>
			<path class="st1" d="M297.9,324.4c4.4,10.4,5.7,21.8,4,33l-2.8-3.9L297.9,324.4z"/>
			<path class="st0" d="M293.9,324.4c-0.4,1.1-0.8,2.3-1.1,3.5c-2.5,8.6-3.4,17.5-2.9,26.4l2.7-2v2h3.1l1.4-3.4l0.7,3.3l0.2,0.9
				c1.7-9.1,1.7-18.4,0-27.5c-0.3-1.4-0.6-2.7-0.9-4L293.9,324.4z"/>
			<path class="st1" d="M292.6,322.6c0.9,0,1.8-0.2,2.7-0.4c1-0.2,2-0.6,3-1l0.5,3.5c-0.8,0.6-1.8,1-2.8,1.2c-1,0.2-1.9,0.3-2.9,0.2
				C292.9,324.9,292.7,323.7,292.6,322.6z"/>
			<line class="st2" x1="281.8" y1="237.3" x2="289.1" y2="243.9"/>
			<line class="st2" x1="279.6" y1="227.6" x2="286.9" y2="234.2"/>
			<line class="st2" x1="276.8" y1="219.4" x2="285" y2="224.8"/>
			<line class="st2" x1="273.6" y1="208.8" x2="282.5" y2="214.5"/>
			<line class="st2" x1="287.3" y1="262.3" x2="292.9" y2="266.4"/>
			<line class="st2" x1="284.9" y1="248.9" x2="290.4" y2="253.1"/>
			<line class="st2" x1="289.2" y1="273.2" x2="294.2" y2="276.9"/>
			<line class="st2" x1="290.5" y1="282.4" x2="295.3" y2="287.1"/>
			<line class="st2" x1="291.7" y1="292.9" x2="296" y2="296.1"/>
			<line class="st2" x1="292.4" y1="301.1" x2="296.6" y2="306.1"/>
			<line class="st2" x1="292.8" y1="307" x2="296.6" y2="313.9"/>
			<line class="st2" x1="293.3" y1="315.3" x2="297.1" y2="321.7"/>
		</g>
		<g id="_17-2">
			<circle class="st3" cx="250.9" cy="125.9" r="2.8"/>
			<g>
				<defs>
					<path id="SVGID_1_" d="M205.8,141.8c10.8,6.3,22.3,11.5,34.1,15.5c11.9,4.2,24.3,7,36.8,8.6c1.7-17.8-9.1-34.4-26-40.1
						C234.1,120.2,215.3,127,205.8,141.8z"/>
				</defs>
				<use xlink:href="#SVGID_1_"  style="overflow:visible;fill:#FFCC3E;"/>
				<clipPath id="SVGID_2_">
					<use xlink:href="#SVGID_1_"  style="overflow:visible;"/>
				</clipPath>
				<g class="st4">
					<path class="st5" d="M253.5,126.9c2.2,1.4,8.4,6.2,11.5,13.5c4,9.6,0.3,18.9-0.4,21"/>
					<path class="st6" d="M248.7,125.1c-2-0.6-10.6,0-18.8,4.6c-5.7,3.3-11,9.9-13.1,16.2"/>
					<path class="st7" d="M251.9,151.7l18,3.9c0.6-5-0.2-10.1-2.5-14.6c-3.1-5.8-8.2-10.2-14.4-12.3
						C257,136,256.6,144.8,251.9,151.7L251.9,151.7z"/>
				</g>
				
					<use xlink:href="#SVGID_1_"  style="overflow:visible;fill:none;stroke:#000000;stroke-width:1.01;stroke-linecap:round;stroke-linejoin:round;"/>
			</g>
			<path class="st8" d="M278.5,185c-1.5,4.5-26.6,11.6-53.9,3.2c-20.2-6.3-32.9-17.5-33.7-27l1.1-24.1c15.9,4.9,31.4,12.3,49.5,16.6
				c16.7,4,33,4.8,48.3,7.4L278.5,185z"/>
			
				<ellipse transform="matrix(0.3231 -0.9464 0.9464 0.3231 -8.9555 309.3739)" class="st9" cx="211.8" cy="160.9" rx="5.4" ry="4.5"/>
			<path class="st7" d="M250.6,156.7l-5.3,34.2c7.1,0.8,14.2,0.2,21-1.9c5.2-8.7,8.1-18.7,8.5-28.8c-5,0.2-9.9-0.2-14.8-1.3
				C257.1,158.2,253.3,157.5,250.6,156.7z"/>
			<path class="st5" d="M265.9,138.7c-4.2-5.2-9.6-10.7-12.8-16.2c2.6,1.6,4.9,3.6,6.9,5.9c1.9,2.3,5.2,5.6,7.3,7.8 M268.6,136.3
				c-4.4-4.2-10.9-9.8-15.6-13.7 M264.5,139c-0.6-1.6-3.4-4.7-4.5-6.1c-2.5-3.3-4.5-7-7-10.3 M253,122.6c3.9,5.9,9,10.7,14.4,15.9
				 M253,122.6c1.8,2.8,4.5,5.1,7,7.5c2.7,2.5,5.6,5,8,7.9 M253,122.6c2.2,4.7,7.9,11.6,10.8,16.2 M262.9,133.2
				c-2.2-2.6-4.4-5.2-6.5-7.8c-1-1.1-2.1-2-3.4-2.8c-0.4,0.6,2.5,2.5,3,3.2c0.9,1.2,1.7,2.5,2.6,3.7c2.3,3,4.6,6,7.4,8.5 M253,122.6
				c1.5,1.7,2.2,4.7,3.3,6.5c1.8,3.2,6.2,7.7,8.9,10.6 M268.4,135.2c-4.4-5-9.6-9.3-15.4-12.6 M266.6,137.6c-0.1,0-0.2-0.1-0.3-0.1
				c-0.6-0.5-1.2-1.1-1.7-1.7c-3.8-4.3-8.2-8.7-11.6-13.2C257.5,127.7,266.8,137.6,266.6,137.6L266.6,137.6z"/>
			<path class="st5" d="M252.8,122.2c-0.2-0.2-0.8,0.1-0.8,0.4c0,0.2,0.6,0.4,0.8,0.4C252.9,123,253,122.4,252.8,122.2z"/>
		</g>
	</g>
</g>
</svg>
