<?xml version="1.0" encoding="utf-8"?>
<!-- Generator: Adobe Illustrator 22.1.0, SVG Export Plug-In . SVG Version: 6.00 Build 0)  -->
<svg version="1.1" id="Слой_1" xmlns="http://www.w3.org/2000/svg" xmlns:xlink="http://www.w3.org/1999/xlink" x="0px" y="0px"
	 viewBox="0 0 480 480" style="enable-background:new 0 0 480 480;" xml:space="preserve">
<style type="text/css">
	.st0{fill:#770505;stroke:#000000;stroke-linecap:round;stroke-linejoin:round;stroke-miterlimit:10;}
	.st1{fill:#7F0A0A;stroke:#000000;stroke-linecap:round;stroke-linejoin:round;stroke-miterlimit:10;}
	.st2{fill:#960C0C;stroke:#000000;stroke-linecap:round;stroke-linejoin:round;stroke-miterlimit:10;}
	.st3{fill:#7F0A0A;}
</style>
<g id="_x31_9">
	<path class="st0" d="M166.9,237.9l-0.7,5.4c6,2,15.3,4.9,26.7,7.6c28.2,6.7,39.2,5,55,10.2c11,3.6,26,11.1,41.7,28.4l2.9-7.1
		c-16.6-18.4-32.3-25.8-43.5-29.3c-15.4-4.7-26.2-3-56.1-9C181.6,241.8,172.6,239.5,166.9,237.9z"/>
	<path class="st1" d="M259.1,204.8c1.9-4.5,6.4-15,10.1-14.3c1.2,0.2,1.9,1.5,2,1.8c1.6,3.4-2.1,9.2-8.9,14.7L259.1,204.8z"/>
	<path class="st2" d="M260.3,203.3c9.2,4.2,15,9.2,19.2,12.8c7.4,6.4,12.7,11.1,14.7,19c0.7,2.7,0.3,3.2,0.8,6
		c3,18.4,23.3,24.4,22.2,37.3c-0.1,1.1-0.4,5-3,6.4c-4,2.1-9-4.6-17.3-3.7c-3.1,0.3-5,1.5-6.1,2c-12.5,5.7-40-24.5-61.1-31.6
		c-15.7-5.2-29.7-4.4-60.9-13.1c-1.4-5.4-2.1-8.7-3.1-12.8c-3.3-13.7-4-18.1-1.4-21.2c1.8-2.2,4.5-3,5.2-3.3c4.8-1.5,7.8,1.2,12-0.4
		c2.4-1,3.3-2.6,4.6-4c2.7-2.9,7.2-4.3,27.5-2.8c13,0.9,19.6,1.4,29,3.7C248.6,199,253.8,200.2,260.3,203.3z"/>
	<path class="st3" d="M266.6,211.7c9.7,10.1,13.4,19.4,14.2,27.5c1.1,10.4-2.8,15.8,0,23.8c3,8.6,11.7,14.3,23.1,18.2
		c2.5,1.3,5,2.6,7.5,3.9c1,0.1,2.5,0.2,3.8-0.7c2.5-1.8,2.2-6.1,2.1-7.7c-0.8-11.4-15.1-15.4-21.3-31.4c-3-7.6-0.6-8.8-3.6-15
		C287.1,219.5,275.6,214.4,266.6,211.7z"/>
	<path class="st3" d="M255.9,204.5c-5.8,1.8-15.1,4.3-26.7,5.6c-14.9,1.6-26.4,0.5-27.5,4.4c-0.2,0.6-0.1,1.4,4.8,6.9
		c11,12.5,15.2,13.8,17.9,14.3c0,0,2,0.4,4.2,0.2C241.8,234.2,254.3,207.9,255.9,204.5z"/>
	<path class="st3" d="M168.8,238.4l-6.1-27.9c-0.1-0.7-0.4-2.8,0.8-5c0.7-1.3,1.6-2.2,2.2-2.6c4.8,0.9,11.9,2.6,19.5,6.6
		c12.4,6.4,17.9,14.3,26.1,22.3c8.1,7.9,18.2,13.6,38.4,25c12.5,7.1,28.9,15.4,48.9,23.2c-3.1,1.2-6.2,2.4-9.2,3.6
		c-1.6-0.1-3.9-0.4-6.7-1.1c-11.9-2.9-19-9.7-25.2-14.7c-3-2.4-14.5-11.5-28.4-16.8c-11.6-4.4-15.2-2.5-37.7-7.1
		C181.7,242,173.9,239.9,168.8,238.4z"/>
	<path class="st3" d="M236.8,198.3c-14.2-2.6-39.6-6.3-48-0.7c-1.2,0.8-5.5,3.6-5,4.7c0.3,0.7,2.6,0.3,3.3,0.2
		C192.3,201.7,210.1,200.2,236.8,198.3z"/>
</g>
</svg>
