<?xml version="1.0" encoding="utf-8"?>
<!-- Generator: Adobe Illustrator 22.1.0, SVG Export Plug-In . SVG Version: 6.00 Build 0)  -->
<svg version="1.1" id="Слой_1" xmlns="http://www.w3.org/2000/svg" xmlns:xlink="http://www.w3.org/1999/xlink" x="0px" y="0px"
	 viewBox="0 0 480 480" style="enable-background:new 0 0 480 480;" xml:space="preserve">
<style type="text/css">
	.st0{fill:#5B5B5B;stroke:#000000;stroke-width:0.9921;stroke-linecap:round;stroke-linejoin:round;stroke-miterlimit:10;}
	.st1{opacity:0.2;}
	.st2{fill:none;stroke:#000000;stroke-width:0.9921;stroke-linecap:round;stroke-linejoin:round;stroke-miterlimit:10;}
</style>
<g id="_x31_8_1_">
	<path class="st0" d="M173.9,235.4c-1.1,0.4-6.6,3.3-11.1,7.2c-0.3,0.3-0.2,1.8,0.5,2.5c0.7,0.7,1.8,0.6,2.4,0.5
		c8.7-1,13-1.5,13.2-1.5c1.5,0.1,3,0.4,4.6,0.7c9.4,2.1,18.4,8.2,20.4,9.6c11.8,8.2,11.5,9.5,23.2,17.6c1.6,1.1,7.5,5.2,15.9,9.3
		c6.4,3.1,10,4.2,14,4.4c3.9,0.3,7.3-0.3,9-0.6c1.1-0.2,4.8-0.9,9.4-2.8c3-1.3,7.3-3.4,11.8-7.1l-77.6-38.5L173.9,235.4z"/>
	<path class="st1" d="M173.9,235.4l22.7,0.2l89.7,40.2l-6.9,5.1c-18-2.2-30.9-7.4-39.2-11.6c-20.7-10.6-29.2-23.4-51.1-28.4
		c-9-2.1-16.8-2-21.7-1.7L173.9,235.4z"/>
	<path class="st0" d="M168.8,236.1c3.3-0.5,8.1-0.9,13.8-0.4c8,0.7,14.5,2.9,22.9,6.7c12.9,5.8,13.7,7.7,29.5,15.8
		c8.4,4.3,15.1,7.1,28.7,12.6c3.9,1.6,9.7,3.9,17.5,4.8c3.7,0.4,4.8,0.2,8.3,0.5c4.7,0.4,11.5,1.5,19.9,4.8c0.9-1.3,2.1-3.4,2.7-6.1
		c0.6-2.5,0.3-3.8,0.5-6c0.5-4.3,2.4-7,3.3-8.6c3.9-7.4-0.1-20.6-3.7-27.9c-4.3-8.6-10.3-13.2-17.2-18.4c-6.5-4.9-22-12-38.1-16.4
		c-4.4,0-7,0.1-15.6,0.5c-29.4,1.6-43.6,6.2-51.9,9.6c-2.7,1.1-9.3,3.9-15.5,10.2c-2.5,2.6-9.5,9.6-7.4,15.1
		C166.8,234.4,167.9,235.4,168.8,236.1z"/>
	<path class="st2" d="M195.4,238c-1.3-1.8-3.5-5.3-2.6-9c0.3-1.1,1.1-3.2,4-5.4c14.8-11.3,23.5-16.7,52.3-24.7"/>
	<path class="st2" d="M266.9,271.1c1.5-0.6,3.8-1.9,5.3-4.1c2.7-4,2.9-9.8,2.7-12.6c-2.1-23.1-3.8-24-7.1-33.6
		c-2-5.7-5.8-13.4-12.2-21.8"/>
	<path class="st0" d="M245.6,198.3c-0.3-0.4-0.7-1.1-0.5-1.8c0.1-0.5,0.5-1.2,2.6-1.8c4.8-1.5,9.1,0.3,11.3,1.3
		c0.9,0.4,1.7,0.8,1.9,1.6c0.2,1.1-1,2.1-1.2,2.3C255.1,199.4,250.4,198.9,245.6,198.3z"/>
	<path class="st1" d="M259.1,199.2c16.6,21,27.6,40.5,29.6,51.2c0.7,3.6,0.4,11.1-2.8,18c-1.5,3.4-3.6,5.7-5.1,7.2
		c4.2,0,9.2,0.3,14.7,1.3c2.9,0.5,11.3,3.3,13.7,4c2.9-2.2,2.3-7.6,3.3-12.9c1.6-8.6,4.1-8,4.3-9.3c3-20.2-11.4-35.8-16.3-40.2
		C286,205.3,263.4,199.7,259.1,199.2z"/>
</g>
</svg>
