<?xml version="1.0" encoding="utf-8"?>
<!-- Generator: Adobe Illustrator 22.1.0, SVG Export Plug-In . SVG Version: 6.00 Build 0)  -->
<svg version="1.1" id="Слой_1" xmlns="http://www.w3.org/2000/svg" xmlns:xlink="http://www.w3.org/1999/xlink" x="0px" y="0px"
	 viewBox="0 0 480 480" style="enable-background:new 0 0 480 480;" xml:space="preserve">
<style type="text/css">
	.st0{fill:#8A8973;stroke:#000000;stroke-width:1.0006;stroke-linecap:round;stroke-linejoin:round;stroke-miterlimit:10;}
	.st1{fill:#74CA3B;stroke:#000000;stroke-width:1.0006;stroke-linecap:round;stroke-linejoin:round;stroke-miterlimit:10;}
	.st2{opacity:0.2;}
</style>
<title>Body_4_(Shekhtman) 4</title>
<g id="_x33__2_">
	<path class="st0" d="M192.4,299.7c15.1,25.9,44.6,35.4,92.1,24.1c2-0.5,3.3-2.4,3.2-4.4l-14.9-169.9l-80.3,146.1
		C191.6,296.9,191.6,298.5,192.4,299.7z"/>
	<path class="st0" d="M198.5,284.5l-6.2,11.2c-0.7,1.3-0.7,2.8,0,4.1c7.5,12.9,18.6,21.7,33.6,25.9c16,4.5,50.8,6.5,61.9-2.6
		l-1.5-16.7c-7.5,8.1-28.5,8.7-43.8,6.9C222.4,310.8,203.7,301.3,198.5,284.5z"/>
	<path class="st1" d="M196.1,288.9c14.7,39.7,85.8,32.6,90.7,21.7l-0.3-4.3c-3.6,2.8-22.1,13.4-53.3,5.2
		c-21.1-5.5-30.2-13.9-34.6-27C199,286,196.9,287.4,196.1,288.9z"/>
	<path class="st2" d="M271.1,165.9l-16.8,157.8c7.2,0.7,17.7,0.4,23.4-2.7L271.1,165.9z"/>
</g>
</svg>
