<?xml version="1.0" encoding="utf-8"?>
<!-- Generator: Adobe Illustrator 22.1.0, SVG Export Plug-In . SVG Version: 6.00 Build 0)  -->
<svg version="1.1" id="Слой_1" xmlns="http://www.w3.org/2000/svg" xmlns:xlink="http://www.w3.org/1999/xlink" x="0px" y="0px"
	 viewBox="0 0 480 480" style="enable-background:new 0 0 480 480;" xml:space="preserve">
<style type="text/css">
	.st0{fill:#353B24;stroke:#000000;stroke-miterlimit:10;}
	.st1{opacity:0.2;enable-background:new    ;}
	.st2{fill:#86AF31;stroke:#000000;stroke-width:1.0006;stroke-linecap:round;stroke-linejoin:round;stroke-miterlimit:10;}
	.st3{fill:#86AF31;}
	
		.st4{clip-path:url(#SVGID_2_);fill:#A76F3C;stroke:#000000;stroke-width:1.0006;stroke-linecap:round;stroke-linejoin:round;stroke-miterlimit:10;}
	
		.st5{clip-path:url(#SVGID_4_);fill:none;stroke:#000000;stroke-width:1.0006;stroke-linecap:round;stroke-linejoin:round;stroke-miterlimit:10;}
</style>
<g id="loot">
	<g>
		<path id="_x35__2_" class="st0" d="M318.3,296.9c-4.2-33.8-20-49.8-27.8-56.7c-4.4-3.9-8.3-6.3-12.4-8
			c35.8-10.6,26.3-26.6,24.2-36.8c-2.5-11.9-8.9-49.7-48.4-67.7l-8.2-6.8c-4.1-0.4-17.5-1.9-29.5,4.5c-7.2,3.4-26.4,21.8-36.2,35.9
			c-7.3,10.6-10.9,21.8-16.1,33.6c-2.7,6.1-5.2,12.4-5.7,19.1c0,16.3,22,24,31.6,25.5c-10.8,5.5-18.1,10.8-23.1,16.8
			c-0.2,0.3-0.5,0.6-0.7,0.9c0,0,0,0,0,0.1c-4.9,6.1-8.1,13.8-8.7,22.8c-3.6,53.4,39.6,75,70.9,79.1
			C259.4,363.2,325.9,335.8,318.3,296.9z"/>
		<g id="_x35__x5F_805">
			<path class="st1" d="M291.5,285.3c-27-6-44.6-10.1-58.6-18.6c-7-4.3-11.5-13.2-11.8-14.8c-3.5,7.4-11.1,12.7-17.5,14.5
				c-7.6,2-16.6,1.1-24.7,1.1c0,0,0,0-0.1,0c-9.4-0.3-16.8-1.4-19.5,2.7c6.3-0.8,16.2,0.3,22.5,0.6c6.3,0.3,5.8,0.2,13,0.1
				c17-0.8,21.5-5.8,23-5.6c3.1,0.4,14.4,12.7,43.9,20.1c20.6,5.1,32.7,4.9,56.7,12.5C315.1,294,308.1,289,291.5,285.3z"/>
			<path id="КАПЮШОН_x5F_1A_3_" class="st2" d="M255.8,121.3c10.9,1.6,19,9.3,24.4,15.3c5.5,6.1,9.2,13.6,14.8,19.6
				c4.9,5.3,5.9,6.1,12.4,9.1c0.7,0.3-5.6,17.7-11.3,23.7c-0.5,0.6-1.1,1.1-1.8,1.4c-1.1,0.4-2.4-0.1-3.4-0.7
				c-7.2-3.6-13.7-8.5-19.1-14.4c-4.8-5.3-8.7-11.3-12.6-17.3c-5.1-7.9-10.3-15.8-15.4-23.7c-1.6-2.4-6.8-10.6,1.3-13.4
				C245.9,121,254.3,121.1,255.8,121.3z"/>
			<path class="st2" d="M293.3,240c-8.4-7.4-17.8-9.3-27-11.2c-6.4,6.7-51.4,12-76,10.5c-18.6,9.3-26.9,18.2-30.9,30.8
				c2.6-4.1,10.1-3,19.5-2.7c8.1,0.3,17.1,0.9,24.8-1.1c6.5-1.7,14.1-7.1,17.5-14.5c0.3,1.5,4.8,10.5,11.8,14.8
				c14,8.6,31.5,12.6,58.6,18.6c16.6,3.7,23.5,8.7,26.9,12.4C314.4,263.4,301.1,247,293.3,240z"/>
			<path class="st1" d="M279.6,231.4c-6.1,1.5-13.6,4.1-22,5.4c-11.8,1.8-18.3,3-36.1,4c-16.1,0.9-25.3-0.7-32-1.3
				c-5.9,3-11.1,6.3-15,9.4c-7.2,5.9-4.7,7.4,7.8,2.6c12.4-4.8,21.2-2.1,32.3-4.5c4.7-1.3,6.6-4.2,6.6-4.2s3.1,2.6,7.5,4.1
				c9.5,2.7,14.3,2.2,29.3,1.4c15-0.9,14.9-0.2,27.2,4.8c10.4,4.2,16.9-1.2,10.9-9c-1.1-1.4-2.5-3-4.1-4.8
				C289.1,236.2,283.9,233.3,279.6,231.4z"/>
			<path class="st2" d="M302.3,195.5c-2.5-11.9-8.9-49.7-48.4-67.7l-8.2-6.8c-4.1-0.4-17.5-1.9-29.5,4.5c-0.7,0.3-1.4,0.7-2.2,1.3
				l0,0c0,0,0,0-0.1,0c-0.4,0.2-0.7,0.5-1.1,0.8c-0.1,0.1-0.3,0.2-0.4,0.3c-0.3,0.2-0.5,0.4-0.8,0.6c-0.2,0.1-0.4,0.3-0.6,0.4
				c-0.2,0.2-0.5,0.4-0.7,0.6c-0.4,0.3-0.8,0.6-1.2,0.9c-0.2,0.2-0.4,0.3-0.6,0.5l0,0c-0.1,0.1-0.3,0.2-0.4,0.3c1.3-1.1,4-1.8,6.8-2
				c9.8-0.7,19.5,19,25,25.9c8.8,10.8,15.9,24.3,18.4,30.4c4.5,10.9,13.6,23.7,6.8,35.1c-6.8,11.5-11.9,12.7-25.1,13.1
				c-13.2,0.5-25.7,1.7-34.5,3.2c-17,2.8-29.8-1.8-29.8-1.8c2.6,1.2,5.2,2.1,7.6,2.9l0,0c0.1,0,0.1,0,0.2,0.1c0.3,0.1,0.7,0.2,1,0.3
				c0.2,0,0.4,0.1,0.5,0.1c0.2,0.1,0.4,0.1,0.6,0.2c0.2,0,0.4,0.1,0.5,0.1c0.2,0.1,0.4,0.1,0.6,0.1c0.3,0.1,0.5,0.1,0.7,0.2
				c0.2,0,0.4,0.1,0.7,0.1c0.2,0,0.4,0.1,0.5,0.1s0.3,0.1,0.4,0.1c0.2,0,0.4,0.1,0.5,0.1s0.2,0,0.3,0c0.8,0.1,1.5,0.2,2.1,0.2
				c7.6,0.4,14.3,2.2,30.6,1c16.3-1.1,24.4,1,35.4,0.2C322.3,236,304.8,207.3,302.3,195.5z"/>
			<path class="st3" d="M240.5,121c4,0.3,7.7,0.4,11.1,0.5l3,4.2l-1.9,4.6L240.5,121z"/>
			<g>
				<g>
					<defs>
						<path id="SVGID_1_" d="M232.1,249.6l-4.2,3.2c-1.2,0.9-2.5,1.4-4,1.5l-3.5,0.3c-2.6,0.2-5.2-1-6.7-3.2l-1-1.4
							c-1.1-1.5-1.6-3.4-1.4-5.3l0.2-1.6c0.2-2,1.2-3.9,2.8-5.2l2.7-2.2c1.2-1,2.8-1.6,4.3-1.6l5.6-0.3c2.2-0.1,4.3,0.7,5.8,2.3
							l0.4,0.4c1.6,1.6,2.4,3.9,2.1,6.2l-0.2,1.6C234.9,246.4,233.8,248.3,232.1,249.6z"/>
					</defs>
					<clipPath id="SVGID_2_">
						<use xlink:href="#SVGID_1_"  style="overflow:visible;"/>
					</clipPath>
					<path class="st4" d="M231.8,249.4l-4.1,3.1c-1.1,0.8-2.5,1.4-3.8,1.5l-3.4,0.3c-2.6,0.2-5-1-6.5-3.1l-1-1.4
						c-1.1-1.5-1.5-3.3-1.3-5.2l0.2-1.6c0.2-2,1.2-3.8,2.8-5l2.6-2.1c1.2-1,2.7-1.5,4.2-1.6l5.4-0.3c2.1-0.1,4.1,0.7,5.6,2.2
						l0.4,0.4c1.5,1.6,2.3,3.8,2.1,6l-0.2,1.6C234.5,246.3,233.5,248.2,231.8,249.4z"/>
				</g>
				<g>
					<defs>
						<path id="SVGID_3_" d="M232.1,249.6l-4.2,3.2c-1.2,0.9-2.5,1.4-4,1.5l-3.5,0.3c-2.6,0.2-5.2-1-6.7-3.2l-1-1.4
							c-1.1-1.5-1.6-3.4-1.4-5.3l0.2-1.6c0.2-2,1.2-3.9,2.8-5.2l2.7-2.2c1.2-1,2.8-1.6,4.3-1.6l5.6-0.3c2.2-0.1,4.3,0.7,5.8,2.3
							l0.4,0.4c1.6,1.6,2.4,3.9,2.1,6.2l-0.2,1.6C234.9,246.4,233.8,248.3,232.1,249.6z"/>
					</defs>
					<clipPath id="SVGID_4_">
						<use xlink:href="#SVGID_3_"  style="overflow:visible;"/>
					</clipPath>
					<path class="st5" d="M238.8,259.7c-3.9-2.3-7.7-4.6-11.6-6.9c-0.3-0.2-0.7-0.4-0.9-0.7c-0.3-0.6-0.1-1.3,0.2-1.9
						c0.9-2.2,1.8-4.4,2.7-6.6c0.6-1.4,1.1-3.2,0.1-4.4c-0.7-0.8-1.8-1-2.8-0.8c-1,0.1-2,0.5-3,0.6c-1.4,0.1-2.9-0.2-4.3,0.3
						c-1.2,0.5-2,1.6-3,2.4c-1,0.8-2.5,1.4-3.5,0.5c-0.5-0.9,0-2.1,0.6-3c2.9-4.6,8.1-8.1,13.5-7.7 M224.5,258
						c-0.6-0.5-1.2-1-1.8-1.5c-0.5-0.4-1-0.9-1.3-1.5c-0.2-0.5-0.2-1-0.1-1.5c0.2-2.4,1.2-4.7,2.7-6.5c0.3-0.3,0.6-0.7,0.7-1.1
						c0.1-0.4,0.1-0.8,0.1-1.2c0-0.5,0-1.1,0-1.6c0-0.3,0-0.6-0.1-0.9c-0.4-0.9-1.8-0.7-2.7-0.4c-2.7,1-5.2,2.2-7.7,3.6
						c-0.9,0.5-1.9,1.1-2.4,2c-0.8,1.2-0.6,2.8-0.6,4.3c0.1,1.5,0,3.1-1.1,4.1"/>
				</g>
			</g>
		</g>
	</g>
</g>
</svg>
