<?xml version="1.0" encoding="utf-8"?>
<!-- Generator: Adobe Illustrator 22.1.0, SVG Export Plug-In . SVG Version: 6.00 Build 0)  -->
<svg version="1.1" id="Слой_1" xmlns="http://www.w3.org/2000/svg" xmlns:xlink="http://www.w3.org/1999/xlink" x="0px" y="0px"
	 viewBox="0 0 480 480" style="enable-background:new 0 0 480 480;" xml:space="preserve">
<style type="text/css">
	.st0{fill:#61A52B;stroke:#000000;stroke-width:1.0006;stroke-linecap:round;stroke-linejoin:round;stroke-miterlimit:10;}
	.st1{opacity:0.2;}
</style>
<title>Body_4_(Shekhtman) 5</title>
<g id="loot">
	<g id="_x39__3_">
		<path class="st0" d="M185.5,254.3c5.3,7.2,17.8,22.3,39.4,31c34.1,13.6,64.9,0.9,71.2-1.9c-0.9-5.5-1.5-12.2-1.2-19.8
			c0.2-4.4,0.6-8.4,1.2-12c1.2,0,2.4,0,3.5,0v-3.7c2.2-0.1,4.8-0.1,7.7,0.6c9,2.2,14.3,8.7,16.1,11.2c0.4-8.5-0.4-21.6-8.1-33.5
			c-17.2-26.4-58.4-31.7-87.5-19C199.1,219.8,188,247.3,185.5,254.3z"/>
		<path class="st1" d="M256.3,286.6c0,0,26.9-2.2,32.1-4.7c1.4-11,2.3-22.8,3.6-33.8c1.5,0.1,3,0.2,4.6,0.2
			c-0.1-1.6-0.2-3.3-0.3-4.9c1.9-0.9,5.1-2,9-1.6c9.7,0.8,14.7,9.8,15.2,10.7c-0.5-2.4-3.2-13.6-13.3-19.2
			c-8.1-4.5-16.4-2.8-20.2-2.1C259.4,236.8,256.3,286.6,256.3,286.6z"/>
	</g>
</g>
</svg>
