<?xml version="1.0" encoding="utf-8"?>
<!-- Generator: Adobe Illustrator 22.1.0, SVG Export Plug-In . SVG Version: 6.00 Build 0)  -->
<svg version="1.1" id="Слой_1" xmlns="http://www.w3.org/2000/svg" xmlns:xlink="http://www.w3.org/1999/xlink" x="0px" y="0px"
	 viewBox="0 0 480 480" style="enable-background:new 0 0 480 480;" xml:space="preserve">
<style type="text/css">
	.st0{fill:#ACACAC;stroke:#000000;stroke-width:1.0006;stroke-linecap:round;stroke-linejoin:round;stroke-miterlimit:10;}
	.st1{opacity:0.2;}
	.st2{fill:#D8D6D3;stroke:#000000;stroke-width:1.0006;stroke-linecap:round;stroke-linejoin:round;stroke-miterlimit:10;}
	
		.st3{fill:none;stroke:#000000;stroke-width:1.0006;stroke-linecap:round;stroke-linejoin:round;stroke-miterlimit:10;stroke-dasharray:2.8346;}
	.st4{fill:none;stroke:#000000;stroke-width:1.0006;stroke-linecap:round;stroke-linejoin:round;stroke-miterlimit:10;}
</style>
<title>Body_4_(Shekhtman) 2</title>
<g id="loot">
	<g id="_x39_09_x5F_короткие">
		<path class="st0" d="M319.1,247.3c10.3,5.5,18.3,16.8,19.3,17.7s2.3,2.1,2.4,3.6l0,0c0.1,2.2-1.8,4-4,4l-20.7,0
			c-3.6,0-7.1-0.7-10.4-1.9l-24.8-9.4c-3.7-1.4-6.6-4.5-7.7-8.3l-10.3-34.8c24-0.5,41.6-2.1,54.1-4.6L319.1,247.3z M161.1,236.4
			c-12.3,2.8-21.3,7.5-28.5,13.2c-1.4,0.7-2.3,2.1-2.4,3.6l0,0c-0.1,2.2,1.8,4,4,4l58.5-1.6c4.1-0.1,7.7-2.7,9.2-6.6l16.3-36.6
			c-26.2-0.3-44.4-1.8-54.1-4.6L161.1,236.4z"/>
		<path class="st1" d="M305.6,270.6l-24.8-9.4c-3.7-1.4-6.6-4.5-7.7-8.3l-10.3-34.8c7.3-0.2,18-0.7,18-0.7s8.2,34.3,10.7,37.7
			C295.5,260.8,305.6,270.6,305.6,270.6z M181.3,256c3.7-0.3,11.5-0.3,11.5-0.3c4.1-0.1,7.7-2.7,9.2-6.6l16.3-36.6
			c-6.2-0.1-12-0.2-17.2-0.4C192.9,228.6,192.2,248.6,181.3,256z"/>
		<path class="st2" d="M262.8,218.1c-0.5,0.8-2.2,3.7-1.5,7.1c0.2,1.1,0.9,4,3.4,4.9c2.1,0.7,4.4-0.3,5.7-1.8c1-1.1,1.2-2.4,1.3-3
			c0,0.6,0.1,2.3,1.4,3.6c1.8,1.8,5,1.6,7,0.3c1.9-1.3,2.5-3.4,2.6-4c-0.1,1.9,0.8,3.7,2.4,4.7c2.6,1.5,5.3-0.3,5.5-0.4
			c2.5-1.7,2.4-4.7,2.4-4.9c0,0.2,0.3,3.1,2.8,4.5c2.2,1.2,5.1,0.6,6.7-1.2c1.1-1.2,1.3-2.7,1.3-3.3c0.1,0.3,1.3,3,4.2,3.6
			c2,0.5,4.7-0.1,5.9-2.2c0.7-1.2,0.6-2.5,0.5-3c0.8,2.3,2.5,3.9,4.1,3.9c2.2-0.1,3.5-3.5,3.6-5.7c0.1-3-2-6-5.3-7.7
			c-8.1,1.6-17.2,2.9-27.2,3.8C280,218.1,271,218.3,262.8,218.1z"/>
		<path class="st3" d="M279.5,229.6c-0.3,3.4,0.1,13.1,5.1,22.4c5.2,9.7,13.7,15.1,16.7,16.6"/>
		<path class="st2" d="M164.1,207.9c-0.5,0.3-4,2.7-4.2,6.7c0,0.6-0.2,3.9,2.1,5.3c1.1,0.7,3,1.1,4.4,0c1.1-0.9,1.3-2.2,1.3-2.5
			c0,0.4,0,2.3,1.5,3.9c1.3,1.4,3.5,2.1,5.5,1.5c2.6-0.8,3.5-3.3,3.5-3.5c-0.1,0.4-0.5,2.7,1,4.7c0.3,0.4,1.8,2.4,4.2,2.2
			c1.7-0.1,3.2-1.3,3.8-2.8c0.6-1.5,0.1-2.8,0-3.2c0.1,0.5,0.3,3,2.5,4.7c0.5,0.4,2.7,2.1,5.2,1.3c2.8-0.9,3.5-3.9,3.5-4
			c0,0.3-0.2,2.5,1.4,4c1.5,1.5,4,1.9,6,0.8c1.7-1,2.7-2.9,2.5-4.9c0,0.3-0.2,2.7,1.3,3.9c1.8,1.3,4.6-0.1,5.8-1.2
			c1.7-1.4,2.2-3.3,2.7-5c0.4-1.4,0.8-4,0.2-7.3c-8.8,0.2-18.6,0-29.2-1C180,210.7,171.6,209.4,164.1,207.9z"/>
		<path class="st3" d="M194.8,226.1c-0.5,4.2-2.2,12.8-8.7,21c-3.4,4.2-7,7.1-9.8,8.9"/>
		<path class="st4" d="M297.1,237.4c1.8-0.6,3.9-1.1,6.3-1.5c2.4-0.4,4.5-0.6,6.4-0.7"/>
		<path class="st4" d="M299.4,245.5c1.5-0.6,3.3-1.3,5.4-1.8c2.2-0.5,4.2-0.7,5.8-0.7"/>
		<path class="st4" d="M161.3,234.6c1.2,0,2.6,0.1,4.2,0.5c2.1,0.5,3.7,1.2,4.9,1.9"/>
		<path class="st4" d="M162.8,226.5c1.2,0.1,2.6,0.4,4,0.8c1.8,0.5,3.5,1,4.8,1.6"/>
	</g>
</g>
</svg>
