<?xml version="1.0" encoding="utf-8"?>
<!-- Generator: Adobe Illustrator 22.1.0, SVG Export Plug-In . SVG Version: 6.00 Build 0)  -->
<svg version="1.0" id="Слой_1" xmlns="http://www.w3.org/2000/svg" xmlns:xlink="http://www.w3.org/1999/xlink" x="0px" y="0px"
	 viewBox="0 0 480 480" enable-background="new 0 0 480 480" xml:space="preserve">
<title>Body_4_(Shekhtman) 7</title>
<g id="_x39_10_x5F_высокие">
	<g>
		<g>
			<defs>
				<path id="XMLID_269_" d="M168.3,252.1l-16.5,7.6c-3.8,1.8-8.3,1.3-11.7-1.2l-2.4-1.8c-0.7,9.7,5.5,16,13.4,16l55.5-1.6
					c11-26.4,19-48.5,23.2-72.9c-18.8,2-38.9-0.4-56.2-5.6L168.3,252.1z"/>
			</defs>
			<use xlink:href="#XMLID_269_"  overflow="visible" fill="#684E29"/>
			<clipPath id="XMLID_2_">
				<use xlink:href="#XMLID_269_"  overflow="visible"/>
			</clipPath>
			<path opacity="0.2" clip-path="url(#XMLID_2_)" d="M219.8,188.6c0,0-13.7,70.3-19.5,73.9c-5.9,3.6-42.4,7.2-50,6.6
				c-8-0.7-13.3-14.2-13.3-14.2s-15.1-1.8-15.5,0.7s6.2,31.3,6.7,32.2c0.6,0.9,84.1-13.1,84.1-13.1l16.2-62.8l6.4-20.8L219.8,188.6z
				"/>
			
				<use xlink:href="#XMLID_269_"  overflow="visible" fill="none" stroke="#000000" stroke-linecap="round" stroke-linejoin="round"/>
		</g>
	</g>
	<g>
		<g>
			<defs>
				<path id="XMLID_268_" d="M324.6,263.4l19.3,17.7c1.4,0.7,2.3,2.1,2.4,3.6l0,0c0.1,2.2-1.8,4-4,4l-20.7,0
					c-3.6,0-7.1-0.7-10.4-1.9l-30.7-11.7c-8.1-26.5-16.5-51.2-18.2-70.5l57.5-7.2L324.6,263.4z"/>
			</defs>
			<use xlink:href="#XMLID_268_"  overflow="visible" fill="#684E29"/>
			<clipPath id="XMLID_3_">
				<use xlink:href="#XMLID_268_"  overflow="visible"/>
			</clipPath>
			<path opacity="0.2" clip-path="url(#XMLID_3_)" d="M259.6,205.8l17-2.1c0,0,8.1,60.4,12.1,64.7c4.1,4.3,38.7,18.7,44.3,18.1
				c5.6-0.6-11.2,5.3-11.2,5.3l-44.7-11.5L259.6,205.8z"/>
			
				<use xlink:href="#XMLID_268_"  overflow="visible" fill="none" stroke="#000000" stroke-linecap="round" stroke-linejoin="round"/>
		</g>
		
			<path id="XMLID_264_" fill="#443013" stroke="#000000" stroke-width="1.0006" stroke-linecap="round" stroke-linejoin="round" stroke-miterlimit="10" d="
			M346.3,284.7L346.3,284.7c0.1,2.2-1.8,4-4,4l-20.7,0c11.2-1.5,17.8-9.3,20.4-13.3c0.6-0.9,1.9-0.6,2.1,0.4
			C345,278.9,346.3,283.7,346.3,284.7z"/>
	</g>
	<path fill="#684E29" stroke="#000000" stroke-linecap="round" stroke-linejoin="round" d="M228.7,206.2c1.3,0.1,2.6-0.6,3.3-1.8
		c1.8-3.2,4.1-8.1,4-11.8c-0.1-3-19.3-6.8-37.3-8.8c-2.7-0.3-13.7-1.2-16.3-1.3c-8.7-0.3-14.9,0.2-14.9,2.1
		c-0.1,4.4,1.9,10.4,3,13.4c0.4,1.2,1.5,2.1,2.8,2.2C182.1,201.5,215.2,205.4,228.7,206.2z"/>
	<path opacity="0.2" d="M228.7,206.2c1.3,0.1,2.6-0.6,3.3-1.8c1.8-3.2,4.1-8.1,4-11.8c0-1.7-6.1-3.6-14.5-5.3
		c0.3,4.9-1.6,13.3-3.3,18.1C222.2,205.7,225.9,206,228.7,206.2z"/>
	<path fill="#684E29" stroke="#000000" stroke-linecap="round" stroke-linejoin="round" d="M325.3,186.5c-0.5-1.9-9.2-2.3-19.4-1.9
		c-2.4,0.1-11.9,0.7-14.2,0.9c-17.6,1.6-39.8,4.8-39.2,7.4c1.3,6.7,4.3,9.6,5.5,11.1c1.2,1.5,2.6,1.7,4,1.6
		c12.4-1.1,51-2.8,59.5-4.5C322.8,200.8,327.1,193.4,325.3,186.5z"/>
	<path opacity="0.2" d="M271.5,187.9c-9.2,1.5-19.2,3.4-19,5c0.6,4.3,2.7,7.6,4.2,9.8s3.9,3,5.3,2.9c2.9-0.2,7.1-0.5,12.1-0.9
		C271.4,198.6,271.4,192.6,271.5,187.9z"/>
	<g>
		
			<path fill="#DAB966" stroke="#000000" stroke-width="1.0006" stroke-linecap="round" stroke-linejoin="round" stroke-miterlimit="10" d="
			M273.4,259.1c0.2,1.3,0.4,2.5,0.7,3.8c8.1-1.6,17-2.9,26.6-3.8c9.5-0.8,18.3-1,26.4-0.9c-0.3-1.6-0.6-3.2-0.9-4.8
			c-8.1,0-16.8,0.5-26.1,1.5C290.5,255.9,281.6,257.4,273.4,259.1z"/>
		
			<path fill="none" stroke="#000000" stroke-width="1.0006" stroke-linecap="round" stroke-linejoin="round" stroke-miterlimit="10" d="
			M313.7,258.3l-8.2,0.5c-1.1,0.1-2-0.9-2.1-2.2l0,0c-0.1-1.3,0.8-2.3,1.9-2.4l8.2-0.5c1.1-0.1,2,0.9,2.1,2.2l0,0
			C315.6,257.1,314.8,258.2,313.7,258.3z"/>
		
			<path fill="none" stroke="#000000" stroke-width="1.0006" stroke-linecap="round" stroke-linejoin="round" stroke-miterlimit="10" d="
			M300,254.9c-1.1,0-1.9,1.1-1.8,2.3c0.1,1.2,1.1,2.1,2.2,1.9"/>
		<circle cx="310.7" cy="256.2" r="0.5"/>
		<circle cx="318.9" cy="256" r="0.5"/>
		<circle cx="323.8" cy="256" r="0.5"/>
	</g>
	<g>
		
			<path fill="#DAB966" stroke="#000000" stroke-width="1.0006" stroke-linecap="round" stroke-linejoin="round" stroke-miterlimit="10" d="
			M275.1,265.7c0.5,1.7,0.9,3.5,1.4,5.2c8.1-1.7,17-3.2,26.7-4.3c9.6-1.1,18.6-1.6,26.8-1.8c-0.5-1.4-0.9-2.8-1.4-4.1
			c-8.1-0.2-17.1,0.1-26.9,1C291.9,262.7,283,264.1,275.1,265.7z"/>
		
			<path fill="none" stroke="#000000" stroke-width="1.0006" stroke-linecap="round" stroke-linejoin="round" stroke-miterlimit="10" d="
			M314.3,265.8l-7.6,0.6c-1.2,0.1-2.3-0.8-2.4-2.1l0-0.6c-0.1-1.2,0.8-2.3,2.1-2.4l7.6-0.6c1.2-0.1,2.3,0.8,2.4,2.1l0,0.6
			C316.5,264.6,315.6,265.7,314.3,265.8z"/>
		
			<path fill="none" stroke="#000000" stroke-width="1.0006" stroke-linecap="round" stroke-linejoin="round" stroke-miterlimit="10" d="
			M299.8,261.9c-1.5,0-2.7,1.3-2.5,2.8c0.1,1.4,1.5,2.5,3,2.3"/>
		<circle cx="311.8" cy="263.5" r="0.5"/>
		<circle cx="319.9" cy="262.9" r="0.5"/>
		<circle cx="325.4" cy="262.9" r="0.5"/>
	</g>
	<g>
		
			<path fill="#DAB966" stroke="#000000" stroke-width="1.0006" stroke-linecap="round" stroke-linejoin="round" stroke-miterlimit="10" d="
			M215.5,254.7c-0.3,1.2-0.7,2.4-1,3.7c-7-2.7-14.8-5.2-23.2-7.3c-8.3-2.1-16.2-3.5-23.4-4.4c0.4-1.5,0.9-3.1,1.3-4.6
			c7.2,1.1,14.9,2.7,23,4.9C200.7,249.2,208.4,251.9,215.5,254.7z"/>
		
			<path fill="none" stroke="#000000" stroke-width="1.0006" stroke-linecap="round" stroke-linejoin="round" stroke-miterlimit="10" d="
			M175.1,247.7l7.3,1.3c1,0.2,1.9-0.7,2-1.9l0,0c0.1-1.2-0.5-2.4-1.5-2.6l-7.3-1.3c-1-0.2-1.9,0.7-2,1.9l0,0
			C173.5,246.4,174.2,247.6,175.1,247.7z"/>
		
			<path fill="none" stroke="#000000" stroke-width="1.0006" stroke-linecap="round" stroke-linejoin="round" stroke-miterlimit="10" d="
			M187.6,245.7c1,0.1,1.7,1.3,1.5,2.6c-0.2,1.2-1.1,2-2.1,1.7"/>
		<ellipse transform="matrix(0.9974 -7.170464e-02 7.170464e-02 0.9974 -17.1772 13.3932)" cx="178" cy="245.9" rx="0.4" ry="0.5"/>
	</g>
	<g>
		
			<path fill="#DAB966" stroke="#000000" stroke-width="1.0006" stroke-linecap="round" stroke-linejoin="round" stroke-miterlimit="10" d="
			M213.3,261c-0.6,1.7-1.2,3.3-1.8,5c-7-2.8-14.7-5.5-23.2-7.9c-8.4-2.4-16.3-4.1-23.6-5.3c0.6-1.3,1.1-2.6,1.7-3.9
			c7.2,0.9,15.2,2.4,23.8,4.6C198.7,255.7,206.4,258.3,213.3,261z"/>
		
			<path fill="none" stroke="#000000" stroke-width="1.0006" stroke-linecap="round" stroke-linejoin="round" stroke-miterlimit="10" d="
			M173.7,255.1l6.7,1.4c1.1,0.2,2.1-0.6,2.3-1.8l0.1-0.5c0.2-1.2-0.6-2.4-1.7-2.6l-6.7-1.4c-1.1-0.2-2.1,0.6-2.3,1.8l-0.1,0.5
			C171.9,253.6,172.6,254.8,173.7,255.1z"/>
		
			<path fill="none" stroke="#000000" stroke-width="1.0006" stroke-linecap="round" stroke-linejoin="round" stroke-miterlimit="10" d="
			M186.9,252.7c1.3,0.2,2.3,1.6,2,3c-0.2,1.4-1.5,2.3-2.8,1.9"/>
		<ellipse transform="matrix(0.998 -6.322462e-02 6.322462e-02 0.998 -15.65 11.6453)" cx="176.2" cy="253.1" rx="0.4" ry="0.5"/>
	</g>
	<g>
		
			<path fill="none" stroke="#000000" stroke-width="1.0006" stroke-linecap="round" stroke-linejoin="round" stroke-miterlimit="10" d="
			M289.1,216.4c3.7-0.3,7.5-0.6,11.4-0.8c3.7-0.2,7.3-0.3,10.8-0.3"/>
		
			<path fill="none" stroke="#000000" stroke-width="1.0006" stroke-linecap="round" stroke-linejoin="round" stroke-miterlimit="10" d="
			M289.9,223c3.7-0.3,7.5-0.6,11.4-0.8c3.7-0.2,7.3-0.3,10.8-0.3"/>
		
			<path fill="none" stroke="#000000" stroke-width="1.0006" stroke-linecap="round" stroke-linejoin="round" stroke-miterlimit="10" d="
			M290.8,229.6c3.7-0.3,7.5-0.6,11.4-0.8c3.7-0.2,7.3-0.3,10.8-0.3"/>
		
			<path fill="none" stroke="#000000" stroke-width="1.0006" stroke-linecap="round" stroke-linejoin="round" stroke-miterlimit="10" d="
			M291.3,235.3c3.7-0.3,7.5-0.6,11.4-0.8c3.7-0.2,7.3-0.3,10.8-0.3"/>
	</g>
	<g>
		
			<path fill="none" stroke="#000000" stroke-width="1.0006" stroke-linecap="round" stroke-linejoin="round" stroke-miterlimit="10" d="
			M172.6,211.5c2.9,0.3,5.9,0.6,9,1.1c2.9,0.4,3.3,0.4,6,0.9"/>
		
			<path fill="none" stroke="#000000" stroke-width="1.0006" stroke-linecap="round" stroke-linejoin="round" stroke-miterlimit="10" d="
			M172,218.1c2.9,0.3,5.9,0.6,9,1.1c2.9,0.4,3.3,0.4,6,0.9"/>
		
			<path fill="none" stroke="#000000" stroke-width="1.0006" stroke-linecap="round" stroke-linejoin="round" stroke-miterlimit="10" d="
			M171.5,224.7c2.9,0.3,5.9,0.6,9,1.1c2.9,0.4,3.3,0.4,6,0.9"/>
		
			<path fill="none" stroke="#000000" stroke-width="1.0006" stroke-linecap="round" stroke-linejoin="round" stroke-miterlimit="10" d="
			M170.9,230.4c2.9,0.3,5.9,0.6,9,1.1c2.9,0.4,3.3,0.4,6,0.9"/>
	</g>
</g>
</svg>
