<?xml version="1.0" encoding="utf-8"?>
<!-- Generator: Adobe Illustrator 22.1.0, SVG Export Plug-In . SVG Version: 6.00 Build 0)  -->
<svg version="1.1" id="Слой_1" xmlns="http://www.w3.org/2000/svg" xmlns:xlink="http://www.w3.org/1999/xlink" x="0px" y="0px"
	 viewBox="0 0 480 480" style="enable-background:new 0 0 480 480;" xml:space="preserve">
<style type="text/css">
	.st0{fill:#CACACA;stroke:#000000;stroke-width:1.0006;stroke-linecap:round;stroke-linejoin:round;stroke-miterlimit:10;}
	.st1{clip-path:url(#XMLID_2_);fill:#E0E0E0;}
	.st2{opacity:0.2;clip-path:url(#XMLID_2_);}
	
		.st3{clip-path:url(#XMLID_2_);fill:none;stroke:#000000;stroke-width:1.0006;stroke-linecap:round;stroke-linejoin:round;stroke-miterlimit:10;}
	.st4{fill:#65AF5B;stroke:#000000;stroke-width:1.0006;stroke-linecap:round;stroke-linejoin:round;stroke-miterlimit:10;}
	.st5{opacity:0.2;}
	.st6{clip-path:url(#XMLID_3_);fill:#E0E0E0;}
	
		.st7{clip-path:url(#XMLID_3_);fill:none;stroke:#000000;stroke-width:1.0006;stroke-linecap:round;stroke-linejoin:round;stroke-miterlimit:10;}
	.st8{opacity:0.2;clip-path:url(#XMLID_3_);}
	.st9{fill:#41713B;stroke:#000000;stroke-width:1.0006;stroke-linecap:round;stroke-linejoin:round;stroke-miterlimit:10;}
</style>
<title>Body_4_(Shekhtman) 7</title>
<g id="loot">
	<g id="_x39_12_x5F_средние">
		<g>
			<g>
				
					<rect x="202.7" y="253.9" transform="matrix(0.9853 0.1707 -0.1707 0.9853 46.8295 -33.0708)" class="st0" width="26" height="3.6"/>
				<polygon class="st0" points="225.1,252.5 230.4,248.5 230.4,255.1 235.8,258.8 229.5,260.9 227.7,267.2 223.8,261.8 217.2,262 
					221.1,256.7 218.9,250.5 				"/>
			</g>
			<g>
				<defs>
					<path id="XMLID_282_" d="M169.1,252.2l-16.6,7.7c-3.8,1.8-8.3,1.3-11.7-1.2l-2.4-1.8c-0.7,9.8,5.6,16.2,13.5,16.2l56-1.7
						c11.1-26.7,19.1-48.9,23.4-73.5c-18.9,2-38.3-0.4-55.7-5.7L169.1,252.2z"/>
				</defs>
				<use xlink:href="#XMLID_282_"  style="overflow:visible;fill:#65AF5B;"/>
				<clipPath id="XMLID_2_">
					<use xlink:href="#XMLID_282_"  style="overflow:visible;"/>
				</clipPath>
				<path class="st1" d="M131.7,270.2c0,1.2,0.5,2.3,1,3.4c1.1,2,2.6,3.7,4.1,5.3c1.7,1.8,3.5,3.6,5.7,4.6c2.2,1.1,4.7,1.4,7.2,1.7
					c6.5,0.8,13.2,1.5,19.7,0.2c0.4-0.1,0.8-0.2,1.1-0.4c0.5-0.4,0.7-1.1,0.8-1.7c0.4-2.7-0.2-5.5-0.9-8.2
					c-2.5-8.5-7.8-16.2-15.2-21.1c-1.2-0.8-2.4-1.5-3.8-1.8c-2.2-0.4-4.5,0.6-6.3,2c-1.8,1.4-6.6,0.7-8,2.4
					C134.3,260.2,131.6,264.7,131.7,270.2z"/>
				<path class="st2" d="M221,188.2c0,0-13.8,70.8-19.7,74.4c-5.9,3.6-42.8,7.3-50.4,6.6c-8.1-0.7-13.4-14.3-13.4-14.3
					s-15.2-1.8-15.6,0.7c-0.4,2.5,6.2,31.5,6.8,32.5s84.8-13.2,84.8-13.2l16.3-63.3l6.4-21L221,188.2z"/>
				<path class="st3" d="M191.1,193.4l-11.8,52c-1.5,6.4-6.3,11.5-12.5,13.4c0,0-12.5,4.3-18.2,4.5c-5.7,0.2-9.8-5.5-9.8-5.5"/>
				
					<use xlink:href="#XMLID_282_"  style="overflow:visible;fill:none;stroke:#000000;stroke-width:1.0006;stroke-linecap:round;stroke-linejoin:round;stroke-miterlimit:10;"/>
			</g>
			<g>
				<path class="st4" d="M174.7,190.1c-0.9-0.6-2-0.3-2.5,0.6c-1.7,2.7-5,8.2-5.9,12.6c-0.4,1.9,5.6,3.8,14.2,5.3
					c2.6,0.5,7.4-8.3,10.4-7.9c2.6,0.4,3.2,9.9,6,10.2c6.8,0.7,13.8,1.2,19.9,1.4c10.4,0.3,18.3-0.2,18.7-2.1
					c0.8-3.1,0.3-8.5-0.7-11.8c-0.5-1.5-1.9-2.6-3.6-2C218.9,199,183,194.8,174.7,190.1z"/>
				<path class="st5" d="M221,212.3c8.2,0.1,14.1-0.6,14.5-2.1c0.7-3,0.3-8.1-0.6-11.4c-0.5-1.7-2.2-2.8-4-2.4
					c-2.8,0.7-6,0.5-9.4,0.8C222.8,201.3,222.7,208.4,221,212.3z"/>
			</g>
		</g>
		<g>
			<g>
				
					<rect x="261.5" y="257.2" transform="matrix(-0.9994 -3.346884e-02 3.346884e-02 -0.9994 540.174 527.0029)" class="st0" width="26" height="3.6"/>
				<polygon class="st0" points="265.9,253.9 261.6,248.9 260.2,255.4 254.1,257.9 259.9,261.2 260.4,267.8 265.3,263.3 
					271.7,264.8 269,258.8 272.4,253.2 				"/>
			</g>
			<g>
				<defs>
					<path id="XMLID_281_" d="M326.7,263.7l19.4,17.8c1.4,0.7,2.4,2.1,2.4,3.6l0,0c0.1,2.2-1.8,4.1-4,4l-20.9,0
						c-3.6,0-7.2-0.7-10.5-1.9l-31-11.7c-8.2-26.7-16.6-51.6-18.3-71.1l54.9-7.3L326.7,263.7z"/>
				</defs>
				<use xlink:href="#XMLID_281_"  style="overflow:visible;fill:#65AF5B;"/>
				<clipPath id="XMLID_3_">
					<use xlink:href="#XMLID_281_"  style="overflow:visible;"/>
				</clipPath>
				<path class="st6" d="M355.2,279.7c-0.2-2-1.4-3.7-3-4.8c-1.6-1.1-3.5-1.7-5.5-2c-5.4-0.9-8.5-0.4-16,0.6s-17.8,1.3-19.6,4.6
					c-1.8,3.3-1.8,12,0.9,12.7c5.7,1.6,9.7,5.3,15.6,5.1c8.1-0.3,16.6-0.7,23.9-4.3c0.7-0.4,2.8-1.6,2.5-2.7c-0.3-1.2-2.1,0-2-1.8
					c0.1-1,1.9-2.5,2.4-3.5C354.9,282.4,355.3,281.1,355.2,279.7z"/>
				<path class="st7" d="M301,203.2l11.5,54c1.2,5.8,4.5,10.9,9.3,14.3l14.1,10.2c5.5,3.2,5.7,7.5,3.2,7.5"/>
				<path class="st8" d="M261.1,205.6l17.1-2.2c0,0,8.1,60.9,12.2,65.2c4.1,4.3,39,18.8,44.7,18.2c5.7-0.6-11.3,5.3-11.3,5.3
					l-45-11.6L261.1,205.6z"/>
				
					<use xlink:href="#XMLID_281_"  style="overflow:visible;fill:none;stroke:#000000;stroke-width:1.0006;stroke-linecap:round;stroke-linejoin:round;stroke-miterlimit:10;"/>
			</g>
			<path id="XMLID_280_" class="st9" d="M348.5,285.1L348.5,285.1c0.1,2.2-1.8,4.1-4,4l-20.9,0c11.3-1.5,17.9-9.3,20.6-13.4
				c0.6-0.9,1.9-0.6,2.2,0.4C347.2,279.2,348.5,284.1,348.5,285.1z"/>
			<g>
				<path class="st4" d="M320,193.5c1.2-0.3,2.4,0,3.3,0.9c2.1,2.2,5.2,6.6,4.5,11.5c-0.3,1.9-8,3.7-18.2,5.1
					c-2.4,0.3-5.9-8.1-8.5-7.9c-2.2,0.2-3.5,9.2-5.8,9.4c-15.5,3.6-34.7,3.6-36.4,1.5c-1.2-1.6-1.8-7.6-1-11.8
					c0.3-1.8,2.1-3,3.9-2.8C275.8,201.1,311.8,195.8,320,193.5z"/>
				<path class="st5" d="M274.1,215.4c-8,0.4-14.3-0.1-15.2-1.3c-1.2-1.6-1.7-7.4-1-11.5c0.3-2,2.1-3.3,4.1-3.1
					c2.9,0.3,6.6,0.4,10.9,0.2C272.3,203.6,272.9,211.4,274.1,215.4z"/>
			</g>
		</g>
	</g>
</g>
</svg>
