<?xml version="1.0" encoding="utf-8"?>
<!-- Generator: Adobe Illustrator 22.1.0, SVG Export Plug-In . SVG Version: 6.00 Build 0)  -->
<svg version="1.1" id="Слой_1" xmlns="http://www.w3.org/2000/svg" xmlns:xlink="http://www.w3.org/1999/xlink" x="0px" y="0px"
	 viewBox="0 0 480 480" style="enable-background:new 0 0 480 480;" xml:space="preserve">
<style type="text/css">
	.st0{fill:#E0A614;stroke:#000000;stroke-width:1.0059;stroke-linecap:round;stroke-linejoin:round;stroke-miterlimit:10;}
	.st1{fill:#969696;stroke:#000000;stroke-width:1.0059;stroke-linecap:round;stroke-linejoin:round;stroke-miterlimit:10;}
	.st2{fill:#844F14;stroke:#000000;stroke-width:1.0059;stroke-linecap:round;stroke-linejoin:round;stroke-miterlimit:10;}
	.st3{fill:none;stroke:#000000;stroke-width:1.0059;stroke-linecap:round;stroke-linejoin:round;stroke-miterlimit:10;}
	.st4{fill:none;stroke:#000000;stroke-width:1.0059;stroke-linecap:round;stroke-linejoin:round;}
	.st5{fill:none;stroke:#000000;stroke-width:1.0059;stroke-linecap:round;stroke-linejoin:round;stroke-dasharray:1.4527,2.3243;}
	.st6{fill:#5B3B18;stroke:#000000;stroke-width:1.0059;stroke-linecap:round;stroke-linejoin:round;stroke-miterlimit:10;}
	.st7{opacity:0.2;}
	
		.st8{fill:none;stroke:#000000;stroke-width:1.0059;stroke-linecap:round;stroke-linejoin:round;stroke-miterlimit:10;stroke-dasharray:1.4173,2.2677;}
	.st9{opacity:0.5;fill:none;stroke:#FFFFFF;stroke-linecap:round;stroke-linejoin:round;stroke-miterlimit:10;}
</style>
<title>Body_4_(Shekhtman) 7</title>
<g id="_x39_14_x5F_берцы">
	<g>
		<path class="st0" d="M173,182.5c0,8.2-0.2,16.9-0.8,25.9c-0.8,13.1-2.3,25.3-4,36.6c-7.4,2.6-14.9,3.4-19.4,3.3
			c-7.2-0.1-12.4,0.2-14.6,3.3c-2.1,3-0.4,10.6,0.9,13.9l44.6,1.4H205c1.2-1.3,2.7-3.4,3.7-6.2c1.2-3.3,0.8-6.1,1.1-7.1
			c2-6.9,4.7-13.8,6.4-17.7c2.9-6.2,7.9-19.1,14.9-48.8c-8.7,0.1-18.1-0.2-28.1-1C192.2,185.3,182.1,184,173,182.5z"/>
		<path class="st1" d="M155.3,263.6c-1.3-2.2-2.7-5.1-3.8-8.5c-0.9-2.7-1.4-4.7-1.7-6.9c-3.5,0.2-7-0.1-10.5,0.5
			c-0.6,0.1-3.5,0.5-5.1,2.8c-0.9,1.4-0.9,3.5-1,4.7c-0.1,2.8,0.8,5.1,1.6,6.6L155.3,263.6z"/>
		<path class="st2" d="M171,240.6c1.9-10.2,3.4-21.6,4.3-34c0.6-8.5,0.8-16.6,0.7-24.1c1.7,0.9,3.5,1.8,5.2,2.7
			c-0.1,7.4-0.5,15.3-1.3,23.7c-1.3,12.5-3.3,23.8-5.6,33.8C173.2,242,172.1,241.3,171,240.6z"/>
		<path class="st1" d="M210.7,250.4c-1.7,0-7.1,0.1-10.2,1.1c-9.3,3.1-11.7,9.7-12.4,15.3H205c1-1,2.7-3.1,3.7-6.2
			c0.8-2.6,0.8-4.8,0.7-6.2C209.9,253.1,210.3,251.7,210.7,250.4"/>
		<path class="st3" d="M173.9,183c-1.5,1.8-8.4,10.5-6.2,20.4c0.3,1.2,0.9,4.2,1.8,4.2C171.3,207.6,172.9,195,173.9,183z"/>
		<path class="st3" d="M173.1,183c-2.6,2.7-8.9,9.8-10,20.6c-0.2,2.1-0.6,7.5,0.4,7.6C164.4,211.4,166.7,206.5,173.1,183z"/>
		<path class="st3" d="M173.7,189.2c0.7,1,1.4,1.9,2.2,2.9c-0.2,0.7-0.5,1.7-1.4,2.7c-0.5,0.6-1,1-1.4,1.3c0.3,0.7,0.7,1.6,1.2,2.5
			c0.5,0.8,0.9,1.4,1.4,1.9c-0.5,0.7-1.2,1.5-1.9,2.3c-0.6,0.7-1.3,1.2-1.8,1.7c0.3,1.1,0.7,2.4,1.4,3.8c0.5,1,1.1,1.9,1.6,2.6
			c-0.4,0.5-1,1.2-2,1.8c-0.7,0.5-1.4,0.7-1.9,0.9c0.1,1,0.4,2.5,1.2,4.1c0.5,1.2,1.2,2.1,1.7,2.8c-0.3,0.7-0.8,1.6-1.7,2.5
			c-0.8,0.9-1.6,1.4-2.2,1.8c0.2,1.2,0.4,2.6,0.8,4.1c0.3,1.2,0.7,2.2,1.1,3.2c-0.1,0.5-0.4,1.5-1.1,2.4c-0.7,0.9-1.4,1.4-1.9,1.7"
			/>
		<g>
			<g>
				<path class="st4" d="M181.2,188.6c0.2,0,0.5,0.1,0.7,0.1"/>
				<path class="st5" d="M184.2,189.1c6.3,1.1,13.1,2.1,20.6,2.5c7.2,0.4,16.7,0.1,23.4-0.2"/>
				<path class="st4" d="M229.4,191.3c0.2,0,0.5,0,0.7,0"/>
			</g>
		</g>
		<polygon class="st6" points="186.5,264.6 133.7,262.9 134.7,269.9 139.9,269.9 139.9,268.7 141.4,268.7 141.4,269.9 147,270.1 
			147,268.7 148.5,268.7 148.5,270.2 154,270.3 154,269.2 155.5,269.2 155.5,270.4 161.2,270.6 161.2,269.9 162.7,269.9 
			162.7,270.6 169.5,270.8 169.5,269.8 171,269.8 171,270.9 176.2,271.1 176.2,270 187.5,269.2 187.5,271.3 191.2,271.3 
			191.2,269.8 192.7,269.8 192.7,271.3 199.1,271.4 199.1,269.8 200.6,269.8 200.6,271.4 206.6,271.5 207.9,264.5 		"/>
		<path class="st7" d="M216.1,186.6l14.4,0.5c-2.6,8.6-5.1,27.2-13.3,45.1c-4.7,10.4-4.9,12.1-6.5,18.1c-0.4,1.5-0.8,4.3-1.6,8.6
			c-0.2,1.3-1.8,3.6-1.8,5.1c0,1.4-0.4,6.3-0.8,7.4c-1.9,0-3.8,0-5.7-0.1c-0.1-0.6-0.1-1.2-0.2-1.9c-0.5,0-1.1,0.1-1.6,0.1
			c0,0.6,0,1.1,0,1.7c-2.1,0-4.2,0-6.3,0c0-0.5,0-1-0.1-1.6c0.5-0.9,5.6-11.9,5.7-12.2c3.6-6.5,7.9-25.3,9.2-30.9
			C208.8,222.1,213.4,194.7,216.1,186.6z"/>
	</g>
	<g>
		<path class="st0" d="M264.8,192.1c8.1,0.9,18.9,1.4,31.4-0.4c11-1.6,20.6-4.1,27.6-6.8c0.2,11.1,0.2,22.4,1.1,34.4
			c0.9,12.9,2.2,25.2,3.7,36.9c5.6,5.5,12.3,5.2,16,6.3c1.6,0.5,4.9,1.8,6.5,3.4c3.1,3,1.9,10.3,1.4,14.1c-5.9,1.8-16,4-26.1,3.9
			c-6.6-0.1-12.3-1-16.9-2c-8.7-4-17.4-8-26.1-12c-0.9-1.4-2.1-3.6-2.7-6.3c-0.8-3.4-0.2-6.1-0.3-6.9c-0.2-8.2-3.4-14.4-6.5-22.3
			C271.3,227.5,266.7,210.2,264.8,192.1z"/>
		<path class="st1" d="M289.5,272.8c-0.1-2.4,0-8.7-4.5-13.9c-1-1.2-3.4-3.4-4.5-4c0,0.4,0,0.9,0,1.6c-0.1,2.6-0.1,4.4-0.2,4.8
			c-0.1,1.5,0.2,3.9,1.9,7.6C284.7,270.2,287.1,271.5,289.5,272.8z"/>
		<path class="st1" d="M312.2,282c-0.1-1.8-0.6-5.8,1.1-8.8c2.7-4.7,7-7,11.8-8.4c7.1-2,17.1-2.5,21.1-1.6c0.7,0.2,2,0.5,3.2,1.4
			c1.6,1.2,2.4,2.6,2.8,3.3c0.9,1.8,1,5.8,0.9,7.4c0,1.1-0.4,2.6-0.7,4.5c-5.4,1.3-11.7,2.7-15.2,3.1c-2.4,0.3-5.4,0.6-9.5,0.6
			c-3,0-5.7-0.2-8-0.4C317,282.8,314.4,282.4,312.2,282z"/>
		<path class="st8" d="M265.5,198.2c8.3,1.3,19.9,2.2,33.6,0.2c9.9-1.5,18.1-4.1,24.5-6.6"/>
		<path class="st2" d="M298.1,190.2c1.4,9,3.1,18.4,5,28c2.2,11,4.7,21.4,7.2,31.4c-0.8,1.2-1.7,2.4-2.5,3.5
			c-3.8-9.5-7.5-20.5-10.5-33c-2.3-9.6-3.9-18.5-4.9-26.7C294.3,192.3,296.2,191.2,298.1,190.2z"/>
		<path class="st2" d="M306.3,189.2c1.8,9,3.5,18.5,5,28.4c1.6,10.6,2.8,20.9,3.8,30.6c1.4,0.8,2.8,1.5,4.2,2.3
			c-0.5-10.2-1.3-21.2-2.7-32.8c-1.2-9.7-2.6-18.9-4.3-27.5C310.2,189.8,308.2,189.5,306.3,189.2z"/>
		<path class="st3" d="M301.3,191.8c-0.7,1.4-5.1,10.1-1.1,19.2c1.4,3.1,4.3,7.5,5.5,7.1C307,217.5,306.8,212,301.3,191.8z"/>
		<path class="st3" d="M301,190.8c2.5,1.9,13.1,10.5,13.9,24.4c0,0.5,0.4,8.2-1.2,8.5C312,224,308.2,215.7,301,190.8z"/>
		<path class="st3" d="M299.9,201.3c1.1,0.4,2.5,0.9,4.1,1.2c1.7,0.3,3.2,0.3,4.4,0.2c-0.5,1.2-1.3,3.1-3,5c-1.5,1.6-3,2.6-4,3.2
			c1.5,0.8,3.2,1.7,5.2,2.5c1.7,0.7,3.3,1.2,4.7,1.6c-0.8,1-1.9,2.4-3.5,3.6c-1.6,1.3-3.2,2.1-4.4,2.6c0.7,0.8,2.1,2.3,4.5,3.3
			c1.9,0.8,3.6,0.9,4.6,0.9c-0.5,0.8-1.4,2-2.7,3c-1.5,1.2-3,1.9-4,2.3c0.9,0.8,2.1,1.7,3.7,2.6c1.5,0.8,2.9,1.3,4.1,1.6
			c-0.5,1.1-1.2,2.6-2.3,4.1c-1,1.4-2,2.4-2.9,3.1c0.6,0.5,1.5,1.1,2.7,1.6c1.2,0.4,2.2,0.5,2.9,0.6"/>
		<path class="st6" d="M327.3,283c-7-0.1-14.5-1.6-19.2-2.8l-27-12.5l1.7,7.3l2.8,1.3v-1.8h0.9v2.2l3.7,1.7v-1.7l4,3.1v0.4l3.8,1.7
			v-1h0.7v1.3l4.2,1.9v-1.8h0.5v2l5.4,2.5c2.2,0.6,4.8,1.2,7.6,1.8v-1.2h1.9v1.6c2.5,0.4,5.2,0.7,8,0.8c0.4,0,0.7,0,1.1,0v-1.9h1.9
			v2c2.8,0,5.5-0.2,8.1-0.5v-1.6h1.9v1.4c2.5-0.4,4.9-0.8,7-1.3v-1.7h1.9v1.2c1.3-0.3,4.4-0.9,5.4-1.3l0.4-7.3
			C348.4,280.4,337.6,283.1,327.3,283z"/>
	</g>
	<path class="st9" d="M350.7,271.3c-0.2-0.7-1-2.7-3.1-4.2c-1.7-1.2-3.5-1.4-4.2-1.4"/>
	<path class="st9" d="M135.2,255.4c0.1-0.5,0.3-2,1.5-3.2c1.7-1.8,4.1-1.7,4.4-1.6"/>
	<circle cx="151.7" cy="261.6" r="0.7"/>
	<circle cx="147.8" cy="250.4" r="0.7"/>
	<circle cx="283.2" cy="266.4" r="0.7"/>
	<circle cx="282.3" cy="258.5" r="0.7"/>
	<circle cx="287.5" cy="268.3" r="0.7"/>
	<circle cx="314.3" cy="279.4" r="0.7"/>
	<circle cx="320" cy="269.2" r="0.7"/>
	<circle cx="346.7" cy="264.8" r="0.7"/>
	<circle cx="351.2" cy="277.1" r="0.7"/>
	<circle cx="135.9" cy="261.2" r="0.7"/>
	<circle cx="205.7" cy="262.4" r="0.7"/>
	<circle cx="191.3" cy="262.9" r="0.7"/>
	<circle cx="207.5" cy="252.7" r="0.7"/>
</g>
</svg>
