<?xml version="1.0" encoding="utf-8"?>
<!-- Generator: Adobe Illustrator 22.1.0, SVG Export Plug-In . SVG Version: 6.00 Build 0)  -->
<svg version="1.1" id="Слой_1" xmlns="http://www.w3.org/2000/svg" xmlns:xlink="http://www.w3.org/1999/xlink" x="0px" y="0px"
	 viewBox="0 0 480 480" style="enable-background:new 0 0 480 480;" xml:space="preserve">
<style type="text/css">
	.st0{fill:#2A379E;stroke:#000000;stroke-width:1.0006;stroke-linecap:round;stroke-linejoin:round;stroke-miterlimit:10;}
	.st1{opacity:0.2;}
	.st2{fill:#E4D767;stroke:#000000;stroke-width:1.0006;stroke-linecap:round;stroke-linejoin:round;stroke-miterlimit:10;}
	.st3{fill:#9FFFFF;stroke:#000000;stroke-width:1.0006;stroke-linecap:round;stroke-linejoin:round;stroke-miterlimit:10;}
	.st4{fill:#7DCCCC;}
	.st5{fill:none;stroke:#FFFFFF;stroke-width:2;stroke-linecap:round;stroke-linejoin:round;stroke-miterlimit:10;}
</style>
<title>Body_4_(Shekhtman) 2</title>
<g id="loot">
	<g id="_x39_07_x5F_короткие">
		<g>
			<path class="st0" d="M161.1,235.8c0,0-30.5,10.7-30.9,16.8v0c-0.1,2.2,1.8,4,4,4l62.6-1.7c1.7,0,3-1.1,3.8-2.6
				c4.5-8.2,7.9-16.9,13.8-32.2l-48.8-4.4L161.1,235.8z"/>
			<path id="XMLID_162_" class="st1" d="M199.4,223.7c-2.9,10.2-2.8,9.7-8.3,22.1c-4.2,4.4-59,10.9-56.8,10.8l65.3-1.7
				c9.5-20.3,7.2-12.8,12.4-31.4"/>
			<g>
				<path class="st2" d="M216.3,212.1c1.2-0.2,2.2,1.2,1.9,2.7c-0.6,4.1-1.3,8.7-2.2,12.4c-1.3,5.8-53.3,0.1-53.6-6.6
					c-0.2-4.2,0.6-10,1.3-13c0.3-1.1,1.2-1.8,2.1-1.5C182,212.1,199.5,214.4,216.3,212.1z"/>
				<path class="st1" d="M216.5,212.1c1.4-0.1,2.5,1.3,2.2,2.7c-0.7,4.1-1.4,8.7-2.3,12.4c-0.5,2-9,2.6-18.8,2.2
					c1.8-3.2,3.1-13.6,2.7-17.1C205.6,212.6,211,212.4,216.5,212.1z"/>
			</g>
		</g>
		<g>
			<path id="XMLID_161_" class="st0" d="M318.3,245.8c0,0,22.6,17.7,22.5,22.1v0c0.1,2.2-1.8,4-4,4l-20.7,0c-3.6,0-7.1-0.7-10.4-1.9
				l-28.6-10.8c-1.4-0.5-2.5-1.6-2.9-3c-6.8-22.1-4.3-12.4-9.6-31.8l50.8-3.8L318.3,245.8z"/>
			<path id="XMLID_160_" class="st1" d="M305.6,269.9l-30.7-11.7c-7-20.9-3.4-10.7-7.8-29.8c10.3,0.2,8.7,0.2,15.9-0.2
				c3.6,24.1,3.2,24.7,4.4,26.4C290.6,259.4,301.6,266.7,305.6,269.9z"/>
			<g>
				<path class="st2" d="M317.1,216.8c1-0.2,2,0.4,2.2,1.5c0.7,2.6,1.1,8,0.4,13c-0.8,5.7-53.9,10.7-55.4,5.8c-1-3.1-1.7-8.3-2.1-12
					c-0.1-1.4,0.8-2.6,2.1-2.6C284.9,222.5,302.7,220.1,317.1,216.8z"/>
				<path class="st1" d="M286.5,238.3c-0.8,0-6.7,0.4-7.7,0.5c-5.8,0.1-14-0.3-14.5-1.8c-1-3.1-1.7-8.3-2.1-12
					c-0.1-1.4,0.8-2.6,2.1-2.6c4.1,0,8-0.2,11.8-0.4c1,0,7-0.5,8-0.5C283.7,224.4,284.8,234.2,286.5,238.3z"/>
			</g>
		</g>
		<g>
			
				<ellipse transform="matrix(0.9867 -0.1627 0.1627 0.9867 -33.5416 52.1703)" class="st3" cx="301.7" cy="230.9" rx="5.3" ry="9.1"/>
			
				<ellipse transform="matrix(0.9867 -0.1627 0.1627 0.9867 -33.6521 52.4478)" class="st4" cx="303.4" cy="231.7" rx="2.4" ry="3.8"/>
			<circle class="st4" cx="301" cy="234.2" r="1.8"/>
			<path class="st5" d="M302.5,225.6c0.3,0.4,0.8,0.9,1.1,1.7c0.4,1,0.6,1.8,0.6,2.4"/>
		</g>
		<g>
			
				<ellipse transform="matrix(0.2862 -0.9582 0.9582 0.2862 -87.2497 322.8469)" class="st3" cx="173.1" cy="220" rx="9.1" ry="5.3"/>
			
				<ellipse transform="matrix(0.2862 -0.9582 0.9582 0.2862 -89.058 321.6185)" class="st4" cx="171.3" cy="220.6" rx="3.8" ry="2.4"/>
			<circle class="st4" cx="173.4" cy="223.4" r="1.8"/>
			<path class="st5" d="M173,214.7c-0.4,0.3-0.9,0.8-1.3,1.5c-0.6,0.9-0.8,1.7-0.9,2.3"/>
		</g>
	</g>
</g>
</svg>
