<?xml version="1.0" encoding="utf-8"?>
<!-- Generator: Adobe Illustrator 22.1.0, SVG Export Plug-In . SVG Version: 6.00 Build 0)  -->
<svg version="1.1" id="Слой_1" xmlns="http://www.w3.org/2000/svg" xmlns:xlink="http://www.w3.org/1999/xlink" x="0px" y="0px"
	 viewBox="0 0 480 480" style="enable-background:new 0 0 480 480;" xml:space="preserve">
<style type="text/css">
	.st0{fill:#C0751B;}
	.st1{opacity:0.2;clip-path:url(#SVGID_2_);enable-background:new    ;}
	.st2{fill:none;stroke:#000000;stroke-width:1.0006;stroke-linecap:round;stroke-linejoin:round;stroke-miterlimit:10;}
	.st3{opacity:0.2;clip-path:url(#SVGID_4_);enable-background:new    ;}
	.st4{fill:#443013;stroke:#000000;stroke-width:1.0006;stroke-linecap:round;stroke-linejoin:round;stroke-miterlimit:10;}
	.st5{fill:#C0751B;stroke:#000000;stroke-width:1.0006;stroke-linecap:round;stroke-linejoin:round;stroke-miterlimit:10;}
	.st6{opacity:0.2;enable-background:new    ;}
	.st7{fill:#DAB966;stroke:#000000;stroke-width:1.0006;stroke-linecap:round;stroke-linejoin:round;stroke-miterlimit:10;}
</style>
<g id="_x39_10_x5F_высокие">
	<g>
		<g>
			<g>
				<path id="XMLID_269_" class="st0" d="M168.6,252l-16.5,7.6c-3.8,1.8-8.3,1.3-11.7-1.2l-2.4-1.8c-0.7,9.7,5.5,16,13.4,16
					l55.5-1.6c11-26.4,19-48.5,23.2-72.9c-18.8,2-38.9-0.4-56.2-5.6L168.6,252z"/>
			</g>
			<g>
				<defs>
					<path id="SVGID_1_" d="M168.6,252l-16.5,7.6c-3.8,1.8-8.3,1.3-11.7-1.2l-2.4-1.8c-0.7,9.7,5.5,16,13.4,16l55.5-1.6
						c11-26.4,19-48.5,23.2-72.9c-18.8,2-38.9-0.4-56.2-5.6L168.6,252z"/>
				</defs>
				<clipPath id="SVGID_2_">
					<use xlink:href="#SVGID_1_"  style="overflow:visible;"/>
				</clipPath>
				<path class="st1" d="M220.1,188.5c0,0-13.7,70.3-19.5,73.9c-5.9,3.6-42.4,7.2-50,6.6c-8-0.7-13.3-14.2-13.3-14.2
					s-15.1-1.8-15.5,0.7c-0.4,2.4,6.2,31.3,6.7,32.2c0.6,0.9,84.1-13.1,84.1-13.1l16.2-62.8l6.4-20.8L220.1,188.5z"/>
			</g>
			<g>
				<path id="XMLID_1_" class="st2" d="M168.6,252l-16.5,7.6c-3.8,1.8-8.3,1.3-11.7-1.2l-2.4-1.8c-0.7,9.7,5.5,16,13.4,16l55.5-1.6
					c11-26.4,19-48.5,23.2-72.9c-18.8,2-38.9-0.4-56.2-5.6L168.6,252z"/>
			</g>
		</g>
	</g>
	<g>
		<g>
			<g>
				<path id="XMLID_268_" class="st0" d="M324.9,263.4l19.3,17.7c1.4,0.7,2.3,2.1,2.4,3.6l0,0c0.1,2.2-1.8,4-4,4h-20.7
					c-3.6,0-7.1-0.7-10.4-1.9l-30.7-11.7c-8.1-26.5-16.5-51.2-18.2-70.5l57.5-7.2L324.9,263.4z"/>
			</g>
			<g>
				<defs>
					<path id="SVGID_3_" d="M324.9,263.4l19.3,17.7c1.4,0.7,2.3,2.1,2.4,3.6l0,0c0.1,2.2-1.8,4-4,4h-20.7c-3.6,0-7.1-0.7-10.4-1.9
						l-30.7-11.7c-8.1-26.5-16.5-51.2-18.2-70.5l57.5-7.2L324.9,263.4z"/>
				</defs>
				<clipPath id="SVGID_4_">
					<use xlink:href="#SVGID_3_"  style="overflow:visible;"/>
				</clipPath>
				<path class="st3" d="M259.9,205.7l17-2.1c0,0,8.1,60.4,12.1,64.7c4.1,4.3,38.7,18.7,44.3,18.1c5.6-0.6-11.2,5.3-11.2,5.3
					l-44.7-11.5L259.9,205.7z"/>
			</g>
			<g>
				<path id="XMLID_2_" class="st2" d="M324.9,263.4l19.3,17.7c1.4,0.7,2.3,2.1,2.4,3.6l0,0c0.1,2.2-1.8,4-4,4h-20.7
					c-3.6,0-7.1-0.7-10.4-1.9l-30.7-11.7c-8.1-26.5-16.5-51.2-18.2-70.5l57.5-7.2L324.9,263.4z"/>
			</g>
		</g>
		<path id="XMLID_264_" class="st4" d="M346.6,284.7L346.6,284.7c0.1,2.2-1.8,4-4,4h-20.7c11.2-1.5,17.8-9.3,20.4-13.3
			c0.6-0.9,1.9-0.6,2.1,0.4C345.3,278.8,346.6,283.6,346.6,284.7z"/>
	</g>
	<path class="st5" d="M229,206.2c1.3,0.1,2.6-0.6,3.3-1.8c1.8-3.2,4.1-8.1,4-11.8c-0.1-3-19.3-6.8-37.3-8.8
		c-2.7-0.3-13.7-1.2-16.3-1.3c-8.7-0.3-14.9,0.2-14.9,2.1c-0.1,4.4,1.9,10.4,3,13.4c0.4,1.2,1.5,2.1,2.8,2.2
		C182.4,201.5,215.5,205.3,229,206.2z"/>
	<path class="st6" d="M229,206.2c1.3,0.1,2.6-0.6,3.3-1.8c1.8-3.2,4.1-8.1,4-11.8c0-1.7-6.1-3.6-14.5-5.3c0.3,4.9-1.6,13.3-3.3,18.1
		C222.5,205.7,226.2,206,229,206.2z"/>
	<path class="st5" d="M325.6,186.4c-0.5-1.9-9.2-2.3-19.4-1.9c-2.4,0.1-11.9,0.7-14.2,0.9c-17.6,1.6-39.8,4.8-39.2,7.4
		c1.3,6.7,4.3,9.6,5.5,11.1c1.2,1.5,2.6,1.7,4,1.6c12.4-1.1,51-2.8,59.5-4.5C323.1,200.7,327.4,193.4,325.6,186.4z"/>
	<path class="st6" d="M271.8,187.8c-9.2,1.5-19.2,3.4-19,5c0.6,4.3,2.7,7.6,4.2,9.8c1.5,2.2,3.9,3,5.3,2.9c2.9-0.2,7.1-0.5,12.1-0.9
		C271.7,198.5,271.7,192.6,271.8,187.8z"/>
	<g>
		<path class="st7" d="M273.7,259.1c0.2,1.3,0.4,2.5,0.7,3.8c8.1-1.6,17-2.9,26.6-3.8c9.5-0.8,18.3-1,26.4-0.9
			c-0.3-1.6-0.6-3.2-0.9-4.8c-8.1,0-16.8,0.5-26.1,1.5C290.8,255.9,281.9,257.4,273.7,259.1z"/>
		<path class="st2" d="M314,258.2l-8.2,0.5c-1.1,0.1-2-0.9-2.1-2.2l0,0c-0.1-1.3,0.8-2.3,1.9-2.4l8.2-0.5c1.1-0.1,2,0.9,2.1,2.2l0,0
			C315.9,257.1,315.1,258.2,314,258.2z"/>
		<path class="st2" d="M300.3,254.9c-1.1,0-1.9,1.1-1.8,2.3c0.1,1.2,1.1,2.1,2.2,1.9"/>
		<circle cx="311" cy="256.1" r="0.5"/>
		<circle cx="319.2" cy="256" r="0.5"/>
		<circle cx="324.1" cy="256" r="0.5"/>
	</g>
	<g>
		<path class="st7" d="M275.4,265.7c0.5,1.7,0.9,3.5,1.4,5.2c8.1-1.7,17-3.2,26.7-4.3c9.6-1.1,18.6-1.6,26.8-1.8
			c-0.5-1.4-0.9-2.8-1.4-4.1c-8.1-0.2-17.1,0.1-26.9,1C292.2,262.6,283.3,264.1,275.4,265.7z"/>
		<path class="st2" d="M314.6,265.7l-7.6,0.6c-1.2,0.1-2.3-0.8-2.4-2.1v-0.6c-0.1-1.2,0.8-2.3,2.1-2.4l7.6-0.6
			c1.2-0.1,2.3,0.8,2.4,2.1v0.6C316.8,264.6,315.9,265.6,314.6,265.7z"/>
		<path class="st2" d="M300.2,261.9c-1.5,0-2.7,1.3-2.5,2.8c0.1,1.4,1.5,2.5,3,2.3"/>
		<circle cx="312.1" cy="263.5" r="0.5"/>
		<circle cx="320.2" cy="262.9" r="0.5"/>
		<circle cx="325.7" cy="262.9" r="0.5"/>
	</g>
	<g>
		<path class="st7" d="M215.8,254.6c-0.3,1.2-0.7,2.4-1,3.7c-7-2.7-14.8-5.2-23.2-7.3c-8.3-2.1-16.2-3.5-23.4-4.4
			c0.4-1.5,0.9-3.1,1.3-4.6c7.2,1.1,14.9,2.7,23,4.9C201,249.2,208.7,251.8,215.8,254.6z"/>
		<path class="st2" d="M175.4,247.7l7.3,1.3c1,0.2,1.9-0.7,2-1.9l0,0c0.1-1.2-0.5-2.4-1.5-2.6l-7.3-1.3c-1-0.2-1.9,0.7-2,1.9l0,0
			C173.8,246.4,174.5,247.5,175.4,247.7z"/>
		<path class="st2" d="M187.9,245.7c1,0.1,1.7,1.3,1.5,2.6c-0.2,1.2-1.1,2-2.1,1.7"/>
		
			<ellipse transform="matrix(0.9974 -7.169914e-02 7.169914e-02 0.9974 -17.1713 13.4164)" cx="178.3" cy="245.9" rx="0.4" ry="0.5"/>
	</g>
	<g>
		<path class="st7" d="M213.6,261c-0.6,1.7-1.2,3.3-1.8,5c-7-2.8-14.7-5.5-23.2-7.9c-8.4-2.4-16.3-4.1-23.6-5.3
			c0.6-1.3,1.1-2.6,1.7-3.9c7.2,0.9,15.2,2.4,23.8,4.6C199,255.7,206.7,258.3,213.6,261z"/>
		<path class="st2" d="M174,255l6.7,1.4c1.1,0.2,2.1-0.6,2.3-1.8l0.1-0.5c0.2-1.2-0.6-2.4-1.7-2.6l-6.7-1.4
			c-1.1-0.2-2.1,0.6-2.3,1.8l-0.1,0.5C172.2,253.6,172.9,254.8,174,255z"/>
		<path class="st2" d="M187.2,252.7c1.3,0.2,2.3,1.6,2,3c-0.2,1.4-1.5,2.3-2.8,1.9"/>
		<ellipse transform="matrix(0.998 -6.321807e-02 6.321807e-02 0.998 -15.6474 11.6644)" cx="176.5" cy="253.1" rx="0.4" ry="0.5"/>
	</g>
	<g>
		<path class="st2" d="M289.4,216.4c3.7-0.3,7.5-0.6,11.4-0.8c3.7-0.2,7.3-0.3,10.8-0.3"/>
		<path class="st2" d="M290.2,223c3.7-0.3,7.5-0.6,11.4-0.8c3.7-0.2,7.3-0.3,10.8-0.3"/>
		<path class="st2" d="M291.1,229.6c3.7-0.3,7.5-0.6,11.4-0.8c3.7-0.2,7.3-0.3,10.8-0.3"/>
		<path class="st2" d="M291.6,235.3c3.7-0.3,7.5-0.6,11.4-0.8c3.7-0.2,7.3-0.3,10.8-0.3"/>
	</g>
	<g>
		<path class="st2" d="M172.9,211.4c2.9,0.3,5.9,0.6,9,1.1c2.9,0.4,3.3,0.4,6,0.9"/>
		<path class="st2" d="M172.3,218c2.9,0.3,5.9,0.6,9,1.1c2.9,0.4,3.3,0.4,6,0.9"/>
		<path class="st2" d="M171.8,224.6c2.9,0.3,5.9,0.6,9,1.1c2.9,0.4,3.3,0.4,6,0.9"/>
		<path class="st2" d="M171.2,230.3c2.9,0.3,5.9,0.6,9,1.1c2.9,0.4,3.3,0.4,6,0.9"/>
	</g>
</g>
</svg>
