<?xml version="1.0" encoding="utf-8"?>
<!-- Generator: Adobe Illustrator 22.1.0, SVG Export Plug-In . SVG Version: 6.00 Build 0)  -->
<svg version="1.1" id="Слой_1" xmlns="http://www.w3.org/2000/svg" xmlns:xlink="http://www.w3.org/1999/xlink" x="0px" y="0px"
	 viewBox="0 0 480 480" style="enable-background:new 0 0 480 480;" xml:space="preserve">
<style type="text/css">
	.st0{fill:#8A1212;stroke:#000000;stroke-width:1.0006;stroke-linecap:round;stroke-linejoin:round;stroke-miterlimit:10;}
	.st1{fill:none;stroke:#000000;stroke-width:1.0006;stroke-linecap:round;stroke-linejoin:round;stroke-miterlimit:10;}
	.st2{opacity:0.2;}
</style>
<title>Body_4_(Shekhtman) 7</title>
<g id="loot">
	<g id="_x30_05_x5F_средние">
		<g>
			<path class="st0" d="M168.8,252.6c0,0-30.5,10.7-30.9,16.8v0c-0.1,2.2,1.8,4,4,4l62.6-1.7c1.7,0,3.2-1,3.8-2.6
				c10.8-24,18.9-45.7,20.5-62.1l-54.8-5.2L168.8,252.6z"/>
			<path class="st1" d="M202.2,218.8c-7.5-0.2-14.3-0.7-20.6-1.9 M180.4,223.8c6.4,1,13.3,1.5,20.6,1.9 M179.2,230.8
				c6.6,1.2,13.5,1.7,20.6,1.9"/>
			<path id="XMLID_222_" class="st2" d="M214.7,214.4c-3,14.1-7.7,31.4-16,48.2c-4.2,4.4-59,10.9-56.8,10.8l65.3-1.7
				c9.5-20.3,16.5-38.7,20.7-57.6"/>
			<g>
				<path class="st0" d="M232,196.9c1.4-0.2,2.5,1.3,2.3,2.7c-0.7,4.1-1.4,8.7-2.3,12.4c-1.4,5.8-61.4-0.5-61.8-7.2
					c-0.3-4.2,0.6-10,1.4-13c0.3-1.1,1.4-1.8,2.4-1.4C192.5,196.4,212.6,198.9,232,196.9z"/>
				<path class="st2" d="M232,196.9c1.4-0.1,2.5,1.3,2.3,2.7c-0.7,4.1-1.4,8.7-2.3,12.4c-0.5,2-9.2,2.6-19.2,2.1
					c1.8-3.2,3.1-13.6,2.7-17.1C220.8,197.3,226.4,197.1,232,196.9z"/>
			</g>
		</g>
		<g>
			<path id="XMLID_221_" class="st0" d="M326.8,263.4c0,0,21.8,16.9,21.7,21.3l0,0c0.1,2.2-1.8,4-4,4l-20.7,0
				c-3.6,0-7.1-0.7-10.4-1.9l-28.6-10.8c-1.4-0.5-2.5-1.6-2.9-3c-7.9-22.1-13.2-44-17.1-65.7l55.5-3.8L326.8,263.4z"/>
			<path class="st1" d="M312.7,219.6c-6.7,1.4-13.6,1.9-20.6,1.9 M293.3,228.5c7.3,0.1,14.2-0.5,20.6-1.9 M294.5,235.4
				c7.1-0.1,14-0.6,20.6-1.9"/>
			<path id="XMLID_220_" class="st2" d="M313.3,286.7l-30.7-11.7c-7.3-20.9-11.8-39.9-16.3-59.1c10.3,0.2,8.7,0.2,15.9-0.2
				c4.7,30.4,11.7,53.9,12.8,55.7C298.2,276.4,309.3,283.6,313.3,286.7z"/>
			<g>
				<path class="st0" d="M320.7,194c1.1-0.2,2.2,0.4,2.5,1.5c0.8,2.6,1.2,8,0.4,13c-0.9,5.7-59.5,10.7-61.2,5.8
					c-1.1-3.1-1.9-8.3-2.3-12c-0.2-1.4,0.9-2.6,2.3-2.6C285.3,199.7,304.8,197.3,320.7,194z"/>
				<path class="st2" d="M287,215.6c-0.9,0-7.4,0.4-8.5,0.5c-6.4,0.1-15.5-0.3-16-1.8c-1.1-3.1-1.9-8.3-2.3-12
					c-0.2-1.4,0.9-2.6,2.3-2.6c4.5,0,8.9-0.2,13.1-0.4c1.1,0,7.7-0.5,8.8-0.5C283.9,201.6,285.1,211.5,287,215.6z"/>
			</g>
		</g>
	</g>
</g>
</svg>
