<svg xmlns="http://www.w3.org/2000/svg" viewBox="0 0 480 480"><defs><style>.cls-1,.cls-6{fill:#c96c27;}.cls-1,.cls-2,.cls-5{stroke:#000;stroke-linecap:round;stroke-linejoin:round;stroke-width:1.49px;}.cls-2{fill:#dd8e40;}.cls-3{fill:#efefef;}.cls-4{fill:#1f1e1f;opacity:0.2;}.cls-5{fill:none;}</style></defs><title>котич инвентарь</title><g id="Слой_57" data-name="Слой 57"><g id="loot"><g id="_10_810" data-name="10_810"><path class="cls-1" d="M225.56,307.09l-20.1-.59A20.68,20.68,0,0,1,192,308.72c-2.21-.45-6.23-1.27-7.33-4.26s1.42-6.21,2.1-7.08a12.22,12.22,0,0,1,7.68-4.38l15.18-11Z"/><path class="cls-1" d="M200.66,181.47l-23.95-23.84a45.87,45.87,0,0,0-4.42,11.77,36.49,36.49,0,0,0-.76,14.55,29.57,29.57,0,0,0,4,11.18,28.67,28.67,0,0,0,6.57,7.39Z"/><path class="cls-2" d="M266.72,291.48c.4-3,1.48-7.19,4.77-10.21,5.92-5.42,13-1.47,20-7.06,3.59-2.87,7.38-8.4,6.34-13.25-1-4.44-5.38-5.68-5-9.55.28-2.56,2.52-4.72,4.76-5.56,3.83-1.44,7.4,1,8.24,1.63,5.22,3.63,5.5,10.74,5.6,13.14a23.34,23.34,0,0,1-4.37,14.16,26.4,26.4,0,0,1-9.65,8.32,35.89,35.89,0,0,1-11.3,3.69c-5.79,1-7.35.1-10.57,1.53a16,16,0,0,0-7.33,7.39Z"/><path class="cls-1" d="M192.07,242.09a65.19,65.19,0,0,0-5.19,21.29c-.47,7.22.57,13.43,2.68,25.57,1.48,8.54,3,15.61,4.21,20.66a4.21,4.21,0,0,0-2.89,3.3,4,4,0,0,0,1.06,2.88c2.16,2.64,6.24,2.13,6.72,2.06l8.24-3.21a80.1,80.1,0,0,0,1.54-12.27c.65-14-2.6-24.66-5.8-34.81A155.55,155.55,0,0,0,192.07,242.09Z"/><path class="cls-2" d="M194.34,234.77a45.38,45.38,0,0,0-3.15,21.2,47.68,47.68,0,0,0,9.07,23.26c6.59,9,12.58,10.34,19.39,21.77a60.13,60.13,0,0,1,3.83,7.59l26.46,4.29c1.44.33,8.84,1.85,15.46-2.69,6.86-4.71,7.88-12.5,8.21-15.05.95-7.2-1.66-12.74-4.72-19-4.47-9.19-10.31-15.61-15.43-21.24-4.6-5.06-8.52-8.56-13.05-15.82a76,76,0,0,1-3.87-7Z"/><path class="cls-3" d="M224,308.24c-1.3-1.92-2.66-6.13-4.73-9.36-6.65-10.36-11-11.1-16.24-17.48S192.17,265.78,192,255.71c0-2.35,1-9.88,7.34-13.07a13.63,13.63,0,0,1,8-1.19c7.25,1,11.53,7.25,13.74,10.48a33.84,33.84,0,0,1,5.62,19.34l6.53,30.18C230.34,303.53,226.82,306.16,224,308.24Z"/><path class="cls-2" d="M222.26,174.63a30.76,30.76,0,0,0-12.6-1.35c-10.13,1.16-16.68,7.54-20.37,11.13-9.62,9.38-12.67,20.42-14.25,26.46a66.78,66.78,0,0,0-2.18,15.74,57.06,57.06,0,0,0,20.38,10.11c6.33,1.66,10.95,1.66,19.7,1.67,14.22,0,20.69-1,28.76-5.2,6.16-3.21,11.47-6.74,14.53-11a56.51,56.51,0,0,0-11.36-30.86C241.68,187.22,234.55,178.23,222.26,174.63Z"/><path class="cls-4" d="M214.07,238.09a62.74,62.74,0,0,0,33.24-16.16,56.27,56.27,0,0,0-.21-14,56.92,56.92,0,0,0-7.42-21.07,47.1,47.1,0,0,1,16.55,35.35A54.94,54.94,0,0,1,241,233,55.72,55.72,0,0,1,214.07,238.09Z"/><path class="cls-2" d="M224.81,177.39a41.73,41.73,0,0,1,8.11-11A51.15,51.15,0,0,1,251,155.34a58.39,58.39,0,0,1,3,22.2,53.58,53.58,0,0,1-6.77,22.9"/><path class="cls-5" d="M243.42,185.78a9.57,9.57,0,0,0,2.07-7.18c-.64-4-4-5.65-4.29-8.69-.23-2.23,1.17-5.26,8.32-8.8"/><ellipse class="cls-3" cx="213.47" cy="217.43" rx="8.75" ry="5.64" transform="translate(-24.24 26.8) rotate(-6.8)"/><path d="M213.11,213.4c-2.24-.26-3.74-1.07-3.83-2a1.56,1.56,0,0,1,.52-1.14c1.43-1.68,4.85-1.89,6.11-.39a1.7,1.7,0,0,1,.46,1.15C216.32,212,215,213,213.11,213.4Z"/><path class="cls-5" d="M206.5,217a3.7,3.7,0,0,0,2.1,2.42c1.61.51,3.79-.64,4.58-3a4,4,0,0,0,5.2,2.12,3.77,3.77,0,0,0,1.83-3.48"/><path class="cls-2" d="M255.81,274.44c-.48-.74-4.47-6.75-11-6.89-4.57-.09-7.74,2.77-10.3,5.09a27.24,27.24,0,0,0-8.21,15.51,30.28,30.28,0,0,0,1.3,15.39,6.19,6.19,0,0,0-3.92,2.28c-1.79,2.44-.74,5.47-.51,6.1,1.26,3.62,4.91,5.14,6.94,6a19.82,19.82,0,0,0,11.1.94c3.73-.53,7.11-1,9.45-3.85a10.51,10.51,0,0,0,2.23-6.52"/><path class="cls-2" d="M226.32,248.66a48.32,48.32,0,0,1-5.07,11.49c-5.47,9-10,9.57-14.63,18.69a37.46,37.46,0,0,0-3.55,14.23c-.23,4.95.74,6.64,1.7,7.6,2,2,5.14,2.12,7.27,1.55,5.41-1.45,7-8.16,7.17-9.27a13.65,13.65,0,0,0,.07-5.21c4.29-1.66,13.65-5.93,19.91-15.08,1.95-2.85,4.79-7.12,5-13.17a21.24,21.24,0,0,0-.9-7"/><ellipse cx="198.4" cy="208.11" rx="4.14" ry="3.33" transform="translate(-10.7 405.46) rotate(-89.71)"/><ellipse cx="225.36" cy="205.86" rx="4.14" ry="3.33" transform="translate(18.37 430.19) rotate(-89.71)"/><path class="cls-5" d="M183.53,189.8c-1.58-2.67-2.43-5.2-1.43-6.84.77-1.24,2-1.08,2.92-2.41,1.31-2,.13-4.9-.76-7.07a24.41,24.41,0,0,0-6.15-8.77"/><path class="cls-3" d="M294.67,255a7.61,7.61,0,0,0,8.75,1.83c.46-.21,3.9-1.78,4.27-4.95a3.71,3.71,0,0,0-2.07-3.74c-2.35-2-4.69-2.76-7.42-1.72-1.95.74-4.55,2.38-4.63,5.22A4.77,4.77,0,0,0,294.67,255Z"/><path class="cls-5" d="M232.29,213.65a14.21,14.21,0,0,1,5.2-1.37,13.34,13.34,0,0,1,4.9.58"/><path class="cls-5" d="M232.07,216.47a13.38,13.38,0,0,1,5.26.46,14.39,14.39,0,0,1,4.51,2.24"/><path class="cls-5" d="M195.72,214.87a14.39,14.39,0,0,0-5.2-1.38,13.43,13.43,0,0,0-4.9.57"/><path class="cls-5" d="M195.94,217.69a13.59,13.59,0,0,0-5.27.45,14.4,14.4,0,0,0-4.51,2.23"/><ellipse class="cls-6" cx="226.19" cy="196.28" rx="1.4" ry="3.52" transform="matrix(0.14, -0.99, 0.99, 0.14, 0.57, 393.22)"/><ellipse class="cls-6" cx="197.16" cy="197.88" rx="3.52" ry="1.4" transform="translate(-57.21 82.44) rotate(-20.7)"/><line class="cls-5" x1="223.2" y1="311.92" x2="226.8" y2="308.17"/><line class="cls-5" x1="225.78" y1="315.49" x2="229.07" y2="310.88"/><line class="cls-5" x1="230.63" y1="318.1" x2="232.25" y2="312.25"/><line class="cls-5" x1="184.7" y1="304.46" x2="187.86" y2="302.01"/><line class="cls-5" x1="187.58" y1="307.36" x2="190.29" y2="304.45"/><line class="cls-5" x1="191.69" y1="315.47" x2="193.71" y2="312.77"/><line class="cls-5" x1="193.91" y1="317.27" x2="196.02" y2="314.4"/><line class="cls-5" x1="206.65" y1="301.91" x2="205.76" y2="295.83"/><line class="cls-5" x1="210.47" y1="302.24" x2="209.02" y2="296.11"/><line class="cls-5" x1="215.03" y1="300.65" x2="212.48" y2="295.71"/><path class="cls-4" d="M232.86,236.68a87.23,87.23,0,0,1,19,76.55,19.29,19.29,0,0,0,10-1.16,21.27,21.27,0,0,0,9.14-7.84c6.7-11-1.64-29.42-9.4-39.64-4.17-5.49-6.45-6.35-13.93-16-4.33-5.58-7.55-10.42-9.62-13.69Z"/><path class="cls-4" d="M273.57,289l-.9-3.95a52.69,52.69,0,0,0,11.08-1.77c5.32-1.45,12.59-3.42,18.56-9.6a32.2,32.2,0,0,0,8.45-18.38,24.74,24.74,0,0,1-.32,13.13,25.42,25.42,0,0,1-10.73,13.69c-5.59,3.61-12.8,5.14-16.67,5a18.62,18.62,0,0,0-9.47,1.9Z"/></g></g></g></svg>