<?xml version="1.0" encoding="utf-8"?>
<!-- Generator: Adobe Illustrator 22.1.0, SVG Export Plug-In . SVG Version: 6.00 Build 0)  -->
<svg version="1.1" id="Слой_1" xmlns="http://www.w3.org/2000/svg" xmlns:xlink="http://www.w3.org/1999/xlink" x="0px" y="0px"
	 viewBox="0 0 480 480" style="enable-background:new 0 0 480 480;" xml:space="preserve">
<style type="text/css">
	.st0{fill:#FCD47C;stroke:#000000;stroke-miterlimit:10;}
	.st1{opacity:0.1;clip-path:url(#SVGID_2_);}
	.st2{fill:#FCD47C;stroke:#000000;stroke-width:0.75;stroke-miterlimit:10;}
	.st3{opacity:0.1;}
	.st4{stroke:#000000;stroke-width:0.5;stroke-miterlimit:10;}
	.st5{fill:none;stroke:#000000;stroke-width:0.5;stroke-linecap:round;stroke-miterlimit:10;}
	.st6{fill:#FCD47C;stroke:#000000;stroke-linecap:round;stroke-miterlimit:10;}
	.st7{fill:#FCD47C;}
	.st8{fill:none;stroke:#000000;stroke-miterlimit:10;}
	.st9{fill:#A95845;stroke:#000000;stroke-miterlimit:10;}
	.st10{fill:#FFFFFF;}
	.st11{opacity:0.5;fill:none;stroke:#82483C;stroke-width:5;stroke-linecap:round;stroke-miterlimit:10;}
	.st12{fill:none;stroke:#000000;stroke-linecap:round;stroke-miterlimit:10;}
	.st13{opacity:0.5;fill:none;stroke:#82483C;stroke-width:4;stroke-linecap:round;stroke-miterlimit:10;}
	.st14{opacity:0.1;clip-path:url(#SVGID_4_);}
</style>

<g>
	<g>
		<path class="st0" d="M253.4,311.3c-3.5,1.4-43.6,9.9-63.1,1.7c-34.2-14.4-12.5-94.7-8.9-106.6c2.6-8.5,11-22.2,21.9-22.1
			c8.8,0,23.3,3.7,19.2,28.4c-5.8,34.3-7.8,65.1,14.1,60.2C242.1,271.6,253.4,311.3,253.4,311.3z"/>
		<g>
			<defs>
				<path id="SVGID_1_" d="M253.4,311.3c-3.5,1.4-43.6,9.9-63.1,1.7c-34.2-14.4-12.5-94.7-8.9-106.6c2.6-8.5,11-22.2,21.9-22.1
					c8.8,0,23.3,3.7,19.2,28.4c-5.8,34.3-7.8,65.1,14.1,60.2C242.1,271.6,253.4,311.3,253.4,311.3z"/>
			</defs>
			<clipPath id="SVGID_2_">
				<use xlink:href="#SVGID_1_"  style="overflow:visible;"/>
			</clipPath>
			<g class="st1">
				<g>
					<path d="M263.4,315.9c-4.3-1-8.4-2.9-12.7-3.8c-4.2-0.9-8.5-0.9-12.8-0.7c-9.7,0.5-19.3,2.2-29,1.5c-9.4-0.7-17.8-2.3-24.9-9
						c-3.4-3.2-5.4-7.1-7.3-11.3c-2.4-5.3-2.4-10.3-2.6-16c-0.6-19.3,3.7-37.4,7.3-56.1c0.9-4.6,1.8-9.3,3.1-13.8
						c1.3-4.6,2.6-10.3,6-13.8c2.7-2.8,6.3-4.5,9.4-6.7c4.2-3,8.2-5,13.5-3.1c1.8,0.7,2.6-2.2,0.8-2.9c-6.2-2.2-11.2,0.2-16.3,3.8
						c-4.9,3.5-10,5.9-12.6,11.6c-3.4,7.7-5.2,16-6.8,24.2c-1.6,8.5-3.6,16.8-5.1,25.3c-1.5,8.1-2.2,16.3-2.3,24.5
						c-0.1,7.2-0.9,15.9,2.1,22.6c2.8,6.3,5.8,12,11.4,16.2c5.9,4.5,12.2,6.7,19.5,7.3c9.7,0.8,18.9-0.1,28.5-0.8
						c5.3-0.4,10.6-0.9,15.8-0.1c4.9,0.8,9.5,2.9,14.3,4C264.5,319.2,265.3,316.3,263.4,315.9L263.4,315.9z"/>
				</g>
			</g>
		</g>
		<path class="st2" d="M199.2,185.9c-0.2-0.3-0.7-0.8-1.2-1.8c-1.5-3.2-3.6-12.6-2.9-14.6c0,0,1.5,0,2.3-0.8c1-1,0.8-2.2,0.7-3
			c-0.6-1.4-2.2-2-5.1-1.6c-2.4,0.3-4.4,1.9-4,3.4c0.3,1,1.5,1,2.3,1.3c0.2,0.1,0.5,0.2,0.5,0.4c0.2,1.7-1.3,15.2,1.6,18.8
			c0,0,0.1,0.2,0.2,0.5c0.1,0.2,0.2,0.3,0.2,0.4"/>
		<path class="st3" d="M199.2,185.9c-0.2-0.3-0.7-0.8-1.2-1.8c-1.5-3.2-3.6-12.6-2.9-14.6c0,0,1.5,0,2.3-0.8c1-1,0.8-2.2,0.7-3
			c-0.6-1.4-2.2-2-5.1-1.6c-2.4,0.3-4.4,1.9-4,3.4c0.3,1,1.5,1,2.3,1.3c0.2,0.1,0.5,0.2,0.5,0.4c0.2,1.7-1.3,15.2,1.6,18.8
			c0,0,0.1,0.2,0.2,0.5c0.1,0.2,0.2,0.3,0.2,0.4"/>
		<path class="st2" d="M211.3,186.5c0.1-0.3,0.5-0.5,0.9-1.5c1.4-2.9,3.3-12.7,2.5-13.1c-0.4-0.2-1.2-0.2-2-1
			c-0.6-0.6-0.7-1.3-0.7-2c0-0.5,0.2-1.1,0.5-1.4c0.7-0.8,2-1.1,4.1-0.8c2.1,0.3,3.2,0.9,3.2,2.4c0,0.7-0.4,1.5-1,2
			c-0.5,0.4-1.2,0.5-1.2,1.1c-0.1,2.9,1,10.3-0.8,14.4c-0.3,0.7-0.7,1.6-1.2,2.2"/>
		<path class="st4" d="M212.4,206.4c0.3-0.8,3-0.9,3.4-0.1c0.2,0.5-0.4,1.7-1.5,1.8C213,208.3,212.2,206.9,212.4,206.4z"/>
		<path class="st5" d="M197.5,208.1c0.2,0.4,1.2,2.2,3.3,2.8c2,0.6,4.2,0,5.7-1.5"/>
		<path class="st4" d="M193.8,203.2c-0.1-0.8-2.7-1.6-3.2-0.9c-0.4,0.4,0,1.7,1,2.1C192.7,204.9,193.9,203.8,193.8,203.2z"/>
		<path class="st6" d="M192.4,164.5"/>
		<path class="st6" d="M198.9,162.5"/>
		<path class="st6" d="M197.6,163.9"/>
		<path class="st6" d="M193.1,165.4"/>
		<g>
			<path class="st7" d="M174.4,247.9c-0.5-0.1-1.9-0.4-2.6-0.5c-0.9,0-6-0.4-10.3-3.9c-2.9-2.4-4.3-4.9-5.4-8.8
				c-4.7-16.1-1.5-16.7,0.1-17c2-0.3,3.8,2.8,7.3,13.6c0.4,1.2,3.6,6.7,9.8,6.5c1.1,0,2,0.3,2.6,0.3"/>
			<path class="st3" d="M174.4,247.9c-0.5-0.1-1.9-0.4-2.6-0.5c-0.9,0-6-0.4-10.3-3.9c-2.9-2.4-4.3-4.9-5.4-8.8
				c-4.7-16.1-1.5-16.7,0.1-17c2-0.3,3.8,2.8,7.3,13.6c0.4,1.2,3.6,6.7,9.8,6.5c1.1,0,2,0.3,2.6,0.3"/>
			<path class="st8" d="M173.7,247.7c-0.5-0.1-1.9-0.4-2.6-0.5c-0.9,0-6-0.4-10.3-3.9c-2.9-2.4-4.3-4.9-5.4-8.8
				c-4.7-16.1-1.5-16.7,0.1-17c2-0.3,3.8,2.8,7.3,13.6c0.4,1.2,3.6,6.7,9.8,6.5c1.1,0,2,0.3,2.6,0.3"/>
		</g>
	</g>
	<path class="st9" d="M227.1,255.5c2.7-2.8,1.2-4.2,1.1-11.9c-0.2-15.6,15.3-27.9,32.3-32.4c18.5-4.9,38.7,2.9,50.9,13.9
		c3.1,2.8,9.9,9.1,12.9,19.4c2,6.8,3.1,14.2,2.7,20.8c-0.4,6.7-2.2,10.5-4.9,16.5c-4.1,9.1-12.5,14.6-12.2,14.9
		c0.1,0.2,1.4-1.4,3.7-1.9c3.2-0.6,5.9,1.3,6.2,1.6c0.5,0.4,2.6,1.9,3,4.4c0.6,3.5-2.4,6.5-3.6,7.7c-7.6,7.8-27.2,8.7-49,8.7
		c-4.9,0-14.9,0.9-22.7-0.6c-6.3-1.2-12.1-12-13.4-20.4c-0.5-3.4-0.5-4.5-2.3-14.6c-0.5-3-1.1-5.8-3.3-7.3c-2.1-1.4-5.3-0.6-7.5-1.7
		c-4.5-2.3-2.9-11.4,0.5-14.8C223.8,255.8,225.1,257.6,227.1,255.5z"/>
	<g class="st3">
		<g>
			<path class="st10" d="M231.2,246.4c1.8-10.7,13-19.1,22-24c11.8-6.4,26.9-6.4,39.4-2.1c11.6,4.1,24.6,13.3,27.8,25.7
				c1.7,6.6,2.8,13.4,3.8,20.1c0.6,3.8,6.3,2.2,5.8-1.6c-1.1-7.9-2-16.4-4.9-23.9c-5.2-13.5-20.7-23.4-34.1-27.1
				c-13.8-3.8-29.3-2.9-41.9,4.3c-9.8,5.6-21.6,15.1-23.6,26.9C224.8,248.6,230.6,250.2,231.2,246.4L231.2,246.4z"/>
		</g>
	</g>
	<path class="st11" d="M292.4,262.8c-0.7,0.4-2.1,1.3-2.8,3c-1.3,2.9,0.3,5.8,0.8,6.6c1.5,2.6,4.3,4.6,7.5,4.8
		c4.9,0.4,8.3-3.8,9.5-5.1c4.1-5,4.7-12.2,2.5-18.1c-3.5-9.3-12.8-11.8-13.4-11.9c-7.3-1.8-13.2,1.3-14.9,2.3
		c-4.7,2.8-6.9,6.8-8.3,9.3c-2.6,4.8-3.2,9.1-3.6,12.6c-0.4,3.2-1,7.9,0.3,13.8c0.5,2.2,2.3,10.1,8.1,15.3
		c7.3,6.5,13.9,6.9,26.6,3.4"/>
	<path class="st12" d="M292.4,262.8c-0.7,0.4-2.1,1.3-2.8,3c-1.3,2.9,0.3,5.8,0.8,6.6c1.5,2.6,4.3,4.6,7.5,4.8
		c4.9,0.4,8.3-3.8,9.5-5.1c4.1-5,4.7-12.2,2.5-18.1c-3.5-9.3-12.8-11.8-13.4-11.9c-7.3-1.8-13.2,1.3-14.9,2.3
		c-4.7,2.8-6.9,6.8-8.3,9.3c-2.6,4.8-3.2,9.1-3.6,12.6c-0.4,3.2-1,7.9,0.3,13.8c0.5,2.2,2.3,10.1,8.1,15.3c7.3,6.5,20.8,6.3,32,1.5"
		/>
	<path class="st13" d="M251.1,283.7c-0.3-2.5-1-6.5-3.3-10.8c-3.1-5.7-7.4-8.8-10.3-10.8c-2.3-1.6-3-2.2-7.7-4.1"/>
	<path class="st12" d="M251.1,283.7c-0.3-2.5-1-6.5-3.3-10.8c-3.1-5.7-7.4-8.8-10.3-10.8c-2.3-1.6-7.1-4-12-5.6"/>
	<g>
		<defs>
			<path id="SVGID_3_" d="M227.1,255.5c2.7-2.8,1.2-4.2,1.1-11.9c-0.2-15.6,16.2-25.9,33.2-30.4c18.5-4.9,37.8,0.9,50,11.9
				c3.1,2.8,9.9,9.1,12.9,19.4c2,6.8,1.7,12.8,1.2,19.4c-0.4,6.7-0.8,11.9-3.5,17.9c-4.1,9.1-12.8,14.7-12.5,15c0.1,0.2,1.7-1.5,4-2
				c3.2-0.6,5.9,1.3,6.2,1.6c0.5,0.4,2.6,1.9,3,4.4c0.6,3.5-2.4,6.5-3.6,7.7c-7.6,7.8-27.2,8.7-49,8.7c-4.9,0-14.2,0.6-22.7-0.6
				c-2.3-0.3-6.8-5.3-7.3-5.8c-3.8-3.9-5.2-9.9-6.1-14.6c-0.7-3.4-0.5-4.5-2.3-14.6c-0.5-3-1.1-5.8-3.3-7.3
				c-2.1-1.4-5.3-0.6-7.5-1.7c-4.5-2.3-2.9-11.4,0.5-14.8C223.8,255.8,225.1,257.6,227.1,255.5z"/>
		</defs>
		<clipPath id="SVGID_4_">
			<use xlink:href="#SVGID_3_"  style="overflow:visible;"/>
		</clipPath>
		<g class="st14">
			<g>
				<path d="M241.2,318c31.8,3.8,75.1,8.3,93.8-24.6c1.9-3.4-3.3-6.4-5.2-3c-17.4,30.6-59.3,25.1-88.6,21.6
					C237.4,311.5,237.4,317.5,241.2,318L241.2,318z"/>
			</g>
		</g>
	</g>
	<path class="st8" d="M227.1,255.5c2.7-2.8,1.2-4.2,1.1-11.9c-0.2-15.6,15.3-27.9,32.3-32.4c18.5-4.9,38.7,2.9,50.9,13.9
		c3.1,2.8,9.9,9.1,12.9,19.4c2,6.8,3.1,14.2,2.7,20.8c-0.4,6.7-2.2,10.5-4.9,16.5c-4.1,9.1-12.5,14.6-12.2,14.9
		c0.1,0.2,1.4-1.4,3.7-1.9c3.2-0.6,5.9,1.3,6.2,1.6c0.5,0.4,2.6,1.9,3,4.4c0.6,3.5-2.4,6.5-3.6,7.7c-7.6,7.8-27.2,8.7-49,8.7
		c-4.9,0-14.2,0.6-22.7-0.6c-2.3-0.3-6.8-5.3-7.3-5.8c-3.8-3.9-5.2-9.9-6.1-14.6c-0.7-3.4-0.5-4.5-2.3-14.6c-0.5-3-1.1-5.8-3.3-7.3
		c-2.1-1.4-5.3-0.6-7.5-1.7c-4.5-2.3-2.9-11.4,0.5-14.8C223.8,255.8,225.1,257.6,227.1,255.5z"/>
</g>
</svg>
