<?xml version="1.0" encoding="utf-8"?>
<!-- Generator: Adobe Illustrator 22.1.0, SVG Export Plug-In . SVG Version: 6.00 Build 0)  -->
<svg version="1.1" id="Слой_1" xmlns="http://www.w3.org/2000/svg" xmlns:xlink="http://www.w3.org/1999/xlink" x="0px" y="0px"
	 viewBox="0 0 480 480" style="enable-background:new 0 0 480 480;" xml:space="preserve">
<style type="text/css">
	.st0{fill:#0E6801;stroke:#000000;stroke-width:0.9921;stroke-linecap:round;stroke-linejoin:round;stroke-miterlimit:10;}
	.st1{fill:#0E8E00;stroke:#000000;stroke-width:0.9921;stroke-linecap:round;stroke-linejoin:round;stroke-miterlimit:10;}
	.st2{fill:#FFE97D;}
	.st3{opacity:0.2;fill:#1F1E1F;enable-background:new    ;}
	.st4{fill:#E2CD71;stroke:#000000;stroke-miterlimit:10;}
	.st5{fill:#FFE97D;stroke:#000000;stroke-width:0.9921;stroke-linecap:round;stroke-linejoin:round;stroke-miterlimit:10;}
</style>
<title>Body_4_(Shekhtman) 7</title>
<g id="_x39__x5F_809">
	<path class="st0" d="M217.5,237.8c-5.1,3.1-10.7,3.4-14.1,0.8c-0.7-0.5-3.1-2.3-3.4-5.5c-0.2-2,0.5-3.6,0.9-4.3
		c-2.5-1.1-6.1-2.2-10.5-2.7c-3.3-0.4-6.2-0.3-8.6,0c0.4,0.2,4,2,6.6,3.3c1.7,0.8,4,2,5.3,3.3c-1.2,0.3-3.4,1.8-5.2,3.2
		c-1.7,1.3-2.8,2.7-3.4,3.7c1.6-0.7,4.5-1.8,8.1-1.5c1.7,0.1,3.1,0.5,4.2,0.8c-1,0.7-2.3,1.9-3.6,3.5c-1.5,2-2.2,4-2.5,5.3
		c1.4-1,3.5-2.2,6.3-3c2.2-0.6,4.1-0.7,5.5-0.7c1.1,1.7,2.3,3.5,3.4,5.2L217.5,237.8z"/>
	<path class="st1" d="M233.2,237.6c6.3,5.9,14.1,8.2,19.8,5.6c1.1-0.5,5.1-2.3,6.5-6.7c0.9-2.8,0.4-5.2,0-6.4
		c3.7-0.5,8.3-0.9,13.6-0.5c6.3,0.5,11.5,1.8,15.4,3.1c-3,0.3-6.4,0.6-11,2.1c-3,1-6.7,2.6-8.8,4.3c1.5,0.9,3.9,2.4,6,5
		c2,2.4,3.1,4.7,3.7,6.3c-2-1.5-5.8-3.9-11.1-4.7c-2.4-0.4-4.5-0.3-6.2-0.1c1.2,1.3,2.7,3.4,3.9,6.2c1.5,3.4,1.8,6.4,1.9,8.3
		c-1.6-1.8-4.2-4.2-8-6.3c-2.9-1.5-5.5-2.3-7.6-2.8c-0.2,3.5-0.6,6.9-2.7,9.1L233.2,237.6z"/>
	<path class="st0" d="M196.7,293.6c-3.5-2.6-6.5-3-9.9-0.4c-3.7,2.7-3.3,8.6-2.9,10.6c1.5,6.9,6.4,9.9,8,11.1
		c-1.6,0.1-3.6,0.3-5.9,0.9c-2.8,0.8-5.1,1.8-6.7,2.8c3-0.2,6.1-0.3,9.4-0.3c5,0,9.7,0.3,13.9,0.8c0.7-5.5,1.4-11.1,2.1-16.6
		L196.7,293.6z"/>
	<path class="st1" d="M222,207.8c1,5.2,1.7,12.8-1.3,20.7c-4.2,10.9-11.6,11.5-19.9,23.5c-1.6,2.3-10.3,15.2-10.5,32.8
		c-0.1,7.7-0.2,19.6,8,28c8.4,8.6,21.1,9.2,30.4,9.6c5.9,0.3,10.9-0.3,14.5-0.8c3.3,0.8,8.1,1.7,13.9,1.7c6,0,12.8,0,19.7-3.6
		c11.2-5.9,15.2-17.6,15.9-19.7c2.1-6.3,2.2-12.6,2.3-21.2c0.1-9.6,0.1-12.6,1.9-16.4c2.7-5.7,7.5-7.9,14.2-6.6
		c3.8,0.8,5.8,3.9,6.7,5.2c-0.1-0.7-1.8-7.1-7.6-10c-6-3-12.2-0.5-14.5,1c-6.3,4-8.5,10.8-9.5,14.6c-2.1,7.9-1.5,9.6-3.6,17.8
		c-1,3.8-4.3,10.6-11.3,13.8c-5.9,2.6-11.5,1.2-13.1,0.8c-8.4-2.3-12.5-9.4-14.2-12.3c-0.8-1.4-3.5-6.3-4-13.4
		c-0.4-6.1,1.1-9.7,5.1-21.8c3.2-9.6,4.8-14.4,6.5-20.2c3.3-11.4,2.9-18,2.4-26.1c-0.2-3.7-1.5-9.3-4-16.1c-3.3-9-6.4-14.2-9.7-17.2
		l-13.2-5.2l-10,4.8L222,207.8z"/>
	<path class="st2" d="M226.4,214.9c-0.3,4.4-1.3,11.1-4.9,18.1c-5.7,11.3-11.6,11.8-19.2,23c-8.7,12.9-12,39-3.1,51.7
		c11.7,16.6,37.1,14.4,43.9,13.3c3.9,1.2,12.3,2.1,19.4,1.6c6.7-0.4,12.6-1.2,19.5-7.1c6.6-5.8,9.5-12.9,10.3-15.7
		c3-10.1,2.1-17.2,2.4-27.3c0.2-5.3,0.5-7.9,2.7-12.2c-2.4,2.6-4.9,7.3-6.2,13.4c-1.9,9.9-0.9,14.1-5,23.4
		c-1.4,3.2-4.7,9.2-10.2,13.3c-8.2,6.2-18.5,5.2-22.3,4.9c-3-0.3-13.3-0.3-22.1-8.9c-1.8-1.7-8.6-12-9.2-23.3
		c-0.6-11.7,5.2-18.7,13.7-38.5c3.7-8.6,5.4-15.5,5.3-22.1c-0.1-6.6-1.8-13.8-3.5-17.2L226.4,214.9z"/>
	<path class="st3" d="M257.2,323.2c6,0,12.7,0,19.5-3.6c4.7-2.5,8.1-5.9,10.5-9.3c0.3-0.5,0.7-0.9,1-1.4c0-0.1,0.1-0.1,0.1-0.2
		c0.1-0.3,0.4-0.8,0.8-1.4c2.1-3.5,3.1-6.5,3.4-7.4c2.1-6.3,2.2-12.6,2.3-21.2c0.1-9.6,0.1-12.6,1.9-16.4c2.7-5.7,7.5-7.9,14.2-6.6
		c3.8,0.8,5.8,3.9,6.7,5.2c-0.1-0.7-1.8-7.1-7.6-10c-6-3-12.2-0.5-14.5,1c-4.1,2.6-6.5,6.4-7.9,9.8c-1.3,5.3-2.3,9.2-2.5,8.6l0,0
		c-0.2,4.5-1.1,8.6-2.2,12.2c-0.1,0.6-0.3,1.1-0.4,1.8c-0.8,3.1-3.1,8.2-7.8,11.7c-1.1,1-2.2,1.7-3.3,2c-0.3,0.1-0.6,0.2-1,0.3
		c-5.6,2.2-10.8,0.8-12.3,0.4c-8.4-2.3-12.5-9.4-14.2-12.3c-0.8-1.4-3.5-6.3-4-13.4c-0.4-6.1,1.1-9.7,5.1-21.8
		c3.2-9.6,4.8-14.4,6.5-20.2c3.3-11.4,2.9-18,2.4-26.1c-0.2-3.7-1.5-9.3-4-16.1c-0.7-1.8-1.3-3.4-2-5l-1.5-2.4l-13.2,25
		c1.6,5.7,3.6,15.2,2,26.5c-2.4,17.2-14.8,30.8-19,45.9c-2.1,7.5-2.1,22.9,0.5,30c2.1,6,5.4,10.3,7.9,13c6.1-0.2,12.3-0.4,18.4-0.6
		c0.1,0,0.3,0,0.4,0.1C246.8,322.3,251.5,323.2,257.2,323.2z"/>
	<path class="st4" d="M219.5,170.2c-1.7-1.5-4.6-4.5-6.3-9.2c-3.3-8.9,0.5-16.9,1.3-18.5c-6.5,4.1-10.3,11.1-9.9,18.4
		c0.4,7.6,5.4,12.4,6.6,13.5L219.5,170.2z"/>
	<path class="st1" d="M217.1,168.4c-6.6,3-10.4,7.9-12.1,10.3c-1.8,2.4-6.2,8.3-7.2,17.3c-0.5,4.5-1.4,12.7,3.9,18.5
		c3.8,4.1,8.8,4.8,10.2,5c6.2,0.8,10.9-1.9,14-3.7c6.1-3.5,10.2-7.4,13.4-11.8c2.8-3.9,3.8-7,5-10.4c2-5.6,4.2-17.9-2.7-24.6
		C233.3,160.9,218.9,167.6,217.1,168.4z"/>
	<path class="st3" d="M239.3,204c2.8-3.9,3.8-7,5-10.4c1.5-4.2,3.1-12.1,0.9-18.6c-1.5-4.1-4.4-7.5-9.1-9.2c0,0,0,0-0.1,0
		c0.8,2.7,5.1,18.7-4.3,34.5c-7.7,12.8-19.6,17.4-23,18.6l0,0c3.2,0.8,6.2,0.9,9.2,0.4c3.3-0.7,6-2.3,8-3.4c3-1.7,5.5-3.5,7.7-5.4
		c1.7-1.6,3.4-3.4,5.1-5.5C238.8,204.6,239,204.3,239.3,204z"/>
	<path class="st5" d="M238.8,171.9c7.1-3.6,9.9-6.8,11.4-10.2c2.3-5.1,1.7-18,1.6-19.5c1.9,2.4,10.1,12.7,5.4,26.9
		c-2.4,7.3-12.4,13.9-14.4,14.5c-0.4-1.8-0.9-3.8-1.6-5.9C240.4,175.6,239.6,173.6,238.8,171.9z"/>
	<path class="st1" d="M228.7,294c-4.3,0.8-8.3,4-9.9,8.5c-1.7,4.8-0.3,10.3,3.4,13.9c-1.7,0.4-3.7,1.1-5.9,2
		c-2.8,1.2-5.1,2.5-6.9,3.7c3.5-0.1,7.1-0.1,10.9,0c7.1,0.2,13.8,0.7,20.1,1.4c0.5-3.5,1-7.1,1.6-10.6"/>
	<path class="st1" d="M236.1,254.9c-1-1.3-6.2-8.1-14.5-8.6c-2-0.1-6.3-0.4-9.9,2.7c-4.1,3.6-4.2,8.9-4.2,9.7
		c0.3-0.5,0.7-1.2,1.4-1.9c0.7-0.8,1.5-1.3,2-1.7c-0.3,0.4-0.9,1.2-1,2.3c-0.1,0.8,0,1.5,0.1,1.9c0.4-0.9,1.2-2.4,2.7-3.6
		c3.2-2.5,8.4-2.7,11.2-0.5c3.7,3,1.6,8.6,5.1,10.6c2,1.2,4.6,0.4,6.4-0.4"/>
	<path class="st1" d="M197.7,255.1c-1.2-2.5-1.1-5.1,0.3-6.8c0.2-0.3,1.4-1.7,2.8-1.6c2.7,0.3,3.7,6.1,3.8,6.6
		c0.3,1.8,0.2,3.4,0,4.5c-0.5-0.5-1.4-1.3-2.6-1.9C200.2,255,198.5,255,197.7,255.1z"/>
	<ellipse transform="matrix(0.9999 -1.113532e-02 1.113532e-02 0.9999 -2.1475 2.2891)" cx="204.5" cy="194" rx="1.8" ry="3.6"/>
	<ellipse transform="matrix(0.5 -0.866 0.866 0.5 -56.7715 295.445)" cx="227.5" cy="196.9" rx="3.9" ry="1.8"/>
	<circle cx="211.7" cy="212.3" r="0.9"/>
	<circle cx="206.7" cy="211.4" r="0.9"/>
	<path class="st3" d="M240.6,177.3c0.7,2.1,1.5,4.3,2.2,6.4c2-0.8,10.2-4.5,14.1-13.7c3.7-9,1.7-19.7-5.1-27.7
		c4.6,9,4.5,19.2-0.6,26.7C247.8,173.9,243.2,176.2,240.6,177.3z"/>
	<path class="st3" d="M228.7,294c-2.9,7.2-3.7,9.1-4.2,15c-0.5,5.6,3,9,3.6,10.1c-1,0.2-3.4,0.4-4.7,0.9c-1.8,0.6-3.3,1.5-4.4,2.2
		c7.2,0.5,14.4,1,21.6,1.5l1.5-10.8L228.7,294z"/>
	<path class="st3" d="M212.6,255.8c3.2-2.5,8.4-2.7,11.2-0.5c3.7,3,1.6,8.6,5.1,10.6c2,1.2,4.6,0.4,6.4-0.4l0.4-5.3
		c-0.5-0.9-3.7-7.4-10.8-8.9c-1.1-0.2-7.1-1.5-11.6,2.4c-2.2,1.9-3,4.3-3.4,5.5C210.3,258.5,211.1,257,212.6,255.8z"/>
</g>
</svg>
