<?xml version="1.0" encoding="utf-8"?>
<!-- Generator: Adobe Illustrator 22.1.0, SVG Export Plug-In . SVG Version: 6.00 Build 0)  -->
<svg version="1.1" id="Слой_1" xmlns="http://www.w3.org/2000/svg" xmlns:xlink="http://www.w3.org/1999/xlink" x="0px" y="0px"
	 viewBox="0 0 480 480" style="enable-background:new 0 0 480 480;" xml:space="preserve">
<style type="text/css">
	.st0{fill:#731ACB;stroke:#000000;stroke-linecap:round;stroke-linejoin:round;stroke-miterlimit:10;}
	.st1{fill:#4B1887;}
	.st2{fill:#A26EF4;}
	.st3{fill:#6D6F6B;stroke:#000000;stroke-linecap:round;stroke-linejoin:round;stroke-miterlimit:10;}
	.st4{fill:#A4916D;stroke:#000000;stroke-linecap:round;stroke-linejoin:round;stroke-miterlimit:10;}
	.st5{opacity:0.2;}
	.st6{display:none;}
	.st7{display:inline;}
	.st8{fill:#97D2D0;}
	.st9{fill:#B9E7AB;}
	.st10{fill:#D6E6BD;}
</style>
<title>Body_4_(Shekhtman) 12</title>
<g id="_x30_11">
	<g>
		<circle class="st0" cx="184" cy="127.6" r="18.2"/>
		<circle class="st1" cx="194.2" cy="128.4" r="5.7"/>
		<circle class="st1" cx="191.5" cy="135.3" r="3.3"/>
		<circle class="st2" cx="175" cy="124.5" r="5.3"/>
	</g>
	<polygon class="st3" points="213.4,171.9 217.7,174.5 312.8,356.1 307.6,356 204.6,182.5 204.7,177 	"/>
	<polygon class="st3" points="210.6,136.4 177.5,155.6 179.1,158.2 202.8,166.7 206.1,164.8 212,138.7 	"/>
	<circle class="st3" cx="206.1" cy="169.3" r="7.5"/>
	
		<rect x="175.7" y="145.8" transform="matrix(-0.865 0.5019 -0.5019 -0.865 437.2817 176.8678)" class="st4" width="38.3" height="3"/>
	<polygon class="st4" points="280,293.5 275.9,302.7 271.2,294.4 276.4,287.2 	"/>
	<polygon class="st4" points="263.6,282 268.2,289.8 276.4,287.2 272.6,279.3 	"/>
	<polygon class="st4" points="264.7,264.3 257.9,271.6 263.6,282 272.6,279.3 	"/>
	<polygon class="st4" points="240.5,218.4 227.8,222.4 233.6,232.1 246,228.9 	"/>
	<polygon class="st4" points="246.6,229.8 237.9,238.4 243.2,247.6 250.4,236.8 	"/>
	<polygon class="st4" points="257.7,250.8 246.6,253.3 242.2,245.9 254,243.7 	"/>
	<polygon class="st4" points="259.9,255 252,262.4 255.4,267.8 264.7,264.3 	"/>
	<path class="st5" d="M202.3,141.2l1.7,2.5l-0.1,18.3c1.3,0.9,3.4,2.8,5.1,6c1.7,3.2,2,6.1,2.1,7.6l99.8,180.4l2.1,0
		c-31.7-60.5-63.4-121-95.1-181.6c-1.5-0.9-3-1.8-4.5-2.7c-0.1-1.2-0.5-3.3-2-5.6c-1.8-2.8-4.2-4.1-5.3-4.6
		c0.6-6.4,1.1-12.7,1.7-19.1c-0.5-1.2-1-2.4-1.5-3.6C204.8,139.7,203.5,140.5,202.3,141.2z"/>
	<g id="_x38_59_1_" class="st6">
		<g class="st7">
			<path class="st8" d="M181.7,144.3c-6.3-0.1-6.7-0.6-10.5-0.5c-4.8,0.1-5.1,1-7.3,0.2c-0.2-0.1-4.2-1.5-5.7-5.2
				c-1.5-3.5,0.6-5.4-1.2-8.2c-1.2-2-2.4-1.3-4.2-3.7c-0.4-0.6-2.7-3.6-2.4-7.3c0.3-2.8,1.7-3.3,1.4-5.7c-0.3-1.9-1.3-2.4-1.4-4
				c-0.1-1.9,1.3-3.5,2.4-4.5c0,1.3,0.6,2.4,1.6,2.9c0.9,0.4,2.1,0.4,2.8-0.3c1.3-1.4-1.5-4.4-1-8.2c0.3-2.5,1.9-4.4,3.4-5.8
				c1,3.3,1.5,3.8,1.8,3.8c0.8-0.1,2-5.3-0.4-8.1c-1.3-1.6-3.1-1.6-3.6-3c-0.4-1.4,0.7-2.9,1.7-4c-0.1,0.3-0.5,1.9,0.4,3.3
				c0.9,1.3,2.6,2,4,1.7c2.1-0.5,1.8-3,5.2-6.4c1.9-2,2.8-2,3.5-3.6c0.6-1.4,0.9-4-0.7-5.3c-1.3-1.1-3.2-0.6-3.5-0.5
				c4-1.9,6.2-1.6,7.4-0.8c1.4,0.8,1.2,1.9,3.1,4.6c2.5,3.5,3.9,3,4.8,5.2c1.4,3.6-2,6.2-0.4,8.4c1.5,2.1,5.1,0.6,7.1,3.4
				c1,1.3,0.8,2.5,1.8,2.8c1.1,0.3,2.9-1.1,3.5-2.7c0.8-2.2-0.8-3.5-1-6.6c-0.1-1.6,0.1-3.6,1.4-6c0.3,1.4,0.9,3.4,2,5.7
				c1.6,3.3,2.7,4,2.9,6.1c0.2,3-2,3.8-1.4,5.7c0.8,2.7,5.2,1.9,7,5.1c1.2,2.1-0.4,3.1,0.5,7.2c0.9,4.1,2.7,4.5,2.3,6.7
				c-0.6,3.1-4.4,3.2-4.9,6.4c-0.4,2.3,1.6,3.3,1.7,5.8c0.1,1.9-0.9,4.6-5.8,8.1l-4.5,3.4c-1.9,1.6-5,3.7-9.2,4.3
				C185.1,144.4,184,144.3,181.7,144.3z"/>
		</g>
		<g class="st7">
			<path class="st9" d="M164.8,124.9c-0.5,0-0.9-0.3-1.1-0.5c-0.8-0.6-1.2-1.2-1.5-1.6c-1.8-3.3,0.9-7.4,1.1-7.7
				c-0.7,0.3-5.7,2.7-6.1,7.2c-0.1,0.8-0.3,2.8,1.1,4.1c1.5,1.5,3.8,0.9,4.1,0.9c0.6,3.7,1.4,5.3,2,6c0.1,0.1,1.9,2.7,2.3,3
				c0,0,0.7,0.5,4.2-0.2c0.4,1,1.4,3.4,3.8,4.9c2.9,1.8,5.9,1.4,8.2,1c1.7-0.3,4.5-0.7,7.1-2.9c0.9-0.7,3.6-3,4.2-6.9
				c0.2-1.4,0.1-2.6,0-3.3c1.2,0.1,3.1,0,4.4-1.2c1.1-1,1.3-2.4,1.7-6.9c0.2-2.1,0.3-4.5,0.5-7.2c-0.3,0.1-6,2.8-11-0.4
				c-3.5-2.3-4.4-5.9-4.5-6.6c-0.8-3.4,0.4-6.2,0.8-7c-0.5,0.4-3.9,3.4-8.2,2.5c-0.8-0.2-3.2-0.7-4.5-3c-1.6-2.8,0-5.9,0.1-6.2
				c-3.8,1.5-5.1,3.3-5.7,4.8c-0.9,2.5,0.7,3.8-0.2,7.9c-0.5,2.6-1.3,2.8-1.4,5c-0.1,2.5,0.9,2.5,0.9,5.4c0,2.6-0.8,2.8-0.5,5.2
				c0.1,0.7,0.3,1.6-0.1,2.5C166.4,123.6,165.8,124.9,164.8,124.9z"/>
		</g>
		<g class="st7">
			<path class="st10" d="M187.9,136.7c-1.3,2.1-3.6,2.7-4.7,3c-1,0.3-4.3,1.2-7-0.5c-2-1.3-1.4-2.6-3.7-4c-2-1.3-3.2-0.6-4.7-2.1
				c-0.1-0.1-1.6-1.6-1.8-3.7c-0.2-2.5,8.3-6.7,3.8-15.2c-0.8-1.7-1.1-1.8-1.1-2.4c-0.2-1.1,0.3-2.7,3.4-5c-0.4,0.7-1.5,2.5-1.1,4.8
				c0.1,0.7,0.3,1.9,1.2,2.9c1.5,1.6,3.8,1.4,4.4,1.3c2.7-0.3,4.4-2.2,4.8-2.7c-0.1,1.1-0.3,3.2,0.7,5.5c0.5,1.2,1,2.4,2.2,3.2
				c2.3,1.5,4.4-0.2,7.9,0.7c2,0.5,3.4,1.7,4.2,2.5c-5.6,0.5-7.3,1.8-7.7,3c-0.4,1.3,0.5,2.3,0.2,5.3
				C188.7,134.4,188.6,135.5,187.9,136.7z"/>
		</g>
	</g>
</g>
</svg>
