<?xml version="1.0" encoding="utf-8"?>
<!-- Generator: Adobe Illustrator 22.1.0, SVG Export Plug-In . SVG Version: 6.00 Build 0)  -->
<svg version="1.1" id="Слой_1" xmlns="http://www.w3.org/2000/svg" xmlns:xlink="http://www.w3.org/1999/xlink" x="0px" y="0px"
	 viewBox="0 0 480 480" style="enable-background:new 0 0 480 480;" xml:space="preserve">
<style type="text/css">
	.st0{fill:#AB802C;stroke:#090909;stroke-linecap:round;stroke-linejoin:round;stroke-miterlimit:10;}
	.st1{opacity:0.2;}
	.st2{fill:none;stroke:#000000;stroke-linecap:round;stroke-linejoin:round;stroke-miterlimit:10;}
	.st3{fill:#830D20;stroke:#000000;stroke-linecap:round;stroke-linejoin:round;stroke-miterlimit:10;}
	.st4{fill:#C30B1E;stroke:#000000;stroke-linecap:round;stroke-linejoin:round;stroke-miterlimit:10;}
</style>
<title>Body_4_(Shekhtman) 12</title>
<g id="_x30_13">
	<path class="st0" d="M162.4,149.1c0.2-2.8,0.5-5.5,0.7-8.3c-2.7-2.5-7.3-7.4-8.8-13.8c-1.1-4.6,0.1-6.5,0.4-6.9
		c0.9-1.3,2.2-1.8,3.2-2.1c8.6-3,17.8-0.8,17.8-0.8c3,0.7,7.2,1.8,11.8,5c2.2,1.6,7.9,5.6,9.8,12.6c0.3,1.1,0.9,3.3,0.7,6.3
		c-0.2,2.7-0.9,3.9-1.5,7.2c-0.3,1.7-0.7,4.1-0.7,7.2l16.5,30.4l16.1,27.6c5.9,9.1,10,16.8,12.7,22.3c3.3,6.7,4.1,9.3,7.8,16.7
		c4.7,9.5,8.4,15.6,11.3,20.5c4.7,8,9.7,18.2,19.8,38.5c5.7,11.5,12.6,25.7,20.1,42.1l10.4,2.6c-5.5-13.6-11.1-26.2-16.6-37.8
		c-6.9-14.5-12.6-25.2-19-37.2c-8.3-15.6-15-27.4-20-36.1c-9.9-17.3-19-32.7-22.8-39.1c-5.4-9-7.8-13-13-21.8
		c-6-10.3-10.8-18.9-14-24.7l-3.3-8.3c0.4-1.2,1-2.9,1.6-5c1.1-3.5,1.6-5.3,1.7-6.7c0.1-1,0.1-3.3-2.1-8
		c-1.4-3.1-5.1-10.6-13.8-16.4c-3.5-2.4-6.6-3.5-7.4-3.8c0,0-14.2-5.3-31.5,3.1c-1.7,0.8-3.8,2-4.9,4.4c-0.6,1.3-0.9,2.9-0.2,6.6
		c1.1,5.8,3.7,10,4.2,11C153.6,142.4,158.5,146.5,162.4,149.1z"/>
	<path class="st1" d="M184.2,112c2.4,1.5,12,7.8,15.7,20.5c2.9,10.1,0.4,18.5-0.7,21.6c23,39.8,45.9,81.5,68.5,125.1
		c13.3,25.6,25.9,50.9,38,75.8l3,0.7c-11.1-26.2-21.2-46.9-28.3-60.9c-20-39.2-34-59.6-66.2-119.6c-5.3-9.9-9.6-18.1-12.4-23.3
		c0.7-4.1,1.5-8.2,2.2-12.3c-0.2-2.9-0.9-6.8-2.8-11C196.5,118.1,187.3,113.4,184.2,112z"/>
	<path class="st2" d="M248.3,234.6c-12.4-13.4-19.4-25.3-23.6-33.9c-2.7-5.6-6.4-14.3-13.6-26.4c-3.4-5.7-6.4-10.2-8.4-13.2"/>
	<path class="st2" d="M189.4,114.9c0.5,0.8,1.4,2,2.5,3.5c9.5,13.3,10.4,13.9,10.7,16.3c0.4,3.3-1,3.1-1.9,13.1
		c-0.2,2.2-0.3,4.1-0.4,5.3"/>
	<path class="st2" d="M195.1,129.5c-0.8-2.5-2.4-5.9-5.5-9c-4.3-4.3-9.3-5.7-12.2-6.5c-0.7-0.2-3.6-0.9-7.6-1
		c-5.6-0.1-14-0.3-17.6,5c-2.4,3.6-1.5,8.2-1.3,9c0.6,3,2,4,3.6,7.4c1,2.2,2.2,5.6,2.5,10.4"/>
	<path class="st3" d="M223.4,146c0.5,0.5,1.3,1.2,2,2.3c1.3,2.1,0.9,3.1,2,5.5c0.6,1.3,1.3,2.8,3,4c0.5,0.4,2.5,1.8,5.1,1.3
		c1.6-0.3,2.7-1.3,3.2-1.7c-1.1-0.2-2.7-0.7-4-1.9c-2.2-2-1.8-4.4-3.7-7.1c-0.8-1.1-2.2-2.5-4.8-3.6L223.4,146z"/>
	<path class="st4" d="M202.8,153.3c1.2,0.8,3.1,2,4.9,2.6c0.3,0.1,0.7,0.3,1.2,0.1c1.2-0.3,1.7-1.9,1.8-2.4c1.1-3.3,4.2-7.7,7.5-9.6
		c0.7-0.4,2.3-1.3,4.4-1.3c1.9,0,3.2,0.7,4,1.2c2.8,1.5,4.2,4,4.8,5.2c-1-0.7-3.4-2.2-6.6-1.9c-1.8,0.1-3.1,0.7-4.1,1.2
		c-3.1,1.4-5,3.6-5.5,4.2c-1.8,2.1-2.9,4.6-4.7,5.6c-0.9,0.5-1.8,0.5-1.8,0.5c-0.7,0-1.3-0.1-1.6-0.3c-1.9-1.2-3.9-2.3-5.8-3.5
		c-0.5-0.9-1.1-1.9-1.6-2.8C200.9,152.5,201.9,152.9,202.8,153.3z"/>
	<path class="st4" d="M194.5,153.1c1.3-0.3,2.6-0.7,3.9-1.1c1.6-0.4,3.1-0.9,4.6-1.3c1.2,3.1,2.4,6.3,3.6,9.4
		c-1.1,0.6-2.6,1.3-4.5,1.8c-1.5,0.4-2.8,0.5-3.9,0.6C197,159.3,195.8,156.2,194.5,153.1z"/>
	<path class="st2" d="M304,354.5c-0.9-6.4-3-16-8.1-26.5c-5.8-11.7-9.2-11.9-15.9-25.2c-4.9-9.8-4-11.5-11.8-28.1
		c-3.4-7.2-5.8-11.6-9.6-16.4c-4.3-5.4-8.7-9.1-12-11.5"/>
	<polyline class="st2" points="258.6,253.4 246.3,238.5 234.4,223.4 	"/>
</g>
</svg>
