<?xml version="1.0" encoding="utf-8"?>
<!-- Generator: Adobe Illustrator 22.1.0, SVG Export Plug-In . SVG Version: 6.00 Build 0)  -->
<svg version="1.1" id="Слой_1" xmlns="http://www.w3.org/2000/svg" xmlns:xlink="http://www.w3.org/1999/xlink" x="0px" y="0px"
	 viewBox="0 0 480 480" style="enable-background:new 0 0 480 480;" xml:space="preserve">
<style type="text/css">
	.st0{fill:#D2C6BE;stroke:#090909;stroke-linecap:round;stroke-linejoin:round;stroke-miterlimit:10;}
	.st1{fill:none;stroke:#000000;stroke-linecap:round;stroke-linejoin:round;stroke-miterlimit:10;}
	.st2{fill:#9C2D49;stroke:#000000;stroke-linecap:round;stroke-linejoin:round;stroke-miterlimit:10;}
	.st3{fill:#EFDEC3;stroke:#000000;stroke-linecap:round;stroke-linejoin:round;stroke-miterlimit:10;}
	.st4{opacity:0.2;}
</style>
<title>Body_4_(Shekhtman) 12</title>
<g id="_x30_14">
	<path class="st0" d="M307.8,358.2l-4.7,2.3c-2.1-2.5-5.1-6.3-8.5-11.2c-10.3-14.9-10-19.9-19.6-35.1c-7.4-11.8-9.7-12.1-15.5-23.1
		c-4-7.6-4.2-9.9-8.2-19.2c-6.9-15.9-10.9-19.6-19.4-36.1c-9.8-18.8-6.3-17.3-14-31.2c-14.4-26.2-23.5-25.9-31.6-47.7
		c-3.3-9-3.3-13.3-8.4-22c-5.2-8.9-9.5-11.6-11.5-20.4c-0.7-3-2.1-9.9,1.5-16.3c0.9-1.6,3-5.3,7.2-6.6c5.9-1.8,11.3,2.5,11.6,2.7
		c1.7,1.4,4.6,4.4,6.6,21.4c0.8,6.7,1,12.2,1.1,16.2l7.3,18.6c1,2.7,2.7,7,5.7,11.9c6.8,11,11.6,11.2,18.7,21.5
		c5,7.2,7.7,14.4,10.5,21.8c2.5,6.7,3.2,10.1,6.5,16.7c3,6,4,6.3,7.7,12.8c3.8,6.7,6.1,12.5,10.6,24.1c4.3,11,4.1,11.9,7.1,18.2
		c2.6,5.6,4.2,8,8.1,14.9c3.8,6.9,6.3,11.8,11.2,21.6C296,330.5,303.2,347.1,307.8,358.2z"/>
	<path class="st1" d="M258.5,277.3c-0.5-2.8-1.4-6.8-3.4-11.4c-2.9-6.7-5.6-8.7-9.9-15.4c-5.5-8.5-8.2-16.2-9.7-20.3
		c-3-8.6-2.3-10.5-5.3-18.4c-2.5-6.7-5.5-11.8-7.6-15.1"/>
	<path class="st1" d="M190,139.6c-1.1-1.6-3-4.9-3.3-9.6c-0.3-3.3,0.4-5.9,0.9-7.6"/>
	<path class="st0" d="M184.7,107.1c-0.6,1.4-1.7,4.4-1.1,8.1c0.2,1.5,1.1,7.1,5.5,8.8c3.5,1.4,7-0.6,7.7-1
		c6.2-3.7,5.8-12.8,5.8-13.9c-0.4-6.9-4.7-11.2-5.9-12.4c-4.1-3.9-8.7-4.7-11.3-5.2c-3.6-0.7-6.6-0.5-8.6-0.2"/>
	<path class="st2" d="M179.4,146.9l3.9,13.3c2.7-0.8,5.8-2,9.2-3.6c3.1-1.5,5.7-3.1,7.9-4.6c-0.3-1.8-0.6-3.6-0.9-5.4
		c-2.7,0.5-5.9,1-9.6,1.1C185.8,147.7,182.3,147.4,179.4,146.9z"/>
	<path class="st2" d="M190.9,172.5c1.4,3.1,3.3,6.1,5.2,9c2.7-1.9,5.6-4.1,8.5-6.6c3.1-2.6,5.9-5.2,8.4-7.7
		c-1.4-2.2-2.6-4.4-4.3-6.5c-2.9,2.4-6,4.6-9.7,7.1C196,169.7,193.7,171.1,190.9,172.5z"/>
	<path class="st3" d="M176.5,140.8c3.5-0.4,7.3-1,11.2-1.7c3.8-0.7,7.3-1.5,10.6-2.4c1.4,4.4,2.9,8.9,4.3,13.3
		c-3.7,0.3-7.8,0.5-12.4,0.3c-4.2-0.2-8-0.6-11.3-1.1C178.1,146.4,177.3,143.6,176.5,140.8z"/>
	<path class="st2" d="M205.2,191.5c2.8,3.2,5.6,6.4,8.5,9.6c2.8-0.6,6.3-1.6,10.2-3.6c3.3-1.6,5.8-3.5,7.8-5.1
		c-1.3-3.7-3.9-8.6-6.5-12.2c-2.6,1.8-5.3,3.6-8.8,5.4C212,187.7,208.6,190,205.2,191.5z"/>
	<path class="st3" d="M196.1,181.5c2.2,3.2,6.1,7.1,9.1,9.9c3.6-1.6,6.9-3.5,10.9-5.8c3.3-1.8,6.3-3.7,9.1-5.5
		c-3.4-4.9-7.3-9.6-12-13.9c-2.6,2.8-5,5.9-8.1,8.5C202.7,176.8,198.9,179.4,196.1,181.5z"/>
	<path class="st3" d="M183.3,160.1c2.8-1.5,6-2.8,9.1-4.9c3.4-2.4,6.4-4.7,9-7c2.7,4.2,4.8,8.3,6.9,12.6c-2.3,2-5.4,4.6-8.3,6.7
		c-3,2.2-5.8,4.1-8.5,5.7C188.7,166.6,185.9,163.2,183.3,160.1z"/>
	<path class="st1" d="M305.9,357.3c-1-1.7-10.9-17.4-16-30.2c-2.6-6.7-4.2-12.7-4.2-12.7c-0.8-3.2-1.3-5.9-1.6-7.8"/>
	<path class="st1" d="M287.4,331.3c-5.3-8.9-7.2-15.9-7.9-20.7c-0.3-2.2-0.8-6.5-2.3-12.4c-0.9-3.7-1.9-6.7-2.6-8.7"/>
	<path class="st1" d="M274.5,304.6c-3.3-5-7.6-12.7-10-23c-1.8-7.6-2.1-14.2-2-19.2"/>
	<path class="st1" d="M263.8,292.8c-0.7-1.3-1.5-2.8-2.2-4.6c-0.6-1.5-1-2.9-1.3-4.2"/>
	<path class="st1" d="M176.6,132.7c1-3.1,1.6-7.2,0.4-11.5c-1.4-5-4.2-6.2-4.6-11c-0.1-0.9-0.7-6.9,3.6-10.4c4-3.2,9.1-1.8,9.6-1.7
		c1.2,0.4,5.2,1.8,6.9,6.1c1.8,4.7-0.7,8.7-1,9.1"/>
	<path class="st4" d="M189.6,137.7c0.8,4.1,2,7.2,2.8,9.5c1.5,4.1,2.9,7,3.9,9.1c2,4.1,3.2,6.6,5.2,9.5c2.2,3.1,3.7,4.3,7.6,8.2
		c0,0,2,2.1,9.8,10.6c8.1,9,10.6,21.9,14.4,33.5c1.2,3.6,6.6,14.2,17.5,35.3c13.3,25.9,19.2,36.8,27.3,52.3
		c6.5,12.5,15.9,30.9,27,53.8l1.5-0.7c-2.5-5.7-6.6-15.1-11.9-26.7c-16.9-36.7-22.3-44.2-39.2-80.7c-11.2-24.3-16.8-36.4-17.9-39.5
		c-2.4-6.7-5.4-16.1-12.4-27.4c-4-6.5-8-11.4-10.8-14.6c-4.6-4.6-7.7-8.9-9.6-12.1c-1.7-2.8-3.1-5.8-5.9-11.8
		c-3.8-8.1-4.7-11.3-5.1-12.9c-0.9-3.5-1.4-6.6-1.6-8.7l-3.6-0.1C188.2,129.9,188.9,134.5,189.6,137.7z"/>
	<path class="st4" d="M183.9,116.9c0.6,0.5,3.1,2.7,6.6,2.3c3.5-0.3,5.5-2.9,6.3-3.9c3.5-4.4,3.1-11.9-0.7-19.1c0.9,1,1.8,2,2.7,3
		c0.9,1.2,4,5.7,3.6,12.1c-0.3,5.3-2.9,9-3.9,10.3c-2.2,2.6-5.8,3.6-9,2.5C186.4,123,184.2,120.2,183.9,116.9z"/>
</g>
</svg>
