<?xml version="1.0" encoding="utf-8"?>
<!-- Generator: Adobe Illustrator 22.1.0, SVG Export Plug-In . SVG Version: 6.00 Build 0)  -->
<svg version="1.0" id="Слой_1" xmlns="http://www.w3.org/2000/svg" xmlns:xlink="http://www.w3.org/1999/xlink" x="0px" y="0px"
	 viewBox="0 0 480 480" enable-background="new 0 0 480 480" xml:space="preserve">
<title>Body_4_(Shekhtman) 12</title>
<g id="_x30_15">
	<polygon fill="#D4DDE8" stroke="#000000" stroke-linecap="round" stroke-linejoin="round" stroke-miterlimit="10" points="
		212.5,177.8 216.8,180.4 310.8,360.5 305.7,360.4 203.8,188.3 203.9,182.8 	"/>
	<polygon fill="#D4DDE8" stroke="#000000" stroke-linecap="round" stroke-linejoin="round" stroke-miterlimit="10" points="
		209.8,142.6 177,161.6 178.5,164.2 202,172.7 205.3,170.8 211.2,144.9 	"/>
	
		<circle fill="#D4DDE8" stroke="#000000" stroke-linecap="round" stroke-linejoin="round" stroke-miterlimit="10" cx="205.3" cy="175.2" r="7.5"/>
	
		<rect x="175.2" y="151.9" transform="matrix(0.8656 -0.5007 0.5007 0.8656 -50.7234 117.8406)" fill="#D4DDE8" stroke="#000000" stroke-linecap="round" stroke-linejoin="round" stroke-miterlimit="10" width="37.9" height="3"/>
	<polygon fill="#00C7E8" stroke="#000000" stroke-linecap="round" stroke-linejoin="round" stroke-miterlimit="10" points="
		278.4,298.5 274.3,307.5 269.6,299.3 274.8,292.2 	"/>
	<polygon fill="#00C7E8" stroke="#000000" stroke-linecap="round" stroke-linejoin="round" stroke-miterlimit="10" points="
		262.2,287 266.7,294.7 274.8,292.2 271.1,284.4 	"/>
	<polygon fill="#00C7E8" stroke="#000000" stroke-linecap="round" stroke-linejoin="round" stroke-miterlimit="10" points="
		263.3,269.5 256.5,276.7 262.2,287 271.1,284.4 	"/>
	<polygon fill="#00C7E8" stroke="#000000" stroke-linecap="round" stroke-linejoin="round" stroke-miterlimit="10" points="
		239.3,223.9 226.7,227.9 232.4,237.5 244.7,234.3 	"/>
	<polygon fill="#00C7E8" stroke="#000000" stroke-linecap="round" stroke-linejoin="round" stroke-miterlimit="10" points="
		245.4,235.2 236.7,243.8 242,252.9 249.1,242.2 	"/>
	<polygon fill="#00C7E8" stroke="#000000" stroke-linecap="round" stroke-linejoin="round" stroke-miterlimit="10" points="
		256.3,256.1 245.3,258.5 241,251.2 252.6,249 	"/>
	<polygon fill="#00C7E8" stroke="#000000" stroke-linecap="round" stroke-linejoin="round" stroke-miterlimit="10" points="
		258.5,260.2 250.7,267.5 254,272.9 263.3,269.5 	"/>
	<path opacity="0.2" enable-background="new    " d="M201.6,147.4l1.6,2.5L203,168c1.2,0.9,3.4,2.8,5.1,5.9c1.6,3.1,2,6,2,7.6
		l98.6,178.9h2.1c-31.3-60-62.6-120-94-180.1c-1.5-0.9-3-1.8-4.5-2.7c-0.1-1.1-0.5-3.3-2-5.5c-1.8-2.7-4.2-4-5.2-4.5
		c0.6-6.3,1.1-12.6,1.7-18.9c-0.5-1.2-1-2.4-1.5-3.5C204.1,145.9,202.8,146.7,201.6,147.4z"/>
	<g id="_x38_59_3_">
		<g>
			<path fill="#00C7E8" d="M181.1,150.4c-6.2-0.1-6.7-0.6-10.4-0.6c-4.8,0.1-5.1,0.9-7.2,0.2c-0.2-0.1-4.1-1.4-5.7-5.2
				c-1.5-3.4,0.6-5.3-1.1-8.1c-1.2-2-2.4-1.3-4.2-3.7c-0.4-0.5-2.7-3.6-2.3-7.3c0.3-2.7,1.7-3.2,1.4-5.6c-0.3-1.9-1.3-2.3-1.4-4
				c-0.1-1.9,1.3-3.5,2.4-4.5c0,1.3,0.6,2.4,1.6,2.9c0.9,0.4,2.1,0.4,2.7-0.3c1.3-1.4-1.5-4.4-1-8.2c0.3-2.5,1.9-4.4,3.4-5.7
				c1,3.3,1.5,3.8,1.8,3.8c0.8-0.1,2-5.3-0.4-8.1c-1.3-1.6-3.1-1.5-3.5-3c-0.4-1.3,0.7-2.8,1.7-3.9c-0.1,0.3-0.5,1.9,0.4,3.2
				c0.9,1.3,2.6,2,3.9,1.7c2.1-0.5,1.8-2.9,5.1-6.3c1.9-1.9,2.8-2,3.4-3.6c0.5-1.4,0.9-3.9-0.7-5.2c-1.3-1.1-3.1-0.6-3.5-0.5
				c4-1.9,6.1-1.5,7.3-0.8c1.4,0.8,1.2,1.9,3.1,4.5c2.5,3.4,3.9,3,4.7,5.1c1.4,3.6-2,6.1-0.4,8.3c1.4,2.1,5,0.6,7.1,3.4
				c1,1.3,0.8,2.5,1.7,2.8c1.1,0.3,2.9-1,3.5-2.7c0.8-2.1-0.8-3.5-1-6.6c-0.1-1.6,0.1-3.6,1.4-5.9c0.3,1.3,0.9,3.4,2,5.7
				c1.6,3.2,2.7,3.9,2.8,6c0.2,2.9-2,3.7-1.4,5.7c0.8,2.7,5.1,1.9,6.9,5.1c1.2,2.1-0.4,3.1,0.5,7.1s2.7,4.4,2.3,6.6
				c-0.5,3.1-4.4,3.2-4.9,6.3c-0.4,2.3,1.5,3.2,1.6,5.7c0.1,1.9-0.9,4.6-5.8,8l-4.4,3.4c-1.9,1.6-5,3.7-9.1,4.2
				C184.5,150.5,183.4,150.5,181.1,150.4z"/>
		</g>
		<g>
			<path fill="#78F3F9" d="M164.4,131.2c-0.5,0-0.9-0.3-1-0.5c-0.7-0.6-1.2-1.2-1.4-1.6c-1.8-3.3,0.9-7.4,1.1-7.6
				c-0.7,0.3-5.6,2.7-6.1,7.1c-0.1,0.8-0.3,2.7,1,4c1.5,1.5,3.8,0.9,4,0.9c0.6,3.7,1.4,5.3,2,6c0.1,0.1,1.9,2.7,2.2,3
				c0,0,0.6,0.5,4.1-0.2c0.4,1,1.4,3.3,3.7,4.8c2.8,1.8,5.9,1.4,8.2,1c1.6-0.2,4.4-0.7,7.1-2.9c0.9-0.7,3.6-3,4.2-6.8
				c0.2-1.4,0.1-2.5,0-3.3c1.2,0.1,3.1,0,4.4-1.2c1.1-1,1.3-2.3,1.7-6.8c0.2-2.1,0.3-4.5,0.5-7.2c-0.3,0.1-5.9,2.8-10.9-0.4
				c-3.5-2.3-4.3-5.9-4.5-6.5c-0.8-3.4,0.4-6.1,0.8-7c-0.5,0.4-3.9,3.4-8.1,2.4c-0.8-0.2-3.2-0.7-4.5-2.9c-1.6-2.8,0-5.9,0.1-6.1
				c-3.8,1.5-5.1,3.3-5.6,4.7c-0.9,2.4,0.6,3.8-0.2,7.8c-0.5,2.6-1.3,2.7-1.4,4.9c-0.1,2.5,0.9,2.5,0.9,5.4c0,2.6-0.8,2.8-0.5,5.1
				c0.1,0.7,0.3,1.6-0.1,2.5C166,129.9,165.4,131.2,164.4,131.2z"/>
		</g>
		<g>
			<path fill="#BBFCFF" d="M187.3,142.9c-1.3,2-3.5,2.7-4.7,3c-1,0.3-4.3,1.2-7-0.5c-2-1.3-1.4-2.6-3.6-4c-2-1.3-3.1-0.6-4.7-2.1
				c-0.1-0.1-1.6-1.6-1.8-3.6c-0.2-2.5,8.3-6.7,3.8-15.1c-0.8-1.7-1-1.8-1.1-2.4c-0.2-1.1,0.3-2.6,3.4-5c-0.4,0.7-1.4,2.5-1.1,4.7
				c0.1,0.7,0.3,1.9,1.2,2.9c1.5,1.6,3.8,1.4,4.4,1.3c2.7-0.2,4.3-2.2,4.7-2.6c-0.1,1.1-0.3,3.2,0.7,5.5c0.5,1.2,1,2.4,2.2,3.2
				c2.3,1.5,4.4-0.2,7.8,0.7c2,0.5,3.3,1.7,4.2,2.5c-5.6,0.4-7.2,1.8-7.6,3c-0.4,1.3,0.5,2.3,0.2,5.2
				C188.1,140.7,188,141.7,187.3,142.9z"/>
		</g>
	</g>
</g>
</svg>
