<?xml version="1.0" encoding="utf-8"?>
<!-- Generator: Adobe Illustrator 22.1.0, SVG Export Plug-In . SVG Version: 6.00 Build 0)  -->
<svg version="1.0" id="Слой_1" xmlns="http://www.w3.org/2000/svg" xmlns:xlink="http://www.w3.org/1999/xlink" x="0px" y="0px"
	 viewBox="0 0 480 480" enable-background="new 0 0 480 480" xml:space="preserve">
<title>Body_4_(Shekhtman) 12</title>
<g id="_x30_17">
	
		<polygon fill="#6DBFBA" stroke="#000000" stroke-width="0.9921" stroke-linecap="round" stroke-linejoin="round" stroke-miterlimit="10" points="
		215.3,184.1 215,161.2 201.9,136.7 193.7,127.3 180.5,126.5 183,137.3 192.3,160.3 203.7,173.7 	"/>
	
		<polygon fill="#57989B" stroke="#000000" stroke-width="0.9921" stroke-linecap="round" stroke-linejoin="round" stroke-miterlimit="10" points="
		190.8,133.3 183.3,129.8 180.5,126.5 193.7,127.3 	"/>
	<polygon fill="none" stroke="#000000" stroke-miterlimit="10" points="215.3,184.1 204.1,164.9 201.2,170.8 203.7,173.7 	"/>
	
		<polygon fill="#7CD9DE" stroke="#000000" stroke-width="0.9921" stroke-linecap="round" stroke-linejoin="round" stroke-miterlimit="10" points="
		193.7,127.3 200.5,137.8 205.8,155.8 204.1,164.9 215.3,184.1 215,161.2 201.9,136.7 	"/>
	
		<polygon fill="#C1FFFF" stroke="#000000" stroke-width="1.0006" stroke-linecap="round" stroke-linejoin="round" stroke-miterlimit="10" points="
		180.5,126.5 183.3,129.8 190.8,133.3 198.8,151.7 204.1,164.9 201.2,170.8 192.3,160.3 183,137.3 	"/>
	
		<path fill="#4C7F8F" stroke="#000000" stroke-width="1.0006" stroke-linecap="round" stroke-linejoin="round" stroke-miterlimit="10" d="
		M307,360.8l5.3-6.9l-25.7-47.7c-2.3-4.2-5.6-10.6-9.8-18.2c-11.3-20.6-18.1-32.3-24.2-43.1c-6.5-11.5-15.4-28.2-25.6-49.3
		l-7.6-24.8c-0.5-1.7-1.5-4.1-3.3-6.7c-2.7-3.9-3.9-3.4-6.4-7c-2.5-3.5-3.6-7.3-4.8-11.2c-0.5-1.6-0.8-2.9-1.1-3.9
		c-0.1,1.2-0.1,2.7,0.2,4.4c0.3,2.5,1,4.4,1.7,5.9c-0.7,0-1.9-0.1-3.2-0.7c-2.1-1-3.2-2.7-3.6-3.4c1.2,3.1,2.7,4.8,3.9,5.8
		c1.3,1.1,2.3,1.4,3.6,3c1.2,1.5,1,2.1,2,3.8c2.1,3.5,4.4,3.1,5.9,5.8c0.7,1.2,0.7,2.2,0.8,5.9c0.1,3.1,0.2,6.9,0.2,11.4
		c-5.9-6.6-8.5-9.8-9.6-11.4c-0.2-0.2-0.6-0.9-1.3-1.7c-1.9-2.5-2.7-3.2-3.4-4.2c-1.3-1.9-0.6-2.5-1.9-6.2c-0.6-1.6-1.7-4.7-4.4-7.5
		c-1.2-1.3-2.5-2.2-3.3-2.7c0.5,0.9,1,1.9,1.5,2.8c0.6,1,1.1,2,1.7,3.1c-0.9-0.1-1.9-0.3-2.7-1c-1.3-1.1-1.3-2.4-2.6-4.4
		c-0.7-1.1-1.6-2-2.3-2.6c1.3,5.2,3,9.2,4.4,12.2c2.6,5.3,5.3,8.9,7.3,11.7c0.4,0.6,2.3,3.1,5.1,6.3c6.2,7,8.7,7.9,12.7,12.9
		c1.5,1.9,3.6,4.9,5.6,9.1c8.8,15.9,19.4,35.3,31.3,57.6c9.8,18.4,17.1,32.5,22.8,43.4C285.1,317.9,295.4,338,307,360.8z"/>
	
		<path fill="#4C7F8F" stroke="#000000" stroke-width="1.0006" stroke-linecap="round" stroke-linejoin="round" stroke-miterlimit="10" d="
		M225.5,191.9l-6.6,3.9c-0.8,0.5-1.9,0.2-2.4-0.7h0c-0.5-0.9-0.2-2,0.7-2.5l6.6-3.9c0.8-0.5,1.9-0.2,2.4,0.7v0
		C226.7,190.3,226.4,191.4,225.5,191.9z"/>
	
		<path fill="#4C7F8F" stroke="#000000" stroke-width="1.0006" stroke-linecap="round" stroke-linejoin="round" stroke-miterlimit="10" d="
		M228.4,194.4l-8.8,5.2c-0.8,0.5-1.9,0.2-2.4-0.7l0,0c-0.5-0.9-0.2-2,0.7-2.5l8.8-5.2c0.8-0.5,1.9-0.2,2.4,0.7v0
		C229.5,192.8,229.2,193.9,228.4,194.4z"/>
	<path opacity="0.2" d="M216.6,167c0.3,5,1.1,12.9,4.1,21.8c3.2,9.6,7.3,16.1,8.7,18.4c15.5,24.7,27.3,51.9,41.7,77.3
		c9.5,16.7,23,41.2,38.9,72.4l2.3-3c-22.4-41-44.8-81.9-67.2-122.9c-7.9-14.8-13.4-25.9-16.8-32.9c-1.5-3.1-3.2-6.7-5.2-11.6
		C219.9,178.6,217.9,171.8,216.6,167z"/>
	
		<polygon fill="#C1FFFF" stroke="#000000" stroke-width="1.0006" stroke-linecap="round" stroke-linejoin="round" stroke-miterlimit="10" points="
		176.7,147.7 169.7,143 177.6,135.8 	"/>
	
		<polygon fill="#7CD9DE" stroke="#000000" stroke-width="0.9921" stroke-linecap="round" stroke-linejoin="round" stroke-miterlimit="10" points="
		209.4,126.6 205.3,132.5 201.2,120.5 	"/>
	
		<polygon fill="#57989B" stroke="#000000" stroke-width="0.9921" stroke-linecap="round" stroke-linejoin="round" stroke-miterlimit="10" points="
		163.6,121.4 172.7,127.7 180.1,119.1 	"/>
	
		<polygon fill="#6DBFBA" stroke="#000000" stroke-width="0.9921" stroke-linecap="round" stroke-linejoin="round" stroke-miterlimit="10" points="
		186.9,102.9 183.9,115.3 190.4,116.6 	"/>
</g>
</svg>
