<?xml version="1.0" encoding="utf-8"?>
<!-- Generator: Adobe Illustrator 22.1.0, SVG Export Plug-In . SVG Version: 6.00 Build 0)  -->
<svg version="1.1" id="Слой_1" xmlns="http://www.w3.org/2000/svg" xmlns:xlink="http://www.w3.org/1999/xlink" x="0px" y="0px"
	 viewBox="0 0 480 480" style="enable-background:new 0 0 480 480;" xml:space="preserve">
<style type="text/css">
	.st0{fill:#575725;stroke:#000000;stroke-miterlimit:10;}
	.st1{opacity:0.22;fill:#442D25;}
	.st2{clip-path:url(#SVGID_2_);}
	.st3{fill:none;stroke:#000000;stroke-miterlimit:10;}
	.st4{fill:#00A4E3;stroke:#000000;stroke-miterlimit:10;}
	.st5{fill:#00D2F0;}
	.st6{opacity:0.2;}
	.st7{fill:#1FA60E;stroke:#000000;stroke-width:1.0006;stroke-linecap:round;stroke-linejoin:round;stroke-miterlimit:10;}
	.st8{clip-path:url(#SVGID_4_);}
	.st9{clip-path:url(#SVGID_6_);}
</style>
<title>Body_4_(Shekhtman) 12</title>
<g>
	<g>
		<g>
			<path class="st0" d="M312.3,363.3c-1,0.3-2,0.5-3,0.6c-2,0.2-4.1,0-6.2-0.5c-4.6-11.1-11.1-25.3-15.7-36.4
				c-3.3-8-6.7-16.2-11.5-22.7c-3.6-4.9-6.2-8.2-8.4-14.3c-1.4-3.9-3.8-9.1-5.8-12.6c-2.6-4.6-5.6-7.5-7.5-12.5
				c-1.9-5.1-2-10.8-5.1-14.8c-2-2.6-4.8-2.6-7.2-3.9c-3-1.7-5.5-5.6-7-9.7c-1.5-4.1-2.1-8.5-2.7-12.8c-2-13.8-11.9-23.8-20.1-33.9
				c-2.4-2.9-4.9-5.8-6.6-9.4c-2-4.3-2.7-9.5-5.2-13.4c-3.2-5-5.5-10.5-8.1-16c-1.5-3.2-4.7-3.3-3.4-5.8c0.4-0.8,1-1.7,1.7-2.3
				c1.3-1.3,2.9-1.8,4.4-0.4c6.2,6,10.5,15.2,15,23.8c5.5,10.7,11.7,20.9,18.4,30.4c4.4,6.2,9.2,12.6,11.2,20.4
				c0.8,3.2,1.1,6.5,2.3,9.6c1.6,4.3,4.5,7.7,7.1,11.1c5.3,6.9,9.8,15,14.3,22.9c6.9,12.2,13.7,24.5,20.6,36.7
				c5.5,9.9,9.8,21.2,14.4,31.8C302.5,339.3,308.7,352.7,312.3,363.3z"/>
			<path class="st1" d="M312.3,363.3c-1,0.3-2,0.5-3,0.6c-0.2-0.5-2.3-4.1-2.5-4.6c-1.1-3.4-2.1-6.8-3.1-10.2
				c-3-9.7-6.9-19-11.7-27.8c-2.4-4.4-5-8.7-6.6-13.4c-1.4-4.1-2.1-8.8-4.4-12.5c-6.4-10.4-12.8-20.9-19.2-31.3
				c-2.6-4.3-5.5-12.2-8.1-16.4c-4.7-7.6-8.8-11.2-13.4-18.8c-3.6-10.3-6.8-19.4-10.8-26.6c-6.6-12-12.8-14.1-14.7-22.3
				c-1.5-6.5-7.6-12.1-8.7-17c-1.9-8.7-4.8-8.2-10.4-15.8c-1.5-2.1-3.9-1.9-5.1-4.2c1.3-1.3,2.9-1.8,4.4-0.4
				c6.2,6,10.5,15.2,15,23.8c5.5,10.7,11.7,20.9,18.4,30.4c4.4,6.2,9.2,12.6,11.2,20.4c0.8,3.2,1.1,6.5,2.3,9.6
				c1.6,4.3,4.5,7.7,7.1,11.1c5.3,6.9,9.8,15,14.3,22.9c6.9,12.2,13.7,24.5,20.6,36.7c5.5,9.9,9.8,21.2,14.4,31.8
				C302.5,339.3,308.7,352.7,312.3,363.3z"/>
			<g>
				<defs>
					<path id="SVGID_1_" d="M195,142.5c6.2,5.9,10.5,15.2,15,23.8c5.5,10.7,11.7,20.9,18.4,30.4c4.4,6.2,9.2,12.6,11.2,20.4
						c0.8,3.2,1.1,6.5,2.3,9.6c1.6,4.3,4.5,7.7,7.1,11.1c5.3,6.9,9.8,15,14.3,22.9c6.9,12.2,13.7,24.5,20.6,36.7
						c5.5,9.9,9.8,21.2,14.4,31.8c4.4,10.2,10.6,23.6,14.2,34.2c-2.9,0.8-6,0.9-9.2,0.1c-4.6-11.1-11.1-25.3-15.7-36.5
						c-3.3-8-6.7-16.2-11.5-22.7c-3.6-4.9-6.2-8.2-8.4-14.3c-1.4-3.9-3.8-9.1-5.8-12.6c-2.6-4.6-5.6-7.4-7.5-12.5
						c-1.9-5.1-2-10.8-5.1-14.8c-2-2.6-4.8-2.5-7.2-3.9c-3-1.7-5.5-5.6-7-9.7s-2.1-8.5-2.7-12.8c-2-13.8-11.9-23.8-20.1-33.9
						c-2.4-2.9-4.9-5.8-6.6-9.4c-2-4.3-2.7-9.5-5.2-13.4c-3.3-5.1-7.1-12.9-9.4-18.1c-1.4-3.2-3.4-1.2-2.1-3.6
						C190.2,142.7,192.7,140.4,195,142.5z"/>
				</defs>
				<clipPath id="SVGID_2_">
					<use xlink:href="#SVGID_1_"  style="overflow:visible;"/>
				</clipPath>
				<g class="st2">
					<path class="st3" d="M201.1,144.8c2.6,3.7,3.9,8.6,4.5,13.3c0.6,4.7,0.7,9.3,1.2,14c1.4,12.7,6.5,25.7,13.9,35.2"/>
					<path class="st3" d="M212.2,160.6c2.9,3.8,4.4,9.2,5,14.2s0.5,10,1.2,15c1.2,8.6,4.7,17.3,9.6,23.8"/>
					<path class="st3" d="M221.5,181.9c4.6,4.3,7,12.1,7.8,19.1s0.5,13.9,1.4,21c0.9,7,4.1,21.5,8.8,25.7
						c-3.5-11.3-6.1-29.9-6.2-41.2c0-1.7,0.3-3.8,1.6-3.6c0.8,0.1,1.5,1.1,1.9,2.2c1.8,4.5,2.5,9.9,3.3,14.4
						c1.3,8.1,3.8,19,7.7,26.4c4.8,9.1,4.5,13.3,2,19.7"/>
					<path class="st3" d="M207.2,154.6c5.1,6.8,6.8,16.6,7.6,25.3c0.5,5.2,0,10.9,0.2,16.7c0.2,5.7,1.6,11.7,4.5,16.5"/>
					<path class="st3" d="M247,229c6.6,8.3,11.6,19.1,14,30.3c1.7,8,0.1,12.7,1.7,20.7c0.9,4.6,12.8,25.4,12,24.7"/>
					<path class="st3" d="M263.6,259.5c4.6,7.7,9,18,10.6,26.2c0.9,4.8,1.1,9.6,1.9,14.4c1.4,9.4,5.3,18.6,10.3,26.2
						c-2.6-4.8-5.3-10.1-5.6-15.5c-0.1-2.8,0.4-5.3,0.5-8c0.3-5.4-0.9-11.2-2.8-16.7s-4.5-10.5-7-15.6"/>
					<path class="st3" d="M281.5,293.7c3.4,3.9,5,10.1,5.5,15.7c0.5,5.6,0.1,11,0.8,16.6c1.1,8,4.3,15.9,7.9,23.1"/>
					<path class="st3" d="M288.3,304.2c6.3,7.9,11.3,26.3,11.5,36.8c0.1,4.3-0.5,8.4-0.2,12.7c0.3,4.3,3.7,12.3,6.5,15.1"/>
					<path class="st3" d="M303.1,341.1c1.3,3,0.8,7.6,0.1,10.2c-0.7,2.5,1.2,8.4,1.4,11.2c0.2,2.8,1.1,5.9,2.9,7.9"/>
				</g>
			</g>
		</g>
		<g>
			<g>
				<path class="st4" d="M188.9,145c-6.5,3.8-16.6-2.4-22.1-11.7c-0.4-0.6-0.7-1.2-1-1.9c-4.7-9.2,0-25.3,0-25.3s17,2.8,23,11.1
					c0.6,0.8,1.1,1.5,1.5,2.3C195.8,128.8,195.4,141.2,188.9,145z"/>
				
					<ellipse transform="matrix(0.5045 -0.8634 0.8634 0.5045 -10.5884 208.0218)" class="st5" cx="175.9" cy="113.2" rx="2.3" ry="5.5"/>
				
					<ellipse transform="matrix(0.7972 -0.6037 0.6037 0.7972 -34.6798 135.2181)" class="st5" cx="183.9" cy="119.2" rx="1.5" ry="2.3"/>
				<path class="st6" d="M188.9,145c-6.5,3.8-16.6-2.4-22.1-11.7c-0.4-0.6-2.1-4.3-2.4-4.9c9.9,8.4,22.9,5.9,23,5.4
					c0.6-6.5,3.1-10.3-0.2-18.6c0.6,0.8,2.6,3.5,3.1,4.3C195.8,128.8,195.4,141.2,188.9,145z"/>
			</g>
			<g>
				<path class="st7" d="M191.9,148.3c-0.7,1-1.6,1.8-2.8,2.4c-2.4,1.1-5.9,1.3-11.6-0.4C169,147.8,161,139,161,139
					s15.4-1.8,23.9,0.8c0.5,0.2,1.1,0.3,1.6,0.5C193.5,142.8,193.8,145.6,191.9,148.3z"/>
				<g>
					<defs>
						<path id="SVGID_3_" d="M184.9,139.9c8.5,2.6,9.1,5.6,7,8.5c-2,2.9-5.8,4.6-14.4,2.1C169,147.8,161,139,161,139
							S176.3,137.3,184.9,139.9z"/>
					</defs>
					<clipPath id="SVGID_4_">
						<use xlink:href="#SVGID_3_"  style="overflow:visible;"/>
					</clipPath>
					<g class="st8">
						<path class="st3" d="M158.9,138.4c4.3,1.3,9,1.9,13.5,2.6s9.1,1.7,12.8,3.7s6.5,5,6.4,8.4"/>
						<path class="st3" d="M169.7,136.5c4.3,1,8,3.2,10.1,6.1"/>
						<path class="st3" d="M167.7,148.6c5.6,0.9,12.3-1,16.1-4.5"/>
						<path class="st3" d="M162.4,143.1c3.1-0.3,6.6-1,9.5-2.1"/>
					</g>
				</g>
				<path class="st6" d="M191.9,148.3c-0.7,1-1.6,1.8-2.8,2.4c-0.1-0.1,0.2,0,0,0c-2.1-0.4-3.1-3.4-3.3-10.4
					C192.8,142.9,193.8,145.6,191.9,148.3z"/>
			</g>
			<g>
				<path class="st7" d="M194.6,154.3c0.8,3.4-1.4,0.5-3.7-2.9c-1.5-2.2-2.8-4.6-2.8-7.3c0.1-2.7,0.8-5.3,1.4-8
					c1.4-6.3,4.9-16,4-22.4c0.4,0.5,0.8,1,1.1,1.5c2.9,4.3,4.8,9.6,5.1,16.1c0.3,6-1.4,15.3-4.4,20.5
					C195.2,152.1,194.4,153.6,194.6,154.3z"/>
				<path class="st6" d="M199.9,130.4c0.4,6-1.4,15.2-4.4,20.4c-0.2,0.3-1.1,2.8-1,3.4c-1.1-3-0.5-8.1-0.3-11.3
					c0.2-3.4,0.9-6.8,1.3-10.2c0,0,1-8.5,0.6-11.3c-0.3-2.4-1.2-4.6-1.8-7C197.5,118.7,199.5,124,199.9,130.4z"/>
				<g>
					<defs>
						<path id="SVGID_5_" d="M190.8,151.3c-1.5-2.2-2.8-4.6-2.8-7.3c0.1-2.7,0.8-5.3,1.4-8c1.4-6.3,4.9-16,4-22.4
							c3.5,4.6,5.9,10.3,6.2,17.6c0.3,6-1.4,15.4-4.4,20.5c-0.6,1-1.2,1.4-0.8,2.5C196.4,159.3,193.2,154.7,190.8,151.3z"/>
					</defs>
					<clipPath id="SVGID_6_">
						<use xlink:href="#SVGID_5_"  style="overflow:visible;"/>
					</clipPath>
					<g class="st9">
						<path class="st3" d="M193.1,112.5c3,4.2,3.3,11.4,3,16.8c-0.3,5.3-1.6,10.4-2.1,15.7c-0.5,5.3,0.2,8.9,0.7,10.7"/>
						<path class="st3" d="M190.9,129.1c2.5,2.8,3.3,6.6,3.8,10.2"/>
						<path class="st3" d="M195.8,132.4c1.9-3,4.9-5.3,8.4-6.1"/>
						<path class="st3" d="M194.1,144.2c2.2-2.7,4.9-5,8.3-5.9"/>
						<path class="st3" d="M186.9,138.9c3.1,2.1,5.5,4.8,6.9,8.3"/>
					</g>
				</g>
			</g>
		</g>
		<g>
			<path class="st7" d="M231,188.6c-0.4,3.4-1.5,6.7-1.7,10.2c-0.1,0-0.1-0.1-0.2-0.1c-3-1.9-4.3-5.9-4-9.5c0.3-3.7,2-7.1,3.7-10.3
				c0,0,0,0.1,0.1,0.1C231.1,181.5,231.4,185.2,231,188.6z"/>
			<path class="st6" d="M231,188.6c-0.4,3.4-1.5,6.7-1.7,10.2c-0.1,0-0.1-0.1-0.2-0.1c-0.6-1.5-0.9-3.2-1-4.8
				c-0.1-2.8,0.5-5.6,0.8-8.3c0.3-2.2,0.3-4.5-0.2-6.6C231.1,181.5,231.4,185.2,231,188.6z"/>
		</g>
		<g>
			<path class="st7" d="M210.3,187.5c-3.9,0.9-8,1.2-11.7-0.1c-3.7-1.2-7-4-8.2-7.7l-0.1-0.2c2.7,0.9,5.6,1.4,8.4,1.5
				c3,0.1,6.3-0.2,8.6,1.7C208.8,183.9,209.6,185.7,210.3,187.5C210.3,187.5,210.3,187.5,210.3,187.5z"/>
			<path class="st6" d="M210.3,187.5c-1-0.7-2.1-1.3-3-2.1c-2.5-2.2-6-2.5-9.3-3c-2.7-0.4-5.6-1-7.6-2.7l-0.1-0.2
				c2.7,0.9,5.6,1.4,8.4,1.5c3,0.1,6.3-0.2,8.6,1.7C208.8,183.9,209.6,185.7,210.3,187.5z"/>
		</g>
	</g>
</g>
</svg>
