<?xml version="1.0" encoding="utf-8"?>
<!-- Generator: Adobe Illustrator 22.1.0, SVG Export Plug-In . SVG Version: 6.00 Build 0)  -->
<svg version="1.1" id="Слой_1" xmlns="http://www.w3.org/2000/svg" xmlns:xlink="http://www.w3.org/1999/xlink" x="0px" y="0px"
	 viewBox="0 0 480 480" style="enable-background:new 0 0 480 480;" xml:space="preserve">
<style type="text/css">
	.st0{fill:#8DD4E2;stroke:#000000;stroke-linecap:round;stroke-linejoin:round;stroke-miterlimit:10;}
	.st1{fill:#86DAFD;stroke:#000000;stroke-width:1.0006;stroke-linecap:round;stroke-linejoin:round;stroke-miterlimit:10;}
	.st2{fill:none;stroke:#000000;stroke-miterlimit:10;}
	.st3{fill:#74BFD5;stroke:#000000;stroke-width:1.0006;stroke-linecap:round;stroke-linejoin:round;stroke-miterlimit:10;}
	.st4{fill:#DAF9FF;stroke:#000000;stroke-width:1.0006;stroke-linecap:round;stroke-linejoin:round;stroke-miterlimit:10;}
	.st5{fill:#F1CC30;stroke:#000000;stroke-width:1.0006;stroke-linecap:round;stroke-linejoin:round;stroke-miterlimit:10;}
	.st6{opacity:0.2;}
</style>
<title>Body_4_(Shekhtman) 12</title>
<g id="loot">
	<g id="_x30_16">
		<polygon class="st0" points="214.3,181.2 214.4,158.2 201,133.5 192.6,123.9 178.9,122.9 181.3,133.8 190.6,157 202.3,170.5 		"/>
		<polygon class="st1" points="189.5,129.8 181.7,126.2 178.9,122.9 192.6,123.9 		"/>
		<polygon class="st2" points="214.3,181.2 202.9,161.8 199.7,167.6 202.3,170.5 		"/>
		<polygon class="st3" points="192.6,123.9 199.6,134.6 204.8,152.7 202.9,161.8 214.3,181.2 214.4,158.2 201,133.5 		"/>
		<polygon class="st4" points="178.9,122.9 181.7,126.2 189.5,129.8 197.5,148.5 202.9,161.8 199.7,167.6 190.6,157 181.3,133.8 		
			"/>
		<path class="st5" d="M307.1,359.9l5.7-6.8l-26-48.2c-2.3-4.3-5.7-10.7-9.9-18.4c-11.4-20.9-18.4-32.7-24.5-43.6
			c-6.6-11.7-15.6-28.5-25.9-49.9l-7.6-25c-0.5-1.7-1.5-4.1-3.3-6.8c-2.7-3.9-4-3.5-6.6-7.1c-2.5-3.6-3.7-7.4-4.8-11.3
			c-0.5-1.6-0.8-2.9-1-3.9c-0.1,1.2-0.1,2.7,0.1,4.4c0.3,2.5,1,4.5,1.6,5.9c-0.8,0-2-0.1-3.3-0.7c-2.2-1-3.3-2.8-3.7-3.5
			c1.2,3.1,2.7,4.9,3.9,5.9c1.3,1.1,2.4,1.5,3.7,3.1c1.3,1.5,1.1,2.2,2.1,3.8c2.1,3.5,4.5,3.2,6.1,6c0.7,1.2,0.7,2.2,0.8,6
			c0,3.1,0,6.9-0.1,11.4c-6.1-6.8-8.7-10-9.9-11.6c-0.2-0.2-0.6-0.9-1.3-1.8c-1.9-2.5-2.7-3.2-3.5-4.3c-1.4-2-0.6-2.5-1.9-6.2
			c-0.6-1.6-1.7-4.8-4.4-7.6c-1.3-1.3-2.5-2.2-3.4-2.8c0.5,1,1,1.9,1.5,2.9c0.6,1,1.1,2.1,1.7,3.1c-1-0.1-2-0.4-2.8-1
			c-1.4-1.1-1.3-2.5-2.7-4.5c-0.8-1.2-1.6-2-2.3-2.6c1.3,5.2,3,9.3,4.4,12.3c2.6,5.3,5.4,9.1,7.5,11.8c0.5,0.6,2.4,3.1,5.3,6.4
			c6.4,7.1,9,8.1,13,13.2c1.6,1.9,3.7,5,5.7,9.2c8.9,16.1,19.7,35.7,31.7,58.2c9.9,18.6,17.4,32.8,23.1,43.8
			C284.9,316.5,295.4,336.8,307.1,359.9z"/>
		<path class="st5" d="M224.8,189.2l-7,3.8c-0.9,0.5-2,0.1-2.5-0.7l0,0c-0.5-0.9-0.1-2,0.7-2.5l7-3.8c0.9-0.5,2-0.1,2.5,0.7l0,0
			C226.1,187.6,225.7,188.7,224.8,189.2z"/>
		<path class="st5" d="M227.8,191.8l-9.3,5c-0.9,0.5-2,0.1-2.5-0.7v0c-0.5-0.9-0.1-2,0.7-2.5l9.3-5c0.9-0.5,2-0.1,2.5,0.7l0,0
			C229,190.2,228.6,191.3,227.8,191.8z"/>
		<path class="st6" d="M215.9,164.1c0.2,5,1,12.9,3.9,21.9c3.1,9.7,7.4,16.2,8.8,18.6c15.8,25.1,27.6,52.4,42.3,78.2
			c9.6,16.9,23.4,41.7,39.4,73.3l2.5-2.9c-22.7-41.5-45.4-82.9-68.1-124.4c-8-15-13.6-26.2-17-33.2c-1.5-3.1-3.3-6.8-5.3-11.8
			C219.2,175.8,217.2,168.9,215.9,164.1z"/>
		<polygon class="st1" points="174.5,144 167.3,139.2 175.6,132.1 		"/>
		<polygon class="st1" points="209.1,123.6 204.7,129.4 200.6,117.3 		"/>
		<polygon class="st4" points="161.2,117.5 170.6,123.9 178.5,115.5 		"/>
		<polygon class="st1" points="186,99.3 182.6,111.7 189.4,113.2 		"/>
	</g>
</g>
</svg>
