<?xml version="1.0" encoding="utf-8"?>
<!-- Generator: Adobe Illustrator 22.1.0, SVG Export Plug-In . SVG Version: 6.00 Build 0)  -->
<svg version="1.1" id="Слой_1" xmlns="http://www.w3.org/2000/svg" xmlns:xlink="http://www.w3.org/1999/xlink" x="0px" y="0px"
	 viewBox="0 0 480 480" style="enable-background:new 0 0 480 480;" xml:space="preserve">
<style type="text/css">
	.st0{fill:#3C406B;stroke:#000000;stroke-width:1.0006;stroke-linecap:round;stroke-linejoin:round;stroke-miterlimit:10;}
	.st1{fill:#8087B3;stroke:#000000;stroke-width:1.0006;stroke-linecap:round;stroke-linejoin:round;stroke-miterlimit:10;}
	.st2{opacity:0.2;}
</style>
<title>Body_4_(Shekhtman) 4</title>
<g id="loot">
	<g id="_x31_0_x5F_pants">
		<path class="st0" d="M155.7,147.6c-5.3,34.3-8.6,70.8-8.9,109.2c0,4.5,0,9,0,13.5l-3.1,36.2l28.3,4.7l29.4,2.2
			c3.8-7.7,7.8-18,9.8-30.6c0.8-4.9,1.2-9.5,1.3-13.7c2.1-7.6,4.6-15.7,7.7-24.2c3.2-8.7,6.5-16.6,9.9-23.9c1.9,0,3.9,0,5.8,0
			c4.9,9.1,9.9,19,14.7,29.6c4.3,9.4,8,18.4,11.3,27.1c0.3,4.4,0.8,9.3,1.7,14.4c1.9,10.7,4.9,19.7,7.9,27h44.2l15.1-5.3
			c-0.3-8.6-0.7-21.2-1.2-36.4c-0.4-16.4-0.7-31.2-0.8-36.6c-0.2-16,0.2-44.2,4.3-88.5c-27-5.3-59.7-9.5-96.9-9.9
			C206.1,142,179,144.3,155.7,147.6z"/>
		<path class="st1" d="M141.3,300.3c8.8,1.5,18,2.9,27.5,4.1c12.3,1.5,24,2.6,35.2,3.3c-1.9,5.2-3.8,10.4-5.7,15.6
			c-9.8-0.2-20.7-1-32.5-2.8c-8.8-1.3-17-3-24.5-4.8c-0.3-2.8-0.5-5.9-0.4-9.4C141,304.2,141.1,302.2,141.3,300.3z"/>
		<path class="st1" d="M268.2,315.7c12.3-0.6,25.1-1.5,38.3-2.7c8.9-0.9,17.6-1.8,26-2.9c0.2,3.6,0.5,7.1,0.7,10.7
			c-4.9,1.6-10.2,3.1-15.9,4.4c-16.5,3.7-31.4,4.3-43.6,3.7C271.9,324.4,270,320.1,268.2,315.7z"/>
		<path class="st2" d="M294.5,146.1c4.3,27.3,7.9,54.7,11.2,84.5c3.6,33.2,6.2,65.1,7.9,95.5l14.7-3.9c0.7-27.9-0.4-60.7-4.7-96.3
			c-3.5-28.7-8.5-54.7-14-77.5C304.4,147.3,299.6,147.3,294.5,146.1z"/>
		<path class="st2" d="M230.1,220.9l-17.8-16.7c-1.2,9.7-2.4,19.4-3.6,29.1c-2.4,13.2-5.2,27-8.5,41.2c-4,17-8.3,33.1-12.8,48.3
			c3.1,0.1,6.2,0.3,9.3,0.4c3.5-8,6.9-17.4,9.8-28.1c2.2-8.2,3.7-15.9,4.7-22.9C217.4,255.2,223.8,238.1,230.1,220.9z"/>
	</g>
</g>
</svg>
