<?xml version="1.0" encoding="utf-8"?>
<!-- Generator: Adobe Illustrator 22.1.0, SVG Export Plug-In . SVG Version: 6.00 Build 0)  -->
<svg version="1.1" id="Слой_1" xmlns="http://www.w3.org/2000/svg" xmlns:xlink="http://www.w3.org/1999/xlink" x="0px" y="0px"
	 viewBox="0 0 480 480" style="enable-background:new 0 0 480 480;" xml:space="preserve">
<style type="text/css">
	.st0{fill:#C60C1E;}
	.st1{clip-path:url(#SVGID_2_);}
	.st2{opacity:0.5;}
	.st3{opacity:0.8;}
	.st4{fill:#CEA817;}
	.st5{fill:#630712;}
	.st6{fill:#F9AC23;}
	.st7{fill:none;stroke:#000000;stroke-width:0.9921;stroke-linecap:round;stroke-linejoin:round;stroke-miterlimit:10;}
	.st8{clip-path:url(#SVGID_4_);}
	.st9{opacity:0.8;fill:#F9AC23;}
	.st10{clip-path:url(#SVGID_6_);}
	.st11{opacity:0.8;fill:#500D15;}
	.st12{opacity:0.8;clip-path:url(#SVGID_6_);}
	.st13{opacity:0.8;fill:#F7C937;}
	.st14{opacity:0.7;fill:#F9AC23;}
	.st15{fill:none;stroke:#000000;stroke-miterlimit:10;}
	.st16{fill:#752F00;stroke:#000000;stroke-width:1.0006;stroke-linecap:round;stroke-linejoin:round;stroke-miterlimit:10;}
	.st17{fill:#963D00;stroke:#000000;stroke-width:1.0006;stroke-linecap:round;stroke-linejoin:round;stroke-miterlimit:10;}
	.st18{fill:none;stroke:#000000;stroke-width:1.001;stroke-linecap:round;stroke-linejoin:round;}
	.st19{fill:none;stroke:#000000;stroke-width:1.001;stroke-linecap:round;stroke-linejoin:round;stroke-dasharray:0.9954,1.9907;}
	
		.st20{fill:none;stroke:#000000;stroke-width:1.001;stroke-linecap:round;stroke-linejoin:round;stroke-dasharray:0.9954,1.9907,0.9954,1.9907;}
	
		.st21{fill:none;stroke:#000000;stroke-width:1.001;stroke-linecap:round;stroke-linejoin:round;stroke-miterlimit:10;stroke-dasharray:1,2,1,2;}
</style>
<g id="_x31_1_x5F_pants_1_">
	<g>
		<g>
			<path id="SVGID_12_" class="st0" d="M336.4,181.1c-18.4-4.6-38.5-3.6-55.4-4.6c-29-1.7,23.8,117.5,23.8,117.5l34.4,6.5l11.4-4.8
				C350.6,295.6,347,231,336.4,181.1z"/>
		</g>
		<g>
			<defs>
				<path id="SVGID_1_" d="M336.4,181.1c-18.4-4.6-38.5-3.6-55.4-4.6c-29-1.7,23.8,117.5,23.8,117.5l34.4,6.5l11.4-4.8
					C350.6,295.6,347,231,336.4,181.1z"/>
			</defs>
			<clipPath id="SVGID_2_">
				<use xlink:href="#SVGID_1_"  style="overflow:visible;"/>
			</clipPath>
			<g class="st1">
				<g class="st2">
					<path d="M346.3,314.4l-6.2,0.8l-20.3-163.9l6.2-0.8L346.3,314.4z M358.2,146.5l-6.2,0.8l20.3,163.9l6.2-0.8L358.2,146.5z
						 M358,312.9l2.6-0.3l-20.3-163.9l-2.6,0.3L358,312.9z M336.9,149.2l-7.6,0.9L349.6,314l7.6-0.9L336.9,149.2z M348.7,147.7
						l-7.6,0.9l20.3,163.9l7.6-0.9L348.7,147.7z"/>
				</g>
				<g class="st3">
					<path class="st4" d="M384,176.8l0.4,3.3l-235.2,29.1l-0.4-3.3L384,176.8z M151.7,228.6l0.4,3.3l235.2-29.1l-0.4-3.3
						L151.7,228.6z M150.2,216.8l0.1,0.8l235.2-29.1l-0.1-0.8L150.2,216.8z M150.6,220.2l0.1,0.8l235.2-29.1l-0.1-0.8L150.6,220.2z"
						/>
					<path class="st5" d="M148.9,205.9l-0.8-6.2l235.2-29.1l0.8,6.2L148.9,205.9z M388,208.9l-0.8-6.2L152,231.8l0.8,6.2L388,208.9z
						 M150.3,217.6l0.3,2.6l235.2-29.1l-0.3-2.6L150.3,217.6z M385.4,187.7l-0.9-7.6l-235.2,29.1l0.9,7.6L385.4,187.7z M386.8,199.5
						l-0.9-7.6L150.7,221l0.9,7.6L386.8,199.5z"/>
				</g>
				<g class="st3">
					<path class="st6" d="M162,309.8l0.3,2.8l232.8-44.4l-0.3-2.8L162,309.8z"/>
					<path class="st5" d="M394.3,259.7l-0.9-7.6l-235.2,29.1l0.9,7.6L394.3,259.7z"/>
				</g>
			</g>
		</g>
		<g>
			<path id="SVGID_11_" class="st7" d="M336.4,181.1c-18.4-4.6-38.5-3.6-55.4-4.6c-29-1.7,23.8,117.5,23.8,117.5l34.4,6.5l11.4-4.8
				C350.6,295.6,347,231,336.4,181.1z"/>
		</g>
	</g>
	<g>
		<g>
			<path id="SVGID_10_" class="st0" d="M336.4,181.1c-27.2-7.7-54.4-12.2-79.4-14.3c-42.9-3.6,26.3,139.1,26.3,139.1l9.6,6.1
				l12.6-5.8l5.4,5.4l11.1-7.5l5.1,3.7l14.8-6.1C342,301.8,347.5,233.4,336.4,181.1z"/>
		</g>
		<g>
			<defs>
				<path id="SVGID_3_" d="M336.4,181.1c-27.2-7.7-54.4-12.2-79.4-14.3c-42.9-3.6,26.3,139.1,26.3,139.1l9.6,6.1l12.6-5.8l5.4,5.4
					l11.1-7.5l5.1,3.7l14.8-6.1C342,301.8,347.5,233.4,336.4,181.1z"/>
			</defs>
			<clipPath id="SVGID_4_">
				<use xlink:href="#SVGID_3_"  style="overflow:visible;"/>
			</clipPath>
			<g class="st8">
				<path class="st2" d="M335,180.7l-9.7-28.6l7.1,165.1l5.7-14L335,180.7z M340.3,151.9l-2.9,14.8l3.4,135.4l6.5,14.9L340.3,151.9z
					"/>
				<path class="st2" d="M340,202.9l-1.8-13.1l-42,4.3l0.7,13.8L340,202.9z"/>
				<path class="st2" d="M342.6,216.2l-1.7-10.6l-45,5.4l-0.2,11.2L342.6,216.2z"/>
				<path class="st2" d="M293,281.4V268l50.4-7l-0.2,14.1L293,281.4z"/>
				<path class="st2" d="M292.2,295.6v-11.4l50.9-6.1l-0.5,11.5L292.2,295.6z"/>
				<path class="st3" d="M234.5,251.9l0.2,2.8l147.4-17.6l-0.2-2.8L234.5,251.9z M234.6,183.1l0.3,2.8L382,166l-0.3-2.8L234.6,183.1
					z"/>
				<path class="st9" d="M234.5,215.3l0.2,2.8l147.4-17.3l-0.2-2.8L234.5,215.3z"/>
				<path class="st9" d="M234.5,288.2l0.2,2.8l147.4-17.6l-0.2-2.8L234.5,288.2z"/>
				<path class="st9" d="M338.5,317h2.8l-4.2-165.1h-2.8L338.5,317z"/>
			</g>
		</g>
		<g>
			<path id="SVGID_9_" class="st7" d="M336.4,181.1c-27.2-7.7-54.4-12.2-79.4-14.3c-42.9-3.6,26.3,139.1,26.3,139.1l9.6,6.1
				l12.6-5.8l5.4,5.4l11.1-7.5l5.1,3.7l14.8-6.1C342,301.8,347.5,233.4,336.4,181.1z"/>
		</g>
	</g>
	<path d="M293,312.1l-9.6-6.1c0,0,10.2-115.4,13-109.5C299.2,202.4,293,312.1,293,312.1z M322.8,207.8c-0.9-28.3-0.6,96.4-0.6,96.4
		l5.1,3.7C327.2,307.9,323.2,222,322.8,207.8z M310.3,202.3c-0.1-31.1-4.7,104-4.7,104l5.4,5.4C311,311.7,310.3,208.7,310.3,202.3z"
		/>
	<g>
		<g>
			<path id="SVGID_8_" class="st0" d="M301.8,172.9c-61.2-11.6-117.6-8.5-144-0.4c-0.9,6.5-2.1,25-2.1,25s-13.1,59.1-26.3,99.4
				c0,0,33,11.3,65.3,13.9c38.5,3.1,90.7,4,90.7,4s8.3-44.7,10.5-114.3C296,194.2,301.1,179.5,301.8,172.9z"/>
		</g>
		<g>
			<defs>
				<path id="SVGID_5_" d="M301.8,172.9c-61.2-11.6-117.6-8.5-144-0.4c-0.9,6.5-2.1,25-2.1,25s-13.1,59.1-26.3,99.4
					c0,0,33,11.3,65.3,13.9c38.5,3.1,90.7,4,90.7,4s8.3-44.7,10.5-114.3C296,194.2,301.1,179.5,301.8,172.9z"/>
			</defs>
			<clipPath id="SVGID_6_">
				<use xlink:href="#SVGID_5_"  style="overflow:visible;"/>
			</clipPath>
			<g class="st10">
				<polygon class="st2" points="248.9,149.5 235.9,155.7 220.2,329.5 234.4,324.9 				"/>
				<polygon class="st2" points="264,149.9 251.1,155.9 236.7,330.2 251.1,324.6 				"/>
				<path class="st11" d="M302.8,328.3l-6.2-0.6l14.7-164.5l6.2,0.6L302.8,328.3z M349.8,166.7l-6.2-0.6l-14.7,164.5l6.2,0.6
					L349.8,166.7z M314.5,329.3l2.6,0.2L331.8,165l-2.6-0.2L314.5,329.3z M328.5,164.8l-7.6-0.7l-14.7,164.5l7.6,0.7L328.5,164.8z
					 M340.3,165.8l-7.6-0.7L318,329.6l7.6,0.7L340.3,165.8z"/>
				<path class="st2" d="M293.2,281.5v-13.4l-151.8-12l-3.1,11.5L293.2,281.5z"/>
				<path class="st2" d="M290.6,295.8l1.3-11.6l-154.5-13.8l-4,13L290.6,295.8z"/>
				<path class="st2" d="M296.2,208.3l70.4-8.6L117.9,180l38.4,15.8L296.2,208.3z"/>
				<path class="st2" d="M371.8,228.4l-76-17.3l-140.3-12.5l-32.3,10.2L371.8,228.4z"/>
				<path class="st2" d="M191,150.6c0,0-12.1-2.1-12.7,4.8c-0.8,9.8-24.3,160.2-30.8,163.6c-6.2,3.2,16.8,5.8,16.8,5.8L191,150.6z"
					/>
				<path class="st2" d="M205.6,151c0.4-6.9-11.9,0.1-11.9,0.1L167.5,319c0,0,9.8,12.4,11.7,5.8C181.1,318.1,204.7,169,205.6,151z"
					/>
			</g>
			<path class="st12" d="M113.3,297l0,2.8l207.4,15.8l0-2.8L113.3,297z"/>
			<path class="st12" d="M113.3,231l0,2.8l207.4,15.8l0-2.8L113.3,231z"/>
			<path class="st12" d="M113.3,160.3l0,2.8l207.5,15.3l0-2.8L113.3,160.3z"/>
			<path class="st12" d="M199.9,336.6l2.8,0.1l21.9-206.9l-2.8-0.1L199.9,336.6z"/>
			<path class="st12" d="M265.7,340.7l2.8,0l17.6-207.3l-2.8,0L265.7,340.7z"/>
			<g class="st10">
				<path class="st13" d="M317.6,163.8l3.3,0.3l-14.7,164.5l-3.3-0.3L317.6,163.8z M325.6,330.3l3.3,0.3l14.7-164.5l-3.3-0.3
					L325.6,330.3z M313.7,329.3l0.8,0.1l14.7-164.5l-0.8-0.1L313.7,329.3z M317.1,329.6l0.8,0.1l14.7-164.5l-0.8-0.1L317.1,329.6z"
					/>
				<path class="st14" d="M131.7,193.6l-0.1,2.8l236,21.1l0.1-2.8L131.7,193.6z"/>
				<line class="st9" x1="367.7" y1="214.7" x2="131.7" y2="193.6"/>
				<path class="st14" d="M104.3,264.6l-0.1,2.8l236,21.1l0.1-2.8L104.3,264.6z"/>
				<path class="st9" d="M162.8,334.5l2.8,0.2l31.4-205.6l-2.8-0.2L162.8,334.5z"/>
				<path class="st14" d="M233.4,336.2l2.8,0l17.2-207.3l-2.8,0L233.4,336.2z"/>
			</g>
		</g>
		<g>
			<path id="SVGID_7_" class="st7" d="M301.8,172.9c-61.2-11.6-117.6-8.5-144-0.4c-0.9,6.5-2.1,25-2.1,25s-13.1,59.1-26.3,99.4
				c0,0,33,11.3,65.3,13.9c38.5,3.1,90.7,4,90.7,4s8.3-44.7,10.5-114.3C296,194.2,301.1,179.5,301.8,172.9z"/>
		</g>
	</g>
	<g>
		<g>
			<circle class="st15" cx="175.6" cy="202.2" r="3.2"/>
			<circle class="st15" cx="171.1" cy="199.1" r="3.2"/>
			<circle class="st15" cx="166.6" cy="196" r="3.2"/>
			<circle class="st15" cx="162.2" cy="192.9" r="3.2"/>
			<circle class="st15" cx="157.7" cy="189.8" r="3.2"/>
		</g>
		<g>
			<circle class="st15" cx="220.2" cy="202.5" r="3.2"/>
			<circle class="st15" cx="225.4" cy="201.2" r="3.2"/>
			<circle class="st15" cx="230.7" cy="199.9" r="3.2"/>
			<circle class="st15" cx="236" cy="198.6" r="3.2"/>
			<circle class="st15" cx="241.2" cy="197.3" r="3.2"/>
			<circle class="st15" cx="246.5" cy="195.9" r="3.2"/>
			<circle class="st15" cx="251.7" cy="194.6" r="3.2"/>
			<circle class="st15" cx="257" cy="193.3" r="3.2"/>
			<circle class="st15" cx="262.2" cy="192" r="3.2"/>
			<circle class="st15" cx="267.5" cy="190.7" r="3.2"/>
			<circle class="st15" cx="272.7" cy="189.4" r="3.2"/>
			<circle class="st15" cx="278" cy="188.1" r="3.2"/>
			<circle class="st15" cx="283.3" cy="186.7" r="3.2"/>
			<circle class="st15" cx="288.5" cy="185.4" r="3.2"/>
			<circle class="st15" cx="293.8" cy="184.1" r="3.2"/>
			<circle class="st15" cx="299" cy="182.8" r="3.2"/>
			<circle class="st15" cx="304.3" cy="181.5" r="3.2"/>
			<circle class="st15" cx="309.5" cy="180.2" r="3.2"/>
			<circle class="st15" cx="314.8" cy="178.9" r="3.2"/>
		</g>
		<g>
			<path class="st16" d="M218.4,201.1l-33.5,0.5c-9,6.1-18.3,14.9-20.8,28.8c-1.6,14.4,4.8,24.2,28.1,27.2
				c23.3,3,35.8-8.8,36.1-25.8C228.6,220.9,226.1,208.6,218.4,201.1z"/>
			<path class="st17" d="M180.1,199.8c-7.1,6.4-16.3,15.8-18.5,28c-1.6,14.4,4.8,24.2,28.1,27.2c23.3,3,35.8-8.8,36.1-25.8
				c0.2-9.7-1.7-20.6-7.6-28.1L180.1,199.8z"/>
			<g>
				<g>
					<path class="st18" d="M172,209.6c-0.1,0.1-0.2,0.3-0.3,0.4"/>
					<path class="st19" d="M170.6,211.6c-0.4,0.5-0.7,1.1-1.1,1.7"/>
					<path class="st20" d="M169,214.1c-2,3.5-3.7,7.4-4.4,11.6c-1.5,13.3,4.2,22.4,24.6,25.1c20.4,2.7,31.4-8.2,31.7-23.9
						c0.2-8.5-1.3-17.9-5.8-24.8"/>
					<path class="st18" d="M214.6,201.4c-0.1-0.1-0.2-0.3-0.3-0.4"/>
				</g>
			</g>
			<path class="st17" d="M180.1,199.8c-4,0.5-14.1,6.6-12.7,11.8c0.5,1.8,4.7,3.2,6.8,5.4c1.5,1.5,1,3.5,6.3,4.2
				c3.6,0.5,7.6-1.6,11.4-2.2c6.8-1.2,11.4-1.4,14.1-2.6c11.2-4.8,8.3-15.3,12.4-15.3C218.4,201.1,186.5,198.9,180.1,199.8z"/>
			<ellipse transform="matrix(0.9188 -0.3947 0.3947 0.9188 -69.1685 89.2713)" cx="182.4" cy="212.8" rx="3.3" ry="2.5"/>
			<path class="st21" d="M168.8,209.4c0.4,1.5,4.3,2.6,6.2,4.4c1.3,1.2,0.9,2.9,5.7,3.5c3.2,0.4,6.9-1.3,10.3-1.8
				c6.1-1,10.3-1.1,12.7-2.1c10.1-3.9,7.5-12.5,11.2-12.5"/>
		</g>
	</g>
</g>
</svg>
