<?xml version="1.0" encoding="utf-8"?>
<!-- Generator: Adobe Illustrator 22.1.0, SVG Export Plug-In . SVG Version: 6.00 Build 0)  -->
<svg version="1.1" id="Слой_1" xmlns="http://www.w3.org/2000/svg" xmlns:xlink="http://www.w3.org/1999/xlink" x="0px" y="0px"
	 viewBox="0 0 480 480" style="enable-background:new 0 0 480 480;" xml:space="preserve">
<style type="text/css">
	.st0{fill:#383834;stroke:#000000;stroke-width:0.9921;stroke-linecap:round;stroke-linejoin:round;stroke-miterlimit:10;}
	.st1{opacity:0.2;}
</style>
<title>Body_4_(Shekhtman) 4</title>
<g id="loot">
	<g id="_5_pants">
		<g id="_x38__x5F_pants">
			<path class="st0" d="M269.5,287.6c-1.1,14.5,4.5,27.4,9.4,40.4c10.7,7.2,49.8,2.2,52.7-3.8c-1.6-12-2.1-26.5-1-33.2
				c1.8-11.4-0.1-19.8-0.1-31.7c0-52.3,0.9-51.7,1.4-86.2c0.1-6.5,0.1-12.8,0.1-18.8c-0.1,0.5-0.1,0.9-0.2,1.1
				c-73.1-20.6-145.9-18-176.9-8.5c-0.4,8.7-0.1,14.1-0.1,14.1v0c-1,34.4-10.5,99-5.8,107.2c3.6,6.3-0.5,27.4-3.6,45.9
				c2.8,5.9,44.8,12.5,47.9,8.7c7.6-14.7,17.2-31.1,15.7-44.5c-1.9-17.2,14.1-40.6,18.9-62.1c0,0,0,0,0.1,0v0
				c3.8,1.2,5,1.8,11.2,2.2c2.6,2.9,6.4,11.2,10,16.8C258.7,250.6,270.4,276.1,269.5,287.6z"/>
			<path class="st1" d="M179.6,350.9"/>
			<path class="st1" d="M171.9,350.8"/>
			<path class="st1" d="M193.1,322.9c7-17,17.6-27.3,15.7-44.5c-1.9-17.2,14.1-40.6,18.9-62.1c-7.3-2.5-13.8-7.5-20-13.8
				c0,0-12.6,63.9-12.4,68.4c0.2,4.4,1.8,8,0.9,19.8c-0.9,11.8-10.1,30.6-11.5,33.3"/>
		</g>
	</g>
</g>
</svg>
