<?xml version="1.0" encoding="utf-8"?>
<!-- Generator: Adobe Illustrator 22.1.0, SVG Export Plug-In . SVG Version: 6.00 Build 0)  -->
<svg version="1.1" id="Слой_1" xmlns="http://www.w3.org/2000/svg" xmlns:xlink="http://www.w3.org/1999/xlink" x="0px" y="0px"
	 viewBox="0 0 480 480" style="enable-background:new 0 0 480 480;" xml:space="preserve">
<style type="text/css">
	.st0{fill:#590368;}
	.st1{opacity:0.2;clip-path:url(#SVGID_2_);enable-background:new    ;}
	.st2{opacity:0.2;clip-path:url(#SVGID_4_);enable-background:new    ;}
	.st3{opacity:0.2;clip-path:url(#SVGID_6_);enable-background:new    ;}
	.st4{opacity:0.2;clip-path:url(#SVGID_8_);enable-background:new    ;}
	.st5{fill:none;stroke:#000000;stroke-width:0.9921;stroke-linecap:round;stroke-linejoin:round;stroke-miterlimit:10;}
	.st6{fill:#FCC515;}
	.st7{opacity:0.3;enable-background:new    ;}
	
		.st8{clip-path:url(#SVGID_10_);fill:#FCC515;stroke:#000000;stroke-width:0.9921;stroke-linecap:round;stroke-linejoin:round;stroke-miterlimit:10;}
	
		.st9{clip-path:url(#SVGID_12_);stroke:#000000;stroke-width:0.9921;stroke-linecap:round;stroke-linejoin:round;stroke-miterlimit:10;}
	.st10{fill:#810593;}
	
		.st11{clip-path:url(#SVGID_14_);fill:#C84DE2;stroke:#000000;stroke-width:0.9921;stroke-linecap:round;stroke-linejoin:round;stroke-miterlimit:10;}
	
		.st12{clip-path:url(#SVGID_16_);fill:#783087;stroke:#000000;stroke-width:0.9921;stroke-linecap:round;stroke-linejoin:round;stroke-miterlimit:10;}
	.st13{clip-path:url(#SVGID_18_);fill:#FFFFFF;}
	
		.st14{clip-path:url(#SVGID_20_);fill:none;stroke:#000000;stroke-width:0.9921;stroke-linecap:round;stroke-linejoin:round;stroke-miterlimit:10;}
</style>
<g>
	<g>
		<g>
			<path id="XMLID_366_" class="st0" d="M352.7,275.5c-110.5-22.8-182-19.3-224.7-11.4c-4.4,0.7,0.2-17.9,2.8-36.6
				s212.3-14.8,218.7,7.1C351.9,245.2,355.6,268.4,352.7,275.5z"/>
		</g>
		<g>
			<g>
				<g>
					<g>
						<g>
							<g>
								<defs>
									<path id="SVGID_1_" d="M352.7,275.5c-110.5-22.8-182-19.3-224.7-11.4c-4.4,0.7,0.2-17.9,2.8-36.6s212.3-14.8,218.7,7.1
										C351.9,245.2,355.6,268.4,352.7,275.5z"/>
								</defs>
								<clipPath id="SVGID_2_">
									<use xlink:href="#SVGID_1_"  style="overflow:visible;"/>
								</clipPath>
								<path class="st1" d="M159.5,267.7l-39.1,5.8l6.1-64.2l31.9,4.5C154.3,228.5,153.2,248.1,159.5,267.7z"/>
							</g>
						</g>
					</g>
				</g>
			</g>
		</g>
		<g>
			<g>
				<g>
					<g>
						<g>
							<g>
								<defs>
									<path id="SVGID_3_" d="M352.7,275.5c-110.5-22.8-182-19.3-224.7-11.4c-4.4,0.7,0.2-17.9,2.8-36.6s212.3-14.8,218.7,7.1
										C351.9,245.2,355.6,268.4,352.7,275.5z"/>
								</defs>
								<clipPath id="SVGID_4_">
									<use xlink:href="#SVGID_3_"  style="overflow:visible;"/>
								</clipPath>
								<path class="st2" d="M266.7,270.1l79.2,9.5v-68.9l-73,2C276.2,224.1,276.6,261.1,266.7,270.1z"/>
							</g>
						</g>
					</g>
				</g>
			</g>
		</g>
		<g>
			<g>
				<g>
					<g>
						<g>
							<g>
								<defs>
									<path id="SVGID_5_" d="M352.7,275.5c-110.5-22.8-182-19.3-224.7-11.4c-4.4,0.7,0.2-17.9,2.8-36.6s212.3-14.8,218.7,7.1
										C351.9,245.2,355.6,268.4,352.7,275.5z"/>
								</defs>
								<clipPath id="SVGID_6_">
									<use xlink:href="#SVGID_5_"  style="overflow:visible;"/>
								</clipPath>
								<path class="st3" d="M146.1,270.5l-26.2,1.9c-3.7-8.5,0-50.4,5.3-64.8l23.7,4.3c-2.3,3.5-4,14.8-4.6,25.7
									C143.6,248.5,144.7,268,146.1,270.5z"/>
							</g>
						</g>
					</g>
				</g>
			</g>
		</g>
		<g>
			<g>
				<g>
					<g>
						<g>
							<g>
								<defs>
									<path id="SVGID_7_" d="M352.7,275.5c-110.5-22.8-182-19.3-224.7-11.4c-4.4,0.7,0.2-17.9,2.8-36.6s212.3-14.8,218.7,7.1
										C351.9,245.2,355.6,268.4,352.7,275.5z"/>
								</defs>
								<clipPath id="SVGID_8_">
									<use xlink:href="#SVGID_7_"  style="overflow:visible;"/>
								</clipPath>
								<path class="st4" d="M286.2,273.5l52.1,3.2c6.6-8.7,2.6-50.5-5.6-64.7l-40.2,2.6C296.3,217.9,296.4,267.9,286.2,273.5z"/>
							</g>
						</g>
					</g>
				</g>
			</g>
		</g>
		<g>
			<path id="XMLID_1_" class="st5" d="M352.7,275.5c-110.5-22.8-182-19.3-224.7-11.4c-4.4,0.7,0.2-17.9,2.8-36.6
				s212.3-14.8,218.7,7.1C351.9,245.2,355.6,268.4,352.7,275.5z"/>
		</g>
	</g>
	<g>
		<g>
			<circle id="XMLID_364_" class="st6" cx="209.1" cy="237.6" r="33"/>
		</g>
		<g class="st7">
			<path id="XMLID_4_" d="M209.1,204.6c18.2,0,33,14.8,33,33s-17.1,39-45.3,30.6L209.1,204.6z"/>
		</g>
		<g>
			<g>
				<g>
					<g>
						<g>
							<g>
								<defs>
									<circle id="SVGID_9_" cx="209.1" cy="237.6" r="33"/>
								</defs>
								<clipPath id="SVGID_10_">
									<use xlink:href="#SVGID_9_"  style="overflow:visible;"/>
								</clipPath>
								<circle class="st8" cx="208.2" cy="236.8" r="28.2"/>
							</g>
						</g>
					</g>
				</g>
			</g>
		</g>
		<g>
			<g>
				<g>
					<g>
						<g>
							<g>
								<defs>
									<circle id="SVGID_11_" cx="209.1" cy="237.6" r="33"/>
								</defs>
								<clipPath id="SVGID_12_">
									<use xlink:href="#SVGID_11_"  style="overflow:visible;"/>
								</clipPath>
								<circle class="st9" cx="208" cy="236.4" r="24"/>
							</g>
						</g>
					</g>
				</g>
			</g>
		</g>
		<g>
			<circle id="XMLID_2_" class="st5" cx="209.1" cy="237.6" r="33"/>
		</g>
	</g>
	<g>
		<g>
			<circle id="XMLID_365_" class="st10" cx="207.4" cy="235.6" r="22.8"/>
		</g>
		<g>
			<g>
				<g>
					<g>
						<g>
							<g>
								<defs>
									<circle id="SVGID_13_" cx="207.4" cy="235.6" r="22.8"/>
								</defs>
								<clipPath id="SVGID_14_">
									<use xlink:href="#SVGID_13_"  style="overflow:visible;"/>
								</clipPath>
								<path class="st11" d="M216.3,260c0,0-0.9-11.9-2.4-13.3c-1.5-1.4-13-2.6-13-2.6s-5.7-0.7-4.4-7.1c1.3-6.4,12.5-2,15.6-3.3
									s2.1-6.9,5.1-10.6s28.1,2.2,28.1,2.2 M202.7,209.5c-0.3,0.8,2.5,11.8,1.5,15.9c-1,4.1,0.9,7.1,5.4-0.5
									c4.5-7.5,4.7-15.4,4.7-15.4"/>
							</g>
						</g>
					</g>
				</g>
			</g>
		</g>
		<g>
			<g>
				<g>
					<g>
						<g>
							<g>
								<defs>
									<circle id="SVGID_15_" cx="207.4" cy="235.6" r="22.8"/>
								</defs>
								<clipPath id="SVGID_16_">
									<use xlink:href="#SVGID_15_"  style="overflow:visible;"/>
								</clipPath>
								<path class="st12" d="M224.8,252.9c-0.5-0.3-1-7.8-4.8-9.1s-7,0.2-7.3-2.9c-0.2-3.1,9-1.7,10.1-8.5
									c1.2-6.8,10.3,1.4,10.3,1.4"/>
							</g>
						</g>
					</g>
				</g>
			</g>
		</g>
		<g>
			<g>
				<g>
					<g>
						<g>
							<g>
								<defs>
									<circle id="SVGID_17_" cx="207.4" cy="235.6" r="22.8"/>
								</defs>
								<clipPath id="SVGID_18_">
									<use xlink:href="#SVGID_17_"  style="overflow:visible;"/>
								</clipPath>
								<path class="st13" d="M202,235c0,9,3,16.6-1,16.6s-10.5-7.3-10.5-16.3S197,219,201,219S202,226,202,235z"/>
							</g>
						</g>
					</g>
				</g>
			</g>
		</g>
		<g>
			<g>
				<g>
					<g>
						<g>
							<g>
								<defs>
									<circle id="SVGID_19_" cx="207.4" cy="235.6" r="22.8"/>
								</defs>
								<clipPath id="SVGID_20_">
									<use xlink:href="#SVGID_19_"  style="overflow:visible;"/>
								</clipPath>
								<path class="st14" d="M178,240.8c0,0,22.4,3.5,20.3-4.7c-2.1-8.2-1.7-24.4-1.7-24.4"/>
							</g>
						</g>
					</g>
				</g>
			</g>
		</g>
		<g>
			<circle id="XMLID_3_" class="st5" cx="207.4" cy="235.6" r="22.8"/>
		</g>
	</g>
</g>
</svg>
