<?xml version="1.0" encoding="utf-8"?>
<!-- Generator: Adobe Illustrator 22.1.0, SVG Export Plug-In . SVG Version: 6.00 Build 0)  -->
<svg version="1.1" id="Слой_1" xmlns="http://www.w3.org/2000/svg" xmlns:xlink="http://www.w3.org/1999/xlink" x="0px" y="0px"
	 viewBox="0 0 480 480" style="enable-background:new 0 0 480 480;" xml:space="preserve">
<style type="text/css">
	.st0{clip-path:url(#SVGID_2_);fill:#E4D767;}
	.st1{clip-path:url(#SVGID_2_);fill:none;stroke:#D7A828;stroke-width:7;stroke-linejoin:round;stroke-miterlimit:10;}
	
		.st2{clip-path:url(#SVGID_2_);fill:none;stroke:#D7A828;stroke-width:3;stroke-linecap:round;stroke-linejoin:round;stroke-miterlimit:10;}
	.st3{fill:none;stroke:#000000;stroke-width:0.9921;stroke-linecap:round;stroke-linejoin:round;stroke-miterlimit:10;}
	.st4{fill:#D7AA31;stroke:#000000;stroke-width:1.0006;stroke-linecap:round;stroke-linejoin:round;stroke-miterlimit:10;}
	.st5{opacity:0.2;}
	.st6{fill:#8630EE;stroke:#000000;stroke-width:0.9921;stroke-linecap:round;stroke-linejoin:round;stroke-miterlimit:10;}
	.st7{fill:#6718BB;}
	.st8{fill:none;stroke:#FFFFFF;stroke-width:2.8346;stroke-linecap:round;stroke-linejoin:round;stroke-miterlimit:10;}
	.st9{display:none;}
	.st10{display:inline;fill:#C32222;stroke:#090909;stroke-miterlimit:10;}
	.st11{display:inline;fill:#CF2222;}
	.st12{display:inline;fill:#991515;}
	.st13{display:inline;fill:#D63D3D;}
	.st14{display:inline;}
	.st15{fill:#F5DCDC;}
</style>
<title>Body_4_(Shekhtman) 6</title>
<g id="loot">
	<g>
		<defs>
			<path id="SVGID_1_" d="M382,292.3c-93.1-29.9-189.4-30.8-279.7-26.9c-4.7-5.5,2.7-49.9,3.5-53c0.8-3.1,2.7-6.4,7.5-8.7
				c41.7-20.4,267,2.2,265.3,17.6c-2,18.1,3.3,21.5,4.8,39.6C383.8,266.4,385.7,280.4,382,292.3z"/>
		</defs>
		<clipPath id="SVGID_2_">
			<use xlink:href="#SVGID_1_"  style="overflow:visible;"/>
		</clipPath>
		<path class="st0" d="M382.3,293.2c-95.2-30-192.5-29.7-284.8-25.9c-4.8-5.5-3.2-51.8-2.5-54.9c0.8-3.1,2.7-6.4,7.7-8.7
			c42.6-20.4,277.4,0.4,275.7,15.8c-2,18.1,3.4,21.5,4.9,39.6C383.8,264.4,386,281.2,382.3,293.2z"/>
		<path class="st1" d="M93.6,234.8c62.8-14.6,194.1-5.1,288.2,19.6"/>
		<path class="st2" d="M96,252.3c65.6-9.2,187.2-2.9,284.7,19.2 M377.3,231.5c-91.1-19.3-216-33.1-280.9-14.2"/>
	</g>
	<path class="st3" d="M382,292.3c-93.1-29.9-189.4-30.8-279.7-26.9c-4.7-5.5,2.7-49.9,3.5-53c0.8-3.1,2.7-6.4,7.5-8.7
		c41.7-20.4,267,2.2,265.3,17.6c-2,18.1,3.3,21.5,4.8,39.6C383.8,266.4,385.7,280.4,382,292.3z"/>
	<path class="st4" d="M203.4,267.8l-39.5-2.9c-1.6-0.1-2.8-1.5-2.7-3.1l4.9-66.6c0.1-1.6,1.5-2.8,3.1-2.7l39.5,2.9
		c1.6,0.1,2.8,1.5,2.7,3.1l-4.9,66.6C206.3,266.7,205,267.9,203.4,267.8z"/>
	<path class="st5" d="M195.2,194.4c1.4,8.6,2.3,20.1,0.9,33.4c-1.7,16.5-6.3,29.7-10.2,38.7c6.4,0.1,12.7,0.1,19.1,0.2
		c2.1-23.5,4.2-47.1,6.3-70.6C205.9,195.5,200.6,194.9,195.2,194.4z"/>
	<g>
		
			<ellipse transform="matrix(9.590608e-02 -0.9954 0.9954 9.590608e-02 -58.2001 392.0061)" class="st6" cx="186.7" cy="228" rx="25.4" ry="14.7"/>
		<path class="st7" d="M193.5,228.6c-1.9-0.2-3.6,0.9-4.4,2.5c-0.9-0.6-2-1.1-3.2-1.2c-3.8-0.4-7.2,2.4-7.5,6.2
			c-0.4,3.8,2.4,7.2,6.2,7.5c3.8,0.4,7.2-2.4,7.5-6.2c0-0.1,0-0.2,0-0.2c0.2,0,0.4,0.1,0.6,0.1c2.4,0.2,4.6-1.5,4.8-4
			C197.7,231,195.9,228.9,193.5,228.6z"/>
		<path class="st8" d="M179.3,226.8c0.4-2.1,1.2-4.7,2.5-7.6c2.1-4.6,3.1-5.6,3.9-6.7"/>
	</g>
	<g class="st9">
		<polygon class="st10" points="185.7,207.3 165.8,243.2 202.6,244.9 		"/>
		<polygon class="st11" points="185,218.4 174.6,237.2 193.8,238.1 		"/>
		<polygon class="st12" points="185.6,209.9 185,218.4 193.8,238.1 200.9,243.8 		"/>
		<polygon class="st13" points="185,218.4 185.6,209.8 167.6,242.2 174.6,237.2 		"/>
		<g class="st14">
			<path class="st15" d="M185,218.4c-1.7,3.2-3.3,6.3-5,9.5l-5.2,9.4l-0.2-0.4l9.6,0.5c3.2,0.2,6.4,0.4,9.6,0.6
				c-3.2-0.1-6.4-0.1-9.6-0.3l-9.6-0.4l-0.4,0l0.2-0.3l5.3-9.4C181.4,224.6,183.2,221.5,185,218.4z"/>
		</g>
	</g>
</g>
</svg>
