<?xml version="1.0" encoding="utf-8"?>
<!-- Generator: Adobe Illustrator 22.1.0, SVG Export Plug-In . SVG Version: 6.00 Build 0)  -->
<svg version="1.1" id="Слой_1" xmlns="http://www.w3.org/2000/svg" xmlns:xlink="http://www.w3.org/1999/xlink" x="0px" y="0px"
	 viewBox="0 0 480 480" style="enable-background:new 0 0 480 480;" xml:space="preserve">
<style type="text/css">
	.st0{fill:#614C22;stroke:#000000;stroke-width:1.0006;stroke-linecap:round;stroke-linejoin:round;stroke-miterlimit:10;}
	.st1{fill:none;stroke:#000000;stroke-width:2.126;stroke-linecap:round;stroke-linejoin:round;stroke-miterlimit:10;}
	.st2{fill:none;stroke:#000000;stroke-width:0.9921;stroke-linecap:round;stroke-linejoin:round;stroke-miterlimit:10;}
</style>
<title>Body_4_(Shekhtman) 6</title>
<g id="loot_1_">
	<path class="st0" d="M350.1,229.1c-35.5-2.2-80-5.9-116.1-6.5l-25-0.4c0,0-57.5-1.3-79.4,2.4c-0.4,0.1-0.8,0.3-1,0.8
		c-2.1,5.6-2.7,15.4-1.2,21.7c0.2,1.1,1.4,1.8,2.5,1.6c12.4-1.9,52.2-2.1,84.4-1.1c42.6,1.3,95.1,4.3,138,10.6
		C355.2,253.9,351.5,238,350.1,229.1z"/>
	<path class="st0" d="M199.4,222.1c-5.4-0.1-11-0.2-16.5-0.2c-24.2-0.4-25.5,24.8-3,25.1c5.5,0.1,11,0.2,16.5,0.2"/>
	<path class="st1" d="M234.4,248.5l-38.6-0.6c-2.1,0-3.8-1.8-3.7-3.8l0.3-18.3c0-2.1,1.8-3.8,3.8-3.7l38.6,0.6
		c2.1,0,3.8,1.8,3.7,3.8l-0.3,18.3C238.2,246.9,236.5,248.6,234.4,248.5z"/>
	<path d="M183.2,236.1h-2.4c-0.6,0-1-0.5-1-1.1v-2.4c0-0.6,0.5-1,1.1-1h2.4c0.6,0,1,0.5,1,1.1v2.4
		C184.3,235.7,183.8,236.2,183.2,236.1z M202.6,235.4V233c0-0.6-0.5-1.1-1-1.1h-2.4c-0.6,0-1.1,0.5-1.1,1v2.4c0,0.6,0.5,1.1,1,1.1
		h2.4C202.1,236.4,202.6,235.9,202.6,235.4z M216.5,235.6v-2.4c0-0.6-0.5-1.1-1-1.1H213c-0.6,0-1.1,0.5-1.1,1v2.4
		c0,0.6,0.5,1.1,1,1.1h2.4C216,236.6,216.5,236.2,216.5,235.6z M230.4,235.8v-2.4c0-0.6-0.5-1.1-1-1.1H227c-0.6,0-1.1,0.5-1.1,1v2.4
		c0,0.6,0.5,1.1,1,1.1h2.4C229.9,236.9,230.4,236.4,230.4,235.8z M250.8,236.6v-2.4c0-0.6-0.5-1.1-1-1.1h-2.4c-0.6,0-1.1,0.5-1.1,1
		v2.4c0,0.6,0.5,1.1,1,1.1h2.4C250.2,237.7,250.7,237.3,250.8,236.6z M264.2,237.4V235c0-0.6-0.5-1.1-1-1.1h-2.4
		c-0.6,0-1.1,0.5-1.1,1v2.4c0,0.6,0.5,1.1,1,1.1h2.4C263.7,238.5,264.2,238,264.2,237.4z"/>
	<line class="st2" x1="228.2" y1="234.6" x2="238.4" y2="234.7"/>
</g>
</svg>
