<?xml version="1.0" encoding="utf-8"?>
<!-- Generator: Adobe Illustrator 22.1.0, SVG Export Plug-In . SVG Version: 6.00 Build 0)  -->
<svg version="1.1" id="Слой_1" xmlns="http://www.w3.org/2000/svg" xmlns:xlink="http://www.w3.org/1999/xlink" x="0px" y="0px"
	 viewBox="0 0 480 480" style="enable-background:new 0 0 480 480;" xml:space="preserve">
<style type="text/css">
	.st0{clip-path:url(#XMLID_2_);fill:#2D2D2D;}
	.st1{clip-path:url(#XMLID_2_);}
	.st2{clip-path:url(#XMLID_3_);}
	.st3{clip-path:url(#XMLID_3_);fill:#2D2D2D;}
	.st4{clip-path:url(#XMLID_4_);}
	.st5{clip-path:url(#XMLID_4_);fill:#2D2D2D;}
	.st6{clip-path:url(#XMLID_5_);}
	.st7{clip-path:url(#XMLID_5_);fill:#2D2D2D;}
</style>
<title>Body_4_(Shekhtman) 6</title>
<g id="карате">
	<g>
		<defs>
			<path id="XMLID_426_" d="M352.5,243.1c-1.5,0-19.9-3.4-29.4-4.7c-97-14-165.6-8.1-194,1c-4.4,0.7-2.1-6.2-0.4-12
				c5.2-18.3,217.7-17.8,224.2,4.2C353.3,234.8,354,243.1,352.5,243.1z"/>
		</defs>
		<use xlink:href="#XMLID_426_"  style="overflow:visible;fill:#1E1E1E;"/>
		<clipPath id="XMLID_2_">
			<use xlink:href="#XMLID_426_"  style="overflow:visible;"/>
		</clipPath>
		<polygon class="st0" points="176,206.6 169.7,244 265.1,247.3 251.8,203.3 		"/>
		
			<rect x="113.3" y="205.8" transform="matrix(0.9963 8.539999e-02 -8.539999e-02 0.9963 20.0533 -10.3309)" class="st1" width="34.9" height="46.9"/>
		<polygon class="st1" points="350.7,217.7 288.1,211.6 300.2,240.2 354.5,247.3 		"/>
		
			<use xlink:href="#XMLID_426_"  style="overflow:visible;fill:none;stroke:#000000;stroke-width:0.9921;stroke-linecap:round;stroke-linejoin:round;stroke-miterlimit:10;"/>
	</g>
	<g>
		<defs>
			<path id="XMLID_425_" d="M207.7,211.1c0,0-20.7,13.8-23.4,24.5c-2.6,10.8-3,79.6-3,79.6l15.3,5.9c0,0,2.1-57,1.3-62.5
				c-0.8-5.5-4.7-9.6-3.8-15.7s30.9-22.8,30.9-22.8L207.7,211.1z"/>
		</defs>
		<use xlink:href="#XMLID_425_"  style="overflow:visible;fill:#1E1E1E;"/>
		<clipPath id="XMLID_3_">
			<use xlink:href="#XMLID_425_"  style="overflow:visible;"/>
		</clipPath>
		<polygon class="st2" points="205.4,259.7 183.8,221.5 179.3,247.8 200.9,272.5 		"/>
		<polygon class="st3" points="184.1,221.5 195.7,249.5 212.8,235.7 208.4,215.2 196.5,204.4 		"/>
		<polygon class="st3" points="176.6,286.3 199.3,307.6 199.3,325.6 177.7,323.4 		"/>
		
			<use xlink:href="#XMLID_425_"  style="overflow:visible;fill:none;stroke:#000000;stroke-width:0.9921;stroke-linecap:round;stroke-linejoin:round;stroke-miterlimit:10;"/>
	</g>
	<g>
		<defs>
			<path id="XMLID_424_" d="M192.7,215.4c0.8-1.9,14.9-10.1,17.7-9.7s29.3,21,30.5,25.2c0.5,1.7,4.3,17.6,6.4,35.3
				c2.9,24.8,4,50.4,4,50.4l-15.1,4.1c0,0,0.1-20.2-0.9-40.9c-0.5-11.2-3.8-18.8-5.2-27.2c-0.3-1.9,1.8-5.9,1.4-9.1
				c-0.3-3.2-1.7-5.8-2.7-7c-7.7-8.7-19.2-7.9-26.8-13.2C194.5,218,192,217.3,192.7,215.4z"/>
		</defs>
		<use xlink:href="#XMLID_424_"  style="overflow:visible;fill:#1E1E1E;"/>
		<clipPath id="XMLID_4_">
			<use xlink:href="#XMLID_424_"  style="overflow:visible;"/>
		</clipPath>
		<polygon class="st4" points="222.8,263.1 244.4,224.9 246.9,241.2 227.2,275.8 		"/>
		<polygon class="st4" points="186.5,214.3 209.5,200.2 217,204.9 193.2,221.5 		"/>
		<polygon class="st5" points="229.7,297.1 255.2,275 259.6,315.6 257.7,338.3 227.8,331.7 		"/>
		<polygon class="st5" points="227.8,260.3 246.1,223.8 224.7,216 222.8,241.2 		"/>
		
			<use xlink:href="#XMLID_424_"  style="overflow:visible;fill:none;stroke:#000000;stroke-width:0.9921;stroke-linecap:round;stroke-linejoin:round;stroke-miterlimit:10;"/>
	</g>
	<g>
		<defs>
			<path id="XMLID_430_" d="M213.1,205c1.3-0.8,16.9,10.9,18,12.6c1.1,1.7-4.3,16.8-5.8,17.9c-1.5,1.1-20.5,2-22,1.5
				C201.7,236.3,211.7,205.7,213.1,205z"/>
		</defs>
		<use xlink:href="#XMLID_430_"  style="overflow:visible;fill:#1E1E1E;"/>
		<clipPath id="XMLID_5_">
			<use xlink:href="#XMLID_430_"  style="overflow:visible;"/>
		</clipPath>
		<path class="st6" d="M235.8,216.6l-25.7-17.2l-5,18.5c0,0,11.1,9.1,10.2,12.5s-13.8,1.1-13.8,1.1l-1.7,9.1l26.8,1.4L235.8,216.6z"
			/>
		<polygon class="st7" points="235,221.3 210.2,203 207.7,210.3 229.6,231 		"/>
		
			<use xlink:href="#XMLID_430_"  style="overflow:visible;fill:none;stroke:#000000;stroke-width:0.9921;stroke-linecap:round;stroke-linejoin:round;stroke-miterlimit:10;"/>
	</g>
</g>
</svg>
