<?xml version="1.0" encoding="utf-8"?>
<!-- Generator: Adobe Illustrator 22.1.0, SVG Export Plug-In . SVG Version: 6.00 Build 0)  -->
<svg version="1.1" id="Слой_1" xmlns="http://www.w3.org/2000/svg" xmlns:xlink="http://www.w3.org/1999/xlink" x="0px" y="0px"
	 viewBox="0 0 480 480" style="enable-background:new 0 0 480 480;" xml:space="preserve">
<style type="text/css">
	.st0{fill:#46679C;stroke:#000000;stroke-width:1.0006;stroke-linecap:round;stroke-linejoin:round;stroke-miterlimit:10;}
	.st1{fill:#23376B;stroke:#000000;stroke-width:1.0006;stroke-linecap:round;stroke-linejoin:round;stroke-miterlimit:10;}
	.st2{fill:none;stroke:#000000;stroke-width:1.0006;stroke-linecap:round;stroke-linejoin:round;stroke-miterlimit:10;}
	.st3{fill:#73591C;stroke:#000000;stroke-width:1.0006;stroke-linecap:round;stroke-linejoin:round;stroke-miterlimit:10;}
</style>
<title>Body_4_(Shekhtman) 5</title>
<g id="loot">
	<g id="_x36__x5F_cloak_1_">
		<path class="st0" d="M189.3,142.9c-11.1,13.7-22.8,30.5-33,50.9c-30.4,60.6-31.5,118.6-29.3,151.5c5.5,1.8,10.1,3.4,13.2,4.5
			c29.1,10.1,37.1,14.5,50.4,13.7c4.3-0.3,4.3-0.8,10.5-1.2c11.9-0.8,20.1,0.5,26.1,1.2c31.8,3.7,59.5-2.3,65.3-5.6
			c0.4-0.2,1.6-1,3.4-1.3c4.6-0.8,8.4,2,10.4,3.2c2.6,1.5,5.3,1.9,27.8-1.9c5.6-0.9,12.2-2.1,19.5-3.5c-15.6-36-25.3-66-31.2-86.8
			c-10-35-12.5-54.3-26.1-82.4c-12.2-25.2-26.7-43.6-36.8-55.1L189.3,142.9z"/>
		<path class="st1" d="M259.5,130c19.3,15.1,32.8,43.9,42,66.5c18,44.4,31.4,96,52.2,157.8c-7.2,4.3-14.5,8.5-21.7,12.8
			c-1-13.2-2.8-32-6.9-54.3c-12-65.4-33.9-111.5-41.4-126.5c-7.1-14.2-17.5-33.2-32.2-54.7C253.4,130.7,256.9,127.9,259.5,130z"/>
	</g>
	<g id="_x36__x5F_cloak">
		<path class="st1" d="M183.9,130.5c-0.1,0.1-1.3,1.5-0.8,3.3c0.4,1.5,1.8,2.5,3.5,2.6c-2,1.3-3,3.5-2.7,5.6
			c0.3,2.1,1.8,3.3,2.2,3.5l-2.2,2.8c2.4,0.8,5.3,1.4,8.6,1.7c9.9,0.8,17.7-2.5,21.8-4.7l0.9,1.2l26.1-4.8l15.9-9.3l2.4-1.5
			l-2.7-2.9c1.2-1.2,1.6-3,0.9-4.5c-0.6-1.4-2-2.4-3.6-2.4c0.2-0.6,0.8-2.5,0-4.8c-0.7-1.8-1.9-2.9-2.5-3.3
			c-5.8,4.6-16.2,11.5-30.7,15.6C205,132.9,191.4,131.7,183.9,130.5z"/>
		<path class="st2" d="M186.6,136.4c3.5-0.5,8.9-1,15.4-1c8,0,11.4,0.7,15.9,0.7c5.8,0,14.1-1.4,24.5-7.6"/>
		<path class="st2" d="M256.8,128c-2.4,0.6-5.9,1.7-10,3.6c-5.3,2.4-8.1,4.5-11.3,6.3c-3.9,2.2-9.9,4.8-18.5,5.9"/>
		<circle class="st3" cx="201.7" cy="140.2" r="6.4"/>
		<circle class="st3" cx="201.7" cy="140.2" r="3.8"/>
	</g>
</g>
</svg>
